%TF.GenerationSoftware,KiCad,Pcbnew,9.0.2*%
%TF.CreationDate,2026-01-14T14:42:49+01:00*%
%TF.ProjectId,Incrementer V2 - Register,496e6372-656d-4656-9e74-657220563220,rev?*%
%TF.SameCoordinates,Original*%
%TF.FileFunction,Copper,L2,Bot*%
%TF.FilePolarity,Positive*%
%FSLAX46Y46*%
G04 Gerber Fmt 4.6, Leading zero omitted, Abs format (unit mm)*
G04 Created by KiCad (PCBNEW 9.0.2) date 2026-01-14 14:42:49*
%MOMM*%
%LPD*%
G01*
G04 APERTURE LIST*
G04 Aperture macros list*
%AMRoundRect*
0 Rectangle with rounded corners*
0 $1 Rounding radius*
0 $2 $3 $4 $5 $6 $7 $8 $9 X,Y pos of 4 corners*
0 Add a 4 corners polygon primitive as box body*
4,1,4,$2,$3,$4,$5,$6,$7,$8,$9,$2,$3,0*
0 Add four circle primitives for the rounded corners*
1,1,$1+$1,$2,$3*
1,1,$1+$1,$4,$5*
1,1,$1+$1,$6,$7*
1,1,$1+$1,$8,$9*
0 Add four rect primitives between the rounded corners*
20,1,$1+$1,$2,$3,$4,$5,0*
20,1,$1+$1,$4,$5,$6,$7,0*
20,1,$1+$1,$6,$7,$8,$9,0*
20,1,$1+$1,$8,$9,$2,$3,0*%
G04 Aperture macros list end*
%TA.AperFunction,ComponentPad*%
%ADD10R,1.700000X1.700000*%
%TD*%
%TA.AperFunction,ComponentPad*%
%ADD11C,1.700000*%
%TD*%
%TA.AperFunction,ComponentPad*%
%ADD12RoundRect,0.250000X0.550000X0.550000X-0.550000X0.550000X-0.550000X-0.550000X0.550000X-0.550000X0*%
%TD*%
%TA.AperFunction,ComponentPad*%
%ADD13C,1.600000*%
%TD*%
%TA.AperFunction,ComponentPad*%
%ADD14R,1.800000X1.800000*%
%TD*%
%TA.AperFunction,ComponentPad*%
%ADD15C,1.800000*%
%TD*%
%TA.AperFunction,ComponentPad*%
%ADD16RoundRect,0.250000X-0.550000X0.550000X-0.550000X-0.550000X0.550000X-0.550000X0.550000X0.550000X0*%
%TD*%
%TA.AperFunction,ComponentPad*%
%ADD17R,1.600000X1.800000*%
%TD*%
%TA.AperFunction,ComponentPad*%
%ADD18C,1.400000*%
%TD*%
%TA.AperFunction,ComponentPad*%
%ADD19R,1.800000X1.600000*%
%TD*%
%TA.AperFunction,ViaPad*%
%ADD20C,0.600000*%
%TD*%
%TA.AperFunction,Conductor*%
%ADD21C,0.200000*%
%TD*%
G04 APERTURE END LIST*
D10*
%TO.P,J2,1,Pin_1*%
%TO.N,A1*%
X192600000Y75350000D03*
D11*
%TO.P,J2,2,Pin_2*%
%TO.N,A2*%
X192600000Y77890000D03*
%TO.P,J2,3,Pin_3*%
%TO.N,A3*%
X192600000Y80430000D03*
%TO.P,J2,4,Pin_4*%
%TO.N,A4*%
X192600000Y82970000D03*
%TO.P,J2,5,Pin_5*%
%TO.N,A5*%
X192600000Y85510000D03*
%TO.P,J2,6,Pin_6*%
%TO.N,A6*%
X192600000Y88050000D03*
%TO.P,J2,7,Pin_7*%
%TO.N,A7*%
X192600000Y90590000D03*
%TO.P,J2,8,Pin_8*%
%TO.N,A8*%
X192600000Y93130000D03*
%TO.P,J2,9,Pin_9*%
%TO.N,A9*%
X192600000Y95670000D03*
%TO.P,J2,10,Pin_10*%
%TO.N,A10*%
X192600000Y98210000D03*
%TO.P,J2,11,Pin_11*%
%TO.N,A11*%
X192600000Y100750000D03*
%TO.P,J2,12,Pin_12*%
%TO.N,A12*%
X192600000Y103290000D03*
%TO.P,J2,13,Pin_13*%
%TO.N,A13*%
X192600000Y105830000D03*
%TO.P,J2,14,Pin_14*%
%TO.N,A14*%
X192600000Y108370000D03*
%TO.P,J2,15,Pin_15*%
%TO.N,A15*%
X192600000Y110910000D03*
%TO.P,J2,16,Pin_16*%
%TO.N,GND*%
X192600000Y113450000D03*
%TD*%
D10*
%TO.P,J1,1,Pin_1*%
%TO.N,Result1*%
X31200000Y75350000D03*
D11*
%TO.P,J1,2,Pin_2*%
%TO.N,Result2*%
X31200000Y77890000D03*
%TO.P,J1,3,Pin_3*%
%TO.N,Result3*%
X31200000Y80430000D03*
%TO.P,J1,4,Pin_4*%
%TO.N,Result4*%
X31200000Y82970000D03*
%TO.P,J1,5,Pin_5*%
%TO.N,Result5*%
X31200000Y85510000D03*
%TO.P,J1,6,Pin_6*%
%TO.N,Result6*%
X31200000Y88050000D03*
%TO.P,J1,7,Pin_7*%
%TO.N,Result7*%
X31200000Y90590000D03*
%TO.P,J1,8,Pin_8*%
%TO.N,Result8*%
X31200000Y93130000D03*
%TO.P,J1,9,Pin_9*%
%TO.N,Result9*%
X31200000Y95670000D03*
%TO.P,J1,10,Pin_10*%
%TO.N,Result10*%
X31200000Y98210000D03*
%TO.P,J1,11,Pin_11*%
%TO.N,Result11*%
X31200000Y100750000D03*
%TO.P,J1,12,Pin_12*%
%TO.N,Result12*%
X31200000Y103290000D03*
%TO.P,J1,13,Pin_13*%
%TO.N,Result13*%
X31200000Y105830000D03*
%TO.P,J1,14,Pin_14*%
%TO.N,Result14*%
X31200000Y108370000D03*
%TO.P,J1,15,Pin_15*%
%TO.N,Result15*%
X31200000Y110910000D03*
%TO.P,J1,16,Pin_16*%
%TO.N,+5V*%
X31200000Y113450000D03*
%TD*%
D12*
%TO.P,D40,1,K*%
%TO.N,SInc*%
X133802500Y122910000D03*
D13*
%TO.P,D40,2,A*%
%TO.N,GND*%
X126182500Y122910000D03*
%TD*%
D12*
%TO.P,D39,1,K*%
%TO.N,GND*%
X133802500Y148610000D03*
D13*
%TO.P,D39,2,A*%
%TO.N,Net-(D39-A)*%
X126182500Y148610000D03*
%TD*%
D14*
%TO.P,D37,1,K*%
%TO.N,GND*%
X108515892Y182510000D03*
D15*
%TO.P,D37,2,A*%
%TO.N,Net-(D37-A)*%
X108515892Y179970000D03*
%TD*%
D14*
%TO.P,D43,1,K*%
%TO.N,GND*%
X101045892Y182510000D03*
D15*
%TO.P,D43,2,A*%
%TO.N,Net-(D43-A)*%
X101045892Y179970000D03*
%TD*%
D16*
%TO.P,D38,1,K*%
%TO.N,SInc*%
X157988750Y71957143D03*
D13*
%TO.P,D38,2,A*%
%TO.N,GND*%
X157988750Y64337143D03*
%TD*%
D12*
%TO.P,D41,1,K*%
%TO.N,LInc*%
X82888750Y40690000D03*
D13*
%TO.P,D41,2,A*%
%TO.N,GND*%
X75268750Y40690000D03*
%TD*%
D12*
%TO.P,D29,1,K*%
%TO.N,SInc*%
X121506250Y122910000D03*
D13*
%TO.P,D29,2,A*%
%TO.N,GND*%
X113886250Y122910000D03*
%TD*%
D12*
%TO.P,D31,1,K*%
%TO.N,GND*%
X121506250Y148610000D03*
D13*
%TO.P,D31,2,A*%
%TO.N,Net-(D31-A)*%
X113886250Y148610000D03*
%TD*%
D16*
%TO.P,D28,1,K*%
%TO.N,SInc*%
X157988750Y59708571D03*
D13*
%TO.P,D28,2,A*%
%TO.N,GND*%
X157988750Y52088571D03*
%TD*%
D12*
%TO.P,D30,1,K*%
%TO.N,LInc*%
X70658750Y40690000D03*
D13*
%TO.P,D30,2,A*%
%TO.N,GND*%
X63038750Y40690000D03*
%TD*%
D14*
%TO.P,D27,1,K*%
%TO.N,GND*%
X115985892Y182510000D03*
D15*
%TO.P,D27,2,A*%
%TO.N,Net-(D27-A)*%
X115985892Y179970000D03*
%TD*%
D12*
%TO.P,D24,1,K*%
%TO.N,SInc*%
X109210000Y122910000D03*
D13*
%TO.P,D24,2,A*%
%TO.N,GND*%
X101590000Y122910000D03*
%TD*%
D12*
%TO.P,D23,1,K*%
%TO.N,GND*%
X109210000Y148610000D03*
D13*
%TO.P,D23,2,A*%
%TO.N,Net-(D23-A)*%
X101590000Y148610000D03*
%TD*%
D12*
%TO.P,D25,1,K*%
%TO.N,LInc*%
X58598750Y40690000D03*
D13*
%TO.P,D25,2,A*%
%TO.N,GND*%
X50978750Y40690000D03*
%TD*%
D12*
%TO.P,D13,1,K*%
%TO.N,GND*%
X84617500Y148610000D03*
D13*
%TO.P,D13,2,A*%
%TO.N,Net-(D13-A)*%
X76997500Y148610000D03*
%TD*%
D16*
%TO.P,D22,1,K*%
%TO.N,SInc*%
X157988750Y47460000D03*
D13*
%TO.P,D22,2,A*%
%TO.N,GND*%
X157988750Y39840000D03*
%TD*%
D12*
%TO.P,D15,1,K*%
%TO.N,SInc*%
X96913750Y122910000D03*
D13*
%TO.P,D15,2,A*%
%TO.N,GND*%
X89293750Y122910000D03*
%TD*%
D12*
%TO.P,D16,1,K*%
%TO.N,GND*%
X96913750Y148610000D03*
D13*
%TO.P,D16,2,A*%
%TO.N,Net-(D16-A)*%
X89293750Y148610000D03*
%TD*%
D14*
%TO.P,D17,1,K*%
%TO.N,GND*%
X123245892Y182715000D03*
D15*
%TO.P,D17,2,A*%
%TO.N,Net-(D17-A)*%
X123245892Y180175000D03*
%TD*%
D14*
%TO.P,D14,1,K*%
%TO.N,GND*%
X130715892Y182715000D03*
D15*
%TO.P,D14,2,A*%
%TO.N,Net-(D14-A)*%
X130715892Y180175000D03*
%TD*%
D14*
%TO.P,D6,1,K*%
%TO.N,GND*%
X145655892Y182715000D03*
D15*
%TO.P,D6,2,A*%
%TO.N,Net-(D6-A)*%
X145655892Y180175000D03*
%TD*%
D12*
%TO.P,D8,1,K*%
%TO.N,GND*%
X72321250Y148610000D03*
D13*
%TO.P,D8,2,A*%
%TO.N,Net-(D8-A)*%
X64701250Y148610000D03*
%TD*%
D12*
%TO.P,D7,1,K*%
%TO.N,SInc*%
X72321250Y122910000D03*
D13*
%TO.P,D7,2,A*%
%TO.N,GND*%
X64701250Y122910000D03*
%TD*%
D14*
%TO.P,D9,1,K*%
%TO.N,GND*%
X138185892Y182715000D03*
D15*
%TO.P,D9,2,A*%
%TO.N,Net-(D9-A)*%
X138185892Y180175000D03*
%TD*%
D12*
%TO.P,D10,1,K*%
%TO.N,SInc*%
X84617500Y122910000D03*
D13*
%TO.P,D10,2,A*%
%TO.N,GND*%
X76997500Y122910000D03*
%TD*%
D12*
%TO.P,D2,1,K*%
%TO.N,LInc*%
X47728750Y148610000D03*
D13*
%TO.P,D2,2,A*%
%TO.N,GND*%
X40108750Y148610000D03*
%TD*%
D12*
%TO.P,D4,1,K*%
%TO.N,GND*%
X60025000Y148610000D03*
D13*
%TO.P,D4,2,A*%
%TO.N,Net-(D4-A)*%
X52405000Y148610000D03*
%TD*%
D12*
%TO.P,D5,1,K*%
%TO.N,SInc*%
X60025000Y122910000D03*
D13*
%TO.P,D5,2,A*%
%TO.N,GND*%
X52405000Y122910000D03*
%TD*%
%TO.P,K1,11*%
%TO.N,+5V*%
X40108750Y137320000D03*
%TO.P,K1,12*%
%TO.N,Hold*%
X40108750Y132240000D03*
%TO.P,K1,14*%
%TO.N,unconnected-(K1-Pad14)*%
X40108750Y127160000D03*
%TO.P,K1,21*%
%TO.N,Hold*%
X47728750Y137320000D03*
%TO.P,K1,22*%
%TO.N,unconnected-(K1-Pad22)*%
X47728750Y132240000D03*
%TO.P,K1,24*%
%TO.N,SInc*%
X47728750Y127160000D03*
D17*
%TO.P,K1,A1*%
%TO.N,GND*%
X40108750Y144940000D03*
D13*
%TO.P,K1,A2*%
%TO.N,LInc*%
X47728750Y144940000D03*
%TD*%
%TO.P,K2,11*%
%TO.N,Hold*%
X52405000Y137320000D03*
%TO.P,K2,12*%
%TO.N,unconnected-(K2-Pad12)*%
X52405000Y132240000D03*
%TO.P,K2,14*%
%TO.N,Net-(D4-A)*%
X52405000Y127160000D03*
%TO.P,K2,21*%
%TO.N,unconnected-(K2-Pad21)*%
X60025000Y137320000D03*
%TO.P,K2,22*%
%TO.N,unconnected-(K2-Pad22)*%
X60025000Y132240000D03*
%TO.P,K2,24*%
%TO.N,unconnected-(K2-Pad24)*%
X60025000Y127160000D03*
D17*
%TO.P,K2,A1*%
%TO.N,Net-(D4-A)*%
X52405000Y144940000D03*
D13*
%TO.P,K2,A2*%
%TO.N,GND*%
X60025000Y144940000D03*
%TD*%
%TO.P,K3,11*%
%TO.N,R1*%
X52405000Y110920000D03*
%TO.P,K3,12*%
%TO.N,unconnected-(K3-Pad12)*%
X52405000Y105840000D03*
%TO.P,K3,14*%
%TO.N,Net-(D4-A)*%
X52405000Y100760000D03*
%TO.P,K3,21*%
%TO.N,unconnected-(K3-Pad21)*%
X60025000Y110920000D03*
%TO.P,K3,22*%
%TO.N,unconnected-(K3-Pad22)*%
X60025000Y105840000D03*
%TO.P,K3,24*%
%TO.N,unconnected-(K3-Pad24)*%
X60025000Y100760000D03*
D17*
%TO.P,K3,A1*%
%TO.N,GND*%
X52405000Y118540000D03*
D13*
%TO.P,K3,A2*%
%TO.N,SInc*%
X60025000Y118540000D03*
%TD*%
%TO.P,K4,11*%
%TO.N,R2*%
X64701250Y110920000D03*
%TO.P,K4,12*%
%TO.N,unconnected-(K4-Pad12)*%
X64701250Y105840000D03*
%TO.P,K4,14*%
%TO.N,Net-(D8-A)*%
X64701250Y100760000D03*
%TO.P,K4,21*%
%TO.N,unconnected-(K4-Pad21)*%
X72321250Y110920000D03*
%TO.P,K4,22*%
%TO.N,unconnected-(K4-Pad22)*%
X72321250Y105840000D03*
%TO.P,K4,24*%
%TO.N,unconnected-(K4-Pad24)*%
X72321250Y100760000D03*
D17*
%TO.P,K4,A1*%
%TO.N,GND*%
X64701250Y118540000D03*
D13*
%TO.P,K4,A2*%
%TO.N,SInc*%
X72321250Y118540000D03*
%TD*%
D14*
%TO.P,D102,1,K*%
%TO.N,GND*%
X41485892Y182285000D03*
D15*
%TO.P,D102,2,A*%
%TO.N,Net-(D102-A)*%
X41485892Y179745000D03*
%TD*%
D12*
%TO.P,D101,1,K*%
%TO.N,SInc*%
X146038750Y70740000D03*
D13*
%TO.P,D101,2,A*%
%TO.N,GND*%
X138418750Y70740000D03*
%TD*%
D12*
%TO.P,D100,1,K*%
%TO.N,GND*%
X146038750Y96040000D03*
D13*
%TO.P,D100,2,A*%
%TO.N,Net-(D100-A)*%
X138418750Y96040000D03*
%TD*%
D14*
%TO.P,D99,1,K*%
%TO.N,GND*%
X48955892Y182285000D03*
D15*
%TO.P,D99,2,A*%
%TO.N,Net-(D99-A)*%
X48955892Y179745000D03*
%TD*%
D14*
%TO.P,D92,1,K*%
%TO.N,GND*%
X56425892Y182285000D03*
D15*
%TO.P,D92,2,A*%
%TO.N,Net-(D92-A)*%
X56425892Y179745000D03*
%TD*%
D12*
%TO.P,D94,1,K*%
%TO.N,GND*%
X133802500Y96040000D03*
D13*
%TO.P,D94,2,A*%
%TO.N,Net-(D94-A)*%
X126182500Y96040000D03*
%TD*%
D12*
%TO.P,D93,1,K*%
%TO.N,SInc*%
X133802500Y70740000D03*
D13*
%TO.P,D93,2,A*%
%TO.N,GND*%
X126182500Y70740000D03*
%TD*%
D12*
%TO.P,D91,1,K*%
%TO.N,SInc*%
X121506250Y70740000D03*
D13*
%TO.P,D91,2,A*%
%TO.N,GND*%
X113886250Y70740000D03*
%TD*%
D12*
%TO.P,D90,1,K*%
%TO.N,GND*%
X121506250Y96040000D03*
D13*
%TO.P,D90,2,A*%
%TO.N,Net-(D90-A)*%
X113886250Y96040000D03*
%TD*%
D12*
%TO.P,D84,1,K*%
%TO.N,GND*%
X109210000Y96040000D03*
D13*
%TO.P,D84,2,A*%
%TO.N,Net-(D84-A)*%
X101590000Y96040000D03*
%TD*%
D12*
%TO.P,D81,1,K*%
%TO.N,LInc*%
X146058750Y40690000D03*
D13*
%TO.P,D81,2,A*%
%TO.N,GND*%
X138438750Y40690000D03*
%TD*%
D12*
%TO.P,D77,1,K*%
%TO.N,SInc*%
X96913750Y70740000D03*
D13*
%TO.P,D77,2,A*%
%TO.N,GND*%
X89293750Y70740000D03*
%TD*%
D12*
%TO.P,D78,1,K*%
%TO.N,GND*%
X94888750Y96040000D03*
D13*
%TO.P,D78,2,A*%
%TO.N,Net-(D78-A)*%
X87268750Y96040000D03*
%TD*%
D16*
%TO.P,D80,1,K*%
%TO.N,SInc*%
X157988750Y133200000D03*
D13*
%TO.P,D80,2,A*%
%TO.N,GND*%
X157988750Y125580000D03*
%TD*%
D14*
%TO.P,D79,1,K*%
%TO.N,GND*%
X71365892Y182285000D03*
D15*
%TO.P,D79,2,A*%
%TO.N,Net-(D79-A)*%
X71365892Y179745000D03*
%TD*%
D14*
%TO.P,D85,1,K*%
%TO.N,GND*%
X63895892Y182285000D03*
D15*
%TO.P,D85,2,A*%
%TO.N,Net-(D85-A)*%
X63895892Y179745000D03*
%TD*%
D12*
%TO.P,D83,1,K*%
%TO.N,SInc*%
X109210000Y70740000D03*
D13*
%TO.P,D83,2,A*%
%TO.N,GND*%
X101590000Y70740000D03*
%TD*%
D14*
%TO.P,D69,1,K*%
%TO.N,GND*%
X78635892Y182510000D03*
D15*
%TO.P,D69,2,A*%
%TO.N,Net-(D69-A)*%
X78635892Y179970000D03*
%TD*%
D12*
%TO.P,D71,1,K*%
%TO.N,LInc*%
X133428750Y40690000D03*
D13*
%TO.P,D71,2,A*%
%TO.N,GND*%
X125808750Y40690000D03*
%TD*%
D12*
%TO.P,D67,1,K*%
%TO.N,SInc*%
X84617500Y70740000D03*
D13*
%TO.P,D67,2,A*%
%TO.N,GND*%
X76997500Y70740000D03*
%TD*%
D16*
%TO.P,D70,1,K*%
%TO.N,SInc*%
X157988750Y120951429D03*
D13*
%TO.P,D70,2,A*%
%TO.N,GND*%
X157988750Y113331429D03*
%TD*%
D12*
%TO.P,D68,1,K*%
%TO.N,GND*%
X84617500Y96040000D03*
D13*
%TO.P,D68,2,A*%
%TO.N,Net-(D68-A)*%
X76997500Y96040000D03*
%TD*%
D14*
%TO.P,D63,1,K*%
%TO.N,GND*%
X86105892Y182510000D03*
D15*
%TO.P,D63,2,A*%
%TO.N,Net-(D63-A)*%
X86105892Y179970000D03*
%TD*%
D12*
%TO.P,D58,1,K*%
%TO.N,SInc*%
X72321250Y70740000D03*
D13*
%TO.P,D58,2,A*%
%TO.N,GND*%
X64701250Y70740000D03*
%TD*%
D12*
%TO.P,D57,1,K*%
%TO.N,GND*%
X72321250Y96040000D03*
D13*
%TO.P,D57,2,A*%
%TO.N,Net-(D57-A)*%
X64701250Y96040000D03*
%TD*%
D16*
%TO.P,D64,1,K*%
%TO.N,SInc*%
X157988750Y108702857D03*
D13*
%TO.P,D64,2,A*%
%TO.N,GND*%
X157988750Y101082857D03*
%TD*%
D12*
%TO.P,D65,1,K*%
%TO.N,LInc*%
X120728750Y40690000D03*
D13*
%TO.P,D65,2,A*%
%TO.N,GND*%
X113108750Y40690000D03*
%TD*%
D16*
%TO.P,D54,1,K*%
%TO.N,SInc*%
X157988750Y96454286D03*
D13*
%TO.P,D54,2,A*%
%TO.N,GND*%
X157988750Y88834286D03*
%TD*%
D12*
%TO.P,D52,1,K*%
%TO.N,GND*%
X146038750Y148610000D03*
D13*
%TO.P,D52,2,A*%
%TO.N,Net-(D52-A)*%
X138418750Y148610000D03*
%TD*%
D16*
%TO.P,D48,1,K*%
%TO.N,SInc*%
X157988750Y84205714D03*
D13*
%TO.P,D48,2,A*%
%TO.N,GND*%
X157988750Y76585714D03*
%TD*%
D14*
%TO.P,D53,1,K*%
%TO.N,GND*%
X93575892Y182510000D03*
D15*
%TO.P,D53,2,A*%
%TO.N,Net-(D53-A)*%
X93575892Y179970000D03*
%TD*%
D12*
%TO.P,D49,1,K*%
%TO.N,SInc*%
X146038750Y122910000D03*
D13*
%TO.P,D49,2,A*%
%TO.N,GND*%
X138418750Y122910000D03*
%TD*%
D12*
%TO.P,D55,1,K*%
%TO.N,LInc*%
X108618750Y40690000D03*
D13*
%TO.P,D55,2,A*%
%TO.N,GND*%
X100998750Y40690000D03*
%TD*%
D12*
%TO.P,D50,1,K*%
%TO.N,LInc*%
X95748750Y40690000D03*
D13*
%TO.P,D50,2,A*%
%TO.N,GND*%
X88128750Y40690000D03*
%TD*%
D18*
%TO.P,R13,1*%
%TO.N,Net-(D79-A)*%
X72940178Y175785000D03*
%TO.P,R13,2*%
%TO.N,Net-(D78-A)*%
X72940178Y168165000D03*
%TD*%
%TO.P,R14,1*%
%TO.N,Net-(D85-A)*%
X65971606Y175785000D03*
%TO.P,R14,2*%
%TO.N,Net-(D84-A)*%
X65971606Y168165000D03*
%TD*%
%TO.P,R16,1*%
%TO.N,Net-(D99-A)*%
X52034463Y175785000D03*
%TO.P,R16,2*%
%TO.N,Net-(D94-A)*%
X52034463Y168165000D03*
%TD*%
%TO.P,R17,1*%
%TO.N,Net-(D102-A)*%
X45065892Y175785000D03*
%TO.P,R17,2*%
%TO.N,Net-(D100-A)*%
X45065892Y168165000D03*
%TD*%
%TO.P,R15,1*%
%TO.N,Net-(D92-A)*%
X59003035Y175785000D03*
%TO.P,R15,2*%
%TO.N,Net-(D90-A)*%
X59003035Y168165000D03*
%TD*%
%TO.P,R12,1*%
%TO.N,Net-(D69-A)*%
X79908749Y175785000D03*
%TO.P,R12,2*%
%TO.N,Net-(D68-A)*%
X79908749Y168165000D03*
%TD*%
%TO.P,R9,1*%
%TO.N,Net-(D43-A)*%
X100814463Y175785000D03*
%TO.P,R9,2*%
%TO.N,Net-(D39-A)*%
X100814463Y168165000D03*
%TD*%
%TO.P,R7,1*%
%TO.N,Net-(D27-A)*%
X114751606Y175785000D03*
%TO.P,R7,2*%
%TO.N,Net-(D23-A)*%
X114751606Y168165000D03*
%TD*%
%TO.P,R5,1*%
%TO.N,Net-(D14-A)*%
X128688749Y175785000D03*
%TO.P,R5,2*%
%TO.N,Net-(D13-A)*%
X128688749Y168165000D03*
%TD*%
%TO.P,R4,1*%
%TO.N,Net-(D9-A)*%
X135657321Y175785000D03*
%TO.P,R4,2*%
%TO.N,Net-(D8-A)*%
X135657321Y168165000D03*
%TD*%
%TO.P,R6,1*%
%TO.N,Net-(D17-A)*%
X121720178Y175785000D03*
%TO.P,R6,2*%
%TO.N,Net-(D16-A)*%
X121720178Y168165000D03*
%TD*%
%TO.P,R10,1*%
%TO.N,Net-(D53-A)*%
X93845892Y175785000D03*
%TO.P,R10,2*%
%TO.N,Net-(D52-A)*%
X93845892Y168165000D03*
%TD*%
%TO.P,R11,1*%
%TO.N,Net-(D63-A)*%
X86877321Y175785000D03*
%TO.P,R11,2*%
%TO.N,Net-(D57-A)*%
X86877321Y168165000D03*
%TD*%
%TO.P,R8,1*%
%TO.N,Net-(D37-A)*%
X107783035Y175785000D03*
%TO.P,R8,2*%
%TO.N,Net-(D31-A)*%
X107783035Y168165000D03*
%TD*%
%TO.P,R3,1*%
%TO.N,Net-(D6-A)*%
X142625892Y175785000D03*
%TO.P,R3,2*%
%TO.N,Net-(D4-A)*%
X142625892Y168165000D03*
%TD*%
D13*
%TO.P,K85,11*%
%TO.N,R15*%
X138418750Y59440000D03*
%TO.P,K85,12*%
%TO.N,unconnected-(K85-Pad12)*%
X138418750Y54360000D03*
%TO.P,K85,14*%
%TO.N,Net-(D100-A)*%
X138418750Y49280000D03*
%TO.P,K85,21*%
%TO.N,unconnected-(K85-Pad21)*%
X146038750Y59440000D03*
%TO.P,K85,22*%
%TO.N,unconnected-(K85-Pad22)*%
X146038750Y54360000D03*
%TO.P,K85,24*%
%TO.N,unconnected-(K85-Pad24)*%
X146038750Y49280000D03*
D17*
%TO.P,K85,A1*%
%TO.N,GND*%
X138418750Y67060000D03*
D13*
%TO.P,K85,A2*%
%TO.N,SInc*%
X146038750Y67060000D03*
%TD*%
%TO.P,K84,11*%
%TO.N,Hold*%
X138418750Y84670000D03*
%TO.P,K84,12*%
%TO.N,unconnected-(K84-Pad12)*%
X138418750Y79590000D03*
%TO.P,K84,14*%
%TO.N,Net-(D100-A)*%
X138418750Y74510000D03*
%TO.P,K84,21*%
%TO.N,unconnected-(K84-Pad21)*%
X146038750Y84670000D03*
%TO.P,K84,22*%
%TO.N,unconnected-(K84-Pad22)*%
X146038750Y79590000D03*
%TO.P,K84,24*%
%TO.N,unconnected-(K84-Pad24)*%
X146038750Y74510000D03*
D17*
%TO.P,K84,A1*%
%TO.N,Net-(D100-A)*%
X138418750Y92290000D03*
D13*
%TO.P,K84,A2*%
%TO.N,GND*%
X146038750Y92290000D03*
%TD*%
%TO.P,K78,11*%
%TO.N,R14*%
X126182500Y59440000D03*
%TO.P,K78,12*%
%TO.N,unconnected-(K78-Pad12)*%
X126182500Y54360000D03*
%TO.P,K78,14*%
%TO.N,Net-(D94-A)*%
X126182500Y49280000D03*
%TO.P,K78,21*%
%TO.N,unconnected-(K78-Pad21)*%
X133802500Y59440000D03*
%TO.P,K78,22*%
%TO.N,unconnected-(K78-Pad22)*%
X133802500Y54360000D03*
%TO.P,K78,24*%
%TO.N,unconnected-(K78-Pad24)*%
X133802500Y49280000D03*
D17*
%TO.P,K78,A1*%
%TO.N,GND*%
X126182500Y67060000D03*
D13*
%TO.P,K78,A2*%
%TO.N,SInc*%
X133802500Y67060000D03*
%TD*%
%TO.P,K77,11*%
%TO.N,R13*%
X113886250Y59440000D03*
%TO.P,K77,12*%
%TO.N,unconnected-(K77-Pad12)*%
X113886250Y54360000D03*
%TO.P,K77,14*%
%TO.N,Net-(D90-A)*%
X113886250Y49280000D03*
%TO.P,K77,21*%
%TO.N,unconnected-(K77-Pad21)*%
X121506250Y59440000D03*
%TO.P,K77,22*%
%TO.N,unconnected-(K77-Pad22)*%
X121506250Y54360000D03*
%TO.P,K77,24*%
%TO.N,unconnected-(K77-Pad24)*%
X121506250Y49280000D03*
D17*
%TO.P,K77,A1*%
%TO.N,GND*%
X113886250Y67060000D03*
D13*
%TO.P,K77,A2*%
%TO.N,SInc*%
X121506250Y67060000D03*
%TD*%
%TO.P,K76,11*%
%TO.N,Hold*%
X113886250Y84670000D03*
%TO.P,K76,12*%
%TO.N,unconnected-(K76-Pad12)*%
X113886250Y79590000D03*
%TO.P,K76,14*%
%TO.N,Net-(D90-A)*%
X113886250Y74510000D03*
%TO.P,K76,21*%
%TO.N,unconnected-(K76-Pad21)*%
X121506250Y84670000D03*
%TO.P,K76,22*%
%TO.N,unconnected-(K76-Pad22)*%
X121506250Y79590000D03*
%TO.P,K76,24*%
%TO.N,unconnected-(K76-Pad24)*%
X121506250Y74510000D03*
D17*
%TO.P,K76,A1*%
%TO.N,Net-(D90-A)*%
X113886250Y92290000D03*
D13*
%TO.P,K76,A2*%
%TO.N,GND*%
X121506250Y92290000D03*
%TD*%
%TO.P,K70,11*%
%TO.N,R12*%
X101590000Y59440000D03*
%TO.P,K70,12*%
%TO.N,unconnected-(K70-Pad12)*%
X101590000Y54360000D03*
%TO.P,K70,14*%
%TO.N,Net-(D84-A)*%
X101590000Y49280000D03*
%TO.P,K70,21*%
%TO.N,unconnected-(K70-Pad21)*%
X109210000Y59440000D03*
%TO.P,K70,22*%
%TO.N,unconnected-(K70-Pad22)*%
X109210000Y54360000D03*
%TO.P,K70,24*%
%TO.N,unconnected-(K70-Pad24)*%
X109210000Y49280000D03*
D17*
%TO.P,K70,A1*%
%TO.N,GND*%
X101590000Y67060000D03*
D13*
%TO.P,K70,A2*%
%TO.N,SInc*%
X109210000Y67060000D03*
%TD*%
%TO.P,K71,11*%
%TO.N,Hold*%
X101590000Y84670000D03*
%TO.P,K71,12*%
%TO.N,unconnected-(K71-Pad12)*%
X101590000Y79590000D03*
%TO.P,K71,14*%
%TO.N,Net-(D84-A)*%
X101590000Y74510000D03*
%TO.P,K71,21*%
%TO.N,unconnected-(K71-Pad21)*%
X109210000Y84670000D03*
%TO.P,K71,22*%
%TO.N,unconnected-(K71-Pad22)*%
X109210000Y79590000D03*
%TO.P,K71,24*%
%TO.N,unconnected-(K71-Pad24)*%
X109210000Y74510000D03*
D17*
%TO.P,K71,A1*%
%TO.N,Net-(D84-A)*%
X101590000Y92290000D03*
D13*
%TO.P,K71,A2*%
%TO.N,GND*%
X109210000Y92290000D03*
%TD*%
%TO.P,K79,11*%
%TO.N,Hold*%
X126182500Y84670000D03*
%TO.P,K79,12*%
%TO.N,unconnected-(K79-Pad12)*%
X126182500Y79590000D03*
%TO.P,K79,14*%
%TO.N,Net-(D94-A)*%
X126182500Y74510000D03*
%TO.P,K79,21*%
%TO.N,unconnected-(K79-Pad21)*%
X133802500Y84670000D03*
%TO.P,K79,22*%
%TO.N,unconnected-(K79-Pad22)*%
X133802500Y79590000D03*
%TO.P,K79,24*%
%TO.N,unconnected-(K79-Pad24)*%
X133802500Y74510000D03*
D17*
%TO.P,K79,A1*%
%TO.N,Net-(D94-A)*%
X126182500Y92290000D03*
D13*
%TO.P,K79,A2*%
%TO.N,GND*%
X133802500Y92290000D03*
%TD*%
%TO.P,K66,11*%
%TO.N,Hold*%
X89293750Y84670000D03*
%TO.P,K66,12*%
%TO.N,unconnected-(K66-Pad12)*%
X89293750Y79590000D03*
%TO.P,K66,14*%
%TO.N,Net-(D78-A)*%
X89293750Y74510000D03*
%TO.P,K66,21*%
%TO.N,unconnected-(K66-Pad21)*%
X96913750Y84670000D03*
%TO.P,K66,22*%
%TO.N,unconnected-(K66-Pad22)*%
X96913750Y79590000D03*
%TO.P,K66,24*%
%TO.N,unconnected-(K66-Pad24)*%
X96913750Y74510000D03*
D17*
%TO.P,K66,A1*%
%TO.N,Net-(D78-A)*%
X89293750Y92290000D03*
D13*
%TO.P,K66,A2*%
%TO.N,GND*%
X96913750Y92290000D03*
%TD*%
%TO.P,K67,11*%
%TO.N,R15*%
X169178750Y125580000D03*
%TO.P,K67,12*%
%TO.N,unconnected-(K67-Pad12)*%
X174258750Y125580000D03*
%TO.P,K67,14*%
%TO.N,A15*%
X179338750Y125580000D03*
%TO.P,K67,21*%
%TO.N,unconnected-(K67-Pad21)*%
X169178750Y133200000D03*
%TO.P,K67,22*%
%TO.N,unconnected-(K67-Pad22)*%
X174258750Y133200000D03*
%TO.P,K67,24*%
%TO.N,unconnected-(K67-Pad24)*%
X179338750Y133200000D03*
D19*
%TO.P,K67,A1*%
%TO.N,GND*%
X161558750Y125580000D03*
D13*
%TO.P,K67,A2*%
%TO.N,SInc*%
X161558750Y133200000D03*
%TD*%
%TO.P,K68,11*%
%TO.N,R15*%
X138918750Y28330000D03*
%TO.P,K68,12*%
%TO.N,unconnected-(K68-Pad12)*%
X138918750Y23250000D03*
%TO.P,K68,14*%
%TO.N,Result15*%
X138918750Y18170000D03*
%TO.P,K68,21*%
%TO.N,unconnected-(K68-Pad21)*%
X146538750Y28330000D03*
%TO.P,K68,22*%
%TO.N,unconnected-(K68-Pad22)*%
X146538750Y23250000D03*
%TO.P,K68,24*%
%TO.N,unconnected-(K68-Pad24)*%
X146538750Y18170000D03*
D17*
%TO.P,K68,A1*%
%TO.N,GND*%
X138918750Y35950000D03*
D13*
%TO.P,K68,A2*%
%TO.N,LInc*%
X146538750Y35950000D03*
%TD*%
%TO.P,K65,11*%
%TO.N,R11*%
X89293750Y59440000D03*
%TO.P,K65,12*%
%TO.N,unconnected-(K65-Pad12)*%
X89293750Y54360000D03*
%TO.P,K65,14*%
%TO.N,Net-(D78-A)*%
X89293750Y49280000D03*
%TO.P,K65,21*%
%TO.N,unconnected-(K65-Pad21)*%
X96913750Y59440000D03*
%TO.P,K65,22*%
%TO.N,unconnected-(K65-Pad22)*%
X96913750Y54360000D03*
%TO.P,K65,24*%
%TO.N,unconnected-(K65-Pad24)*%
X96913750Y49280000D03*
D17*
%TO.P,K65,A1*%
%TO.N,GND*%
X89293750Y67060000D03*
D13*
%TO.P,K65,A2*%
%TO.N,SInc*%
X96913750Y67060000D03*
%TD*%
%TO.P,K58,11*%
%TO.N,R13*%
X169178750Y113331429D03*
%TO.P,K58,12*%
%TO.N,unconnected-(K58-Pad12)*%
X174258750Y113331429D03*
%TO.P,K58,14*%
%TO.N,A13*%
X179338750Y113331429D03*
%TO.P,K58,21*%
%TO.N,R14*%
X169178750Y120951429D03*
%TO.P,K58,22*%
%TO.N,unconnected-(K58-Pad22)*%
X174258750Y120951429D03*
%TO.P,K58,24*%
%TO.N,A14*%
X179338750Y120951429D03*
D19*
%TO.P,K58,A1*%
%TO.N,GND*%
X161558750Y113331429D03*
D13*
%TO.P,K58,A2*%
%TO.N,SInc*%
X161558750Y120951429D03*
%TD*%
%TO.P,K56,11*%
%TO.N,R10*%
X76997500Y59440000D03*
%TO.P,K56,12*%
%TO.N,unconnected-(K56-Pad12)*%
X76997500Y54360000D03*
%TO.P,K56,14*%
%TO.N,Net-(D68-A)*%
X76997500Y49280000D03*
%TO.P,K56,21*%
%TO.N,unconnected-(K56-Pad21)*%
X84617500Y59440000D03*
%TO.P,K56,22*%
%TO.N,unconnected-(K56-Pad22)*%
X84617500Y54360000D03*
%TO.P,K56,24*%
%TO.N,unconnected-(K56-Pad24)*%
X84617500Y49280000D03*
D17*
%TO.P,K56,A1*%
%TO.N,GND*%
X76997500Y67060000D03*
D13*
%TO.P,K56,A2*%
%TO.N,SInc*%
X84617500Y67060000D03*
%TD*%
%TO.P,K54,11*%
%TO.N,R11*%
X113587321Y28330000D03*
%TO.P,K54,12*%
%TO.N,unconnected-(K54-Pad12)*%
X113587321Y23250000D03*
%TO.P,K54,14*%
%TO.N,Result11*%
X113587321Y18170000D03*
%TO.P,K54,21*%
%TO.N,R12*%
X121207321Y28330000D03*
%TO.P,K54,22*%
%TO.N,unconnected-(K54-Pad22)*%
X121207321Y23250000D03*
%TO.P,K54,24*%
%TO.N,Result12*%
X121207321Y18170000D03*
D17*
%TO.P,K54,A1*%
%TO.N,GND*%
X113587321Y35950000D03*
D13*
%TO.P,K54,A2*%
%TO.N,LInc*%
X121207321Y35950000D03*
%TD*%
%TO.P,K57,11*%
%TO.N,Hold*%
X76997500Y84670000D03*
%TO.P,K57,12*%
%TO.N,unconnected-(K57-Pad12)*%
X76997500Y79590000D03*
%TO.P,K57,14*%
%TO.N,Net-(D68-A)*%
X76997500Y74510000D03*
%TO.P,K57,21*%
%TO.N,unconnected-(K57-Pad21)*%
X84617500Y84670000D03*
%TO.P,K57,22*%
%TO.N,unconnected-(K57-Pad22)*%
X84617500Y79590000D03*
%TO.P,K57,24*%
%TO.N,unconnected-(K57-Pad24)*%
X84617500Y74510000D03*
D17*
%TO.P,K57,A1*%
%TO.N,Net-(D68-A)*%
X76997500Y92290000D03*
D13*
%TO.P,K57,A2*%
%TO.N,GND*%
X84617500Y92290000D03*
%TD*%
%TO.P,K59,11*%
%TO.N,R13*%
X126253036Y28330000D03*
%TO.P,K59,12*%
%TO.N,unconnected-(K59-Pad12)*%
X126253036Y23250000D03*
%TO.P,K59,14*%
%TO.N,Result13*%
X126253036Y18170000D03*
%TO.P,K59,21*%
%TO.N,R14*%
X133873036Y28330000D03*
%TO.P,K59,22*%
%TO.N,unconnected-(K59-Pad22)*%
X133873036Y23250000D03*
%TO.P,K59,24*%
%TO.N,Result14*%
X133873036Y18170000D03*
D17*
%TO.P,K59,A1*%
%TO.N,GND*%
X126253036Y35950000D03*
D13*
%TO.P,K59,A2*%
%TO.N,LInc*%
X133873036Y35950000D03*
%TD*%
%TO.P,K53,11*%
%TO.N,R11*%
X169178750Y101082857D03*
%TO.P,K53,12*%
%TO.N,unconnected-(K53-Pad12)*%
X174258750Y101082857D03*
%TO.P,K53,14*%
%TO.N,A11*%
X179338750Y101082857D03*
%TO.P,K53,21*%
%TO.N,R12*%
X169178750Y108702857D03*
%TO.P,K53,22*%
%TO.N,unconnected-(K53-Pad22)*%
X174258750Y108702857D03*
%TO.P,K53,24*%
%TO.N,A12*%
X179338750Y108702857D03*
D19*
%TO.P,K53,A1*%
%TO.N,GND*%
X161558750Y101082857D03*
D13*
%TO.P,K53,A2*%
%TO.N,SInc*%
X161558750Y108702857D03*
%TD*%
%TO.P,K48,11*%
%TO.N,R9*%
X64701250Y59440000D03*
%TO.P,K48,12*%
%TO.N,unconnected-(K48-Pad12)*%
X64701250Y54360000D03*
%TO.P,K48,14*%
%TO.N,Net-(D57-A)*%
X64701250Y49280000D03*
%TO.P,K48,21*%
%TO.N,unconnected-(K48-Pad21)*%
X72321250Y59440000D03*
%TO.P,K48,22*%
%TO.N,unconnected-(K48-Pad22)*%
X72321250Y54360000D03*
%TO.P,K48,24*%
%TO.N,unconnected-(K48-Pad24)*%
X72321250Y49280000D03*
D17*
%TO.P,K48,A1*%
%TO.N,GND*%
X64701250Y67060000D03*
D13*
%TO.P,K48,A2*%
%TO.N,SInc*%
X72321250Y67060000D03*
%TD*%
%TO.P,K47,11*%
%TO.N,Hold*%
X64701250Y84670000D03*
%TO.P,K47,12*%
%TO.N,unconnected-(K47-Pad12)*%
X64701250Y79590000D03*
%TO.P,K47,14*%
%TO.N,Net-(D57-A)*%
X64701250Y74510000D03*
%TO.P,K47,21*%
%TO.N,unconnected-(K47-Pad21)*%
X72321250Y84670000D03*
%TO.P,K47,22*%
%TO.N,unconnected-(K47-Pad22)*%
X72321250Y79590000D03*
%TO.P,K47,24*%
%TO.N,unconnected-(K47-Pad24)*%
X72321250Y74510000D03*
D17*
%TO.P,K47,A1*%
%TO.N,Net-(D57-A)*%
X64701250Y92290000D03*
D13*
%TO.P,K47,A2*%
%TO.N,GND*%
X72321250Y92290000D03*
%TD*%
%TO.P,K45,11*%
%TO.N,R9*%
X100921607Y28330000D03*
%TO.P,K45,12*%
%TO.N,unconnected-(K45-Pad12)*%
X100921607Y23250000D03*
%TO.P,K45,14*%
%TO.N,Result9*%
X100921607Y18170000D03*
%TO.P,K45,21*%
%TO.N,R10*%
X108541607Y28330000D03*
%TO.P,K45,22*%
%TO.N,unconnected-(K45-Pad22)*%
X108541607Y23250000D03*
%TO.P,K45,24*%
%TO.N,Result10*%
X108541607Y18170000D03*
D17*
%TO.P,K45,A1*%
%TO.N,GND*%
X100921607Y35950000D03*
D13*
%TO.P,K45,A2*%
%TO.N,LInc*%
X108541607Y35950000D03*
%TD*%
%TO.P,K43,11*%
%TO.N,Hold*%
X138418750Y137320000D03*
%TO.P,K43,12*%
%TO.N,unconnected-(K43-Pad12)*%
X138418750Y132240000D03*
%TO.P,K43,14*%
%TO.N,Net-(D52-A)*%
X138418750Y127160000D03*
%TO.P,K43,21*%
%TO.N,unconnected-(K43-Pad21)*%
X146038750Y137320000D03*
%TO.P,K43,22*%
%TO.N,unconnected-(K43-Pad22)*%
X146038750Y132240000D03*
%TO.P,K43,24*%
%TO.N,unconnected-(K43-Pad24)*%
X146038750Y127160000D03*
D17*
%TO.P,K43,A1*%
%TO.N,Net-(D52-A)*%
X138418750Y144940000D03*
D13*
%TO.P,K43,A2*%
%TO.N,GND*%
X146038750Y144940000D03*
%TD*%
%TO.P,K41,11*%
%TO.N,R7*%
X88255893Y28330000D03*
%TO.P,K41,12*%
%TO.N,unconnected-(K41-Pad12)*%
X88255893Y23250000D03*
%TO.P,K41,14*%
%TO.N,Result7*%
X88255893Y18170000D03*
%TO.P,K41,21*%
%TO.N,R8*%
X95875893Y28330000D03*
%TO.P,K41,22*%
%TO.N,unconnected-(K41-Pad22)*%
X95875893Y23250000D03*
%TO.P,K41,24*%
%TO.N,Result8*%
X95875893Y18170000D03*
D17*
%TO.P,K41,A1*%
%TO.N,GND*%
X88255893Y35950000D03*
D13*
%TO.P,K41,A2*%
%TO.N,LInc*%
X95875893Y35950000D03*
%TD*%
%TO.P,K39,11*%
%TO.N,R7*%
X169178750Y76585714D03*
%TO.P,K39,12*%
%TO.N,unconnected-(K39-Pad12)*%
X174258750Y76585714D03*
%TO.P,K39,14*%
%TO.N,A7*%
X179338750Y76585714D03*
%TO.P,K39,21*%
%TO.N,R8*%
X169178750Y84205714D03*
%TO.P,K39,22*%
%TO.N,unconnected-(K39-Pad22)*%
X174258750Y84205714D03*
%TO.P,K39,24*%
%TO.N,A8*%
X179338750Y84205714D03*
D19*
%TO.P,K39,A1*%
%TO.N,GND*%
X161558750Y76585714D03*
D13*
%TO.P,K39,A2*%
%TO.N,SInc*%
X161558750Y84205714D03*
%TD*%
%TO.P,K44,11*%
%TO.N,R9*%
X169178750Y88834286D03*
%TO.P,K44,12*%
%TO.N,unconnected-(K44-Pad12)*%
X174258750Y88834286D03*
%TO.P,K44,14*%
%TO.N,A9*%
X179338750Y88834286D03*
%TO.P,K44,21*%
%TO.N,R10*%
X169178750Y96454286D03*
%TO.P,K44,22*%
%TO.N,unconnected-(K44-Pad22)*%
X174258750Y96454286D03*
%TO.P,K44,24*%
%TO.N,A10*%
X179338750Y96454286D03*
D19*
%TO.P,K44,A1*%
%TO.N,GND*%
X161558750Y88834286D03*
D13*
%TO.P,K44,A2*%
%TO.N,SInc*%
X161558750Y96454286D03*
%TD*%
%TO.P,K40,11*%
%TO.N,R8*%
X138418750Y110920000D03*
%TO.P,K40,12*%
%TO.N,unconnected-(K40-Pad12)*%
X138418750Y105840000D03*
%TO.P,K40,14*%
%TO.N,Net-(D52-A)*%
X138418750Y100760000D03*
%TO.P,K40,21*%
%TO.N,unconnected-(K40-Pad21)*%
X146038750Y110920000D03*
%TO.P,K40,22*%
%TO.N,unconnected-(K40-Pad22)*%
X146038750Y105840000D03*
%TO.P,K40,24*%
%TO.N,unconnected-(K40-Pad24)*%
X146038750Y100760000D03*
D17*
%TO.P,K40,A1*%
%TO.N,GND*%
X138418750Y118540000D03*
D13*
%TO.P,K40,A2*%
%TO.N,SInc*%
X146038750Y118540000D03*
%TD*%
%TO.P,K33,11*%
%TO.N,R5*%
X75590179Y28330000D03*
%TO.P,K33,12*%
%TO.N,unconnected-(K33-Pad12)*%
X75590179Y23250000D03*
%TO.P,K33,14*%
%TO.N,Result5*%
X75590179Y18170000D03*
%TO.P,K33,21*%
%TO.N,R6*%
X83210179Y28330000D03*
%TO.P,K33,22*%
%TO.N,unconnected-(K33-Pad22)*%
X83210179Y23250000D03*
%TO.P,K33,24*%
%TO.N,Result6*%
X83210179Y18170000D03*
D17*
%TO.P,K33,A1*%
%TO.N,GND*%
X75590179Y35950000D03*
D13*
%TO.P,K33,A2*%
%TO.N,LInc*%
X83210179Y35950000D03*
%TD*%
%TO.P,K32,11*%
%TO.N,R7*%
X126182500Y110920000D03*
%TO.P,K32,12*%
%TO.N,unconnected-(K32-Pad12)*%
X126182500Y105840000D03*
%TO.P,K32,14*%
%TO.N,Net-(D39-A)*%
X126182500Y100760000D03*
%TO.P,K32,21*%
%TO.N,unconnected-(K32-Pad21)*%
X133802500Y110920000D03*
%TO.P,K32,22*%
%TO.N,unconnected-(K32-Pad22)*%
X133802500Y105840000D03*
%TO.P,K32,24*%
%TO.N,unconnected-(K32-Pad24)*%
X133802500Y100760000D03*
D17*
%TO.P,K32,A1*%
%TO.N,GND*%
X126182500Y118540000D03*
D13*
%TO.P,K32,A2*%
%TO.N,SInc*%
X133802500Y118540000D03*
%TD*%
%TO.P,K31,11*%
%TO.N,Hold*%
X126182500Y137320000D03*
%TO.P,K31,12*%
%TO.N,unconnected-(K31-Pad12)*%
X126182500Y132240000D03*
%TO.P,K31,14*%
%TO.N,Net-(D39-A)*%
X126182500Y127160000D03*
%TO.P,K31,21*%
%TO.N,unconnected-(K31-Pad21)*%
X133802500Y137320000D03*
%TO.P,K31,22*%
%TO.N,unconnected-(K31-Pad22)*%
X133802500Y132240000D03*
%TO.P,K31,24*%
%TO.N,unconnected-(K31-Pad24)*%
X133802500Y127160000D03*
D17*
%TO.P,K31,A1*%
%TO.N,Net-(D39-A)*%
X126182500Y144940000D03*
D13*
%TO.P,K31,A2*%
%TO.N,GND*%
X133802500Y144940000D03*
%TD*%
%TO.P,K30,11*%
%TO.N,R5*%
X169178750Y64337143D03*
%TO.P,K30,12*%
%TO.N,unconnected-(K30-Pad12)*%
X174258750Y64337143D03*
%TO.P,K30,14*%
%TO.N,A5*%
X179338750Y64337143D03*
%TO.P,K30,21*%
%TO.N,R6*%
X169178750Y71957143D03*
%TO.P,K30,22*%
%TO.N,unconnected-(K30-Pad22)*%
X174258750Y71957143D03*
%TO.P,K30,24*%
%TO.N,A6*%
X179338750Y71957143D03*
D19*
%TO.P,K30,A1*%
%TO.N,GND*%
X161558750Y64337143D03*
D13*
%TO.P,K30,A2*%
%TO.N,SInc*%
X161558750Y71957143D03*
%TD*%
%TO.P,K23,11*%
%TO.N,R3*%
X62924464Y28330000D03*
%TO.P,K23,12*%
%TO.N,unconnected-(K23-Pad12)*%
X62924464Y23250000D03*
%TO.P,K23,14*%
%TO.N,Result3*%
X62924464Y18170000D03*
%TO.P,K23,21*%
%TO.N,R4*%
X70544464Y28330000D03*
%TO.P,K23,22*%
%TO.N,unconnected-(K23-Pad22)*%
X70544464Y23250000D03*
%TO.P,K23,24*%
%TO.N,Result4*%
X70544464Y18170000D03*
D17*
%TO.P,K23,A1*%
%TO.N,GND*%
X62924464Y35950000D03*
D13*
%TO.P,K23,A2*%
%TO.N,LInc*%
X70544464Y35950000D03*
%TD*%
%TO.P,K22,11*%
%TO.N,R6*%
X113886250Y110920000D03*
%TO.P,K22,12*%
%TO.N,unconnected-(K22-Pad12)*%
X113886250Y105840000D03*
%TO.P,K22,14*%
%TO.N,Net-(D31-A)*%
X113886250Y100760000D03*
%TO.P,K22,21*%
%TO.N,unconnected-(K22-Pad21)*%
X121506250Y110920000D03*
%TO.P,K22,22*%
%TO.N,unconnected-(K22-Pad22)*%
X121506250Y105840000D03*
%TO.P,K22,24*%
%TO.N,unconnected-(K22-Pad24)*%
X121506250Y100760000D03*
D17*
%TO.P,K22,A1*%
%TO.N,GND*%
X113886250Y118540000D03*
D13*
%TO.P,K22,A2*%
%TO.N,SInc*%
X121506250Y118540000D03*
%TD*%
%TO.P,K24,11*%
%TO.N,Hold*%
X113886250Y137320000D03*
%TO.P,K24,12*%
%TO.N,unconnected-(K24-Pad12)*%
X113886250Y132240000D03*
%TO.P,K24,14*%
%TO.N,Net-(D31-A)*%
X113886250Y127160000D03*
%TO.P,K24,21*%
%TO.N,unconnected-(K24-Pad21)*%
X121506250Y137320000D03*
%TO.P,K24,22*%
%TO.N,unconnected-(K24-Pad22)*%
X121506250Y132240000D03*
%TO.P,K24,24*%
%TO.N,unconnected-(K24-Pad24)*%
X121506250Y127160000D03*
D17*
%TO.P,K24,A1*%
%TO.N,Net-(D31-A)*%
X113886250Y144940000D03*
D13*
%TO.P,K24,A2*%
%TO.N,GND*%
X121506250Y144940000D03*
%TD*%
%TO.P,K16,11*%
%TO.N,R1*%
X169178750Y39840000D03*
%TO.P,K16,12*%
%TO.N,unconnected-(K16-Pad12)*%
X174258750Y39840000D03*
%TO.P,K16,14*%
%TO.N,A1*%
X179338750Y39840000D03*
%TO.P,K16,21*%
%TO.N,R2*%
X169178750Y47460000D03*
%TO.P,K16,22*%
%TO.N,unconnected-(K16-Pad22)*%
X174258750Y47460000D03*
%TO.P,K16,24*%
%TO.N,A2*%
X179338750Y47460000D03*
D19*
%TO.P,K16,A1*%
%TO.N,GND*%
X161558750Y39840000D03*
D13*
%TO.P,K16,A2*%
%TO.N,SInc*%
X161558750Y47460000D03*
%TD*%
%TO.P,K19,11*%
%TO.N,R1*%
X50258750Y28330000D03*
%TO.P,K19,12*%
%TO.N,unconnected-(K19-Pad12)*%
X50258750Y23250000D03*
%TO.P,K19,14*%
%TO.N,Result1*%
X50258750Y18170000D03*
%TO.P,K19,21*%
%TO.N,R2*%
X57878750Y28330000D03*
%TO.P,K19,22*%
%TO.N,unconnected-(K19-Pad22)*%
X57878750Y23250000D03*
%TO.P,K19,24*%
%TO.N,Result2*%
X57878750Y18170000D03*
D17*
%TO.P,K19,A1*%
%TO.N,GND*%
X50258750Y35950000D03*
D13*
%TO.P,K19,A2*%
%TO.N,LInc*%
X57878750Y35950000D03*
%TD*%
%TO.P,K18,11*%
%TO.N,R5*%
X101590000Y110920000D03*
%TO.P,K18,12*%
%TO.N,unconnected-(K18-Pad12)*%
X101590000Y105840000D03*
%TO.P,K18,14*%
%TO.N,Net-(D23-A)*%
X101590000Y100760000D03*
%TO.P,K18,21*%
%TO.N,unconnected-(K18-Pad21)*%
X109210000Y110920000D03*
%TO.P,K18,22*%
%TO.N,unconnected-(K18-Pad22)*%
X109210000Y105840000D03*
%TO.P,K18,24*%
%TO.N,unconnected-(K18-Pad24)*%
X109210000Y100760000D03*
D17*
%TO.P,K18,A1*%
%TO.N,GND*%
X101590000Y118540000D03*
D13*
%TO.P,K18,A2*%
%TO.N,SInc*%
X109210000Y118540000D03*
%TD*%
%TO.P,K17,11*%
%TO.N,Hold*%
X101590000Y137320000D03*
%TO.P,K17,12*%
%TO.N,unconnected-(K17-Pad12)*%
X101590000Y132240000D03*
%TO.P,K17,14*%
%TO.N,Net-(D23-A)*%
X101590000Y127160000D03*
%TO.P,K17,21*%
%TO.N,unconnected-(K17-Pad21)*%
X109210000Y137320000D03*
%TO.P,K17,22*%
%TO.N,unconnected-(K17-Pad22)*%
X109210000Y132240000D03*
%TO.P,K17,24*%
%TO.N,unconnected-(K17-Pad24)*%
X109210000Y127160000D03*
D17*
%TO.P,K17,A1*%
%TO.N,Net-(D23-A)*%
X101590000Y144940000D03*
D13*
%TO.P,K17,A2*%
%TO.N,GND*%
X109210000Y144940000D03*
%TD*%
%TO.P,K21,11*%
%TO.N,R3*%
X169178750Y52088571D03*
%TO.P,K21,12*%
%TO.N,unconnected-(K21-Pad12)*%
X174258750Y52088571D03*
%TO.P,K21,14*%
%TO.N,A3*%
X179338750Y52088571D03*
%TO.P,K21,21*%
%TO.N,R4*%
X169178750Y59708571D03*
%TO.P,K21,22*%
%TO.N,unconnected-(K21-Pad22)*%
X174258750Y59708571D03*
%TO.P,K21,24*%
%TO.N,A4*%
X179338750Y59708571D03*
D19*
%TO.P,K21,A1*%
%TO.N,GND*%
X161558750Y52088571D03*
D13*
%TO.P,K21,A2*%
%TO.N,SInc*%
X161558750Y59708571D03*
%TD*%
%TO.P,K10,11*%
%TO.N,R4*%
X89293750Y110920000D03*
%TO.P,K10,12*%
%TO.N,unconnected-(K10-Pad12)*%
X89293750Y105840000D03*
%TO.P,K10,14*%
%TO.N,Net-(D16-A)*%
X89293750Y100760000D03*
%TO.P,K10,21*%
%TO.N,unconnected-(K10-Pad21)*%
X96913750Y110920000D03*
%TO.P,K10,22*%
%TO.N,unconnected-(K10-Pad22)*%
X96913750Y105840000D03*
%TO.P,K10,24*%
%TO.N,unconnected-(K10-Pad24)*%
X96913750Y100760000D03*
D17*
%TO.P,K10,A1*%
%TO.N,GND*%
X89293750Y118540000D03*
D13*
%TO.P,K10,A2*%
%TO.N,SInc*%
X96913750Y118540000D03*
%TD*%
%TO.P,K11,11*%
%TO.N,Hold*%
X89293750Y137320000D03*
%TO.P,K11,12*%
%TO.N,unconnected-(K11-Pad12)*%
X89293750Y132240000D03*
%TO.P,K11,14*%
%TO.N,Net-(D16-A)*%
X89293750Y127160000D03*
%TO.P,K11,21*%
%TO.N,unconnected-(K11-Pad21)*%
X96913750Y137320000D03*
%TO.P,K11,22*%
%TO.N,unconnected-(K11-Pad22)*%
X96913750Y132240000D03*
%TO.P,K11,24*%
%TO.N,unconnected-(K11-Pad24)*%
X96913750Y127160000D03*
D17*
%TO.P,K11,A1*%
%TO.N,Net-(D16-A)*%
X89293750Y144940000D03*
D13*
%TO.P,K11,A2*%
%TO.N,GND*%
X96913750Y144940000D03*
%TD*%
%TO.P,K9,11*%
%TO.N,Hold*%
X76997500Y137320000D03*
%TO.P,K9,12*%
%TO.N,unconnected-(K9-Pad12)*%
X76997500Y132240000D03*
%TO.P,K9,14*%
%TO.N,Net-(D13-A)*%
X76997500Y127160000D03*
%TO.P,K9,21*%
%TO.N,unconnected-(K9-Pad21)*%
X84617500Y137320000D03*
%TO.P,K9,22*%
%TO.N,unconnected-(K9-Pad22)*%
X84617500Y132240000D03*
%TO.P,K9,24*%
%TO.N,unconnected-(K9-Pad24)*%
X84617500Y127160000D03*
D17*
%TO.P,K9,A1*%
%TO.N,Net-(D13-A)*%
X76997500Y144940000D03*
D13*
%TO.P,K9,A2*%
%TO.N,GND*%
X84617500Y144940000D03*
%TD*%
%TO.P,K6,11*%
%TO.N,R3*%
X76997500Y110920000D03*
%TO.P,K6,12*%
%TO.N,unconnected-(K6-Pad12)*%
X76997500Y105840000D03*
%TO.P,K6,14*%
%TO.N,Net-(D13-A)*%
X76997500Y100760000D03*
%TO.P,K6,21*%
%TO.N,unconnected-(K6-Pad21)*%
X84617500Y110920000D03*
%TO.P,K6,22*%
%TO.N,unconnected-(K6-Pad22)*%
X84617500Y105840000D03*
%TO.P,K6,24*%
%TO.N,unconnected-(K6-Pad24)*%
X84617500Y100760000D03*
D17*
%TO.P,K6,A1*%
%TO.N,GND*%
X76997500Y118540000D03*
D13*
%TO.P,K6,A2*%
%TO.N,SInc*%
X84617500Y118540000D03*
%TD*%
%TO.P,K5,11*%
%TO.N,Hold*%
X64701250Y137320000D03*
%TO.P,K5,12*%
%TO.N,unconnected-(K5-Pad12)*%
X64701250Y132240000D03*
%TO.P,K5,14*%
%TO.N,Net-(D8-A)*%
X64701250Y127160000D03*
%TO.P,K5,21*%
%TO.N,unconnected-(K5-Pad21)*%
X72321250Y137320000D03*
%TO.P,K5,22*%
%TO.N,unconnected-(K5-Pad22)*%
X72321250Y132240000D03*
%TO.P,K5,24*%
%TO.N,unconnected-(K5-Pad24)*%
X72321250Y127160000D03*
D17*
%TO.P,K5,A1*%
%TO.N,Net-(D8-A)*%
X64701250Y144940000D03*
D13*
%TO.P,K5,A2*%
%TO.N,GND*%
X72321250Y144940000D03*
%TD*%
D20*
%TO.N,Hold*%
X99000000Y134000000D03*
X98400000Y100600000D03*
X99000000Y116400000D03*
X98400000Y96800000D03*
%TO.N,R8*%
X158200000Y91200000D03*
%TO.N,R7*%
X158200000Y78800000D03*
%TO.N,R6*%
X157800000Y73800000D03*
%TO.N,R5*%
X158200000Y61800000D03*
%TO.N,R4*%
X99200000Y51000000D03*
X94400000Y43000000D03*
%TO.N,R3*%
X85200000Y43200000D03*
X75200000Y50800000D03*
X77021540Y98378460D03*
%TO.N,R2*%
X53200000Y43600000D03*
%TO.N,Net-(D100-A)*%
X65000000Y154000000D03*
%TO.N,Net-(D94-A)*%
X69600000Y153600000D03*
%TO.N,Net-(D90-A)*%
X71800000Y153400000D03*
%TO.N,Net-(D84-A)*%
X73600000Y153600000D03*
%TO.N,Net-(D78-A)*%
X75400000Y153000000D03*
%TO.N,Net-(D68-A)*%
X78800000Y98800000D03*
X79400000Y103600000D03*
X80200000Y153800000D03*
%TO.N,Net-(D57-A)*%
X87000000Y154000000D03*
%TO.N,Net-(D52-A)*%
X105400000Y157800000D03*
X137800000Y151200000D03*
X121600000Y151200000D03*
%TO.N,Net-(D39-A)*%
X106400000Y157600000D03*
%TO.N,Net-(D31-A)*%
X105200000Y155200000D03*
%TO.N,Net-(D23-A)*%
X102000000Y154600000D03*
%TO.N,Net-(D16-A)*%
X89400000Y153600000D03*
%TO.N,Net-(D13-A)*%
X76800000Y153000000D03*
%TO.N,Net-(D8-A)*%
X65400000Y152400000D03*
%TO.N,R15*%
X139200000Y26629000D03*
%TD*%
D21*
%TO.N,Hold*%
X99000000Y116400000D02*
X99000000Y134000000D01*
X98400000Y96800000D02*
X98400000Y100600000D01*
%TO.N,R8*%
X157800000Y91200000D02*
X158200000Y91200000D01*
X138418750Y110581250D02*
X157800000Y91200000D01*
X138418750Y110920000D02*
X138418750Y110581250D01*
%TO.N,R7*%
X157971700Y78800000D02*
X158200000Y78800000D01*
X142478700Y94293000D02*
X157971700Y78800000D01*
X130907000Y94293000D02*
X142478700Y94293000D01*
X127283500Y97916500D02*
X130907000Y94293000D01*
X127283500Y109819000D02*
X127283500Y97916500D01*
X126182500Y110920000D02*
X127283500Y109819000D01*
%TO.N,R6*%
X156800000Y72800000D02*
X157800000Y73800000D01*
X145000000Y72800000D02*
X156800000Y72800000D01*
X139685850Y93892000D02*
X144937750Y88640100D01*
X125108000Y93892000D02*
X139685850Y93892000D01*
X123000000Y96000000D02*
X125108000Y93892000D01*
X123000000Y101806250D02*
X123000000Y96000000D01*
X113886250Y110920000D02*
X123000000Y101806250D01*
X144937750Y72862250D02*
X145000000Y72800000D01*
X144937750Y88640100D02*
X144937750Y72862250D01*
%TO.N,R5*%
X139519750Y75280250D02*
X153000000Y61800000D01*
X139519750Y93491000D02*
X139519750Y75280250D01*
X112785250Y93491000D02*
X139519750Y93491000D01*
X153000000Y61800000D02*
X158200000Y61800000D01*
X110311000Y95965250D02*
X112785250Y93491000D01*
X110311000Y102199000D02*
X110311000Y95965250D01*
X101590000Y110920000D02*
X110311000Y102199000D01*
%TO.N,R4*%
X71645464Y27229000D02*
X70544464Y28330000D01*
X101377657Y27229000D02*
X71645464Y27229000D01*
X102022607Y27873950D02*
X101377657Y27229000D01*
X102022607Y31927436D02*
X102022607Y27873950D01*
X94400000Y39550043D02*
X102022607Y31927436D01*
X94400000Y43000000D02*
X94400000Y39550043D01*
X99200000Y101013750D02*
X99200000Y51000000D01*
X89293750Y110920000D02*
X99200000Y101013750D01*
%TO.N,R3*%
X64025464Y29431000D02*
X62924464Y28330000D01*
X78248229Y29431000D02*
X64025464Y29431000D01*
X85200000Y36382771D02*
X78248229Y29431000D01*
X85200000Y43200000D02*
X85200000Y36382771D01*
X77021540Y98378460D02*
X75200000Y96556920D01*
X75200000Y96556920D02*
X75200000Y50800000D01*
%TO.N,R2*%
X53200000Y37000000D02*
X57878750Y32321250D01*
X53200000Y43600000D02*
X53200000Y37000000D01*
X57878750Y32321250D02*
X57878750Y28330000D01*
%TO.N,Net-(D100-A)*%
X136916750Y97542000D02*
X138418750Y96040000D01*
X134780850Y146141000D02*
X136916750Y144005100D01*
X125861410Y146141000D02*
X134780850Y146141000D01*
X122291410Y149711000D02*
X125861410Y146141000D01*
X120721090Y149711000D02*
X122291410Y149711000D01*
X114227090Y156205000D02*
X120721090Y149711000D01*
X104395000Y156205000D02*
X114227090Y156205000D01*
X136916750Y144005100D02*
X136916750Y97542000D01*
X102601000Y157999000D02*
X104395000Y156205000D01*
X68999000Y157999000D02*
X102601000Y157999000D01*
X65000000Y154000000D02*
X68999000Y157999000D01*
%TO.N,Net-(D52-A)*%
X116000000Y156800000D02*
X121600000Y151200000D01*
X106201000Y156999000D02*
X106400000Y156800000D01*
X106151057Y156999000D02*
X106201000Y156999000D01*
X106400000Y156800000D02*
X116000000Y156800000D01*
X105799000Y157351057D02*
X106151057Y156999000D01*
X105400000Y157800000D02*
X105799000Y157401000D01*
X105799000Y157401000D02*
X105799000Y157351057D01*
%TO.N,Net-(D94-A)*%
X124680500Y97542000D02*
X126182500Y96040000D01*
X112426090Y155804000D02*
X124680500Y143549590D01*
X71804000Y155804000D02*
X112426090Y155804000D01*
X124680500Y143549590D02*
X124680500Y97542000D01*
X69600000Y153600000D02*
X71804000Y155804000D01*
%TO.N,Net-(D90-A)*%
X112384250Y97542000D02*
X113886250Y96040000D01*
X112384250Y144005100D02*
X112384250Y97542000D01*
X110248350Y146141000D02*
X112384250Y144005100D01*
X101400000Y146141000D02*
X110248350Y146141000D01*
X92138000Y155403000D02*
X101400000Y146141000D01*
X73803000Y155403000D02*
X92138000Y155403000D01*
X71800000Y153400000D02*
X73803000Y155403000D01*
%TO.N,Net-(D84-A)*%
X100088000Y97542000D02*
X101590000Y96040000D01*
X100088000Y136447750D02*
X100088000Y97542000D01*
X89187500Y147348250D02*
X100088000Y136447750D01*
X88192750Y147348250D02*
X89187500Y147348250D01*
X88192750Y154224293D02*
X88192750Y147348250D01*
X87415043Y155002000D02*
X88192750Y154224293D01*
X75002000Y155002000D02*
X87415043Y155002000D01*
X73600000Y153600000D02*
X75002000Y155002000D01*
%TO.N,Net-(D78-A)*%
X87791750Y96563000D02*
X87268750Y96040000D01*
X87791750Y154058193D02*
X87791750Y96563000D01*
X87248943Y154601000D02*
X87791750Y154058193D01*
X77001000Y154601000D02*
X87248943Y154601000D01*
X75400000Y153000000D02*
X77001000Y154601000D01*
%TO.N,Net-(D68-A)*%
X78400000Y98400000D02*
X78400000Y97442500D01*
X78800000Y98800000D02*
X78400000Y98400000D01*
X79400000Y153000000D02*
X79400000Y103600000D01*
X78400000Y97442500D02*
X76997500Y96040000D01*
X80200000Y153800000D02*
X79400000Y153000000D01*
%TO.N,Net-(D57-A)*%
X65802250Y97141000D02*
X64701250Y96040000D01*
X74935550Y97141000D02*
X65802250Y97141000D01*
X83516500Y105721950D02*
X74935550Y97141000D01*
X83516500Y150516500D02*
X83516500Y105721950D01*
X87000000Y154000000D02*
X83516500Y150516500D01*
%TO.N,Net-(D52-A)*%
X137800000Y151200000D02*
X137800000Y151000000D01*
X138418750Y150381250D02*
X138418750Y148610000D01*
X137800000Y151000000D02*
X138418750Y150381250D01*
%TO.N,Net-(D39-A)*%
X117192500Y157600000D02*
X126182500Y148610000D01*
X106400000Y157600000D02*
X117192500Y157600000D01*
%TO.N,Net-(D31-A)*%
X113886250Y150713750D02*
X113886250Y148610000D01*
X109400000Y155200000D02*
X113886250Y150713750D01*
X105200000Y155200000D02*
X109400000Y155200000D01*
%TO.N,Net-(D23-A)*%
X102000000Y154600000D02*
X101590000Y154190000D01*
X101590000Y154190000D02*
X101590000Y148610000D01*
%TO.N,Net-(D16-A)*%
X89293750Y153493750D02*
X89293750Y148610000D01*
X89400000Y153600000D02*
X89293750Y153493750D01*
%TO.N,Net-(D13-A)*%
X76997500Y152402500D02*
X76997500Y148610000D01*
X76800000Y152600000D02*
X76997500Y152402500D01*
X76800000Y153000000D02*
X76800000Y152600000D01*
%TO.N,Net-(D8-A)*%
X65400000Y152400000D02*
X64701250Y151701250D01*
X64701250Y151701250D02*
X64701250Y148610000D01*
%TO.N,Net-(D4-A)*%
X62195000Y158400000D02*
X52405000Y148610000D01*
X137600000Y158400000D02*
X62195000Y158400000D01*
X142625892Y163425892D02*
X137600000Y158400000D01*
X142625892Y168165000D02*
X142625892Y163425892D01*
%TO.N,R15*%
X139200000Y26800000D02*
X138918750Y27081250D01*
X139200000Y26629000D02*
X139200000Y26800000D01*
X138918750Y27081250D02*
X138918750Y28330000D01*
X140019750Y29431000D02*
X138918750Y28330000D01*
X140019750Y57839000D02*
X140019750Y29431000D01*
X138418750Y59440000D02*
X140019750Y57839000D01*
%TO.N,LInc*%
X82888750Y40690000D02*
X82888750Y36271429D01*
X82888750Y36271429D02*
X83210179Y35950000D01*
X58598750Y36670000D02*
X57878750Y35950000D01*
X58598750Y40690000D02*
X58598750Y36670000D01*
X70658750Y36064286D02*
X70544464Y35950000D01*
X70658750Y40690000D02*
X70658750Y36064286D01*
X71759750Y39589000D02*
X81787750Y39589000D01*
X81787750Y39589000D02*
X82888750Y40690000D01*
X70658750Y40690000D02*
X71759750Y39589000D01*
X58598750Y40690000D02*
X59699750Y39589000D01*
X59699750Y39589000D02*
X69557750Y39589000D01*
X69557750Y39589000D02*
X70658750Y40690000D01*
X46627750Y52661000D02*
X58598750Y40690000D01*
X46627750Y143839000D02*
X46627750Y52661000D01*
X47728750Y144940000D02*
X46627750Y143839000D01*
%TO.N,R9*%
X75962250Y48179000D02*
X85203943Y48179000D01*
X85203943Y48179000D02*
X100921607Y32461336D01*
X64701250Y59440000D02*
X75962250Y48179000D01*
X100921607Y32461336D02*
X100921607Y28330000D01*
%TO.N,R10*%
X92354175Y44083325D02*
X95090282Y44083325D01*
X108541607Y30632000D02*
X108541607Y28330000D01*
X76997500Y59440000D02*
X92354175Y44083325D01*
X95090282Y44083325D02*
X108541607Y30632000D01*
%TO.N,R11*%
X107440607Y34476714D02*
X113587321Y28330000D01*
X107440607Y41293143D02*
X107440607Y34476714D01*
X89293750Y59440000D02*
X107440607Y41293143D01*
%TO.N,R12*%
X114688321Y34849000D02*
X121207321Y28330000D01*
X114688321Y46341679D02*
X114688321Y34849000D01*
X101590000Y59440000D02*
X114688321Y46341679D01*
%TO.N,R13*%
X122800000Y31783036D02*
X126253036Y28330000D01*
X122800000Y50526250D02*
X122800000Y31783036D01*
X113886250Y59440000D02*
X122800000Y50526250D01*
%TO.N,R14*%
X127354036Y58268464D02*
X127354036Y34849000D01*
X127354036Y34849000D02*
X133873036Y28330000D01*
X126182500Y59440000D02*
X127354036Y58268464D01*
%TO.N,SInc*%
X147277143Y71957143D02*
X157988750Y71957143D01*
X146060000Y70740000D02*
X147277143Y71957143D01*
X146038750Y70740000D02*
X146060000Y70740000D01*
X157988750Y133200000D02*
X161558750Y133200000D01*
X157988750Y120951429D02*
X161558750Y120951429D01*
X157988750Y108702857D02*
X161558750Y108702857D01*
X157988750Y96454286D02*
X161558750Y96454286D01*
X157988750Y84205714D02*
X161558750Y84205714D01*
X157988750Y71957143D02*
X161558750Y71957143D01*
X157988750Y59708571D02*
X161558750Y59708571D01*
X161558750Y47460000D02*
X157988750Y47460000D01*
X159089750Y48561000D02*
X157988750Y47460000D01*
X157988750Y59708571D02*
X159089750Y58607571D01*
X159089750Y58607571D02*
X159089750Y48561000D01*
X159089750Y60809571D02*
X157988750Y59708571D01*
X159089750Y70856143D02*
X159089750Y60809571D01*
X157988750Y71957143D02*
X159089750Y70856143D01*
X159089750Y83104714D02*
X159089750Y73058143D01*
X159089750Y73058143D02*
X157988750Y71957143D01*
X157988750Y84205714D02*
X159089750Y83104714D01*
X159089750Y95353286D02*
X159089750Y85306714D01*
X157988750Y96454286D02*
X159089750Y95353286D01*
X159089750Y85306714D02*
X157988750Y84205714D01*
X159089750Y97555286D02*
X157988750Y96454286D01*
X157988750Y108702857D02*
X159089750Y107601857D01*
X159089750Y107601857D02*
X159089750Y97555286D01*
X159089750Y109803857D02*
X157988750Y108702857D01*
X159089750Y119850429D02*
X159089750Y109803857D01*
X157988750Y120951429D02*
X159089750Y119850429D01*
X159089750Y122052429D02*
X159089750Y132099000D01*
X159089750Y132099000D02*
X157988750Y133200000D01*
X157988750Y120951429D02*
X159089750Y122052429D01*
X156030179Y122910000D02*
X157988750Y120951429D01*
X146038750Y122910000D02*
X156030179Y122910000D01*
X146038750Y122910000D02*
X146038750Y118540000D01*
%TO.N,Net-(D57-A)*%
X63600250Y50381000D02*
X64701250Y49280000D01*
X63600250Y73409000D02*
X63600250Y50381000D01*
X64701250Y74510000D02*
X63600250Y73409000D01*
X63600250Y75611000D02*
X64701250Y74510000D01*
X63600250Y91189000D02*
X63600250Y75611000D01*
X64701250Y92290000D02*
X63600250Y91189000D01*
%TO.N,Net-(D68-A)*%
X75896500Y73409000D02*
X75896500Y50381000D01*
X76997500Y74510000D02*
X75896500Y73409000D01*
X75896500Y50381000D02*
X76997500Y49280000D01*
X75896500Y75611000D02*
X76997500Y74510000D01*
X75896500Y91189000D02*
X75896500Y75611000D01*
X76997500Y92290000D02*
X75896500Y91189000D01*
%TO.N,Net-(D78-A)*%
X89293750Y74510000D02*
X88192750Y73409000D01*
X88192750Y73409000D02*
X88192750Y50381000D01*
X88192750Y50381000D02*
X89293750Y49280000D01*
X88192750Y75611000D02*
X89293750Y74510000D01*
X88192750Y91189000D02*
X88192750Y75611000D01*
X89293750Y92290000D02*
X88192750Y91189000D01*
%TO.N,Net-(D84-A)*%
X100489000Y50381000D02*
X101590000Y49280000D01*
X100489000Y73409000D02*
X100489000Y50381000D01*
X101590000Y74510000D02*
X100489000Y73409000D01*
X100489000Y75611000D02*
X101590000Y74510000D01*
X100489000Y91189000D02*
X100489000Y75611000D01*
X101590000Y92290000D02*
X100489000Y91189000D01*
%TO.N,Net-(D90-A)*%
X112785250Y73409000D02*
X112785250Y50381000D01*
X112785250Y50381000D02*
X113886250Y49280000D01*
X113886250Y74510000D02*
X112785250Y73409000D01*
X112785250Y75611000D02*
X113886250Y74510000D01*
X112785250Y91189000D02*
X112785250Y75611000D01*
X113886250Y92290000D02*
X112785250Y91189000D01*
%TO.N,Net-(D94-A)*%
X125081500Y50381000D02*
X126182500Y49280000D01*
X126182500Y74510000D02*
X125081500Y73409000D01*
X125081500Y73409000D02*
X125081500Y50381000D01*
X125000000Y75692500D02*
X126182500Y74510000D01*
X126182500Y92290000D02*
X125000000Y91107500D01*
X125000000Y91107500D02*
X125000000Y75692500D01*
%TO.N,Net-(D100-A)*%
X137317750Y50381000D02*
X138418750Y49280000D01*
X138418750Y74510000D02*
X137317750Y73409000D01*
X137317750Y73409000D02*
X137317750Y50381000D01*
X137317750Y75611000D02*
X138418750Y74510000D01*
X137317750Y91189000D02*
X137317750Y75611000D01*
X138418750Y92290000D02*
X137317750Y91189000D01*
%TO.N,Net-(D52-A)*%
X137317750Y101861000D02*
X138418750Y100760000D01*
X137317750Y126059000D02*
X137317750Y101861000D01*
X138418750Y127160000D02*
X137317750Y126059000D01*
X137317750Y128261000D02*
X138418750Y127160000D01*
X137317750Y143839000D02*
X137317750Y128261000D01*
X138418750Y144940000D02*
X137317750Y143839000D01*
%TO.N,Net-(D39-A)*%
X125081500Y101861000D02*
X126182500Y100760000D01*
X125081500Y126059000D02*
X125081500Y101861000D01*
X126182500Y127160000D02*
X125081500Y126059000D01*
X125081500Y128261000D02*
X126182500Y127160000D01*
X125081500Y143839000D02*
X125081500Y128261000D01*
X126182500Y144940000D02*
X125081500Y143839000D01*
%TO.N,Net-(D31-A)*%
X112785250Y126059000D02*
X112785250Y101861000D01*
X112785250Y101861000D02*
X113886250Y100760000D01*
X113886250Y127160000D02*
X112785250Y126059000D01*
X112785250Y128261000D02*
X113886250Y127160000D01*
X112785250Y143839000D02*
X112785250Y128261000D01*
X113886250Y144940000D02*
X112785250Y143839000D01*
%TO.N,Net-(D23-A)*%
X100489000Y101861000D02*
X101590000Y100760000D01*
X100489000Y126059000D02*
X100489000Y101861000D01*
X101590000Y127160000D02*
X100489000Y126059000D01*
X100489000Y128261000D02*
X101590000Y127160000D01*
X100489000Y143839000D02*
X100489000Y128261000D01*
X101590000Y144940000D02*
X100489000Y143839000D01*
%TO.N,Net-(D4-A)*%
X51304000Y126059000D02*
X51304000Y101861000D01*
X52405000Y127160000D02*
X51304000Y126059000D01*
X51304000Y101861000D02*
X52405000Y100760000D01*
X51304000Y128261000D02*
X52405000Y127160000D01*
X52405000Y144940000D02*
X51304000Y143839000D01*
X51304000Y143839000D02*
X51304000Y128261000D01*
%TO.N,Net-(D8-A)*%
X63600000Y101861250D02*
X64701250Y100760000D01*
X63600000Y126058750D02*
X63600000Y101861250D01*
X64701250Y127160000D02*
X63600000Y126058750D01*
X63600250Y128261000D02*
X64701250Y127160000D01*
X63600250Y143839000D02*
X63600250Y128261000D01*
X64701250Y144940000D02*
X63600250Y143839000D01*
%TO.N,Net-(D13-A)*%
X75896500Y101861000D02*
X76997500Y100760000D01*
X75896500Y126059000D02*
X75896500Y101861000D01*
X76997500Y127160000D02*
X75896500Y126059000D01*
X75896500Y128261000D02*
X76997500Y127160000D01*
X75896500Y143839000D02*
X75896500Y128261000D01*
X76997500Y144940000D02*
X75896500Y143839000D01*
%TO.N,Net-(D16-A)*%
X88192750Y101861000D02*
X89293750Y100760000D01*
X88192750Y126059000D02*
X88192750Y101861000D01*
X89293750Y127160000D02*
X88192750Y126059000D01*
X88192750Y128261000D02*
X89293750Y127160000D01*
X88192750Y143839000D02*
X88192750Y128261000D01*
X89293750Y144940000D02*
X88192750Y143839000D01*
%TO.N,Result15*%
X30310000Y110910000D02*
X31200000Y110910000D01*
X26800000Y107400000D02*
X30310000Y110910000D01*
X26800000Y107167100D02*
X26800000Y107400000D01*
X26799000Y107166100D02*
X26800000Y107167100D01*
X26799000Y103933200D02*
X26799000Y107166100D01*
X26798000Y103932200D02*
X26799000Y103933200D01*
X26798000Y103679300D02*
X26798000Y103932200D01*
X26797000Y103678300D02*
X26798000Y103679300D01*
X26796000Y30335600D02*
X26796000Y101634200D01*
X26799000Y30068800D02*
X26797000Y30070800D01*
X26796000Y101634200D02*
X26797000Y101635200D01*
X26799000Y29801000D02*
X26799000Y30068800D01*
X26797000Y30070800D02*
X26797000Y30334600D01*
X26797000Y30334600D02*
X26796000Y30335600D01*
X45200000Y11400000D02*
X26799000Y29801000D01*
X26797000Y101635200D02*
X26797000Y103678300D01*
%TO.N,Result14*%
X31170000Y108400000D02*
X31200000Y108370000D01*
X28600000Y108400000D02*
X31170000Y108400000D01*
X27200000Y107000000D02*
X28600000Y108400000D01*
X27200000Y103767100D02*
X27200000Y107000000D01*
X27199000Y103513200D02*
X27199000Y103766100D01*
X27198000Y103512200D02*
X27199000Y103513200D01*
X27199000Y103766100D02*
X27200000Y103767100D01*
X27198000Y101469100D02*
X27198000Y103512200D01*
X27197000Y101468100D02*
X27198000Y101469100D01*
X27197000Y30501700D02*
X27197000Y101468100D01*
X27198000Y30236900D02*
X27198000Y30500700D01*
X27200000Y30234900D02*
X27198000Y30236900D01*
X27200000Y29967100D02*
X27200000Y30234900D01*
X45366100Y11801000D02*
X27200000Y29967100D01*
X133873036Y17073036D02*
X128601000Y11801000D01*
X133873036Y18170000D02*
X133873036Y17073036D01*
X128601000Y11801000D02*
X45366100Y11801000D01*
X27198000Y30500700D02*
X27197000Y30501700D01*
%TO.N,Result13*%
X29830000Y105830000D02*
X31200000Y105830000D01*
X27600000Y103600000D02*
X29830000Y105830000D01*
X27600000Y103347100D02*
X27600000Y103600000D01*
X27599000Y103346100D02*
X27600000Y103347100D01*
X27599000Y101303000D02*
X27599000Y103346100D01*
X27598000Y30667800D02*
X27598000Y101302000D01*
X27599000Y30666800D02*
X27598000Y30667800D01*
X45800000Y12202000D02*
X27599000Y30403000D01*
X27599000Y30403000D02*
X27599000Y30666800D01*
X120285036Y12202000D02*
X45800000Y12202000D01*
X27598000Y101302000D02*
X27599000Y101303000D01*
X126253036Y18170000D02*
X120285036Y12202000D01*
%TO.N,Result12*%
X28110000Y103290000D02*
X31200000Y103290000D01*
X28000000Y103180000D02*
X28110000Y103290000D01*
X28000000Y101136900D02*
X28000000Y103180000D01*
X27999000Y101135900D02*
X28000000Y101136900D01*
X27999000Y30833900D02*
X27999000Y101135900D01*
X28000000Y30832900D02*
X27999000Y30833900D01*
X28000000Y30569100D02*
X28000000Y30832900D01*
X115721871Y12684550D02*
X45884550Y12684550D01*
X45884550Y12684550D02*
X28000000Y30569100D01*
X121207321Y18170000D02*
X115721871Y12684550D01*
%TO.N,Result11*%
X28650000Y100750000D02*
X31200000Y100750000D01*
X28400000Y100500000D02*
X28650000Y100750000D01*
X46200000Y13200000D02*
X28400000Y31000000D01*
X108617321Y13200000D02*
X46200000Y13200000D01*
X28400000Y31000000D02*
X28400000Y100500000D01*
X113587321Y18170000D02*
X108617321Y13200000D01*
%TO.N,Result10*%
X28800000Y95810000D02*
X31200000Y98210000D01*
X28800000Y31167100D02*
X28800000Y95810000D01*
X46366100Y13601000D02*
X28800000Y31167100D01*
X103972607Y13601000D02*
X46366100Y13601000D01*
X108541607Y18170000D02*
X103972607Y13601000D01*
%TO.N,Result9*%
X29200000Y93670000D02*
X31200000Y95670000D01*
X29200000Y31400000D02*
X29200000Y93670000D01*
X46400000Y14200000D02*
X29200000Y31400000D01*
X100921607Y18170000D02*
X96951607Y14200000D01*
X96951607Y14200000D02*
X46400000Y14200000D01*
%TO.N,Result15*%
X132148750Y11400000D02*
X45200000Y11400000D01*
X138918750Y18170000D02*
X132148750Y11400000D01*
%TD*%
M02*
