%TF.GenerationSoftware,KiCad,Pcbnew,9.0.2*%
%TF.CreationDate,2026-01-14T14:42:49+01:00*%
%TF.ProjectId,Incrementer V2 - Register,496e6372-656d-4656-9e74-657220563220,rev?*%
%TF.SameCoordinates,Original*%
%TF.FileFunction,Copper,L1,Top*%
%TF.FilePolarity,Positive*%
%FSLAX46Y46*%
G04 Gerber Fmt 4.6, Leading zero omitted, Abs format (unit mm)*
G04 Created by KiCad (PCBNEW 9.0.2) date 2026-01-14 14:42:49*
%MOMM*%
%LPD*%
G01*
G04 APERTURE LIST*
G04 Aperture macros list*
%AMRoundRect*
0 Rectangle with rounded corners*
0 $1 Rounding radius*
0 $2 $3 $4 $5 $6 $7 $8 $9 X,Y pos of 4 corners*
0 Add a 4 corners polygon primitive as box body*
4,1,4,$2,$3,$4,$5,$6,$7,$8,$9,$2,$3,0*
0 Add four circle primitives for the rounded corners*
1,1,$1+$1,$2,$3*
1,1,$1+$1,$4,$5*
1,1,$1+$1,$6,$7*
1,1,$1+$1,$8,$9*
0 Add four rect primitives between the rounded corners*
20,1,$1+$1,$2,$3,$4,$5,0*
20,1,$1+$1,$4,$5,$6,$7,0*
20,1,$1+$1,$6,$7,$8,$9,0*
20,1,$1+$1,$8,$9,$2,$3,0*%
G04 Aperture macros list end*
%TA.AperFunction,ComponentPad*%
%ADD10R,1.700000X1.700000*%
%TD*%
%TA.AperFunction,ComponentPad*%
%ADD11C,1.700000*%
%TD*%
%TA.AperFunction,ComponentPad*%
%ADD12RoundRect,0.250000X0.550000X0.550000X-0.550000X0.550000X-0.550000X-0.550000X0.550000X-0.550000X0*%
%TD*%
%TA.AperFunction,ComponentPad*%
%ADD13C,1.600000*%
%TD*%
%TA.AperFunction,ComponentPad*%
%ADD14R,1.800000X1.800000*%
%TD*%
%TA.AperFunction,ComponentPad*%
%ADD15C,1.800000*%
%TD*%
%TA.AperFunction,ComponentPad*%
%ADD16RoundRect,0.250000X-0.550000X0.550000X-0.550000X-0.550000X0.550000X-0.550000X0.550000X0.550000X0*%
%TD*%
%TA.AperFunction,ComponentPad*%
%ADD17R,1.600000X1.800000*%
%TD*%
%TA.AperFunction,ComponentPad*%
%ADD18C,1.400000*%
%TD*%
%TA.AperFunction,ComponentPad*%
%ADD19R,1.800000X1.600000*%
%TD*%
%TA.AperFunction,ViaPad*%
%ADD20C,0.600000*%
%TD*%
%TA.AperFunction,Conductor*%
%ADD21C,0.200000*%
%TD*%
%TA.AperFunction,Conductor*%
%ADD22C,0.400000*%
%TD*%
G04 APERTURE END LIST*
D10*
%TO.P,J2,1,Pin_1*%
%TO.N,A1*%
X192600000Y75350000D03*
D11*
%TO.P,J2,2,Pin_2*%
%TO.N,A2*%
X192600000Y77890000D03*
%TO.P,J2,3,Pin_3*%
%TO.N,A3*%
X192600000Y80430000D03*
%TO.P,J2,4,Pin_4*%
%TO.N,A4*%
X192600000Y82970000D03*
%TO.P,J2,5,Pin_5*%
%TO.N,A5*%
X192600000Y85510000D03*
%TO.P,J2,6,Pin_6*%
%TO.N,A6*%
X192600000Y88050000D03*
%TO.P,J2,7,Pin_7*%
%TO.N,A7*%
X192600000Y90590000D03*
%TO.P,J2,8,Pin_8*%
%TO.N,A8*%
X192600000Y93130000D03*
%TO.P,J2,9,Pin_9*%
%TO.N,A9*%
X192600000Y95670000D03*
%TO.P,J2,10,Pin_10*%
%TO.N,A10*%
X192600000Y98210000D03*
%TO.P,J2,11,Pin_11*%
%TO.N,A11*%
X192600000Y100750000D03*
%TO.P,J2,12,Pin_12*%
%TO.N,A12*%
X192600000Y103290000D03*
%TO.P,J2,13,Pin_13*%
%TO.N,A13*%
X192600000Y105830000D03*
%TO.P,J2,14,Pin_14*%
%TO.N,A14*%
X192600000Y108370000D03*
%TO.P,J2,15,Pin_15*%
%TO.N,A15*%
X192600000Y110910000D03*
%TO.P,J2,16,Pin_16*%
%TO.N,GND*%
X192600000Y113450000D03*
%TD*%
D10*
%TO.P,J1,1,Pin_1*%
%TO.N,Result1*%
X31200000Y75350000D03*
D11*
%TO.P,J1,2,Pin_2*%
%TO.N,Result2*%
X31200000Y77890000D03*
%TO.P,J1,3,Pin_3*%
%TO.N,Result3*%
X31200000Y80430000D03*
%TO.P,J1,4,Pin_4*%
%TO.N,Result4*%
X31200000Y82970000D03*
%TO.P,J1,5,Pin_5*%
%TO.N,Result5*%
X31200000Y85510000D03*
%TO.P,J1,6,Pin_6*%
%TO.N,Result6*%
X31200000Y88050000D03*
%TO.P,J1,7,Pin_7*%
%TO.N,Result7*%
X31200000Y90590000D03*
%TO.P,J1,8,Pin_8*%
%TO.N,Result8*%
X31200000Y93130000D03*
%TO.P,J1,9,Pin_9*%
%TO.N,Result9*%
X31200000Y95670000D03*
%TO.P,J1,10,Pin_10*%
%TO.N,Result10*%
X31200000Y98210000D03*
%TO.P,J1,11,Pin_11*%
%TO.N,Result11*%
X31200000Y100750000D03*
%TO.P,J1,12,Pin_12*%
%TO.N,Result12*%
X31200000Y103290000D03*
%TO.P,J1,13,Pin_13*%
%TO.N,Result13*%
X31200000Y105830000D03*
%TO.P,J1,14,Pin_14*%
%TO.N,Result14*%
X31200000Y108370000D03*
%TO.P,J1,15,Pin_15*%
%TO.N,Result15*%
X31200000Y110910000D03*
%TO.P,J1,16,Pin_16*%
%TO.N,+5V*%
X31200000Y113450000D03*
%TD*%
D12*
%TO.P,D40,1,K*%
%TO.N,SInc*%
X133802500Y122910000D03*
D13*
%TO.P,D40,2,A*%
%TO.N,GND*%
X126182500Y122910000D03*
%TD*%
D12*
%TO.P,D39,1,K*%
%TO.N,GND*%
X133802500Y148610000D03*
D13*
%TO.P,D39,2,A*%
%TO.N,Net-(D39-A)*%
X126182500Y148610000D03*
%TD*%
D14*
%TO.P,D37,1,K*%
%TO.N,GND*%
X108515892Y182510000D03*
D15*
%TO.P,D37,2,A*%
%TO.N,Net-(D37-A)*%
X108515892Y179970000D03*
%TD*%
D14*
%TO.P,D43,1,K*%
%TO.N,GND*%
X101045892Y182510000D03*
D15*
%TO.P,D43,2,A*%
%TO.N,Net-(D43-A)*%
X101045892Y179970000D03*
%TD*%
D16*
%TO.P,D38,1,K*%
%TO.N,SInc*%
X157988750Y71957143D03*
D13*
%TO.P,D38,2,A*%
%TO.N,GND*%
X157988750Y64337143D03*
%TD*%
D12*
%TO.P,D41,1,K*%
%TO.N,LInc*%
X82888750Y40690000D03*
D13*
%TO.P,D41,2,A*%
%TO.N,GND*%
X75268750Y40690000D03*
%TD*%
D12*
%TO.P,D29,1,K*%
%TO.N,SInc*%
X121506250Y122910000D03*
D13*
%TO.P,D29,2,A*%
%TO.N,GND*%
X113886250Y122910000D03*
%TD*%
D12*
%TO.P,D31,1,K*%
%TO.N,GND*%
X121506250Y148610000D03*
D13*
%TO.P,D31,2,A*%
%TO.N,Net-(D31-A)*%
X113886250Y148610000D03*
%TD*%
D16*
%TO.P,D28,1,K*%
%TO.N,SInc*%
X157988750Y59708571D03*
D13*
%TO.P,D28,2,A*%
%TO.N,GND*%
X157988750Y52088571D03*
%TD*%
D12*
%TO.P,D30,1,K*%
%TO.N,LInc*%
X70658750Y40690000D03*
D13*
%TO.P,D30,2,A*%
%TO.N,GND*%
X63038750Y40690000D03*
%TD*%
D14*
%TO.P,D27,1,K*%
%TO.N,GND*%
X115985892Y182510000D03*
D15*
%TO.P,D27,2,A*%
%TO.N,Net-(D27-A)*%
X115985892Y179970000D03*
%TD*%
D12*
%TO.P,D24,1,K*%
%TO.N,SInc*%
X109210000Y122910000D03*
D13*
%TO.P,D24,2,A*%
%TO.N,GND*%
X101590000Y122910000D03*
%TD*%
D12*
%TO.P,D23,1,K*%
%TO.N,GND*%
X109210000Y148610000D03*
D13*
%TO.P,D23,2,A*%
%TO.N,Net-(D23-A)*%
X101590000Y148610000D03*
%TD*%
D12*
%TO.P,D25,1,K*%
%TO.N,LInc*%
X58598750Y40690000D03*
D13*
%TO.P,D25,2,A*%
%TO.N,GND*%
X50978750Y40690000D03*
%TD*%
D12*
%TO.P,D13,1,K*%
%TO.N,GND*%
X84617500Y148610000D03*
D13*
%TO.P,D13,2,A*%
%TO.N,Net-(D13-A)*%
X76997500Y148610000D03*
%TD*%
D16*
%TO.P,D22,1,K*%
%TO.N,SInc*%
X157988750Y47460000D03*
D13*
%TO.P,D22,2,A*%
%TO.N,GND*%
X157988750Y39840000D03*
%TD*%
D12*
%TO.P,D15,1,K*%
%TO.N,SInc*%
X96913750Y122910000D03*
D13*
%TO.P,D15,2,A*%
%TO.N,GND*%
X89293750Y122910000D03*
%TD*%
D12*
%TO.P,D16,1,K*%
%TO.N,GND*%
X96913750Y148610000D03*
D13*
%TO.P,D16,2,A*%
%TO.N,Net-(D16-A)*%
X89293750Y148610000D03*
%TD*%
D14*
%TO.P,D17,1,K*%
%TO.N,GND*%
X123245892Y182715000D03*
D15*
%TO.P,D17,2,A*%
%TO.N,Net-(D17-A)*%
X123245892Y180175000D03*
%TD*%
D14*
%TO.P,D14,1,K*%
%TO.N,GND*%
X130715892Y182715000D03*
D15*
%TO.P,D14,2,A*%
%TO.N,Net-(D14-A)*%
X130715892Y180175000D03*
%TD*%
D14*
%TO.P,D6,1,K*%
%TO.N,GND*%
X145655892Y182715000D03*
D15*
%TO.P,D6,2,A*%
%TO.N,Net-(D6-A)*%
X145655892Y180175000D03*
%TD*%
D12*
%TO.P,D8,1,K*%
%TO.N,GND*%
X72321250Y148610000D03*
D13*
%TO.P,D8,2,A*%
%TO.N,Net-(D8-A)*%
X64701250Y148610000D03*
%TD*%
D12*
%TO.P,D7,1,K*%
%TO.N,SInc*%
X72321250Y122910000D03*
D13*
%TO.P,D7,2,A*%
%TO.N,GND*%
X64701250Y122910000D03*
%TD*%
D14*
%TO.P,D9,1,K*%
%TO.N,GND*%
X138185892Y182715000D03*
D15*
%TO.P,D9,2,A*%
%TO.N,Net-(D9-A)*%
X138185892Y180175000D03*
%TD*%
D12*
%TO.P,D10,1,K*%
%TO.N,SInc*%
X84617500Y122910000D03*
D13*
%TO.P,D10,2,A*%
%TO.N,GND*%
X76997500Y122910000D03*
%TD*%
D12*
%TO.P,D2,1,K*%
%TO.N,LInc*%
X47728750Y148610000D03*
D13*
%TO.P,D2,2,A*%
%TO.N,GND*%
X40108750Y148610000D03*
%TD*%
D12*
%TO.P,D4,1,K*%
%TO.N,GND*%
X60025000Y148610000D03*
D13*
%TO.P,D4,2,A*%
%TO.N,Net-(D4-A)*%
X52405000Y148610000D03*
%TD*%
D12*
%TO.P,D5,1,K*%
%TO.N,SInc*%
X60025000Y122910000D03*
D13*
%TO.P,D5,2,A*%
%TO.N,GND*%
X52405000Y122910000D03*
%TD*%
%TO.P,K1,11*%
%TO.N,+5V*%
X40108750Y137320000D03*
%TO.P,K1,12*%
%TO.N,Hold*%
X40108750Y132240000D03*
%TO.P,K1,14*%
%TO.N,unconnected-(K1-Pad14)*%
X40108750Y127160000D03*
%TO.P,K1,21*%
%TO.N,Hold*%
X47728750Y137320000D03*
%TO.P,K1,22*%
%TO.N,unconnected-(K1-Pad22)*%
X47728750Y132240000D03*
%TO.P,K1,24*%
%TO.N,SInc*%
X47728750Y127160000D03*
D17*
%TO.P,K1,A1*%
%TO.N,GND*%
X40108750Y144940000D03*
D13*
%TO.P,K1,A2*%
%TO.N,LInc*%
X47728750Y144940000D03*
%TD*%
%TO.P,K2,11*%
%TO.N,Hold*%
X52405000Y137320000D03*
%TO.P,K2,12*%
%TO.N,unconnected-(K2-Pad12)*%
X52405000Y132240000D03*
%TO.P,K2,14*%
%TO.N,Net-(D4-A)*%
X52405000Y127160000D03*
%TO.P,K2,21*%
%TO.N,unconnected-(K2-Pad21)*%
X60025000Y137320000D03*
%TO.P,K2,22*%
%TO.N,unconnected-(K2-Pad22)*%
X60025000Y132240000D03*
%TO.P,K2,24*%
%TO.N,unconnected-(K2-Pad24)*%
X60025000Y127160000D03*
D17*
%TO.P,K2,A1*%
%TO.N,Net-(D4-A)*%
X52405000Y144940000D03*
D13*
%TO.P,K2,A2*%
%TO.N,GND*%
X60025000Y144940000D03*
%TD*%
%TO.P,K3,11*%
%TO.N,R1*%
X52405000Y110920000D03*
%TO.P,K3,12*%
%TO.N,unconnected-(K3-Pad12)*%
X52405000Y105840000D03*
%TO.P,K3,14*%
%TO.N,Net-(D4-A)*%
X52405000Y100760000D03*
%TO.P,K3,21*%
%TO.N,unconnected-(K3-Pad21)*%
X60025000Y110920000D03*
%TO.P,K3,22*%
%TO.N,unconnected-(K3-Pad22)*%
X60025000Y105840000D03*
%TO.P,K3,24*%
%TO.N,unconnected-(K3-Pad24)*%
X60025000Y100760000D03*
D17*
%TO.P,K3,A1*%
%TO.N,GND*%
X52405000Y118540000D03*
D13*
%TO.P,K3,A2*%
%TO.N,SInc*%
X60025000Y118540000D03*
%TD*%
%TO.P,K4,11*%
%TO.N,R2*%
X64701250Y110920000D03*
%TO.P,K4,12*%
%TO.N,unconnected-(K4-Pad12)*%
X64701250Y105840000D03*
%TO.P,K4,14*%
%TO.N,Net-(D8-A)*%
X64701250Y100760000D03*
%TO.P,K4,21*%
%TO.N,unconnected-(K4-Pad21)*%
X72321250Y110920000D03*
%TO.P,K4,22*%
%TO.N,unconnected-(K4-Pad22)*%
X72321250Y105840000D03*
%TO.P,K4,24*%
%TO.N,unconnected-(K4-Pad24)*%
X72321250Y100760000D03*
D17*
%TO.P,K4,A1*%
%TO.N,GND*%
X64701250Y118540000D03*
D13*
%TO.P,K4,A2*%
%TO.N,SInc*%
X72321250Y118540000D03*
%TD*%
D14*
%TO.P,D102,1,K*%
%TO.N,GND*%
X41485892Y182285000D03*
D15*
%TO.P,D102,2,A*%
%TO.N,Net-(D102-A)*%
X41485892Y179745000D03*
%TD*%
D12*
%TO.P,D101,1,K*%
%TO.N,SInc*%
X146038750Y70740000D03*
D13*
%TO.P,D101,2,A*%
%TO.N,GND*%
X138418750Y70740000D03*
%TD*%
D12*
%TO.P,D100,1,K*%
%TO.N,GND*%
X146038750Y96040000D03*
D13*
%TO.P,D100,2,A*%
%TO.N,Net-(D100-A)*%
X138418750Y96040000D03*
%TD*%
D14*
%TO.P,D99,1,K*%
%TO.N,GND*%
X48955892Y182285000D03*
D15*
%TO.P,D99,2,A*%
%TO.N,Net-(D99-A)*%
X48955892Y179745000D03*
%TD*%
D14*
%TO.P,D92,1,K*%
%TO.N,GND*%
X56425892Y182285000D03*
D15*
%TO.P,D92,2,A*%
%TO.N,Net-(D92-A)*%
X56425892Y179745000D03*
%TD*%
D12*
%TO.P,D94,1,K*%
%TO.N,GND*%
X133802500Y96040000D03*
D13*
%TO.P,D94,2,A*%
%TO.N,Net-(D94-A)*%
X126182500Y96040000D03*
%TD*%
D12*
%TO.P,D93,1,K*%
%TO.N,SInc*%
X133802500Y70740000D03*
D13*
%TO.P,D93,2,A*%
%TO.N,GND*%
X126182500Y70740000D03*
%TD*%
D12*
%TO.P,D91,1,K*%
%TO.N,SInc*%
X121506250Y70740000D03*
D13*
%TO.P,D91,2,A*%
%TO.N,GND*%
X113886250Y70740000D03*
%TD*%
D12*
%TO.P,D90,1,K*%
%TO.N,GND*%
X121506250Y96040000D03*
D13*
%TO.P,D90,2,A*%
%TO.N,Net-(D90-A)*%
X113886250Y96040000D03*
%TD*%
D12*
%TO.P,D84,1,K*%
%TO.N,GND*%
X109210000Y96040000D03*
D13*
%TO.P,D84,2,A*%
%TO.N,Net-(D84-A)*%
X101590000Y96040000D03*
%TD*%
D12*
%TO.P,D81,1,K*%
%TO.N,LInc*%
X146058750Y40690000D03*
D13*
%TO.P,D81,2,A*%
%TO.N,GND*%
X138438750Y40690000D03*
%TD*%
D12*
%TO.P,D77,1,K*%
%TO.N,SInc*%
X96913750Y70740000D03*
D13*
%TO.P,D77,2,A*%
%TO.N,GND*%
X89293750Y70740000D03*
%TD*%
D12*
%TO.P,D78,1,K*%
%TO.N,GND*%
X94888750Y96040000D03*
D13*
%TO.P,D78,2,A*%
%TO.N,Net-(D78-A)*%
X87268750Y96040000D03*
%TD*%
D16*
%TO.P,D80,1,K*%
%TO.N,SInc*%
X157988750Y133200000D03*
D13*
%TO.P,D80,2,A*%
%TO.N,GND*%
X157988750Y125580000D03*
%TD*%
D14*
%TO.P,D79,1,K*%
%TO.N,GND*%
X71365892Y182285000D03*
D15*
%TO.P,D79,2,A*%
%TO.N,Net-(D79-A)*%
X71365892Y179745000D03*
%TD*%
D14*
%TO.P,D85,1,K*%
%TO.N,GND*%
X63895892Y182285000D03*
D15*
%TO.P,D85,2,A*%
%TO.N,Net-(D85-A)*%
X63895892Y179745000D03*
%TD*%
D12*
%TO.P,D83,1,K*%
%TO.N,SInc*%
X109210000Y70740000D03*
D13*
%TO.P,D83,2,A*%
%TO.N,GND*%
X101590000Y70740000D03*
%TD*%
D14*
%TO.P,D69,1,K*%
%TO.N,GND*%
X78635892Y182510000D03*
D15*
%TO.P,D69,2,A*%
%TO.N,Net-(D69-A)*%
X78635892Y179970000D03*
%TD*%
D12*
%TO.P,D71,1,K*%
%TO.N,LInc*%
X133428750Y40690000D03*
D13*
%TO.P,D71,2,A*%
%TO.N,GND*%
X125808750Y40690000D03*
%TD*%
D12*
%TO.P,D67,1,K*%
%TO.N,SInc*%
X84617500Y70740000D03*
D13*
%TO.P,D67,2,A*%
%TO.N,GND*%
X76997500Y70740000D03*
%TD*%
D16*
%TO.P,D70,1,K*%
%TO.N,SInc*%
X157988750Y120951429D03*
D13*
%TO.P,D70,2,A*%
%TO.N,GND*%
X157988750Y113331429D03*
%TD*%
D12*
%TO.P,D68,1,K*%
%TO.N,GND*%
X84617500Y96040000D03*
D13*
%TO.P,D68,2,A*%
%TO.N,Net-(D68-A)*%
X76997500Y96040000D03*
%TD*%
D14*
%TO.P,D63,1,K*%
%TO.N,GND*%
X86105892Y182510000D03*
D15*
%TO.P,D63,2,A*%
%TO.N,Net-(D63-A)*%
X86105892Y179970000D03*
%TD*%
D12*
%TO.P,D58,1,K*%
%TO.N,SInc*%
X72321250Y70740000D03*
D13*
%TO.P,D58,2,A*%
%TO.N,GND*%
X64701250Y70740000D03*
%TD*%
D12*
%TO.P,D57,1,K*%
%TO.N,GND*%
X72321250Y96040000D03*
D13*
%TO.P,D57,2,A*%
%TO.N,Net-(D57-A)*%
X64701250Y96040000D03*
%TD*%
D16*
%TO.P,D64,1,K*%
%TO.N,SInc*%
X157988750Y108702857D03*
D13*
%TO.P,D64,2,A*%
%TO.N,GND*%
X157988750Y101082857D03*
%TD*%
D12*
%TO.P,D65,1,K*%
%TO.N,LInc*%
X120728750Y40690000D03*
D13*
%TO.P,D65,2,A*%
%TO.N,GND*%
X113108750Y40690000D03*
%TD*%
D16*
%TO.P,D54,1,K*%
%TO.N,SInc*%
X157988750Y96454286D03*
D13*
%TO.P,D54,2,A*%
%TO.N,GND*%
X157988750Y88834286D03*
%TD*%
D12*
%TO.P,D52,1,K*%
%TO.N,GND*%
X146038750Y148610000D03*
D13*
%TO.P,D52,2,A*%
%TO.N,Net-(D52-A)*%
X138418750Y148610000D03*
%TD*%
D16*
%TO.P,D48,1,K*%
%TO.N,SInc*%
X157988750Y84205714D03*
D13*
%TO.P,D48,2,A*%
%TO.N,GND*%
X157988750Y76585714D03*
%TD*%
D14*
%TO.P,D53,1,K*%
%TO.N,GND*%
X93575892Y182510000D03*
D15*
%TO.P,D53,2,A*%
%TO.N,Net-(D53-A)*%
X93575892Y179970000D03*
%TD*%
D12*
%TO.P,D49,1,K*%
%TO.N,SInc*%
X146038750Y122910000D03*
D13*
%TO.P,D49,2,A*%
%TO.N,GND*%
X138418750Y122910000D03*
%TD*%
D12*
%TO.P,D55,1,K*%
%TO.N,LInc*%
X108618750Y40690000D03*
D13*
%TO.P,D55,2,A*%
%TO.N,GND*%
X100998750Y40690000D03*
%TD*%
D12*
%TO.P,D50,1,K*%
%TO.N,LInc*%
X95748750Y40690000D03*
D13*
%TO.P,D50,2,A*%
%TO.N,GND*%
X88128750Y40690000D03*
%TD*%
D18*
%TO.P,R13,1*%
%TO.N,Net-(D79-A)*%
X72940178Y175785000D03*
%TO.P,R13,2*%
%TO.N,Net-(D78-A)*%
X72940178Y168165000D03*
%TD*%
%TO.P,R14,1*%
%TO.N,Net-(D85-A)*%
X65971606Y175785000D03*
%TO.P,R14,2*%
%TO.N,Net-(D84-A)*%
X65971606Y168165000D03*
%TD*%
%TO.P,R16,1*%
%TO.N,Net-(D99-A)*%
X52034463Y175785000D03*
%TO.P,R16,2*%
%TO.N,Net-(D94-A)*%
X52034463Y168165000D03*
%TD*%
%TO.P,R17,1*%
%TO.N,Net-(D102-A)*%
X45065892Y175785000D03*
%TO.P,R17,2*%
%TO.N,Net-(D100-A)*%
X45065892Y168165000D03*
%TD*%
%TO.P,R15,1*%
%TO.N,Net-(D92-A)*%
X59003035Y175785000D03*
%TO.P,R15,2*%
%TO.N,Net-(D90-A)*%
X59003035Y168165000D03*
%TD*%
%TO.P,R12,1*%
%TO.N,Net-(D69-A)*%
X79908749Y175785000D03*
%TO.P,R12,2*%
%TO.N,Net-(D68-A)*%
X79908749Y168165000D03*
%TD*%
%TO.P,R9,1*%
%TO.N,Net-(D43-A)*%
X100814463Y175785000D03*
%TO.P,R9,2*%
%TO.N,Net-(D39-A)*%
X100814463Y168165000D03*
%TD*%
%TO.P,R7,1*%
%TO.N,Net-(D27-A)*%
X114751606Y175785000D03*
%TO.P,R7,2*%
%TO.N,Net-(D23-A)*%
X114751606Y168165000D03*
%TD*%
%TO.P,R5,1*%
%TO.N,Net-(D14-A)*%
X128688749Y175785000D03*
%TO.P,R5,2*%
%TO.N,Net-(D13-A)*%
X128688749Y168165000D03*
%TD*%
%TO.P,R4,1*%
%TO.N,Net-(D9-A)*%
X135657321Y175785000D03*
%TO.P,R4,2*%
%TO.N,Net-(D8-A)*%
X135657321Y168165000D03*
%TD*%
%TO.P,R6,1*%
%TO.N,Net-(D17-A)*%
X121720178Y175785000D03*
%TO.P,R6,2*%
%TO.N,Net-(D16-A)*%
X121720178Y168165000D03*
%TD*%
%TO.P,R10,1*%
%TO.N,Net-(D53-A)*%
X93845892Y175785000D03*
%TO.P,R10,2*%
%TO.N,Net-(D52-A)*%
X93845892Y168165000D03*
%TD*%
%TO.P,R11,1*%
%TO.N,Net-(D63-A)*%
X86877321Y175785000D03*
%TO.P,R11,2*%
%TO.N,Net-(D57-A)*%
X86877321Y168165000D03*
%TD*%
%TO.P,R8,1*%
%TO.N,Net-(D37-A)*%
X107783035Y175785000D03*
%TO.P,R8,2*%
%TO.N,Net-(D31-A)*%
X107783035Y168165000D03*
%TD*%
%TO.P,R3,1*%
%TO.N,Net-(D6-A)*%
X142625892Y175785000D03*
%TO.P,R3,2*%
%TO.N,Net-(D4-A)*%
X142625892Y168165000D03*
%TD*%
D13*
%TO.P,K85,11*%
%TO.N,R15*%
X138418750Y59440000D03*
%TO.P,K85,12*%
%TO.N,unconnected-(K85-Pad12)*%
X138418750Y54360000D03*
%TO.P,K85,14*%
%TO.N,Net-(D100-A)*%
X138418750Y49280000D03*
%TO.P,K85,21*%
%TO.N,unconnected-(K85-Pad21)*%
X146038750Y59440000D03*
%TO.P,K85,22*%
%TO.N,unconnected-(K85-Pad22)*%
X146038750Y54360000D03*
%TO.P,K85,24*%
%TO.N,unconnected-(K85-Pad24)*%
X146038750Y49280000D03*
D17*
%TO.P,K85,A1*%
%TO.N,GND*%
X138418750Y67060000D03*
D13*
%TO.P,K85,A2*%
%TO.N,SInc*%
X146038750Y67060000D03*
%TD*%
%TO.P,K84,11*%
%TO.N,Hold*%
X138418750Y84670000D03*
%TO.P,K84,12*%
%TO.N,unconnected-(K84-Pad12)*%
X138418750Y79590000D03*
%TO.P,K84,14*%
%TO.N,Net-(D100-A)*%
X138418750Y74510000D03*
%TO.P,K84,21*%
%TO.N,unconnected-(K84-Pad21)*%
X146038750Y84670000D03*
%TO.P,K84,22*%
%TO.N,unconnected-(K84-Pad22)*%
X146038750Y79590000D03*
%TO.P,K84,24*%
%TO.N,unconnected-(K84-Pad24)*%
X146038750Y74510000D03*
D17*
%TO.P,K84,A1*%
%TO.N,Net-(D100-A)*%
X138418750Y92290000D03*
D13*
%TO.P,K84,A2*%
%TO.N,GND*%
X146038750Y92290000D03*
%TD*%
%TO.P,K78,11*%
%TO.N,R14*%
X126182500Y59440000D03*
%TO.P,K78,12*%
%TO.N,unconnected-(K78-Pad12)*%
X126182500Y54360000D03*
%TO.P,K78,14*%
%TO.N,Net-(D94-A)*%
X126182500Y49280000D03*
%TO.P,K78,21*%
%TO.N,unconnected-(K78-Pad21)*%
X133802500Y59440000D03*
%TO.P,K78,22*%
%TO.N,unconnected-(K78-Pad22)*%
X133802500Y54360000D03*
%TO.P,K78,24*%
%TO.N,unconnected-(K78-Pad24)*%
X133802500Y49280000D03*
D17*
%TO.P,K78,A1*%
%TO.N,GND*%
X126182500Y67060000D03*
D13*
%TO.P,K78,A2*%
%TO.N,SInc*%
X133802500Y67060000D03*
%TD*%
%TO.P,K77,11*%
%TO.N,R13*%
X113886250Y59440000D03*
%TO.P,K77,12*%
%TO.N,unconnected-(K77-Pad12)*%
X113886250Y54360000D03*
%TO.P,K77,14*%
%TO.N,Net-(D90-A)*%
X113886250Y49280000D03*
%TO.P,K77,21*%
%TO.N,unconnected-(K77-Pad21)*%
X121506250Y59440000D03*
%TO.P,K77,22*%
%TO.N,unconnected-(K77-Pad22)*%
X121506250Y54360000D03*
%TO.P,K77,24*%
%TO.N,unconnected-(K77-Pad24)*%
X121506250Y49280000D03*
D17*
%TO.P,K77,A1*%
%TO.N,GND*%
X113886250Y67060000D03*
D13*
%TO.P,K77,A2*%
%TO.N,SInc*%
X121506250Y67060000D03*
%TD*%
%TO.P,K76,11*%
%TO.N,Hold*%
X113886250Y84670000D03*
%TO.P,K76,12*%
%TO.N,unconnected-(K76-Pad12)*%
X113886250Y79590000D03*
%TO.P,K76,14*%
%TO.N,Net-(D90-A)*%
X113886250Y74510000D03*
%TO.P,K76,21*%
%TO.N,unconnected-(K76-Pad21)*%
X121506250Y84670000D03*
%TO.P,K76,22*%
%TO.N,unconnected-(K76-Pad22)*%
X121506250Y79590000D03*
%TO.P,K76,24*%
%TO.N,unconnected-(K76-Pad24)*%
X121506250Y74510000D03*
D17*
%TO.P,K76,A1*%
%TO.N,Net-(D90-A)*%
X113886250Y92290000D03*
D13*
%TO.P,K76,A2*%
%TO.N,GND*%
X121506250Y92290000D03*
%TD*%
%TO.P,K70,11*%
%TO.N,R12*%
X101590000Y59440000D03*
%TO.P,K70,12*%
%TO.N,unconnected-(K70-Pad12)*%
X101590000Y54360000D03*
%TO.P,K70,14*%
%TO.N,Net-(D84-A)*%
X101590000Y49280000D03*
%TO.P,K70,21*%
%TO.N,unconnected-(K70-Pad21)*%
X109210000Y59440000D03*
%TO.P,K70,22*%
%TO.N,unconnected-(K70-Pad22)*%
X109210000Y54360000D03*
%TO.P,K70,24*%
%TO.N,unconnected-(K70-Pad24)*%
X109210000Y49280000D03*
D17*
%TO.P,K70,A1*%
%TO.N,GND*%
X101590000Y67060000D03*
D13*
%TO.P,K70,A2*%
%TO.N,SInc*%
X109210000Y67060000D03*
%TD*%
%TO.P,K71,11*%
%TO.N,Hold*%
X101590000Y84670000D03*
%TO.P,K71,12*%
%TO.N,unconnected-(K71-Pad12)*%
X101590000Y79590000D03*
%TO.P,K71,14*%
%TO.N,Net-(D84-A)*%
X101590000Y74510000D03*
%TO.P,K71,21*%
%TO.N,unconnected-(K71-Pad21)*%
X109210000Y84670000D03*
%TO.P,K71,22*%
%TO.N,unconnected-(K71-Pad22)*%
X109210000Y79590000D03*
%TO.P,K71,24*%
%TO.N,unconnected-(K71-Pad24)*%
X109210000Y74510000D03*
D17*
%TO.P,K71,A1*%
%TO.N,Net-(D84-A)*%
X101590000Y92290000D03*
D13*
%TO.P,K71,A2*%
%TO.N,GND*%
X109210000Y92290000D03*
%TD*%
%TO.P,K79,11*%
%TO.N,Hold*%
X126182500Y84670000D03*
%TO.P,K79,12*%
%TO.N,unconnected-(K79-Pad12)*%
X126182500Y79590000D03*
%TO.P,K79,14*%
%TO.N,Net-(D94-A)*%
X126182500Y74510000D03*
%TO.P,K79,21*%
%TO.N,unconnected-(K79-Pad21)*%
X133802500Y84670000D03*
%TO.P,K79,22*%
%TO.N,unconnected-(K79-Pad22)*%
X133802500Y79590000D03*
%TO.P,K79,24*%
%TO.N,unconnected-(K79-Pad24)*%
X133802500Y74510000D03*
D17*
%TO.P,K79,A1*%
%TO.N,Net-(D94-A)*%
X126182500Y92290000D03*
D13*
%TO.P,K79,A2*%
%TO.N,GND*%
X133802500Y92290000D03*
%TD*%
%TO.P,K66,11*%
%TO.N,Hold*%
X89293750Y84670000D03*
%TO.P,K66,12*%
%TO.N,unconnected-(K66-Pad12)*%
X89293750Y79590000D03*
%TO.P,K66,14*%
%TO.N,Net-(D78-A)*%
X89293750Y74510000D03*
%TO.P,K66,21*%
%TO.N,unconnected-(K66-Pad21)*%
X96913750Y84670000D03*
%TO.P,K66,22*%
%TO.N,unconnected-(K66-Pad22)*%
X96913750Y79590000D03*
%TO.P,K66,24*%
%TO.N,unconnected-(K66-Pad24)*%
X96913750Y74510000D03*
D17*
%TO.P,K66,A1*%
%TO.N,Net-(D78-A)*%
X89293750Y92290000D03*
D13*
%TO.P,K66,A2*%
%TO.N,GND*%
X96913750Y92290000D03*
%TD*%
%TO.P,K67,11*%
%TO.N,R15*%
X169178750Y125580000D03*
%TO.P,K67,12*%
%TO.N,unconnected-(K67-Pad12)*%
X174258750Y125580000D03*
%TO.P,K67,14*%
%TO.N,A15*%
X179338750Y125580000D03*
%TO.P,K67,21*%
%TO.N,unconnected-(K67-Pad21)*%
X169178750Y133200000D03*
%TO.P,K67,22*%
%TO.N,unconnected-(K67-Pad22)*%
X174258750Y133200000D03*
%TO.P,K67,24*%
%TO.N,unconnected-(K67-Pad24)*%
X179338750Y133200000D03*
D19*
%TO.P,K67,A1*%
%TO.N,GND*%
X161558750Y125580000D03*
D13*
%TO.P,K67,A2*%
%TO.N,SInc*%
X161558750Y133200000D03*
%TD*%
%TO.P,K68,11*%
%TO.N,R15*%
X138918750Y28330000D03*
%TO.P,K68,12*%
%TO.N,unconnected-(K68-Pad12)*%
X138918750Y23250000D03*
%TO.P,K68,14*%
%TO.N,Result15*%
X138918750Y18170000D03*
%TO.P,K68,21*%
%TO.N,unconnected-(K68-Pad21)*%
X146538750Y28330000D03*
%TO.P,K68,22*%
%TO.N,unconnected-(K68-Pad22)*%
X146538750Y23250000D03*
%TO.P,K68,24*%
%TO.N,unconnected-(K68-Pad24)*%
X146538750Y18170000D03*
D17*
%TO.P,K68,A1*%
%TO.N,GND*%
X138918750Y35950000D03*
D13*
%TO.P,K68,A2*%
%TO.N,LInc*%
X146538750Y35950000D03*
%TD*%
%TO.P,K65,11*%
%TO.N,R11*%
X89293750Y59440000D03*
%TO.P,K65,12*%
%TO.N,unconnected-(K65-Pad12)*%
X89293750Y54360000D03*
%TO.P,K65,14*%
%TO.N,Net-(D78-A)*%
X89293750Y49280000D03*
%TO.P,K65,21*%
%TO.N,unconnected-(K65-Pad21)*%
X96913750Y59440000D03*
%TO.P,K65,22*%
%TO.N,unconnected-(K65-Pad22)*%
X96913750Y54360000D03*
%TO.P,K65,24*%
%TO.N,unconnected-(K65-Pad24)*%
X96913750Y49280000D03*
D17*
%TO.P,K65,A1*%
%TO.N,GND*%
X89293750Y67060000D03*
D13*
%TO.P,K65,A2*%
%TO.N,SInc*%
X96913750Y67060000D03*
%TD*%
%TO.P,K58,11*%
%TO.N,R13*%
X169178750Y113331429D03*
%TO.P,K58,12*%
%TO.N,unconnected-(K58-Pad12)*%
X174258750Y113331429D03*
%TO.P,K58,14*%
%TO.N,A13*%
X179338750Y113331429D03*
%TO.P,K58,21*%
%TO.N,R14*%
X169178750Y120951429D03*
%TO.P,K58,22*%
%TO.N,unconnected-(K58-Pad22)*%
X174258750Y120951429D03*
%TO.P,K58,24*%
%TO.N,A14*%
X179338750Y120951429D03*
D19*
%TO.P,K58,A1*%
%TO.N,GND*%
X161558750Y113331429D03*
D13*
%TO.P,K58,A2*%
%TO.N,SInc*%
X161558750Y120951429D03*
%TD*%
%TO.P,K56,11*%
%TO.N,R10*%
X76997500Y59440000D03*
%TO.P,K56,12*%
%TO.N,unconnected-(K56-Pad12)*%
X76997500Y54360000D03*
%TO.P,K56,14*%
%TO.N,Net-(D68-A)*%
X76997500Y49280000D03*
%TO.P,K56,21*%
%TO.N,unconnected-(K56-Pad21)*%
X84617500Y59440000D03*
%TO.P,K56,22*%
%TO.N,unconnected-(K56-Pad22)*%
X84617500Y54360000D03*
%TO.P,K56,24*%
%TO.N,unconnected-(K56-Pad24)*%
X84617500Y49280000D03*
D17*
%TO.P,K56,A1*%
%TO.N,GND*%
X76997500Y67060000D03*
D13*
%TO.P,K56,A2*%
%TO.N,SInc*%
X84617500Y67060000D03*
%TD*%
%TO.P,K54,11*%
%TO.N,R11*%
X113587321Y28330000D03*
%TO.P,K54,12*%
%TO.N,unconnected-(K54-Pad12)*%
X113587321Y23250000D03*
%TO.P,K54,14*%
%TO.N,Result11*%
X113587321Y18170000D03*
%TO.P,K54,21*%
%TO.N,R12*%
X121207321Y28330000D03*
%TO.P,K54,22*%
%TO.N,unconnected-(K54-Pad22)*%
X121207321Y23250000D03*
%TO.P,K54,24*%
%TO.N,Result12*%
X121207321Y18170000D03*
D17*
%TO.P,K54,A1*%
%TO.N,GND*%
X113587321Y35950000D03*
D13*
%TO.P,K54,A2*%
%TO.N,LInc*%
X121207321Y35950000D03*
%TD*%
%TO.P,K57,11*%
%TO.N,Hold*%
X76997500Y84670000D03*
%TO.P,K57,12*%
%TO.N,unconnected-(K57-Pad12)*%
X76997500Y79590000D03*
%TO.P,K57,14*%
%TO.N,Net-(D68-A)*%
X76997500Y74510000D03*
%TO.P,K57,21*%
%TO.N,unconnected-(K57-Pad21)*%
X84617500Y84670000D03*
%TO.P,K57,22*%
%TO.N,unconnected-(K57-Pad22)*%
X84617500Y79590000D03*
%TO.P,K57,24*%
%TO.N,unconnected-(K57-Pad24)*%
X84617500Y74510000D03*
D17*
%TO.P,K57,A1*%
%TO.N,Net-(D68-A)*%
X76997500Y92290000D03*
D13*
%TO.P,K57,A2*%
%TO.N,GND*%
X84617500Y92290000D03*
%TD*%
%TO.P,K59,11*%
%TO.N,R13*%
X126253036Y28330000D03*
%TO.P,K59,12*%
%TO.N,unconnected-(K59-Pad12)*%
X126253036Y23250000D03*
%TO.P,K59,14*%
%TO.N,Result13*%
X126253036Y18170000D03*
%TO.P,K59,21*%
%TO.N,R14*%
X133873036Y28330000D03*
%TO.P,K59,22*%
%TO.N,unconnected-(K59-Pad22)*%
X133873036Y23250000D03*
%TO.P,K59,24*%
%TO.N,Result14*%
X133873036Y18170000D03*
D17*
%TO.P,K59,A1*%
%TO.N,GND*%
X126253036Y35950000D03*
D13*
%TO.P,K59,A2*%
%TO.N,LInc*%
X133873036Y35950000D03*
%TD*%
%TO.P,K53,11*%
%TO.N,R11*%
X169178750Y101082857D03*
%TO.P,K53,12*%
%TO.N,unconnected-(K53-Pad12)*%
X174258750Y101082857D03*
%TO.P,K53,14*%
%TO.N,A11*%
X179338750Y101082857D03*
%TO.P,K53,21*%
%TO.N,R12*%
X169178750Y108702857D03*
%TO.P,K53,22*%
%TO.N,unconnected-(K53-Pad22)*%
X174258750Y108702857D03*
%TO.P,K53,24*%
%TO.N,A12*%
X179338750Y108702857D03*
D19*
%TO.P,K53,A1*%
%TO.N,GND*%
X161558750Y101082857D03*
D13*
%TO.P,K53,A2*%
%TO.N,SInc*%
X161558750Y108702857D03*
%TD*%
%TO.P,K48,11*%
%TO.N,R9*%
X64701250Y59440000D03*
%TO.P,K48,12*%
%TO.N,unconnected-(K48-Pad12)*%
X64701250Y54360000D03*
%TO.P,K48,14*%
%TO.N,Net-(D57-A)*%
X64701250Y49280000D03*
%TO.P,K48,21*%
%TO.N,unconnected-(K48-Pad21)*%
X72321250Y59440000D03*
%TO.P,K48,22*%
%TO.N,unconnected-(K48-Pad22)*%
X72321250Y54360000D03*
%TO.P,K48,24*%
%TO.N,unconnected-(K48-Pad24)*%
X72321250Y49280000D03*
D17*
%TO.P,K48,A1*%
%TO.N,GND*%
X64701250Y67060000D03*
D13*
%TO.P,K48,A2*%
%TO.N,SInc*%
X72321250Y67060000D03*
%TD*%
%TO.P,K47,11*%
%TO.N,Hold*%
X64701250Y84670000D03*
%TO.P,K47,12*%
%TO.N,unconnected-(K47-Pad12)*%
X64701250Y79590000D03*
%TO.P,K47,14*%
%TO.N,Net-(D57-A)*%
X64701250Y74510000D03*
%TO.P,K47,21*%
%TO.N,unconnected-(K47-Pad21)*%
X72321250Y84670000D03*
%TO.P,K47,22*%
%TO.N,unconnected-(K47-Pad22)*%
X72321250Y79590000D03*
%TO.P,K47,24*%
%TO.N,unconnected-(K47-Pad24)*%
X72321250Y74510000D03*
D17*
%TO.P,K47,A1*%
%TO.N,Net-(D57-A)*%
X64701250Y92290000D03*
D13*
%TO.P,K47,A2*%
%TO.N,GND*%
X72321250Y92290000D03*
%TD*%
%TO.P,K45,11*%
%TO.N,R9*%
X100921607Y28330000D03*
%TO.P,K45,12*%
%TO.N,unconnected-(K45-Pad12)*%
X100921607Y23250000D03*
%TO.P,K45,14*%
%TO.N,Result9*%
X100921607Y18170000D03*
%TO.P,K45,21*%
%TO.N,R10*%
X108541607Y28330000D03*
%TO.P,K45,22*%
%TO.N,unconnected-(K45-Pad22)*%
X108541607Y23250000D03*
%TO.P,K45,24*%
%TO.N,Result10*%
X108541607Y18170000D03*
D17*
%TO.P,K45,A1*%
%TO.N,GND*%
X100921607Y35950000D03*
D13*
%TO.P,K45,A2*%
%TO.N,LInc*%
X108541607Y35950000D03*
%TD*%
%TO.P,K43,11*%
%TO.N,Hold*%
X138418750Y137320000D03*
%TO.P,K43,12*%
%TO.N,unconnected-(K43-Pad12)*%
X138418750Y132240000D03*
%TO.P,K43,14*%
%TO.N,Net-(D52-A)*%
X138418750Y127160000D03*
%TO.P,K43,21*%
%TO.N,unconnected-(K43-Pad21)*%
X146038750Y137320000D03*
%TO.P,K43,22*%
%TO.N,unconnected-(K43-Pad22)*%
X146038750Y132240000D03*
%TO.P,K43,24*%
%TO.N,unconnected-(K43-Pad24)*%
X146038750Y127160000D03*
D17*
%TO.P,K43,A1*%
%TO.N,Net-(D52-A)*%
X138418750Y144940000D03*
D13*
%TO.P,K43,A2*%
%TO.N,GND*%
X146038750Y144940000D03*
%TD*%
%TO.P,K41,11*%
%TO.N,R7*%
X88255893Y28330000D03*
%TO.P,K41,12*%
%TO.N,unconnected-(K41-Pad12)*%
X88255893Y23250000D03*
%TO.P,K41,14*%
%TO.N,Result7*%
X88255893Y18170000D03*
%TO.P,K41,21*%
%TO.N,R8*%
X95875893Y28330000D03*
%TO.P,K41,22*%
%TO.N,unconnected-(K41-Pad22)*%
X95875893Y23250000D03*
%TO.P,K41,24*%
%TO.N,Result8*%
X95875893Y18170000D03*
D17*
%TO.P,K41,A1*%
%TO.N,GND*%
X88255893Y35950000D03*
D13*
%TO.P,K41,A2*%
%TO.N,LInc*%
X95875893Y35950000D03*
%TD*%
%TO.P,K39,11*%
%TO.N,R7*%
X169178750Y76585714D03*
%TO.P,K39,12*%
%TO.N,unconnected-(K39-Pad12)*%
X174258750Y76585714D03*
%TO.P,K39,14*%
%TO.N,A7*%
X179338750Y76585714D03*
%TO.P,K39,21*%
%TO.N,R8*%
X169178750Y84205714D03*
%TO.P,K39,22*%
%TO.N,unconnected-(K39-Pad22)*%
X174258750Y84205714D03*
%TO.P,K39,24*%
%TO.N,A8*%
X179338750Y84205714D03*
D19*
%TO.P,K39,A1*%
%TO.N,GND*%
X161558750Y76585714D03*
D13*
%TO.P,K39,A2*%
%TO.N,SInc*%
X161558750Y84205714D03*
%TD*%
%TO.P,K44,11*%
%TO.N,R9*%
X169178750Y88834286D03*
%TO.P,K44,12*%
%TO.N,unconnected-(K44-Pad12)*%
X174258750Y88834286D03*
%TO.P,K44,14*%
%TO.N,A9*%
X179338750Y88834286D03*
%TO.P,K44,21*%
%TO.N,R10*%
X169178750Y96454286D03*
%TO.P,K44,22*%
%TO.N,unconnected-(K44-Pad22)*%
X174258750Y96454286D03*
%TO.P,K44,24*%
%TO.N,A10*%
X179338750Y96454286D03*
D19*
%TO.P,K44,A1*%
%TO.N,GND*%
X161558750Y88834286D03*
D13*
%TO.P,K44,A2*%
%TO.N,SInc*%
X161558750Y96454286D03*
%TD*%
%TO.P,K40,11*%
%TO.N,R8*%
X138418750Y110920000D03*
%TO.P,K40,12*%
%TO.N,unconnected-(K40-Pad12)*%
X138418750Y105840000D03*
%TO.P,K40,14*%
%TO.N,Net-(D52-A)*%
X138418750Y100760000D03*
%TO.P,K40,21*%
%TO.N,unconnected-(K40-Pad21)*%
X146038750Y110920000D03*
%TO.P,K40,22*%
%TO.N,unconnected-(K40-Pad22)*%
X146038750Y105840000D03*
%TO.P,K40,24*%
%TO.N,unconnected-(K40-Pad24)*%
X146038750Y100760000D03*
D17*
%TO.P,K40,A1*%
%TO.N,GND*%
X138418750Y118540000D03*
D13*
%TO.P,K40,A2*%
%TO.N,SInc*%
X146038750Y118540000D03*
%TD*%
%TO.P,K33,11*%
%TO.N,R5*%
X75590179Y28330000D03*
%TO.P,K33,12*%
%TO.N,unconnected-(K33-Pad12)*%
X75590179Y23250000D03*
%TO.P,K33,14*%
%TO.N,Result5*%
X75590179Y18170000D03*
%TO.P,K33,21*%
%TO.N,R6*%
X83210179Y28330000D03*
%TO.P,K33,22*%
%TO.N,unconnected-(K33-Pad22)*%
X83210179Y23250000D03*
%TO.P,K33,24*%
%TO.N,Result6*%
X83210179Y18170000D03*
D17*
%TO.P,K33,A1*%
%TO.N,GND*%
X75590179Y35950000D03*
D13*
%TO.P,K33,A2*%
%TO.N,LInc*%
X83210179Y35950000D03*
%TD*%
%TO.P,K32,11*%
%TO.N,R7*%
X126182500Y110920000D03*
%TO.P,K32,12*%
%TO.N,unconnected-(K32-Pad12)*%
X126182500Y105840000D03*
%TO.P,K32,14*%
%TO.N,Net-(D39-A)*%
X126182500Y100760000D03*
%TO.P,K32,21*%
%TO.N,unconnected-(K32-Pad21)*%
X133802500Y110920000D03*
%TO.P,K32,22*%
%TO.N,unconnected-(K32-Pad22)*%
X133802500Y105840000D03*
%TO.P,K32,24*%
%TO.N,unconnected-(K32-Pad24)*%
X133802500Y100760000D03*
D17*
%TO.P,K32,A1*%
%TO.N,GND*%
X126182500Y118540000D03*
D13*
%TO.P,K32,A2*%
%TO.N,SInc*%
X133802500Y118540000D03*
%TD*%
%TO.P,K31,11*%
%TO.N,Hold*%
X126182500Y137320000D03*
%TO.P,K31,12*%
%TO.N,unconnected-(K31-Pad12)*%
X126182500Y132240000D03*
%TO.P,K31,14*%
%TO.N,Net-(D39-A)*%
X126182500Y127160000D03*
%TO.P,K31,21*%
%TO.N,unconnected-(K31-Pad21)*%
X133802500Y137320000D03*
%TO.P,K31,22*%
%TO.N,unconnected-(K31-Pad22)*%
X133802500Y132240000D03*
%TO.P,K31,24*%
%TO.N,unconnected-(K31-Pad24)*%
X133802500Y127160000D03*
D17*
%TO.P,K31,A1*%
%TO.N,Net-(D39-A)*%
X126182500Y144940000D03*
D13*
%TO.P,K31,A2*%
%TO.N,GND*%
X133802500Y144940000D03*
%TD*%
%TO.P,K30,11*%
%TO.N,R5*%
X169178750Y64337143D03*
%TO.P,K30,12*%
%TO.N,unconnected-(K30-Pad12)*%
X174258750Y64337143D03*
%TO.P,K30,14*%
%TO.N,A5*%
X179338750Y64337143D03*
%TO.P,K30,21*%
%TO.N,R6*%
X169178750Y71957143D03*
%TO.P,K30,22*%
%TO.N,unconnected-(K30-Pad22)*%
X174258750Y71957143D03*
%TO.P,K30,24*%
%TO.N,A6*%
X179338750Y71957143D03*
D19*
%TO.P,K30,A1*%
%TO.N,GND*%
X161558750Y64337143D03*
D13*
%TO.P,K30,A2*%
%TO.N,SInc*%
X161558750Y71957143D03*
%TD*%
%TO.P,K23,11*%
%TO.N,R3*%
X62924464Y28330000D03*
%TO.P,K23,12*%
%TO.N,unconnected-(K23-Pad12)*%
X62924464Y23250000D03*
%TO.P,K23,14*%
%TO.N,Result3*%
X62924464Y18170000D03*
%TO.P,K23,21*%
%TO.N,R4*%
X70544464Y28330000D03*
%TO.P,K23,22*%
%TO.N,unconnected-(K23-Pad22)*%
X70544464Y23250000D03*
%TO.P,K23,24*%
%TO.N,Result4*%
X70544464Y18170000D03*
D17*
%TO.P,K23,A1*%
%TO.N,GND*%
X62924464Y35950000D03*
D13*
%TO.P,K23,A2*%
%TO.N,LInc*%
X70544464Y35950000D03*
%TD*%
%TO.P,K22,11*%
%TO.N,R6*%
X113886250Y110920000D03*
%TO.P,K22,12*%
%TO.N,unconnected-(K22-Pad12)*%
X113886250Y105840000D03*
%TO.P,K22,14*%
%TO.N,Net-(D31-A)*%
X113886250Y100760000D03*
%TO.P,K22,21*%
%TO.N,unconnected-(K22-Pad21)*%
X121506250Y110920000D03*
%TO.P,K22,22*%
%TO.N,unconnected-(K22-Pad22)*%
X121506250Y105840000D03*
%TO.P,K22,24*%
%TO.N,unconnected-(K22-Pad24)*%
X121506250Y100760000D03*
D17*
%TO.P,K22,A1*%
%TO.N,GND*%
X113886250Y118540000D03*
D13*
%TO.P,K22,A2*%
%TO.N,SInc*%
X121506250Y118540000D03*
%TD*%
%TO.P,K24,11*%
%TO.N,Hold*%
X113886250Y137320000D03*
%TO.P,K24,12*%
%TO.N,unconnected-(K24-Pad12)*%
X113886250Y132240000D03*
%TO.P,K24,14*%
%TO.N,Net-(D31-A)*%
X113886250Y127160000D03*
%TO.P,K24,21*%
%TO.N,unconnected-(K24-Pad21)*%
X121506250Y137320000D03*
%TO.P,K24,22*%
%TO.N,unconnected-(K24-Pad22)*%
X121506250Y132240000D03*
%TO.P,K24,24*%
%TO.N,unconnected-(K24-Pad24)*%
X121506250Y127160000D03*
D17*
%TO.P,K24,A1*%
%TO.N,Net-(D31-A)*%
X113886250Y144940000D03*
D13*
%TO.P,K24,A2*%
%TO.N,GND*%
X121506250Y144940000D03*
%TD*%
%TO.P,K16,11*%
%TO.N,R1*%
X169178750Y39840000D03*
%TO.P,K16,12*%
%TO.N,unconnected-(K16-Pad12)*%
X174258750Y39840000D03*
%TO.P,K16,14*%
%TO.N,A1*%
X179338750Y39840000D03*
%TO.P,K16,21*%
%TO.N,R2*%
X169178750Y47460000D03*
%TO.P,K16,22*%
%TO.N,unconnected-(K16-Pad22)*%
X174258750Y47460000D03*
%TO.P,K16,24*%
%TO.N,A2*%
X179338750Y47460000D03*
D19*
%TO.P,K16,A1*%
%TO.N,GND*%
X161558750Y39840000D03*
D13*
%TO.P,K16,A2*%
%TO.N,SInc*%
X161558750Y47460000D03*
%TD*%
%TO.P,K19,11*%
%TO.N,R1*%
X50258750Y28330000D03*
%TO.P,K19,12*%
%TO.N,unconnected-(K19-Pad12)*%
X50258750Y23250000D03*
%TO.P,K19,14*%
%TO.N,Result1*%
X50258750Y18170000D03*
%TO.P,K19,21*%
%TO.N,R2*%
X57878750Y28330000D03*
%TO.P,K19,22*%
%TO.N,unconnected-(K19-Pad22)*%
X57878750Y23250000D03*
%TO.P,K19,24*%
%TO.N,Result2*%
X57878750Y18170000D03*
D17*
%TO.P,K19,A1*%
%TO.N,GND*%
X50258750Y35950000D03*
D13*
%TO.P,K19,A2*%
%TO.N,LInc*%
X57878750Y35950000D03*
%TD*%
%TO.P,K18,11*%
%TO.N,R5*%
X101590000Y110920000D03*
%TO.P,K18,12*%
%TO.N,unconnected-(K18-Pad12)*%
X101590000Y105840000D03*
%TO.P,K18,14*%
%TO.N,Net-(D23-A)*%
X101590000Y100760000D03*
%TO.P,K18,21*%
%TO.N,unconnected-(K18-Pad21)*%
X109210000Y110920000D03*
%TO.P,K18,22*%
%TO.N,unconnected-(K18-Pad22)*%
X109210000Y105840000D03*
%TO.P,K18,24*%
%TO.N,unconnected-(K18-Pad24)*%
X109210000Y100760000D03*
D17*
%TO.P,K18,A1*%
%TO.N,GND*%
X101590000Y118540000D03*
D13*
%TO.P,K18,A2*%
%TO.N,SInc*%
X109210000Y118540000D03*
%TD*%
%TO.P,K17,11*%
%TO.N,Hold*%
X101590000Y137320000D03*
%TO.P,K17,12*%
%TO.N,unconnected-(K17-Pad12)*%
X101590000Y132240000D03*
%TO.P,K17,14*%
%TO.N,Net-(D23-A)*%
X101590000Y127160000D03*
%TO.P,K17,21*%
%TO.N,unconnected-(K17-Pad21)*%
X109210000Y137320000D03*
%TO.P,K17,22*%
%TO.N,unconnected-(K17-Pad22)*%
X109210000Y132240000D03*
%TO.P,K17,24*%
%TO.N,unconnected-(K17-Pad24)*%
X109210000Y127160000D03*
D17*
%TO.P,K17,A1*%
%TO.N,Net-(D23-A)*%
X101590000Y144940000D03*
D13*
%TO.P,K17,A2*%
%TO.N,GND*%
X109210000Y144940000D03*
%TD*%
%TO.P,K21,11*%
%TO.N,R3*%
X169178750Y52088571D03*
%TO.P,K21,12*%
%TO.N,unconnected-(K21-Pad12)*%
X174258750Y52088571D03*
%TO.P,K21,14*%
%TO.N,A3*%
X179338750Y52088571D03*
%TO.P,K21,21*%
%TO.N,R4*%
X169178750Y59708571D03*
%TO.P,K21,22*%
%TO.N,unconnected-(K21-Pad22)*%
X174258750Y59708571D03*
%TO.P,K21,24*%
%TO.N,A4*%
X179338750Y59708571D03*
D19*
%TO.P,K21,A1*%
%TO.N,GND*%
X161558750Y52088571D03*
D13*
%TO.P,K21,A2*%
%TO.N,SInc*%
X161558750Y59708571D03*
%TD*%
%TO.P,K10,11*%
%TO.N,R4*%
X89293750Y110920000D03*
%TO.P,K10,12*%
%TO.N,unconnected-(K10-Pad12)*%
X89293750Y105840000D03*
%TO.P,K10,14*%
%TO.N,Net-(D16-A)*%
X89293750Y100760000D03*
%TO.P,K10,21*%
%TO.N,unconnected-(K10-Pad21)*%
X96913750Y110920000D03*
%TO.P,K10,22*%
%TO.N,unconnected-(K10-Pad22)*%
X96913750Y105840000D03*
%TO.P,K10,24*%
%TO.N,unconnected-(K10-Pad24)*%
X96913750Y100760000D03*
D17*
%TO.P,K10,A1*%
%TO.N,GND*%
X89293750Y118540000D03*
D13*
%TO.P,K10,A2*%
%TO.N,SInc*%
X96913750Y118540000D03*
%TD*%
%TO.P,K11,11*%
%TO.N,Hold*%
X89293750Y137320000D03*
%TO.P,K11,12*%
%TO.N,unconnected-(K11-Pad12)*%
X89293750Y132240000D03*
%TO.P,K11,14*%
%TO.N,Net-(D16-A)*%
X89293750Y127160000D03*
%TO.P,K11,21*%
%TO.N,unconnected-(K11-Pad21)*%
X96913750Y137320000D03*
%TO.P,K11,22*%
%TO.N,unconnected-(K11-Pad22)*%
X96913750Y132240000D03*
%TO.P,K11,24*%
%TO.N,unconnected-(K11-Pad24)*%
X96913750Y127160000D03*
D17*
%TO.P,K11,A1*%
%TO.N,Net-(D16-A)*%
X89293750Y144940000D03*
D13*
%TO.P,K11,A2*%
%TO.N,GND*%
X96913750Y144940000D03*
%TD*%
%TO.P,K9,11*%
%TO.N,Hold*%
X76997500Y137320000D03*
%TO.P,K9,12*%
%TO.N,unconnected-(K9-Pad12)*%
X76997500Y132240000D03*
%TO.P,K9,14*%
%TO.N,Net-(D13-A)*%
X76997500Y127160000D03*
%TO.P,K9,21*%
%TO.N,unconnected-(K9-Pad21)*%
X84617500Y137320000D03*
%TO.P,K9,22*%
%TO.N,unconnected-(K9-Pad22)*%
X84617500Y132240000D03*
%TO.P,K9,24*%
%TO.N,unconnected-(K9-Pad24)*%
X84617500Y127160000D03*
D17*
%TO.P,K9,A1*%
%TO.N,Net-(D13-A)*%
X76997500Y144940000D03*
D13*
%TO.P,K9,A2*%
%TO.N,GND*%
X84617500Y144940000D03*
%TD*%
%TO.P,K6,11*%
%TO.N,R3*%
X76997500Y110920000D03*
%TO.P,K6,12*%
%TO.N,unconnected-(K6-Pad12)*%
X76997500Y105840000D03*
%TO.P,K6,14*%
%TO.N,Net-(D13-A)*%
X76997500Y100760000D03*
%TO.P,K6,21*%
%TO.N,unconnected-(K6-Pad21)*%
X84617500Y110920000D03*
%TO.P,K6,22*%
%TO.N,unconnected-(K6-Pad22)*%
X84617500Y105840000D03*
%TO.P,K6,24*%
%TO.N,unconnected-(K6-Pad24)*%
X84617500Y100760000D03*
D17*
%TO.P,K6,A1*%
%TO.N,GND*%
X76997500Y118540000D03*
D13*
%TO.P,K6,A2*%
%TO.N,SInc*%
X84617500Y118540000D03*
%TD*%
%TO.P,K5,11*%
%TO.N,Hold*%
X64701250Y137320000D03*
%TO.P,K5,12*%
%TO.N,unconnected-(K5-Pad12)*%
X64701250Y132240000D03*
%TO.P,K5,14*%
%TO.N,Net-(D8-A)*%
X64701250Y127160000D03*
%TO.P,K5,21*%
%TO.N,unconnected-(K5-Pad21)*%
X72321250Y137320000D03*
%TO.P,K5,22*%
%TO.N,unconnected-(K5-Pad22)*%
X72321250Y132240000D03*
%TO.P,K5,24*%
%TO.N,unconnected-(K5-Pad24)*%
X72321250Y127160000D03*
D17*
%TO.P,K5,A1*%
%TO.N,Net-(D8-A)*%
X64701250Y144940000D03*
D13*
%TO.P,K5,A2*%
%TO.N,GND*%
X72321250Y144940000D03*
%TD*%
D20*
%TO.N,Hold*%
X99000000Y134000000D03*
X98400000Y100600000D03*
X99000000Y116400000D03*
X98400000Y96800000D03*
%TO.N,R8*%
X158200000Y91200000D03*
%TO.N,R7*%
X158200000Y78800000D03*
%TO.N,R6*%
X157800000Y73800000D03*
%TO.N,R5*%
X158200000Y61800000D03*
%TO.N,R4*%
X99200000Y51000000D03*
X94400000Y43000000D03*
%TO.N,R3*%
X85200000Y43200000D03*
X75200000Y50800000D03*
X77021540Y98378460D03*
%TO.N,R2*%
X53200000Y43600000D03*
%TO.N,Net-(D100-A)*%
X65000000Y154000000D03*
%TO.N,Net-(D94-A)*%
X69600000Y153600000D03*
%TO.N,Net-(D90-A)*%
X71800000Y153400000D03*
%TO.N,Net-(D84-A)*%
X73600000Y153600000D03*
%TO.N,Net-(D78-A)*%
X75400000Y153000000D03*
%TO.N,Net-(D68-A)*%
X78800000Y98800000D03*
X79400000Y103600000D03*
X80200000Y153800000D03*
%TO.N,Net-(D57-A)*%
X87000000Y154000000D03*
%TO.N,Net-(D52-A)*%
X105400000Y157800000D03*
X137800000Y151200000D03*
X121600000Y151200000D03*
%TO.N,Net-(D39-A)*%
X106400000Y157600000D03*
%TO.N,Net-(D31-A)*%
X105200000Y155200000D03*
%TO.N,Net-(D23-A)*%
X102000000Y154600000D03*
%TO.N,Net-(D16-A)*%
X89400000Y153600000D03*
%TO.N,Net-(D13-A)*%
X76800000Y153000000D03*
%TO.N,Net-(D8-A)*%
X65400000Y152400000D03*
%TO.N,R15*%
X139200000Y26629000D03*
%TD*%
D21*
%TO.N,Hold*%
X99000000Y135000000D02*
X99200000Y135200000D01*
D22*
X99200000Y135200000D02*
X99470000Y135200000D01*
D21*
X99000000Y101200000D02*
X99000000Y116400000D01*
X98400000Y100600000D02*
X99000000Y101200000D01*
X98400000Y87860000D02*
X98400000Y96800000D01*
X99000000Y134000000D02*
X99000000Y135000000D01*
X101590000Y84670000D02*
X98400000Y87860000D01*
D22*
%TO.N,GND*%
X184181700Y126800000D02*
X162778750Y126800000D01*
X162778750Y126800000D02*
X161558750Y125580000D01*
X192600000Y113450000D02*
X192600000Y118381700D01*
X192600000Y118381700D02*
X184181700Y126800000D01*
X156800000Y107864027D02*
X156800000Y102271607D01*
X156787750Y109529437D02*
X156787750Y107876277D01*
X156800000Y102271607D02*
X157988750Y101082857D01*
X156800000Y109541687D02*
X156787750Y109529437D01*
X156800000Y112142679D02*
X156800000Y109541687D01*
X156787750Y107876277D02*
X156800000Y107864027D01*
X157988750Y113331429D02*
X156800000Y112142679D01*
X156787750Y95627706D02*
X156800000Y95615456D01*
X156800000Y97293116D02*
X156787750Y97280866D01*
X156800000Y95615456D02*
X156800000Y90023036D01*
X156800000Y99894107D02*
X156800000Y97293116D01*
X156787750Y97280866D02*
X156787750Y95627706D01*
X157988750Y101082857D02*
X156800000Y99894107D01*
X156800000Y90023036D02*
X157988750Y88834286D01*
X156800000Y77774464D02*
X157988750Y76585714D01*
X156800000Y83366884D02*
X156800000Y77774464D01*
X156787750Y83379134D02*
X156800000Y83366884D01*
X156787750Y85032294D02*
X156787750Y83379134D01*
X157988750Y88834286D02*
X156800000Y87645536D01*
X156800000Y87645536D02*
X156800000Y85044544D01*
X156800000Y85044544D02*
X156787750Y85032294D01*
X156600000Y41228750D02*
X157988750Y39840000D01*
X156600000Y50699821D02*
X156600000Y41228750D01*
X157988750Y52088571D02*
X156600000Y50699821D01*
X156800000Y58869741D02*
X156800000Y53277321D01*
X156787750Y60535151D02*
X156787750Y58881991D01*
X156787750Y58881991D02*
X156800000Y58869741D01*
X156800000Y60547401D02*
X156787750Y60535151D01*
X156800000Y63148393D02*
X156800000Y60547401D01*
X157988750Y64337143D02*
X156800000Y63148393D01*
X156800000Y53277321D02*
X157988750Y52088571D01*
X156524972Y72400000D02*
X156600000Y72400000D01*
X156124972Y72000000D02*
X156524972Y72400000D01*
X139678750Y72000000D02*
X156124972Y72000000D01*
X138418750Y70740000D02*
X139678750Y72000000D01*
X156600000Y65725893D02*
X156600000Y75196964D01*
X156600000Y75196964D02*
X157988750Y76585714D01*
X157988750Y64337143D02*
X156600000Y65725893D01*
X137158750Y72000000D02*
X138418750Y70740000D01*
X126182500Y70740000D02*
X127442500Y72000000D01*
X127442500Y72000000D02*
X137158750Y72000000D01*
X124922500Y72000000D02*
X126182500Y70740000D01*
X115146250Y72000000D02*
X124922500Y72000000D01*
X113886250Y70740000D02*
X115146250Y72000000D01*
X112626250Y72000000D02*
X113886250Y70740000D01*
X102850000Y72000000D02*
X112626250Y72000000D01*
X101590000Y70740000D02*
X102850000Y72000000D01*
X100330000Y72000000D02*
X101590000Y70740000D01*
X90553750Y72000000D02*
X100330000Y72000000D01*
X89293750Y70740000D02*
X90553750Y72000000D01*
X78257500Y72000000D02*
X88033750Y72000000D01*
X76997500Y70740000D02*
X78257500Y72000000D01*
X88033750Y72000000D02*
X89293750Y70740000D01*
X75737500Y72000000D02*
X76997500Y70740000D01*
X64701250Y70740000D02*
X65961250Y72000000D01*
X65961250Y72000000D02*
X75737500Y72000000D01*
D21*
%TO.N,R8*%
X158200000Y91200000D02*
X162184464Y91200000D01*
X162184464Y91200000D02*
X169178750Y84205714D01*
%TO.N,R7*%
X166964464Y78800000D02*
X169178750Y76585714D01*
X158200000Y78800000D02*
X166964464Y78800000D01*
%TO.N,R6*%
X164042857Y71957143D02*
X169178750Y71957143D01*
X162200000Y73800000D02*
X164042857Y71957143D01*
X157800000Y73800000D02*
X162200000Y73800000D01*
%TO.N,R5*%
X166641607Y61800000D02*
X169178750Y64337143D01*
X158200000Y61800000D02*
X166641607Y61800000D01*
%TO.N,R4*%
X99200000Y47800000D02*
X94400000Y43000000D01*
X99200000Y51000000D02*
X99200000Y47800000D01*
%TO.N,R3*%
X81520450Y43200000D02*
X85200000Y43200000D01*
X75200000Y49520450D02*
X81520450Y43200000D01*
X75200000Y50800000D02*
X75200000Y49520450D01*
X75896500Y99503500D02*
X77021540Y98378460D01*
X75896500Y109819000D02*
X75896500Y99503500D01*
X76997500Y110920000D02*
X75896500Y109819000D01*
%TO.N,R2*%
X63200000Y53600000D02*
X53200000Y43600000D01*
X63200000Y109418750D02*
X63200000Y53600000D01*
X64701250Y110920000D02*
X63200000Y109418750D01*
%TO.N,R1*%
X46600000Y105115000D02*
X52405000Y110920000D01*
X49506750Y34400000D02*
X46600000Y37306750D01*
X52000000Y34400000D02*
X49506750Y34400000D01*
X46600000Y37306750D02*
X46600000Y105115000D01*
%TO.N,Net-(D52-A)*%
X104210892Y157800000D02*
X93845892Y168165000D01*
X105400000Y157800000D02*
X104210892Y157800000D01*
%TO.N,Net-(D100-A)*%
X59230892Y154000000D02*
X65000000Y154000000D01*
X45065892Y168165000D02*
X59230892Y154000000D01*
%TO.N,Net-(D94-A)*%
X66599463Y153600000D02*
X69600000Y153600000D01*
X52034463Y168165000D02*
X66599463Y153600000D01*
%TO.N,Net-(D90-A)*%
X59003035Y166196965D02*
X71800000Y153400000D01*
X59003035Y168165000D02*
X59003035Y166196965D01*
%TO.N,Net-(D84-A)*%
X65971606Y161228394D02*
X73600000Y153600000D01*
X65971606Y168165000D02*
X65971606Y161228394D01*
%TO.N,Net-(D78-A)*%
X72940178Y155459822D02*
X75400000Y153000000D01*
X72940178Y168165000D02*
X72940178Y155459822D01*
%TO.N,Net-(D68-A)*%
X79400000Y99400000D02*
X78800000Y98800000D01*
X79400000Y103600000D02*
X79400000Y99400000D01*
X79908749Y154091251D02*
X80200000Y153800000D01*
X79908749Y168165000D02*
X79908749Y154091251D01*
%TO.N,Net-(D57-A)*%
X86877321Y154122679D02*
X87000000Y154000000D01*
X86877321Y168165000D02*
X86877321Y154122679D01*
%TO.N,Net-(D102-A)*%
X41485892Y179365000D02*
X41485892Y179745000D01*
X45065892Y175785000D02*
X41485892Y179365000D01*
%TO.N,Net-(D99-A)*%
X48955892Y178863571D02*
X48955892Y179745000D01*
X52034463Y175785000D02*
X48955892Y178863571D01*
%TO.N,Net-(D92-A)*%
X59003035Y177167857D02*
X56425892Y179745000D01*
X59003035Y175785000D02*
X59003035Y177167857D01*
%TO.N,Net-(D85-A)*%
X65971606Y177669286D02*
X63895892Y179745000D01*
X65971606Y175785000D02*
X65971606Y177669286D01*
%TO.N,Net-(D79-A)*%
X72940178Y178170714D02*
X71365892Y179745000D01*
X72940178Y175785000D02*
X72940178Y178170714D01*
%TO.N,Net-(D69-A)*%
X79908749Y178697143D02*
X78635892Y179970000D01*
X79908749Y175785000D02*
X79908749Y178697143D01*
%TO.N,Net-(D63-A)*%
X86105892Y176556429D02*
X86877321Y175785000D01*
X86105892Y179970000D02*
X86105892Y176556429D01*
%TO.N,Net-(D53-A)*%
X93845892Y179700000D02*
X93575892Y179970000D01*
X93845892Y175785000D02*
X93845892Y179700000D01*
%TO.N,Net-(D43-A)*%
X101045892Y176016429D02*
X100814463Y175785000D01*
X101045892Y179970000D02*
X101045892Y176016429D01*
%TO.N,Net-(D37-A)*%
X108515892Y176517857D02*
X108515892Y179970000D01*
X107783035Y175785000D02*
X108515892Y176517857D01*
%TO.N,Net-(D27-A)*%
X115985892Y177019286D02*
X114751606Y175785000D01*
X115985892Y179970000D02*
X115985892Y177019286D01*
%TO.N,Net-(D17-A)*%
X123245892Y177310714D02*
X123245892Y180175000D01*
X121720178Y175785000D02*
X123245892Y177310714D01*
%TO.N,Net-(D14-A)*%
X128688749Y175785000D02*
X128688749Y178147857D01*
X128688749Y178147857D02*
X130715892Y180175000D01*
%TO.N,Net-(D9-A)*%
X135657321Y177646429D02*
X135657321Y175785000D01*
X138185892Y180175000D02*
X135657321Y177646429D01*
%TO.N,Net-(D6-A)*%
X145655892Y178815000D02*
X145655892Y180175000D01*
X142625892Y175785000D02*
X145655892Y178815000D01*
%TO.N,Net-(D52-A)*%
X121600000Y151200000D02*
X137800000Y151200000D01*
%TO.N,Net-(D39-A)*%
X106400000Y162579463D02*
X106400000Y157600000D01*
X100814463Y168165000D02*
X106400000Y162579463D01*
%TO.N,Net-(D31-A)*%
X105400000Y155200000D02*
X107783035Y157583035D01*
X107783035Y157583035D02*
X107783035Y168165000D01*
X105200000Y155200000D02*
X105400000Y155200000D01*
%TO.N,Net-(D23-A)*%
X106400000Y154600000D02*
X102000000Y154600000D01*
X114751606Y162951606D02*
X106400000Y154600000D01*
X114751606Y168165000D02*
X114751606Y162951606D01*
%TO.N,Net-(D16-A)*%
X107155178Y153600000D02*
X89400000Y153600000D01*
X121720178Y168165000D02*
X107155178Y153600000D01*
%TO.N,Net-(D13-A)*%
X113523749Y153000000D02*
X76800000Y153000000D01*
X128688749Y168165000D02*
X113523749Y153000000D01*
%TO.N,Net-(D8-A)*%
X119892321Y152400000D02*
X65400000Y152400000D01*
X135657321Y168165000D02*
X119892321Y152400000D01*
%TO.N,R15*%
X177364750Y38553450D02*
X177364750Y116262630D01*
X165639300Y26828000D02*
X177364750Y38553450D01*
X165028000Y26828000D02*
X165639300Y26828000D01*
X169178750Y124448630D02*
X169178750Y125580000D01*
X164800000Y26600000D02*
X165028000Y26828000D01*
X139229000Y26600000D02*
X164800000Y26600000D01*
X139200000Y26629000D02*
X139229000Y26600000D01*
X177364750Y116262630D02*
X169178750Y124448630D01*
%TO.N,R14*%
X134974036Y27229000D02*
X133873036Y28330000D01*
X165473200Y27229000D02*
X134974036Y27229000D01*
X176963750Y38719550D02*
X165473200Y27229000D01*
X176963750Y113166429D02*
X176963750Y38719550D01*
X169178750Y120951429D02*
X176963750Y113166429D01*
%TO.N,R13*%
X147497050Y29536000D02*
X127459036Y29536000D01*
X127459036Y29536000D02*
X126253036Y28330000D01*
X147550050Y29589000D02*
X147497050Y29536000D01*
X165732950Y29589000D02*
X147550050Y29589000D01*
X165733950Y29590000D02*
X165732950Y29589000D01*
X166732900Y29599000D02*
X166723900Y29590000D01*
X167276100Y29599000D02*
X166732900Y29599000D01*
X176562750Y38885650D02*
X167276100Y29599000D01*
X166723900Y29590000D02*
X165733950Y29590000D01*
X169178750Y111129429D02*
X176562750Y103745429D01*
X169178750Y113331429D02*
X169178750Y111129429D01*
X176562750Y103745429D02*
X176562750Y38885650D01*
%TO.N,R12*%
X122814321Y29937000D02*
X121207321Y28330000D01*
X147330950Y29937000D02*
X122814321Y29937000D01*
X147383950Y29990000D02*
X147330950Y29937000D01*
X165566850Y29990000D02*
X147383950Y29990000D01*
X165567850Y29991000D02*
X165566850Y29990000D01*
X176161750Y39051750D02*
X167110000Y30000000D01*
X166557800Y29991000D02*
X165567850Y29991000D01*
X167110000Y30000000D02*
X166566800Y30000000D01*
X176161750Y101719857D02*
X176161750Y39051750D01*
X166566800Y30000000D02*
X166557800Y29991000D01*
X169178750Y108702857D02*
X176161750Y101719857D01*
%TO.N,R11*%
X115595321Y30338000D02*
X113587321Y28330000D01*
X147164850Y30338000D02*
X115595321Y30338000D01*
X147217850Y30391000D02*
X147164850Y30338000D01*
X165400750Y30391000D02*
X147217850Y30391000D01*
X166391700Y30392000D02*
X165401750Y30392000D01*
X166599700Y30600000D02*
X166391700Y30392000D01*
X165401750Y30392000D02*
X165400750Y30391000D01*
X167142900Y30600000D02*
X166599700Y30600000D01*
X175760750Y39217850D02*
X167142900Y30600000D01*
X169178750Y98880857D02*
X175760750Y92298857D01*
X175760750Y92298857D02*
X175760750Y39217850D01*
X169178750Y101082857D02*
X169178750Y98880857D01*
%TO.N,R10*%
X110950607Y30739000D02*
X108541607Y28330000D01*
X147051750Y30792000D02*
X146998750Y30739000D01*
X165234650Y30792000D02*
X147051750Y30792000D01*
X165235650Y30793000D02*
X165234650Y30792000D01*
X166225600Y30793000D02*
X165235650Y30793000D01*
X146998750Y30739000D02*
X110950607Y30739000D01*
X173487750Y38055150D02*
X166225600Y30793000D01*
X173487750Y38687750D02*
X173487750Y38055150D01*
X173670850Y38870850D02*
X173487750Y38687750D01*
X174714800Y38739000D02*
X173802700Y38739000D01*
X175227900Y40427900D02*
X175359750Y40296050D01*
X175359750Y39383950D02*
X174714800Y38739000D01*
X175359750Y40559750D02*
X175227900Y40427900D01*
X175359750Y40296050D02*
X175359750Y39383950D01*
X175359750Y90273286D02*
X175359750Y40559750D01*
X173802700Y38739000D02*
X173670850Y38870850D01*
X169178750Y96454286D02*
X175359750Y90273286D01*
%TO.N,R9*%
X103731607Y31140000D02*
X100921607Y28330000D01*
X146832650Y31140000D02*
X103731607Y31140000D01*
X165069550Y31194000D02*
X165068550Y31193000D01*
X165068550Y31193000D02*
X146885650Y31193000D01*
X166059500Y31194000D02*
X165069550Y31194000D01*
X146885650Y31193000D02*
X146832650Y31140000D01*
X173086750Y38221250D02*
X166059500Y31194000D01*
X173086750Y84926286D02*
X173086750Y38221250D01*
X169178750Y88834286D02*
X173086750Y84926286D01*
%TO.N,R8*%
X99086893Y31541000D02*
X95875893Y28330000D01*
X146666550Y31541000D02*
X99086893Y31541000D01*
X146719550Y31594000D02*
X146666550Y31541000D01*
X164902450Y31594000D02*
X146719550Y31594000D01*
X164903450Y31595000D02*
X164902450Y31594000D01*
X165893400Y31595000D02*
X164903450Y31595000D01*
X171800000Y74531564D02*
X172685750Y73645814D01*
X172685750Y73645814D02*
X172685750Y38387350D01*
X171800000Y81584464D02*
X171800000Y74531564D01*
X172685750Y38387350D02*
X165893400Y31595000D01*
X169178750Y84205714D02*
X171800000Y81584464D01*
%TO.N,R7*%
X91867893Y31942000D02*
X88255893Y28330000D01*
X95837593Y31942000D02*
X91867893Y31942000D01*
X95914193Y31942000D02*
X95875893Y31980300D01*
X108503307Y31942000D02*
X95914193Y31942000D01*
X95875893Y31980300D02*
X95837593Y31942000D01*
X108541607Y31980300D02*
X108503307Y31942000D01*
X108579907Y31942000D02*
X108541607Y31980300D01*
X121169021Y31942000D02*
X108579907Y31942000D01*
X121207321Y31980300D02*
X121169021Y31942000D01*
X121245621Y31942000D02*
X121207321Y31980300D01*
X133834736Y31942000D02*
X121245621Y31942000D01*
X133873036Y31980300D02*
X133834736Y31942000D01*
X133911336Y31942000D02*
X133873036Y31980300D01*
X164736350Y31995000D02*
X146553450Y31995000D01*
X146500450Y31942000D02*
X133911336Y31942000D01*
X172284750Y38553450D02*
X165727300Y31996000D01*
X146553450Y31995000D02*
X146500450Y31942000D01*
X172284750Y73479714D02*
X172284750Y38553450D01*
X165727300Y31996000D02*
X164737350Y31996000D01*
X164737350Y31996000D02*
X164736350Y31995000D01*
X169178750Y76585714D02*
X172284750Y73479714D01*
%TO.N,R6*%
X85543000Y32343000D02*
X83210179Y30010179D01*
X95671493Y32343000D02*
X85543000Y32343000D01*
X95723493Y32395000D02*
X95671493Y32343000D01*
X96028293Y32395000D02*
X95723493Y32395000D01*
X96080293Y32343000D02*
X96028293Y32395000D01*
X108337207Y32343000D02*
X96080293Y32343000D01*
X108389207Y32395000D02*
X108337207Y32343000D01*
X108694007Y32395000D02*
X108389207Y32395000D01*
X108746007Y32343000D02*
X108694007Y32395000D01*
X121002921Y32343000D02*
X108746007Y32343000D01*
X121054921Y32395000D02*
X121002921Y32343000D01*
X121359721Y32395000D02*
X121054921Y32395000D01*
X83210179Y30010179D02*
X83210179Y28330000D01*
X121411721Y32343000D02*
X121359721Y32395000D01*
X133668636Y32343000D02*
X121411721Y32343000D01*
X133720636Y32395000D02*
X133668636Y32343000D01*
X134025436Y32395000D02*
X133720636Y32395000D01*
X134077436Y32343000D02*
X134025436Y32395000D01*
X146334350Y32343000D02*
X134077436Y32343000D01*
X164571250Y32397000D02*
X164570250Y32396000D01*
X165561200Y32397000D02*
X164571250Y32397000D01*
X171883750Y38719550D02*
X165561200Y32397000D01*
X171883750Y69252143D02*
X171883750Y38719550D01*
X146387350Y32396000D02*
X146334350Y32343000D01*
X169178750Y71957143D02*
X171883750Y69252143D01*
X164570250Y32396000D02*
X146387350Y32396000D01*
%TO.N,R5*%
X80056179Y32796000D02*
X75590179Y28330000D01*
X83528679Y32796000D02*
X80056179Y32796000D01*
X83580679Y32744000D02*
X83528679Y32796000D01*
X95557393Y32796000D02*
X95505393Y32744000D01*
X96194393Y32796000D02*
X95557393Y32796000D01*
X96246393Y32744000D02*
X96194393Y32796000D01*
X108171107Y32744000D02*
X96246393Y32744000D01*
X108860107Y32796000D02*
X108223107Y32796000D01*
X108223107Y32796000D02*
X108171107Y32744000D01*
X108912107Y32744000D02*
X108860107Y32796000D01*
X120836821Y32744000D02*
X108912107Y32744000D01*
X120888821Y32796000D02*
X120836821Y32744000D01*
X121525821Y32796000D02*
X120888821Y32796000D01*
X121577821Y32744000D02*
X121525821Y32796000D01*
X133502536Y32744000D02*
X121577821Y32744000D01*
X133554536Y32796000D02*
X133502536Y32744000D01*
X134191536Y32796000D02*
X133554536Y32796000D01*
X134243536Y32744000D02*
X134191536Y32796000D01*
X95505393Y32744000D02*
X83580679Y32744000D01*
X146168250Y32744000D02*
X134243536Y32744000D01*
X146221250Y32797000D02*
X146168250Y32744000D01*
X165395100Y32798000D02*
X164405150Y32798000D01*
X164405150Y32798000D02*
X164404150Y32797000D01*
X164404150Y32797000D02*
X146221250Y32797000D01*
X171482750Y62033143D02*
X171482750Y38885650D01*
X169178750Y64337143D02*
X171482750Y62033143D01*
X171482750Y38885650D02*
X165395100Y32798000D01*
%TO.N,R4*%
X75411464Y33197000D02*
X70544464Y28330000D01*
X83746779Y33145000D02*
X83694779Y33197000D01*
X95391293Y33197000D02*
X95339293Y33145000D01*
X96360493Y33197000D02*
X95391293Y33197000D01*
X96412493Y33145000D02*
X96360493Y33197000D01*
X108005007Y33145000D02*
X96412493Y33145000D01*
X108057007Y33197000D02*
X108005007Y33145000D01*
X109026207Y33197000D02*
X108057007Y33197000D01*
X109078207Y33145000D02*
X109026207Y33197000D01*
X120670721Y33145000D02*
X109078207Y33145000D01*
X120722721Y33197000D02*
X120670721Y33145000D01*
X121743921Y33145000D02*
X121691921Y33197000D01*
X95339293Y33145000D02*
X83746779Y33145000D01*
X133336436Y33145000D02*
X121743921Y33145000D01*
X121691921Y33197000D02*
X120722721Y33197000D01*
X133388436Y33197000D02*
X133336436Y33145000D01*
X134357636Y33197000D02*
X133388436Y33197000D01*
X134409636Y33145000D02*
X134357636Y33197000D01*
X164238050Y33198000D02*
X146055150Y33198000D01*
X164239050Y33199000D02*
X164238050Y33198000D01*
X83694779Y33197000D02*
X75411464Y33197000D01*
X146055150Y33198000D02*
X146002150Y33145000D01*
X165229000Y33199000D02*
X164239050Y33199000D01*
X171081750Y57805571D02*
X171081750Y39051750D01*
X171081750Y39051750D02*
X165229000Y33199000D01*
X169178750Y59708571D02*
X171081750Y57805571D01*
X146002150Y33145000D02*
X134409636Y33145000D01*
%TO.N,R3*%
X62924464Y30724464D02*
X62924464Y28330000D01*
X65798000Y33598000D02*
X62924464Y30724464D01*
X83860879Y33598000D02*
X65798000Y33598000D01*
X96578593Y33546000D02*
X96526593Y33598000D01*
X95225193Y33598000D02*
X95173193Y33546000D01*
X107838907Y33546000D02*
X96578593Y33546000D01*
X107890907Y33598000D02*
X107838907Y33546000D01*
X109192307Y33598000D02*
X107890907Y33598000D01*
X95173193Y33546000D02*
X83912879Y33546000D01*
X109244307Y33546000D02*
X109192307Y33598000D01*
X120504621Y33546000D02*
X109244307Y33546000D01*
X120556621Y33598000D02*
X120504621Y33546000D01*
X121858021Y33598000D02*
X120556621Y33598000D01*
X121910021Y33546000D02*
X121858021Y33598000D01*
X133170336Y33546000D02*
X121910021Y33546000D01*
X133222336Y33598000D02*
X133170336Y33546000D01*
X134575736Y33546000D02*
X134523736Y33598000D01*
X96526593Y33598000D02*
X95225193Y33598000D01*
X145889050Y33599000D02*
X145836050Y33546000D01*
X83912879Y33546000D02*
X83860879Y33598000D01*
X164071950Y33599000D02*
X145889050Y33599000D01*
X134523736Y33598000D02*
X133222336Y33598000D01*
X164072950Y33600000D02*
X164071950Y33599000D01*
X165062900Y33600000D02*
X164072950Y33600000D01*
X170680750Y39217850D02*
X165062900Y33600000D01*
X170680750Y50586571D02*
X170680750Y39217850D01*
X169178750Y52088571D02*
X170680750Y50586571D01*
X145836050Y33546000D02*
X134575736Y33546000D01*
%TO.N,R2*%
X57878750Y30078750D02*
X57878750Y28330000D01*
X84026979Y33999000D02*
X61799000Y33999000D01*
X95007093Y33947000D02*
X84078979Y33947000D01*
X95059093Y33999000D02*
X95007093Y33947000D01*
X96744693Y33947000D02*
X96692693Y33999000D01*
X107672807Y33947000D02*
X96744693Y33947000D01*
X107724807Y33999000D02*
X107672807Y33947000D01*
X109358407Y33999000D02*
X107724807Y33999000D01*
X109410407Y33947000D02*
X109358407Y33999000D01*
X120390521Y33999000D02*
X120338521Y33947000D01*
X122024121Y33999000D02*
X120390521Y33999000D01*
X96692693Y33999000D02*
X95059093Y33999000D01*
X122076121Y33947000D02*
X122024121Y33999000D01*
X133004236Y33947000D02*
X122076121Y33947000D01*
X133056236Y33999000D02*
X133004236Y33947000D01*
X134689836Y33999000D02*
X133056236Y33999000D01*
X61799000Y33999000D02*
X57878750Y30078750D01*
X134741836Y33947000D02*
X134689836Y33999000D01*
X84078979Y33947000D02*
X84026979Y33999000D01*
X145722950Y34000000D02*
X145669950Y33947000D01*
X163905850Y34000000D02*
X145722950Y34000000D01*
X120338521Y33947000D02*
X109410407Y33947000D01*
X164105850Y34200000D02*
X163905850Y34000000D01*
X165095800Y34200000D02*
X164105850Y34200000D01*
X170279750Y39383950D02*
X165095800Y34200000D01*
X145669950Y33947000D02*
X134741836Y33947000D01*
X169178750Y47460000D02*
X170279750Y46359000D01*
X170279750Y46359000D02*
X170279750Y39383950D01*
%TO.N,R1*%
X50258750Y32658750D02*
X50258750Y28330000D01*
X84193079Y34400000D02*
X52000000Y34400000D01*
X84245079Y34348000D02*
X84193079Y34400000D01*
X94892993Y34400000D02*
X94840993Y34348000D01*
X52000000Y34400000D02*
X50258750Y32658750D01*
X96858793Y34400000D02*
X94892993Y34400000D01*
X96910793Y34348000D02*
X96858793Y34400000D01*
X107506707Y34348000D02*
X96910793Y34348000D01*
X109524507Y34400000D02*
X107558707Y34400000D01*
X109576507Y34348000D02*
X109524507Y34400000D01*
X120172421Y34348000D02*
X109576507Y34348000D01*
X120224421Y34400000D02*
X120172421Y34348000D01*
X122190221Y34400000D02*
X120224421Y34400000D01*
X122242221Y34348000D02*
X122190221Y34400000D01*
X132890136Y34400000D02*
X132838136Y34348000D01*
X134855936Y34400000D02*
X132890136Y34400000D01*
X134907936Y34348000D02*
X134855936Y34400000D01*
X132838136Y34348000D02*
X122242221Y34348000D01*
X107558707Y34400000D02*
X107506707Y34348000D01*
X145555850Y34400000D02*
X145503850Y34348000D01*
X94840993Y34348000D02*
X84245079Y34348000D01*
X145503850Y34348000D02*
X134907936Y34348000D01*
X169178750Y39840000D02*
X163738750Y34400000D01*
X163738750Y34400000D02*
X145555850Y34400000D01*
D22*
%TO.N,GND*%
X52488750Y42200000D02*
X50978750Y40690000D01*
X61528750Y42200000D02*
X52488750Y42200000D01*
X63038750Y40690000D02*
X61528750Y42200000D01*
X73558750Y42400000D02*
X64748750Y42400000D01*
X64748750Y42400000D02*
X63038750Y40690000D01*
X75268750Y40690000D02*
X73558750Y42400000D01*
X76578750Y42000000D02*
X75268750Y40690000D01*
X86818750Y42000000D02*
X76578750Y42000000D01*
X88128750Y40690000D02*
X86818750Y42000000D01*
X139748750Y42000000D02*
X138438750Y40690000D01*
X155828750Y42000000D02*
X139748750Y42000000D01*
X157988750Y39840000D02*
X155828750Y42000000D01*
X137128750Y42000000D02*
X127118750Y42000000D01*
X138438750Y40690000D02*
X137128750Y42000000D01*
X127118750Y42000000D02*
X125808750Y40690000D01*
X114618750Y42200000D02*
X113108750Y40690000D01*
X124298750Y42200000D02*
X114618750Y42200000D01*
X125808750Y40690000D02*
X124298750Y42200000D01*
X102508750Y42200000D02*
X100998750Y40690000D01*
X111598750Y42200000D02*
X102508750Y42200000D01*
X113108750Y40690000D02*
X111598750Y42200000D01*
X89638750Y42200000D02*
X88128750Y40690000D01*
X99488750Y42200000D02*
X89638750Y42200000D01*
X100998750Y40690000D02*
X99488750Y42200000D01*
D21*
%TO.N,LInc*%
X95748750Y36077143D02*
X95875893Y35950000D01*
X95748750Y40690000D02*
X95748750Y36077143D01*
X108618750Y36027143D02*
X108541607Y35950000D01*
X108618750Y40690000D02*
X108618750Y36027143D01*
X120728750Y36428571D02*
X121207321Y35950000D01*
X120728750Y40690000D02*
X120728750Y36428571D01*
X133428750Y36394286D02*
X133873036Y35950000D01*
X133428750Y40690000D02*
X133428750Y36394286D01*
X146058750Y40690000D02*
X146058750Y36430000D01*
X146058750Y36430000D02*
X146538750Y35950000D01*
X145337750Y34749000D02*
X146538750Y35950000D01*
X133873036Y35950000D02*
X135074036Y34749000D01*
X135074036Y34749000D02*
X145337750Y34749000D01*
X132672036Y34749000D02*
X133873036Y35950000D01*
X122408321Y34749000D02*
X132672036Y34749000D01*
X121207321Y35950000D02*
X122408321Y34749000D01*
X120006321Y34749000D02*
X121207321Y35950000D01*
X109742607Y34749000D02*
X120006321Y34749000D01*
X108541607Y35950000D02*
X109742607Y34749000D01*
X97076893Y34749000D02*
X107340607Y34749000D01*
X107340607Y34749000D02*
X108541607Y35950000D01*
X95875893Y35950000D02*
X97076893Y34749000D01*
X94674893Y34749000D02*
X95875893Y35950000D01*
X84411179Y34749000D02*
X94674893Y34749000D01*
X83210179Y35950000D02*
X84411179Y34749000D01*
%TO.N,SInc*%
X84617500Y118540000D02*
X84617500Y122910000D01*
X96913750Y118540000D02*
X96913750Y122910000D01*
X109210000Y118540000D02*
X109210000Y122910000D01*
X121506250Y118540000D02*
X121506250Y122910000D01*
X133802500Y118540000D02*
X133802500Y122910000D01*
X120166250Y117200000D02*
X110550000Y117200000D01*
X121506250Y118540000D02*
X120166250Y117200000D01*
X110550000Y117200000D02*
X109210000Y118540000D01*
X122766250Y65800000D02*
X121506250Y67060000D01*
X132542500Y65800000D02*
X122766250Y65800000D01*
X133802500Y67060000D02*
X132542500Y65800000D01*
X146038750Y70740000D02*
X146038750Y67060000D01*
X133802500Y70740000D02*
X133802500Y67060000D01*
X121506250Y70740000D02*
X121506250Y67060000D01*
X109210000Y70740000D02*
X109210000Y67060000D01*
X96913750Y70740000D02*
X96913750Y67060000D01*
X84617500Y70740000D02*
X84617500Y67060000D01*
X72321250Y67060000D02*
X72321250Y70740000D01*
X73522250Y65859000D02*
X72321250Y67060000D01*
X83416500Y65859000D02*
X73522250Y65859000D01*
X84617500Y67060000D02*
X83416500Y65859000D01*
X85818500Y65859000D02*
X84617500Y67060000D01*
X95712750Y65859000D02*
X85818500Y65859000D01*
X96913750Y67060000D02*
X95712750Y65859000D01*
X98114750Y65859000D02*
X96913750Y67060000D01*
X108009000Y65859000D02*
X98114750Y65859000D01*
X109210000Y67060000D02*
X108009000Y65859000D01*
X110411000Y65859000D02*
X109210000Y67060000D01*
X120305250Y65859000D02*
X110411000Y65859000D01*
X121506250Y67060000D02*
X120305250Y65859000D01*
X135003500Y65859000D02*
X144837750Y65859000D01*
X144837750Y65859000D02*
X146038750Y67060000D01*
X133802500Y67060000D02*
X135003500Y65859000D01*
%TO.N,Hold*%
X75896500Y83569000D02*
X65802250Y83569000D01*
X76997500Y84670000D02*
X75896500Y83569000D01*
X65802250Y83569000D02*
X64701250Y84670000D01*
X88192750Y83569000D02*
X78098500Y83569000D01*
X89293750Y84670000D02*
X88192750Y83569000D01*
X78098500Y83569000D02*
X76997500Y84670000D01*
X90394750Y83569000D02*
X89293750Y84670000D01*
X100489000Y83569000D02*
X90394750Y83569000D01*
X101590000Y84670000D02*
X100489000Y83569000D01*
X102691000Y83569000D02*
X101590000Y84670000D01*
X112785250Y83569000D02*
X102691000Y83569000D01*
X113886250Y84670000D02*
X112785250Y83569000D01*
X114987250Y83569000D02*
X113886250Y84670000D01*
X125081500Y83569000D02*
X114987250Y83569000D01*
X126182500Y84670000D02*
X125081500Y83569000D01*
X127283500Y83569000D02*
X126182500Y84670000D01*
X137317750Y83569000D02*
X127283500Y83569000D01*
X138418750Y84670000D02*
X137317750Y83569000D01*
%TO.N,SInc*%
X61226000Y117339000D02*
X60025000Y118540000D01*
X71120250Y117339000D02*
X61226000Y117339000D01*
X72321250Y118540000D02*
X71120250Y117339000D01*
X82877500Y116800000D02*
X74061250Y116800000D01*
X74061250Y116800000D02*
X72321250Y118540000D01*
X84617500Y118540000D02*
X82877500Y116800000D01*
X85818500Y117339000D02*
X84617500Y118540000D01*
X95712750Y117339000D02*
X85818500Y117339000D01*
X96913750Y118540000D02*
X95712750Y117339000D01*
X98114750Y117339000D02*
X96913750Y118540000D01*
X109210000Y118540000D02*
X108009000Y117339000D01*
X108009000Y117339000D02*
X98114750Y117339000D01*
X132601500Y117339000D02*
X122707250Y117339000D01*
X122707250Y117339000D02*
X121506250Y118540000D01*
X133802500Y118540000D02*
X132601500Y117339000D01*
X135003500Y117339000D02*
X133802500Y118540000D01*
X144837750Y117339000D02*
X135003500Y117339000D01*
X146038750Y118540000D02*
X144837750Y117339000D01*
X58824000Y117339000D02*
X60025000Y118540000D01*
X51304000Y117339000D02*
X58824000Y117339000D01*
X47728750Y127160000D02*
X47728750Y120914250D01*
X47728750Y120914250D02*
X51304000Y117339000D01*
%TO.N,Net-(D100-A)*%
X138418750Y96040000D02*
X138418750Y92290000D01*
%TO.N,Net-(D94-A)*%
X126182500Y96040000D02*
X126182500Y92290000D01*
%TO.N,Net-(D90-A)*%
X113886250Y96040000D02*
X113886250Y92290000D01*
%TO.N,Net-(D84-A)*%
X101590000Y96040000D02*
X101590000Y92290000D01*
%TO.N,Net-(D78-A)*%
X87268750Y94315000D02*
X89293750Y92290000D01*
X87268750Y96040000D02*
X87268750Y94315000D01*
%TO.N,Net-(D68-A)*%
X76997500Y96040000D02*
X76997500Y92290000D01*
%TO.N,Net-(D57-A)*%
X64701250Y96040000D02*
X64701250Y92290000D01*
%TO.N,Net-(D23-A)*%
X101590000Y148610000D02*
X101590000Y144940000D01*
%TO.N,Net-(D31-A)*%
X113886250Y148610000D02*
X113886250Y144940000D01*
%TO.N,Net-(D39-A)*%
X126182500Y148610000D02*
X126182500Y144940000D01*
%TO.N,Net-(D52-A)*%
X138418750Y148610000D02*
X138418750Y144940000D01*
%TO.N,LInc*%
X47728750Y148610000D02*
X47728750Y144940000D01*
%TO.N,Net-(D13-A)*%
X76997500Y148610000D02*
X76997500Y144940000D01*
%TO.N,Net-(D16-A)*%
X89293750Y148610000D02*
X89293750Y144940000D01*
D22*
%TO.N,Hold*%
X63181250Y135800000D02*
X64701250Y137320000D01*
X53925000Y135800000D02*
X63181250Y135800000D01*
X52405000Y137320000D02*
X53925000Y135800000D01*
X66221250Y135800000D02*
X75477500Y135800000D01*
X75477500Y135800000D02*
X76997500Y137320000D01*
X64701250Y137320000D02*
X66221250Y135800000D01*
X78317500Y136000000D02*
X87973750Y136000000D01*
X87973750Y136000000D02*
X89293750Y137320000D01*
X76997500Y137320000D02*
X78317500Y136000000D01*
X112566250Y136000000D02*
X113886250Y137320000D01*
X102910000Y136000000D02*
X112566250Y136000000D01*
X101590000Y137320000D02*
X102910000Y136000000D01*
X115206250Y136000000D02*
X124862500Y136000000D01*
X113886250Y137320000D02*
X115206250Y136000000D01*
X124862500Y136000000D02*
X126182500Y137320000D01*
X127702500Y135800000D02*
X136898750Y135800000D01*
X126182500Y137320000D02*
X127702500Y135800000D01*
X136898750Y135800000D02*
X138418750Y137320000D01*
X99470000Y135200000D02*
X101590000Y137320000D01*
X91413750Y135200000D02*
X99200000Y135200000D01*
X89293750Y137320000D02*
X91413750Y135200000D01*
X47728750Y137320000D02*
X52405000Y137320000D01*
X42648750Y132240000D02*
X47728750Y137320000D01*
X40108750Y132240000D02*
X42648750Y132240000D01*
%TO.N,GND*%
X73681250Y97400000D02*
X72321250Y96040000D01*
X83257500Y97400000D02*
X73681250Y97400000D01*
X84617500Y96040000D02*
X83257500Y97400000D01*
X85977500Y97400000D02*
X84617500Y96040000D01*
X93528750Y97400000D02*
X85977500Y97400000D01*
X94888750Y96040000D02*
X93528750Y97400000D01*
X96448750Y97600000D02*
X94888750Y96040000D01*
X107650000Y97600000D02*
X96448750Y97600000D01*
X109210000Y96040000D02*
X107650000Y97600000D01*
X120146250Y97400000D02*
X110570000Y97400000D01*
X110570000Y97400000D02*
X109210000Y96040000D01*
X121506250Y96040000D02*
X120146250Y97400000D01*
X122866250Y97400000D02*
X121506250Y96040000D01*
X132442500Y97400000D02*
X122866250Y97400000D01*
X133802500Y96040000D02*
X132442500Y97400000D01*
X135162500Y97400000D02*
X133802500Y96040000D01*
X144678750Y97400000D02*
X135162500Y97400000D01*
X146038750Y96040000D02*
X144678750Y97400000D01*
X154533036Y92290000D02*
X157988750Y88834286D01*
X146038750Y92290000D02*
X154533036Y92290000D01*
X156200000Y138448750D02*
X156200000Y124200000D01*
X146038750Y148610000D02*
X156200000Y138448750D01*
X139708750Y124200000D02*
X156200000Y124200000D01*
X58635000Y150000000D02*
X60025000Y148610000D01*
X40108750Y148610000D02*
X41498750Y150000000D01*
X41498750Y150000000D02*
X58635000Y150000000D01*
X70931250Y150000000D02*
X72321250Y148610000D01*
X60025000Y148610000D02*
X61415000Y150000000D01*
X61415000Y150000000D02*
X70931250Y150000000D01*
X83227500Y150000000D02*
X84617500Y148610000D01*
X73711250Y150000000D02*
X83227500Y150000000D01*
X72321250Y148610000D02*
X73711250Y150000000D01*
X95523750Y150000000D02*
X96913750Y148610000D01*
X86007500Y150000000D02*
X95523750Y150000000D01*
X84617500Y148610000D02*
X86007500Y150000000D01*
X107820000Y150000000D02*
X109210000Y148610000D01*
X98303750Y150000000D02*
X107820000Y150000000D01*
X96913750Y148610000D02*
X98303750Y150000000D01*
X110600000Y150000000D02*
X120116250Y150000000D01*
X120116250Y150000000D02*
X121506250Y148610000D01*
X109210000Y148610000D02*
X110600000Y150000000D01*
X132412500Y150000000D02*
X133802500Y148610000D01*
X121506250Y148610000D02*
X122896250Y150000000D01*
X122896250Y150000000D02*
X132412500Y150000000D01*
X144648750Y150000000D02*
X146038750Y148610000D01*
X135192500Y150000000D02*
X144648750Y150000000D01*
X133802500Y148610000D02*
X135192500Y150000000D01*
X65991250Y124200000D02*
X64701250Y122910000D01*
X75707500Y124200000D02*
X65991250Y124200000D01*
X76997500Y122910000D02*
X75707500Y124200000D01*
X78287500Y124200000D02*
X76997500Y122910000D01*
X88003750Y124200000D02*
X78287500Y124200000D01*
X89293750Y122910000D02*
X88003750Y124200000D01*
X90583750Y124200000D02*
X89293750Y122910000D01*
X100300000Y124200000D02*
X90583750Y124200000D01*
X101590000Y122910000D02*
X100300000Y124200000D01*
X102880000Y124200000D02*
X101590000Y122910000D01*
X112596250Y124200000D02*
X102880000Y124200000D01*
X113886250Y122910000D02*
X112596250Y124200000D01*
X115176250Y124200000D02*
X113886250Y122910000D01*
X124892500Y124200000D02*
X115176250Y124200000D01*
X126182500Y122910000D02*
X124892500Y124200000D01*
X127472500Y124200000D02*
X126182500Y122910000D01*
X137128750Y124200000D02*
X127472500Y124200000D01*
X138418750Y122910000D02*
X137128750Y124200000D01*
X138418750Y122910000D02*
X139708750Y124200000D01*
X156200000Y124200000D02*
X156608750Y124200000D01*
X156608750Y124200000D02*
X157988750Y125580000D01*
X156800000Y114520179D02*
X157988750Y113331429D01*
X156800000Y120112599D02*
X156800000Y114520179D01*
X156787750Y120124849D02*
X156800000Y120112599D01*
X156787750Y121778009D02*
X156787750Y120124849D01*
X156800000Y124391250D02*
X156800000Y121790259D01*
X157988750Y125580000D02*
X156800000Y124391250D01*
X156800000Y121790259D02*
X156787750Y121778009D01*
%TO.N,+5V*%
X31200000Y128411250D02*
X31200000Y113450000D01*
X40108750Y137320000D02*
X31200000Y128411250D01*
%TO.N,GND*%
X40108750Y180907858D02*
X41485892Y182285000D01*
X40108750Y148610000D02*
X40108750Y180907858D01*
X145450892Y182510000D02*
X145655892Y182715000D01*
X78635892Y182510000D02*
X145450892Y182510000D01*
X78410892Y182285000D02*
X78635892Y182510000D01*
X48955892Y182285000D02*
X78410892Y182285000D01*
X41485892Y182285000D02*
X48955892Y182285000D01*
X53695000Y124200000D02*
X52405000Y122910000D01*
X63411250Y124200000D02*
X53695000Y124200000D01*
X64701250Y122910000D02*
X63411250Y124200000D01*
D21*
%TO.N,SInc*%
X72321250Y122910000D02*
X72321250Y118540000D01*
X60025000Y122910000D02*
X60025000Y118540000D01*
D22*
%TO.N,GND*%
X72321250Y96040000D02*
X72321250Y92290000D01*
X84617500Y96040000D02*
X84617500Y92290000D01*
X94888750Y96040000D02*
X94888750Y94315000D01*
X94888750Y94315000D02*
X96913750Y92290000D01*
X109210000Y96040000D02*
X109210000Y92290000D01*
X121506250Y96040000D02*
X121506250Y92290000D01*
X133802500Y96040000D02*
X133802500Y92290000D01*
X146038750Y96040000D02*
X146038750Y92290000D01*
X138418750Y70740000D02*
X138418750Y67060000D01*
X126182500Y70740000D02*
X126182500Y67060000D01*
X113886250Y70740000D02*
X113886250Y67060000D01*
X101590000Y70740000D02*
X101590000Y67060000D01*
X89293750Y70740000D02*
X89293750Y67060000D01*
X76997500Y70740000D02*
X76997500Y67060000D01*
X64701250Y67060000D02*
X64701250Y70740000D01*
X146038750Y148610000D02*
X146038750Y144940000D01*
X133802500Y148610000D02*
X133802500Y144940000D01*
X121506250Y148610000D02*
X121506250Y144940000D01*
X109210000Y148610000D02*
X109210000Y144940000D01*
X96913750Y148610000D02*
X96913750Y144940000D01*
X84617500Y148610000D02*
X84617500Y144940000D01*
X40108750Y148610000D02*
X40108750Y144940000D01*
X60025000Y148610000D02*
X60025000Y144940000D01*
X72321250Y148610000D02*
X72321250Y144940000D01*
D21*
%TO.N,Net-(D8-A)*%
X64701250Y148610000D02*
X64701250Y144940000D01*
%TO.N,Net-(D4-A)*%
X52405000Y148610000D02*
X52405000Y144940000D01*
D22*
%TO.N,GND*%
X52405000Y118540000D02*
X52405000Y122910000D01*
X64701250Y118540000D02*
X64701250Y122910000D01*
X76997500Y118540000D02*
X76997500Y122910000D01*
X89293750Y118540000D02*
X89293750Y122910000D01*
X101590000Y118540000D02*
X101590000Y122910000D01*
X113886250Y118540000D02*
X113886250Y122910000D01*
X126182500Y118540000D02*
X126182500Y122910000D01*
X138418750Y118540000D02*
X138418750Y122910000D01*
X161558750Y125580000D02*
X157988750Y125580000D01*
X161558750Y113331429D02*
X157988750Y113331429D01*
X161558750Y101082857D02*
X157988750Y101082857D01*
X161558750Y88834286D02*
X157988750Y88834286D01*
X161558750Y76585714D02*
X157988750Y76585714D01*
X161558750Y64337143D02*
X157988750Y64337143D01*
X161558750Y52088571D02*
X157988750Y52088571D01*
X161558750Y39840000D02*
X157988750Y39840000D01*
X50258750Y39970000D02*
X50978750Y40690000D01*
X50258750Y35950000D02*
X50258750Y39970000D01*
X62924464Y40575714D02*
X63038750Y40690000D01*
X62924464Y35950000D02*
X62924464Y40575714D01*
X75268750Y36271429D02*
X75590179Y35950000D01*
X75268750Y40690000D02*
X75268750Y36271429D01*
X88255893Y40562857D02*
X88128750Y40690000D01*
X88255893Y35950000D02*
X88255893Y40562857D01*
X100998750Y40690000D02*
X100998750Y36027143D01*
X100998750Y36027143D02*
X100921607Y35950000D01*
X126253036Y40245714D02*
X125808750Y40690000D01*
X126253036Y35950000D02*
X126253036Y40245714D01*
X138438750Y36430000D02*
X138918750Y35950000D01*
X138438750Y40690000D02*
X138438750Y36430000D01*
X113587321Y35950000D02*
X113587321Y40211429D01*
X113587321Y40211429D02*
X113108750Y40690000D01*
D21*
%TO.N,Result8*%
X35600000Y88730000D02*
X31200000Y93130000D01*
X35600000Y41400000D02*
X35600000Y88730000D01*
X92445893Y21600000D02*
X55400000Y21600000D01*
X95875893Y18170000D02*
X92445893Y21600000D01*
X55400000Y21600000D02*
X35600000Y41400000D01*
%TO.N,Result7*%
X35000000Y86790000D02*
X31200000Y90590000D01*
X55366100Y21001000D02*
X35001000Y41366100D01*
X35001000Y41366100D02*
X35001000Y84816100D01*
X80946279Y21001000D02*
X55366100Y21001000D01*
X80947279Y21000000D02*
X80946279Y21001000D01*
X85425893Y21000000D02*
X80947279Y21000000D01*
X88255893Y18170000D02*
X85425893Y21000000D01*
X35001000Y84816100D02*
X35000000Y84817100D01*
X35000000Y84817100D02*
X35000000Y86790000D01*
%TO.N,Result4*%
X33400000Y37800000D02*
X33400000Y80770000D01*
X51400000Y19800000D02*
X33400000Y37800000D01*
X33400000Y80770000D02*
X31200000Y82970000D01*
X68914464Y19800000D02*
X51400000Y19800000D01*
X70544464Y18170000D02*
X68914464Y19800000D01*
%TO.N,Result6*%
X34600000Y84650000D02*
X31200000Y88050000D01*
X55200000Y20600000D02*
X34600000Y41200000D01*
X34600000Y41200000D02*
X34600000Y84650000D01*
X83210179Y18170000D02*
X80780179Y20600000D01*
X80780179Y20600000D02*
X55200000Y20600000D01*
%TO.N,Result5*%
X33801000Y82909000D02*
X31200000Y85510000D01*
X33801000Y41399000D02*
X33801000Y82909000D01*
X55000000Y20200000D02*
X33801000Y41399000D01*
X73560179Y20200000D02*
X55000000Y20200000D01*
X75590179Y18170000D02*
X73560179Y20200000D01*
%TO.N,Result3*%
X61694464Y19400000D02*
X62924464Y18170000D01*
X33000000Y37601664D02*
X51201664Y19400000D01*
X51201664Y19400000D02*
X61694464Y19400000D01*
X33000000Y78630000D02*
X33000000Y37601664D01*
X31200000Y80430000D02*
X33000000Y78630000D01*
%TO.N,Result2*%
X51864564Y18170000D02*
X57878750Y18170000D01*
X31917282Y38117282D02*
X51864564Y18170000D01*
X32351000Y38551000D02*
X31917282Y38117282D01*
X32351000Y76739000D02*
X32351000Y38551000D01*
X31200000Y77890000D02*
X32351000Y76739000D01*
%TO.N,Result1*%
X31200000Y37228750D02*
X50258750Y18170000D01*
X31200000Y75350000D02*
X31200000Y37228750D01*
%TO.N,A1*%
X182400000Y42901250D02*
X179338750Y39840000D01*
X182400000Y65150000D02*
X182400000Y42901250D01*
X192600000Y75350000D02*
X182400000Y65150000D01*
%TO.N,A2*%
X182000000Y50121250D02*
X179338750Y47460000D01*
X182000000Y67290000D02*
X182000000Y50121250D01*
X192600000Y77890000D02*
X182000000Y67290000D01*
%TO.N,A3*%
X181401000Y54150821D02*
X179338750Y52088571D01*
X181401000Y69231000D02*
X181401000Y54150821D01*
X192600000Y80430000D02*
X181401000Y69231000D01*
%TO.N,A4*%
X181000000Y61369821D02*
X179338750Y59708571D01*
X181000000Y71370000D02*
X181000000Y61369821D01*
X192600000Y82970000D02*
X181000000Y71370000D01*
%TO.N,A5*%
X180439750Y65438143D02*
X179338750Y64337143D01*
X180439750Y73349750D02*
X180439750Y65438143D01*
X192600000Y85510000D02*
X180439750Y73349750D01*
%TO.N,A6*%
X192600000Y88050000D02*
X179338750Y74788750D01*
X179338750Y74788750D02*
X179338750Y71957143D01*
%TO.N,A7*%
X179338750Y77328750D02*
X179338750Y76585714D01*
X192600000Y90590000D02*
X179338750Y77328750D01*
%TO.N,A8*%
X183675714Y84205714D02*
X179338750Y84205714D01*
X192600000Y93130000D02*
X183675714Y84205714D01*
%TO.N,A9*%
X185764286Y88834286D02*
X179338750Y88834286D01*
X192600000Y95670000D02*
X185764286Y88834286D01*
%TO.N,A10*%
X190844286Y96454286D02*
X179338750Y96454286D01*
X192600000Y98210000D02*
X190844286Y96454286D01*
%TO.N,A11*%
X192600000Y100750000D02*
X179671607Y100750000D01*
X179671607Y100750000D02*
X179338750Y101082857D01*
%TO.N,A12*%
X187187143Y108702857D02*
X192600000Y103290000D01*
X179338750Y108702857D02*
X187187143Y108702857D01*
%TO.N,A13*%
X185098571Y113331429D02*
X179338750Y113331429D01*
X192600000Y105830000D02*
X185098571Y113331429D01*
%TO.N,A14*%
X191920179Y108370000D02*
X192600000Y108370000D01*
X179338750Y120951429D02*
X191920179Y108370000D01*
%TO.N,A15*%
X179338750Y124171250D02*
X179338750Y125580000D01*
X192600000Y110910000D02*
X179338750Y124171250D01*
%TD*%
M02*
