M48
; DRILL file {KiCad 9.0.2} date 2026-01-14T14:42:51+0100
; FORMAT={-:-/ absolute / metric / decimal}
; #@! TF.CreationDate,2026-01-14T14:42:51+01:00
; #@! TF.GenerationSoftware,Kicad,Pcbnew,9.0.2
; #@! TF.FileFunction,Plated,1,2,PTH
FMAT,2
METRIC
; #@! TA.AperFunction,Plated,PTH,ViaDrill
T1C0.300
; #@! TA.AperFunction,Plated,PTH,ComponentDrill
T2C0.700
; #@! TA.AperFunction,Plated,PTH,ComponentDrill
T3C0.800
; #@! TA.AperFunction,Plated,PTH,ComponentDrill
T4C0.900
; #@! TA.AperFunction,Plated,PTH,ComponentDrill
T5C1.000
%
G90
G05
T1
X53.2Y43.6
X65.0Y154.0
X65.4Y152.4
X69.6Y153.6
X71.8Y153.4
X73.6Y153.6
X75.2Y50.8
X75.4Y153.0
X76.8Y153.0
X77.022Y98.378
X78.8Y98.8
X79.4Y103.6
X80.2Y153.8
X85.2Y43.2
X87.0Y154.0
X89.4Y153.6
X94.4Y43.0
X98.4Y100.6
X98.4Y96.8
X99.0Y134.0
X99.0Y116.4
X99.2Y51.0
X102.0Y154.6
X105.2Y155.2
X105.4Y157.8
X106.4Y157.6
X121.6Y151.2
X137.8Y151.2
X139.2Y26.629
X157.8Y73.8
X158.2Y91.2
X158.2Y78.8
X158.2Y61.8
T2
X45.066Y175.785
X45.066Y168.165
X52.034Y175.785
X52.034Y168.165
X59.003Y175.785
X59.003Y168.165
X65.972Y175.785
X65.972Y168.165
X72.94Y175.785
X72.94Y168.165
X79.909Y175.785
X79.909Y168.165
X86.877Y175.785
X86.877Y168.165
X93.846Y175.785
X93.846Y168.165
X100.814Y175.785
X100.814Y168.165
X107.783Y175.785
X107.783Y168.165
X114.752Y175.785
X114.752Y168.165
X121.72Y175.785
X121.72Y168.165
X128.689Y175.785
X128.689Y168.165
X135.657Y175.785
X135.657Y168.165
X142.626Y175.785
X142.626Y168.165
T3
X40.109Y148.61
X40.109Y144.94
X40.109Y137.32
X40.109Y132.24
X40.109Y127.16
X47.729Y148.61
X47.729Y144.94
X47.729Y137.32
X47.729Y132.24
X47.729Y127.16
X50.259Y35.95
X50.259Y28.33
X50.259Y23.25
X50.259Y18.17
X50.979Y40.69
X52.405Y148.61
X52.405Y144.94
X52.405Y137.32
X52.405Y132.24
X52.405Y127.16
X52.405Y122.91
X52.405Y118.54
X52.405Y110.92
X52.405Y105.84
X52.405Y100.76
X57.879Y35.95
X57.879Y28.33
X57.879Y23.25
X57.879Y18.17
X58.599Y40.69
X60.025Y148.61
X60.025Y144.94
X60.025Y137.32
X60.025Y132.24
X60.025Y127.16
X60.025Y122.91
X60.025Y118.54
X60.025Y110.92
X60.025Y105.84
X60.025Y100.76
X62.924Y35.95
X62.924Y28.33
X62.924Y23.25
X62.924Y18.17
X63.039Y40.69
X64.701Y148.61
X64.701Y144.94
X64.701Y137.32
X64.701Y132.24
X64.701Y127.16
X64.701Y122.91
X64.701Y118.54
X64.701Y110.92
X64.701Y105.84
X64.701Y100.76
X64.701Y96.04
X64.701Y92.29
X64.701Y84.67
X64.701Y79.59
X64.701Y74.51
X64.701Y70.74
X64.701Y67.06
X64.701Y59.44
X64.701Y54.36
X64.701Y49.28
X70.544Y35.95
X70.544Y28.33
X70.544Y23.25
X70.544Y18.17
X70.659Y40.69
X72.321Y148.61
X72.321Y144.94
X72.321Y137.32
X72.321Y132.24
X72.321Y127.16
X72.321Y122.91
X72.321Y118.54
X72.321Y110.92
X72.321Y105.84
X72.321Y100.76
X72.321Y96.04
X72.321Y92.29
X72.321Y84.67
X72.321Y79.59
X72.321Y74.51
X72.321Y70.74
X72.321Y67.06
X72.321Y59.44
X72.321Y54.36
X72.321Y49.28
X75.269Y40.69
X75.59Y35.95
X75.59Y28.33
X75.59Y23.25
X75.59Y18.17
X76.998Y148.61
X76.998Y144.94
X76.998Y137.32
X76.998Y132.24
X76.998Y127.16
X76.998Y122.91
X76.998Y118.54
X76.998Y110.92
X76.998Y105.84
X76.998Y100.76
X76.998Y96.04
X76.998Y92.29
X76.998Y84.67
X76.998Y79.59
X76.998Y74.51
X76.998Y70.74
X76.998Y67.06
X76.998Y59.44
X76.998Y54.36
X76.998Y49.28
X82.889Y40.69
X83.21Y35.95
X83.21Y28.33
X83.21Y23.25
X83.21Y18.17
X84.617Y148.61
X84.617Y144.94
X84.617Y137.32
X84.617Y132.24
X84.617Y127.16
X84.617Y122.91
X84.617Y118.54
X84.617Y110.92
X84.617Y105.84
X84.617Y100.76
X84.617Y96.04
X84.617Y92.29
X84.617Y84.67
X84.617Y79.59
X84.617Y74.51
X84.617Y70.74
X84.617Y67.06
X84.617Y59.44
X84.617Y54.36
X84.617Y49.28
X87.269Y96.04
X88.129Y40.69
X88.256Y35.95
X88.256Y28.33
X88.256Y23.25
X88.256Y18.17
X89.294Y148.61
X89.294Y144.94
X89.294Y137.32
X89.294Y132.24
X89.294Y127.16
X89.294Y122.91
X89.294Y118.54
X89.294Y110.92
X89.294Y105.84
X89.294Y100.76
X89.294Y92.29
X89.294Y84.67
X89.294Y79.59
X89.294Y74.51
X89.294Y70.74
X89.294Y67.06
X89.294Y59.44
X89.294Y54.36
X89.294Y49.28
X94.889Y96.04
X95.749Y40.69
X95.876Y35.95
X95.876Y28.33
X95.876Y23.25
X95.876Y18.17
X96.914Y148.61
X96.914Y144.94
X96.914Y137.32
X96.914Y132.24
X96.914Y127.16
X96.914Y122.91
X96.914Y118.54
X96.914Y110.92
X96.914Y105.84
X96.914Y100.76
X96.914Y92.29
X96.914Y84.67
X96.914Y79.59
X96.914Y74.51
X96.914Y70.74
X96.914Y67.06
X96.914Y59.44
X96.914Y54.36
X96.914Y49.28
X100.922Y35.95
X100.922Y28.33
X100.922Y23.25
X100.922Y18.17
X100.999Y40.69
X101.59Y148.61
X101.59Y144.94
X101.59Y137.32
X101.59Y132.24
X101.59Y127.16
X101.59Y122.91
X101.59Y118.54
X101.59Y110.92
X101.59Y105.84
X101.59Y100.76
X101.59Y96.04
X101.59Y92.29
X101.59Y84.67
X101.59Y79.59
X101.59Y74.51
X101.59Y70.74
X101.59Y67.06
X101.59Y59.44
X101.59Y54.36
X101.59Y49.28
X108.542Y35.95
X108.542Y28.33
X108.542Y23.25
X108.542Y18.17
X108.619Y40.69
X109.21Y148.61
X109.21Y144.94
X109.21Y137.32
X109.21Y132.24
X109.21Y127.16
X109.21Y122.91
X109.21Y118.54
X109.21Y110.92
X109.21Y105.84
X109.21Y100.76
X109.21Y96.04
X109.21Y92.29
X109.21Y84.67
X109.21Y79.59
X109.21Y74.51
X109.21Y70.74
X109.21Y67.06
X109.21Y59.44
X109.21Y54.36
X109.21Y49.28
X113.109Y40.69
X113.587Y35.95
X113.587Y28.33
X113.587Y23.25
X113.587Y18.17
X113.886Y148.61
X113.886Y144.94
X113.886Y137.32
X113.886Y132.24
X113.886Y127.16
X113.886Y122.91
X113.886Y118.54
X113.886Y110.92
X113.886Y105.84
X113.886Y100.76
X113.886Y96.04
X113.886Y92.29
X113.886Y84.67
X113.886Y79.59
X113.886Y74.51
X113.886Y70.74
X113.886Y67.06
X113.886Y59.44
X113.886Y54.36
X113.886Y49.28
X120.729Y40.69
X121.207Y35.95
X121.207Y28.33
X121.207Y23.25
X121.207Y18.17
X121.506Y148.61
X121.506Y144.94
X121.506Y137.32
X121.506Y132.24
X121.506Y127.16
X121.506Y122.91
X121.506Y118.54
X121.506Y110.92
X121.506Y105.84
X121.506Y100.76
X121.506Y96.04
X121.506Y92.29
X121.506Y84.67
X121.506Y79.59
X121.506Y74.51
X121.506Y70.74
X121.506Y67.06
X121.506Y59.44
X121.506Y54.36
X121.506Y49.28
X125.809Y40.69
X126.182Y148.61
X126.182Y144.94
X126.182Y137.32
X126.182Y132.24
X126.182Y127.16
X126.182Y122.91
X126.182Y118.54
X126.182Y110.92
X126.182Y105.84
X126.182Y100.76
X126.182Y96.04
X126.182Y92.29
X126.182Y84.67
X126.182Y79.59
X126.182Y74.51
X126.182Y70.74
X126.182Y67.06
X126.182Y59.44
X126.182Y54.36
X126.182Y49.28
X126.253Y35.95
X126.253Y28.33
X126.253Y23.25
X126.253Y18.17
X133.429Y40.69
X133.802Y148.61
X133.802Y144.94
X133.802Y137.32
X133.802Y132.24
X133.802Y127.16
X133.802Y122.91
X133.802Y118.54
X133.802Y110.92
X133.802Y105.84
X133.802Y100.76
X133.802Y96.04
X133.802Y92.29
X133.802Y84.67
X133.802Y79.59
X133.802Y74.51
X133.802Y70.74
X133.802Y67.06
X133.802Y59.44
X133.802Y54.36
X133.802Y49.28
X133.873Y35.95
X133.873Y28.33
X133.873Y23.25
X133.873Y18.17
X138.419Y148.61
X138.419Y144.94
X138.419Y137.32
X138.419Y132.24
X138.419Y127.16
X138.419Y122.91
X138.419Y118.54
X138.419Y110.92
X138.419Y105.84
X138.419Y100.76
X138.419Y96.04
X138.419Y92.29
X138.419Y84.67
X138.419Y79.59
X138.419Y74.51
X138.419Y70.74
X138.419Y67.06
X138.419Y59.44
X138.419Y54.36
X138.419Y49.28
X138.439Y40.69
X138.919Y35.95
X138.919Y28.33
X138.919Y23.25
X138.919Y18.17
X146.039Y148.61
X146.039Y144.94
X146.039Y137.32
X146.039Y132.24
X146.039Y127.16
X146.039Y122.91
X146.039Y118.54
X146.039Y110.92
X146.039Y105.84
X146.039Y100.76
X146.039Y96.04
X146.039Y92.29
X146.039Y84.67
X146.039Y79.59
X146.039Y74.51
X146.039Y70.74
X146.039Y67.06
X146.039Y59.44
X146.039Y54.36
X146.039Y49.28
X146.059Y40.69
X146.539Y35.95
X146.539Y28.33
X146.539Y23.25
X146.539Y18.17
X157.989Y133.2
X157.989Y125.58
X157.989Y120.951
X157.989Y113.331
X157.989Y108.703
X157.989Y101.083
X157.989Y96.454
X157.989Y88.834
X157.989Y84.206
X157.989Y76.586
X157.989Y71.957
X157.989Y64.337
X157.989Y59.709
X157.989Y52.089
X157.989Y47.46
X157.989Y39.84
X161.559Y133.2
X161.559Y125.58
X161.559Y120.951
X161.559Y113.331
X161.559Y108.703
X161.559Y101.083
X161.559Y96.454
X161.559Y88.834
X161.559Y84.206
X161.559Y76.586
X161.559Y71.957
X161.559Y64.337
X161.559Y59.709
X161.559Y52.089
X161.559Y47.46
X161.559Y39.84
X169.179Y133.2
X169.179Y125.58
X169.179Y120.951
X169.179Y113.331
X169.179Y108.703
X169.179Y101.083
X169.179Y96.454
X169.179Y88.834
X169.179Y84.206
X169.179Y76.586
X169.179Y71.957
X169.179Y64.337
X169.179Y59.709
X169.179Y52.089
X169.179Y47.46
X169.179Y39.84
X174.259Y133.2
X174.259Y125.58
X174.259Y120.951
X174.259Y113.331
X174.259Y108.703
X174.259Y101.083
X174.259Y96.454
X174.259Y88.834
X174.259Y84.206
X174.259Y76.586
X174.259Y71.957
X174.259Y64.337
X174.259Y59.709
X174.259Y52.089
X174.259Y47.46
X174.259Y39.84
X179.339Y133.2
X179.339Y125.58
X179.339Y120.951
X179.339Y113.331
X179.339Y108.703
X179.339Y101.083
X179.339Y96.454
X179.339Y88.834
X179.339Y84.206
X179.339Y76.586
X179.339Y71.957
X179.339Y64.337
X179.339Y59.709
X179.339Y52.089
X179.339Y47.46
X179.339Y39.84
T4
X41.486Y182.285
X41.486Y179.745
X48.956Y182.285
X48.956Y179.745
X56.426Y182.285
X56.426Y179.745
X63.896Y182.285
X63.896Y179.745
X71.366Y182.285
X71.366Y179.745
X78.636Y182.51
X78.636Y179.97
X86.106Y182.51
X86.106Y179.97
X93.576Y182.51
X93.576Y179.97
X101.046Y182.51
X101.046Y179.97
X108.516Y182.51
X108.516Y179.97
X115.986Y182.51
X115.986Y179.97
X123.246Y182.715
X123.246Y180.175
X130.716Y182.715
X130.716Y180.175
X138.186Y182.715
X138.186Y180.175
X145.656Y182.715
X145.656Y180.175
T5
X31.2Y113.45
X31.2Y110.91
X31.2Y108.37
X31.2Y105.83
X31.2Y103.29
X31.2Y100.75
X31.2Y98.21
X31.2Y95.67
X31.2Y93.13
X31.2Y90.59
X31.2Y88.05
X31.2Y85.51
X31.2Y82.97
X31.2Y80.43
X31.2Y77.89
X31.2Y75.35
X192.6Y113.45
X192.6Y110.91
X192.6Y108.37
X192.6Y105.83
X192.6Y103.29
X192.6Y100.75
X192.6Y98.21
X192.6Y95.67
X192.6Y93.13
X192.6Y90.59
X192.6Y88.05
X192.6Y85.51
X192.6Y82.97
X192.6Y80.43
X192.6Y77.89
X192.6Y75.35
M30
