%TF.GenerationSoftware,KiCad,Pcbnew,9.0.2*%
%TF.CreationDate,2026-01-14T14:42:49+01:00*%
%TF.ProjectId,Incrementer V2 - Register,496e6372-656d-4656-9e74-657220563220,rev?*%
%TF.SameCoordinates,Original*%
%TF.FileFunction,Soldermask,Bot*%
%TF.FilePolarity,Negative*%
%FSLAX46Y46*%
G04 Gerber Fmt 4.6, Leading zero omitted, Abs format (unit mm)*
G04 Created by KiCad (PCBNEW 9.0.2) date 2026-01-14 14:42:49*
%MOMM*%
%LPD*%
G01*
G04 APERTURE LIST*
G04 Aperture macros list*
%AMRoundRect*
0 Rectangle with rounded corners*
0 $1 Rounding radius*
0 $2 $3 $4 $5 $6 $7 $8 $9 X,Y pos of 4 corners*
0 Add a 4 corners polygon primitive as box body*
4,1,4,$2,$3,$4,$5,$6,$7,$8,$9,$2,$3,0*
0 Add four circle primitives for the rounded corners*
1,1,$1+$1,$2,$3*
1,1,$1+$1,$4,$5*
1,1,$1+$1,$6,$7*
1,1,$1+$1,$8,$9*
0 Add four rect primitives between the rounded corners*
20,1,$1+$1,$2,$3,$4,$5,0*
20,1,$1+$1,$4,$5,$6,$7,0*
20,1,$1+$1,$6,$7,$8,$9,0*
20,1,$1+$1,$8,$9,$2,$3,0*%
G04 Aperture macros list end*
%ADD10R,1.700000X1.700000*%
%ADD11C,1.700000*%
%ADD12RoundRect,0.250000X0.550000X0.550000X-0.550000X0.550000X-0.550000X-0.550000X0.550000X-0.550000X0*%
%ADD13C,1.600000*%
%ADD14R,1.800000X1.800000*%
%ADD15C,1.800000*%
%ADD16RoundRect,0.250000X-0.550000X0.550000X-0.550000X-0.550000X0.550000X-0.550000X0.550000X0.550000X0*%
%ADD17R,1.600000X1.800000*%
%ADD18C,1.400000*%
%ADD19R,1.800000X1.600000*%
G04 APERTURE END LIST*
D10*
%TO.C,J2*%
X192600000Y75350000D03*
D11*
X192600000Y77890000D03*
X192600000Y80430000D03*
X192600000Y82970000D03*
X192600000Y85510000D03*
X192600000Y88050000D03*
X192600000Y90590000D03*
X192600000Y93130000D03*
X192600000Y95670000D03*
X192600000Y98210000D03*
X192600000Y100750000D03*
X192600000Y103290000D03*
X192600000Y105830000D03*
X192600000Y108370000D03*
X192600000Y110910000D03*
X192600000Y113450000D03*
%TD*%
D10*
%TO.C,J1*%
X31200000Y75350000D03*
D11*
X31200000Y77890000D03*
X31200000Y80430000D03*
X31200000Y82970000D03*
X31200000Y85510000D03*
X31200000Y88050000D03*
X31200000Y90590000D03*
X31200000Y93130000D03*
X31200000Y95670000D03*
X31200000Y98210000D03*
X31200000Y100750000D03*
X31200000Y103290000D03*
X31200000Y105830000D03*
X31200000Y108370000D03*
X31200000Y110910000D03*
X31200000Y113450000D03*
%TD*%
D12*
%TO.C,D40*%
X133802500Y122910000D03*
D13*
X126182500Y122910000D03*
%TD*%
D12*
%TO.C,D39*%
X133802500Y148610000D03*
D13*
X126182500Y148610000D03*
%TD*%
D14*
%TO.C,D37*%
X108515892Y182510000D03*
D15*
X108515892Y179970000D03*
%TD*%
D14*
%TO.C,D43*%
X101045892Y182510000D03*
D15*
X101045892Y179970000D03*
%TD*%
D16*
%TO.C,D38*%
X157988750Y71957143D03*
D13*
X157988750Y64337143D03*
%TD*%
D12*
%TO.C,D41*%
X82888750Y40690000D03*
D13*
X75268750Y40690000D03*
%TD*%
D12*
%TO.C,D29*%
X121506250Y122910000D03*
D13*
X113886250Y122910000D03*
%TD*%
D12*
%TO.C,D31*%
X121506250Y148610000D03*
D13*
X113886250Y148610000D03*
%TD*%
D16*
%TO.C,D28*%
X157988750Y59708571D03*
D13*
X157988750Y52088571D03*
%TD*%
D12*
%TO.C,D30*%
X70658750Y40690000D03*
D13*
X63038750Y40690000D03*
%TD*%
D14*
%TO.C,D27*%
X115985892Y182510000D03*
D15*
X115985892Y179970000D03*
%TD*%
D12*
%TO.C,D24*%
X109210000Y122910000D03*
D13*
X101590000Y122910000D03*
%TD*%
D12*
%TO.C,D23*%
X109210000Y148610000D03*
D13*
X101590000Y148610000D03*
%TD*%
D12*
%TO.C,D25*%
X58598750Y40690000D03*
D13*
X50978750Y40690000D03*
%TD*%
D12*
%TO.C,D13*%
X84617500Y148610000D03*
D13*
X76997500Y148610000D03*
%TD*%
D16*
%TO.C,D22*%
X157988750Y47460000D03*
D13*
X157988750Y39840000D03*
%TD*%
D12*
%TO.C,D15*%
X96913750Y122910000D03*
D13*
X89293750Y122910000D03*
%TD*%
D12*
%TO.C,D16*%
X96913750Y148610000D03*
D13*
X89293750Y148610000D03*
%TD*%
D14*
%TO.C,D17*%
X123245892Y182715000D03*
D15*
X123245892Y180175000D03*
%TD*%
D14*
%TO.C,D14*%
X130715892Y182715000D03*
D15*
X130715892Y180175000D03*
%TD*%
D14*
%TO.C,D6*%
X145655892Y182715000D03*
D15*
X145655892Y180175000D03*
%TD*%
D12*
%TO.C,D8*%
X72321250Y148610000D03*
D13*
X64701250Y148610000D03*
%TD*%
D12*
%TO.C,D7*%
X72321250Y122910000D03*
D13*
X64701250Y122910000D03*
%TD*%
D14*
%TO.C,D9*%
X138185892Y182715000D03*
D15*
X138185892Y180175000D03*
%TD*%
D12*
%TO.C,D10*%
X84617500Y122910000D03*
D13*
X76997500Y122910000D03*
%TD*%
D12*
%TO.C,D2*%
X47728750Y148610000D03*
D13*
X40108750Y148610000D03*
%TD*%
D12*
%TO.C,D4*%
X60025000Y148610000D03*
D13*
X52405000Y148610000D03*
%TD*%
D12*
%TO.C,D5*%
X60025000Y122910000D03*
D13*
X52405000Y122910000D03*
%TD*%
%TO.C,K1*%
X40108750Y137320000D03*
X40108750Y132240000D03*
X40108750Y127160000D03*
X47728750Y137320000D03*
X47728750Y132240000D03*
X47728750Y127160000D03*
D17*
X40108750Y144940000D03*
D13*
X47728750Y144940000D03*
%TD*%
%TO.C,K2*%
X52405000Y137320000D03*
X52405000Y132240000D03*
X52405000Y127160000D03*
X60025000Y137320000D03*
X60025000Y132240000D03*
X60025000Y127160000D03*
D17*
X52405000Y144940000D03*
D13*
X60025000Y144940000D03*
%TD*%
%TO.C,K3*%
X52405000Y110920000D03*
X52405000Y105840000D03*
X52405000Y100760000D03*
X60025000Y110920000D03*
X60025000Y105840000D03*
X60025000Y100760000D03*
D17*
X52405000Y118540000D03*
D13*
X60025000Y118540000D03*
%TD*%
%TO.C,K4*%
X64701250Y110920000D03*
X64701250Y105840000D03*
X64701250Y100760000D03*
X72321250Y110920000D03*
X72321250Y105840000D03*
X72321250Y100760000D03*
D17*
X64701250Y118540000D03*
D13*
X72321250Y118540000D03*
%TD*%
D14*
%TO.C,D102*%
X41485892Y182285000D03*
D15*
X41485892Y179745000D03*
%TD*%
D12*
%TO.C,D101*%
X146038750Y70740000D03*
D13*
X138418750Y70740000D03*
%TD*%
D12*
%TO.C,D100*%
X146038750Y96040000D03*
D13*
X138418750Y96040000D03*
%TD*%
D14*
%TO.C,D99*%
X48955892Y182285000D03*
D15*
X48955892Y179745000D03*
%TD*%
D14*
%TO.C,D92*%
X56425892Y182285000D03*
D15*
X56425892Y179745000D03*
%TD*%
D12*
%TO.C,D94*%
X133802500Y96040000D03*
D13*
X126182500Y96040000D03*
%TD*%
D12*
%TO.C,D93*%
X133802500Y70740000D03*
D13*
X126182500Y70740000D03*
%TD*%
D12*
%TO.C,D91*%
X121506250Y70740000D03*
D13*
X113886250Y70740000D03*
%TD*%
D12*
%TO.C,D90*%
X121506250Y96040000D03*
D13*
X113886250Y96040000D03*
%TD*%
D12*
%TO.C,D84*%
X109210000Y96040000D03*
D13*
X101590000Y96040000D03*
%TD*%
D12*
%TO.C,D81*%
X146058750Y40690000D03*
D13*
X138438750Y40690000D03*
%TD*%
D12*
%TO.C,D77*%
X96913750Y70740000D03*
D13*
X89293750Y70740000D03*
%TD*%
D12*
%TO.C,D78*%
X94888750Y96040000D03*
D13*
X87268750Y96040000D03*
%TD*%
D16*
%TO.C,D80*%
X157988750Y133200000D03*
D13*
X157988750Y125580000D03*
%TD*%
D14*
%TO.C,D79*%
X71365892Y182285000D03*
D15*
X71365892Y179745000D03*
%TD*%
D14*
%TO.C,D85*%
X63895892Y182285000D03*
D15*
X63895892Y179745000D03*
%TD*%
D12*
%TO.C,D83*%
X109210000Y70740000D03*
D13*
X101590000Y70740000D03*
%TD*%
D14*
%TO.C,D69*%
X78635892Y182510000D03*
D15*
X78635892Y179970000D03*
%TD*%
D12*
%TO.C,D71*%
X133428750Y40690000D03*
D13*
X125808750Y40690000D03*
%TD*%
D12*
%TO.C,D67*%
X84617500Y70740000D03*
D13*
X76997500Y70740000D03*
%TD*%
D16*
%TO.C,D70*%
X157988750Y120951429D03*
D13*
X157988750Y113331429D03*
%TD*%
D12*
%TO.C,D68*%
X84617500Y96040000D03*
D13*
X76997500Y96040000D03*
%TD*%
D14*
%TO.C,D63*%
X86105892Y182510000D03*
D15*
X86105892Y179970000D03*
%TD*%
D12*
%TO.C,D58*%
X72321250Y70740000D03*
D13*
X64701250Y70740000D03*
%TD*%
D12*
%TO.C,D57*%
X72321250Y96040000D03*
D13*
X64701250Y96040000D03*
%TD*%
D16*
%TO.C,D64*%
X157988750Y108702857D03*
D13*
X157988750Y101082857D03*
%TD*%
D12*
%TO.C,D65*%
X120728750Y40690000D03*
D13*
X113108750Y40690000D03*
%TD*%
D16*
%TO.C,D54*%
X157988750Y96454286D03*
D13*
X157988750Y88834286D03*
%TD*%
D12*
%TO.C,D52*%
X146038750Y148610000D03*
D13*
X138418750Y148610000D03*
%TD*%
D16*
%TO.C,D48*%
X157988750Y84205714D03*
D13*
X157988750Y76585714D03*
%TD*%
D14*
%TO.C,D53*%
X93575892Y182510000D03*
D15*
X93575892Y179970000D03*
%TD*%
D12*
%TO.C,D49*%
X146038750Y122910000D03*
D13*
X138418750Y122910000D03*
%TD*%
D12*
%TO.C,D55*%
X108618750Y40690000D03*
D13*
X100998750Y40690000D03*
%TD*%
D12*
%TO.C,D50*%
X95748750Y40690000D03*
D13*
X88128750Y40690000D03*
%TD*%
D18*
%TO.C,R13*%
X72940178Y175785000D03*
X72940178Y168165000D03*
%TD*%
%TO.C,R14*%
X65971606Y175785000D03*
X65971606Y168165000D03*
%TD*%
%TO.C,R16*%
X52034463Y175785000D03*
X52034463Y168165000D03*
%TD*%
%TO.C,R17*%
X45065892Y175785000D03*
X45065892Y168165000D03*
%TD*%
%TO.C,R15*%
X59003035Y175785000D03*
X59003035Y168165000D03*
%TD*%
%TO.C,R12*%
X79908749Y175785000D03*
X79908749Y168165000D03*
%TD*%
%TO.C,R9*%
X100814463Y175785000D03*
X100814463Y168165000D03*
%TD*%
%TO.C,R7*%
X114751606Y175785000D03*
X114751606Y168165000D03*
%TD*%
%TO.C,R5*%
X128688749Y175785000D03*
X128688749Y168165000D03*
%TD*%
%TO.C,R4*%
X135657321Y175785000D03*
X135657321Y168165000D03*
%TD*%
%TO.C,R6*%
X121720178Y175785000D03*
X121720178Y168165000D03*
%TD*%
%TO.C,R10*%
X93845892Y175785000D03*
X93845892Y168165000D03*
%TD*%
%TO.C,R11*%
X86877321Y175785000D03*
X86877321Y168165000D03*
%TD*%
%TO.C,R8*%
X107783035Y175785000D03*
X107783035Y168165000D03*
%TD*%
%TO.C,R3*%
X142625892Y175785000D03*
X142625892Y168165000D03*
%TD*%
D13*
%TO.C,K85*%
X138418750Y59440000D03*
X138418750Y54360000D03*
X138418750Y49280000D03*
X146038750Y59440000D03*
X146038750Y54360000D03*
X146038750Y49280000D03*
D17*
X138418750Y67060000D03*
D13*
X146038750Y67060000D03*
%TD*%
%TO.C,K84*%
X138418750Y84670000D03*
X138418750Y79590000D03*
X138418750Y74510000D03*
X146038750Y84670000D03*
X146038750Y79590000D03*
X146038750Y74510000D03*
D17*
X138418750Y92290000D03*
D13*
X146038750Y92290000D03*
%TD*%
%TO.C,K78*%
X126182500Y59440000D03*
X126182500Y54360000D03*
X126182500Y49280000D03*
X133802500Y59440000D03*
X133802500Y54360000D03*
X133802500Y49280000D03*
D17*
X126182500Y67060000D03*
D13*
X133802500Y67060000D03*
%TD*%
%TO.C,K77*%
X113886250Y59440000D03*
X113886250Y54360000D03*
X113886250Y49280000D03*
X121506250Y59440000D03*
X121506250Y54360000D03*
X121506250Y49280000D03*
D17*
X113886250Y67060000D03*
D13*
X121506250Y67060000D03*
%TD*%
%TO.C,K76*%
X113886250Y84670000D03*
X113886250Y79590000D03*
X113886250Y74510000D03*
X121506250Y84670000D03*
X121506250Y79590000D03*
X121506250Y74510000D03*
D17*
X113886250Y92290000D03*
D13*
X121506250Y92290000D03*
%TD*%
%TO.C,K70*%
X101590000Y59440000D03*
X101590000Y54360000D03*
X101590000Y49280000D03*
X109210000Y59440000D03*
X109210000Y54360000D03*
X109210000Y49280000D03*
D17*
X101590000Y67060000D03*
D13*
X109210000Y67060000D03*
%TD*%
%TO.C,K71*%
X101590000Y84670000D03*
X101590000Y79590000D03*
X101590000Y74510000D03*
X109210000Y84670000D03*
X109210000Y79590000D03*
X109210000Y74510000D03*
D17*
X101590000Y92290000D03*
D13*
X109210000Y92290000D03*
%TD*%
%TO.C,K79*%
X126182500Y84670000D03*
X126182500Y79590000D03*
X126182500Y74510000D03*
X133802500Y84670000D03*
X133802500Y79590000D03*
X133802500Y74510000D03*
D17*
X126182500Y92290000D03*
D13*
X133802500Y92290000D03*
%TD*%
%TO.C,K66*%
X89293750Y84670000D03*
X89293750Y79590000D03*
X89293750Y74510000D03*
X96913750Y84670000D03*
X96913750Y79590000D03*
X96913750Y74510000D03*
D17*
X89293750Y92290000D03*
D13*
X96913750Y92290000D03*
%TD*%
%TO.C,K67*%
X169178750Y125580000D03*
X174258750Y125580000D03*
X179338750Y125580000D03*
X169178750Y133200000D03*
X174258750Y133200000D03*
X179338750Y133200000D03*
D19*
X161558750Y125580000D03*
D13*
X161558750Y133200000D03*
%TD*%
%TO.C,K68*%
X138918750Y28330000D03*
X138918750Y23250000D03*
X138918750Y18170000D03*
X146538750Y28330000D03*
X146538750Y23250000D03*
X146538750Y18170000D03*
D17*
X138918750Y35950000D03*
D13*
X146538750Y35950000D03*
%TD*%
%TO.C,K65*%
X89293750Y59440000D03*
X89293750Y54360000D03*
X89293750Y49280000D03*
X96913750Y59440000D03*
X96913750Y54360000D03*
X96913750Y49280000D03*
D17*
X89293750Y67060000D03*
D13*
X96913750Y67060000D03*
%TD*%
%TO.C,K58*%
X169178750Y113331429D03*
X174258750Y113331429D03*
X179338750Y113331429D03*
X169178750Y120951429D03*
X174258750Y120951429D03*
X179338750Y120951429D03*
D19*
X161558750Y113331429D03*
D13*
X161558750Y120951429D03*
%TD*%
%TO.C,K56*%
X76997500Y59440000D03*
X76997500Y54360000D03*
X76997500Y49280000D03*
X84617500Y59440000D03*
X84617500Y54360000D03*
X84617500Y49280000D03*
D17*
X76997500Y67060000D03*
D13*
X84617500Y67060000D03*
%TD*%
%TO.C,K54*%
X113587321Y28330000D03*
X113587321Y23250000D03*
X113587321Y18170000D03*
X121207321Y28330000D03*
X121207321Y23250000D03*
X121207321Y18170000D03*
D17*
X113587321Y35950000D03*
D13*
X121207321Y35950000D03*
%TD*%
%TO.C,K57*%
X76997500Y84670000D03*
X76997500Y79590000D03*
X76997500Y74510000D03*
X84617500Y84670000D03*
X84617500Y79590000D03*
X84617500Y74510000D03*
D17*
X76997500Y92290000D03*
D13*
X84617500Y92290000D03*
%TD*%
%TO.C,K59*%
X126253036Y28330000D03*
X126253036Y23250000D03*
X126253036Y18170000D03*
X133873036Y28330000D03*
X133873036Y23250000D03*
X133873036Y18170000D03*
D17*
X126253036Y35950000D03*
D13*
X133873036Y35950000D03*
%TD*%
%TO.C,K53*%
X169178750Y101082857D03*
X174258750Y101082857D03*
X179338750Y101082857D03*
X169178750Y108702857D03*
X174258750Y108702857D03*
X179338750Y108702857D03*
D19*
X161558750Y101082857D03*
D13*
X161558750Y108702857D03*
%TD*%
%TO.C,K48*%
X64701250Y59440000D03*
X64701250Y54360000D03*
X64701250Y49280000D03*
X72321250Y59440000D03*
X72321250Y54360000D03*
X72321250Y49280000D03*
D17*
X64701250Y67060000D03*
D13*
X72321250Y67060000D03*
%TD*%
%TO.C,K47*%
X64701250Y84670000D03*
X64701250Y79590000D03*
X64701250Y74510000D03*
X72321250Y84670000D03*
X72321250Y79590000D03*
X72321250Y74510000D03*
D17*
X64701250Y92290000D03*
D13*
X72321250Y92290000D03*
%TD*%
%TO.C,K45*%
X100921607Y28330000D03*
X100921607Y23250000D03*
X100921607Y18170000D03*
X108541607Y28330000D03*
X108541607Y23250000D03*
X108541607Y18170000D03*
D17*
X100921607Y35950000D03*
D13*
X108541607Y35950000D03*
%TD*%
%TO.C,K43*%
X138418750Y137320000D03*
X138418750Y132240000D03*
X138418750Y127160000D03*
X146038750Y137320000D03*
X146038750Y132240000D03*
X146038750Y127160000D03*
D17*
X138418750Y144940000D03*
D13*
X146038750Y144940000D03*
%TD*%
%TO.C,K41*%
X88255893Y28330000D03*
X88255893Y23250000D03*
X88255893Y18170000D03*
X95875893Y28330000D03*
X95875893Y23250000D03*
X95875893Y18170000D03*
D17*
X88255893Y35950000D03*
D13*
X95875893Y35950000D03*
%TD*%
%TO.C,K39*%
X169178750Y76585714D03*
X174258750Y76585714D03*
X179338750Y76585714D03*
X169178750Y84205714D03*
X174258750Y84205714D03*
X179338750Y84205714D03*
D19*
X161558750Y76585714D03*
D13*
X161558750Y84205714D03*
%TD*%
%TO.C,K44*%
X169178750Y88834286D03*
X174258750Y88834286D03*
X179338750Y88834286D03*
X169178750Y96454286D03*
X174258750Y96454286D03*
X179338750Y96454286D03*
D19*
X161558750Y88834286D03*
D13*
X161558750Y96454286D03*
%TD*%
%TO.C,K40*%
X138418750Y110920000D03*
X138418750Y105840000D03*
X138418750Y100760000D03*
X146038750Y110920000D03*
X146038750Y105840000D03*
X146038750Y100760000D03*
D17*
X138418750Y118540000D03*
D13*
X146038750Y118540000D03*
%TD*%
%TO.C,K33*%
X75590179Y28330000D03*
X75590179Y23250000D03*
X75590179Y18170000D03*
X83210179Y28330000D03*
X83210179Y23250000D03*
X83210179Y18170000D03*
D17*
X75590179Y35950000D03*
D13*
X83210179Y35950000D03*
%TD*%
%TO.C,K32*%
X126182500Y110920000D03*
X126182500Y105840000D03*
X126182500Y100760000D03*
X133802500Y110920000D03*
X133802500Y105840000D03*
X133802500Y100760000D03*
D17*
X126182500Y118540000D03*
D13*
X133802500Y118540000D03*
%TD*%
%TO.C,K31*%
X126182500Y137320000D03*
X126182500Y132240000D03*
X126182500Y127160000D03*
X133802500Y137320000D03*
X133802500Y132240000D03*
X133802500Y127160000D03*
D17*
X126182500Y144940000D03*
D13*
X133802500Y144940000D03*
%TD*%
%TO.C,K30*%
X169178750Y64337143D03*
X174258750Y64337143D03*
X179338750Y64337143D03*
X169178750Y71957143D03*
X174258750Y71957143D03*
X179338750Y71957143D03*
D19*
X161558750Y64337143D03*
D13*
X161558750Y71957143D03*
%TD*%
%TO.C,K23*%
X62924464Y28330000D03*
X62924464Y23250000D03*
X62924464Y18170000D03*
X70544464Y28330000D03*
X70544464Y23250000D03*
X70544464Y18170000D03*
D17*
X62924464Y35950000D03*
D13*
X70544464Y35950000D03*
%TD*%
%TO.C,K22*%
X113886250Y110920000D03*
X113886250Y105840000D03*
X113886250Y100760000D03*
X121506250Y110920000D03*
X121506250Y105840000D03*
X121506250Y100760000D03*
D17*
X113886250Y118540000D03*
D13*
X121506250Y118540000D03*
%TD*%
%TO.C,K24*%
X113886250Y137320000D03*
X113886250Y132240000D03*
X113886250Y127160000D03*
X121506250Y137320000D03*
X121506250Y132240000D03*
X121506250Y127160000D03*
D17*
X113886250Y144940000D03*
D13*
X121506250Y144940000D03*
%TD*%
%TO.C,K16*%
X169178750Y39840000D03*
X174258750Y39840000D03*
X179338750Y39840000D03*
X169178750Y47460000D03*
X174258750Y47460000D03*
X179338750Y47460000D03*
D19*
X161558750Y39840000D03*
D13*
X161558750Y47460000D03*
%TD*%
%TO.C,K19*%
X50258750Y28330000D03*
X50258750Y23250000D03*
X50258750Y18170000D03*
X57878750Y28330000D03*
X57878750Y23250000D03*
X57878750Y18170000D03*
D17*
X50258750Y35950000D03*
D13*
X57878750Y35950000D03*
%TD*%
%TO.C,K18*%
X101590000Y110920000D03*
X101590000Y105840000D03*
X101590000Y100760000D03*
X109210000Y110920000D03*
X109210000Y105840000D03*
X109210000Y100760000D03*
D17*
X101590000Y118540000D03*
D13*
X109210000Y118540000D03*
%TD*%
%TO.C,K17*%
X101590000Y137320000D03*
X101590000Y132240000D03*
X101590000Y127160000D03*
X109210000Y137320000D03*
X109210000Y132240000D03*
X109210000Y127160000D03*
D17*
X101590000Y144940000D03*
D13*
X109210000Y144940000D03*
%TD*%
%TO.C,K21*%
X169178750Y52088571D03*
X174258750Y52088571D03*
X179338750Y52088571D03*
X169178750Y59708571D03*
X174258750Y59708571D03*
X179338750Y59708571D03*
D19*
X161558750Y52088571D03*
D13*
X161558750Y59708571D03*
%TD*%
%TO.C,K10*%
X89293750Y110920000D03*
X89293750Y105840000D03*
X89293750Y100760000D03*
X96913750Y110920000D03*
X96913750Y105840000D03*
X96913750Y100760000D03*
D17*
X89293750Y118540000D03*
D13*
X96913750Y118540000D03*
%TD*%
%TO.C,K11*%
X89293750Y137320000D03*
X89293750Y132240000D03*
X89293750Y127160000D03*
X96913750Y137320000D03*
X96913750Y132240000D03*
X96913750Y127160000D03*
D17*
X89293750Y144940000D03*
D13*
X96913750Y144940000D03*
%TD*%
%TO.C,K9*%
X76997500Y137320000D03*
X76997500Y132240000D03*
X76997500Y127160000D03*
X84617500Y137320000D03*
X84617500Y132240000D03*
X84617500Y127160000D03*
D17*
X76997500Y144940000D03*
D13*
X84617500Y144940000D03*
%TD*%
%TO.C,K6*%
X76997500Y110920000D03*
X76997500Y105840000D03*
X76997500Y100760000D03*
X84617500Y110920000D03*
X84617500Y105840000D03*
X84617500Y100760000D03*
D17*
X76997500Y118540000D03*
D13*
X84617500Y118540000D03*
%TD*%
%TO.C,K5*%
X64701250Y137320000D03*
X64701250Y132240000D03*
X64701250Y127160000D03*
X72321250Y137320000D03*
X72321250Y132240000D03*
X72321250Y127160000D03*
D17*
X64701250Y144940000D03*
D13*
X72321250Y144940000D03*
%TD*%
M02*
