%TF.GenerationSoftware,KiCad,Pcbnew,9.0.2*%
%TF.CreationDate,2026-01-14T14:42:49+01:00*%
%TF.ProjectId,Incrementer V2 - Register,496e6372-656d-4656-9e74-657220563220,rev?*%
%TF.SameCoordinates,Original*%
%TF.FileFunction,Legend,Top*%
%TF.FilePolarity,Positive*%
%FSLAX46Y46*%
G04 Gerber Fmt 4.6, Leading zero omitted, Abs format (unit mm)*
G04 Created by KiCad (PCBNEW 9.0.2) date 2026-01-14 14:42:49*
%MOMM*%
%LPD*%
G01*
G04 APERTURE LIST*
%ADD10C,0.600000*%
%ADD11C,1.600000*%
%ADD12C,0.150000*%
%ADD13C,0.120000*%
G04 APERTURE END LIST*
D10*
X41874735Y185598342D02*
X40160449Y185598342D01*
X41017592Y185598342D02*
X41017592Y188598342D01*
X41017592Y188598342D02*
X40731878Y188169771D01*
X40731878Y188169771D02*
X40446163Y187884057D01*
X40446163Y187884057D02*
X40160449Y187741200D01*
X44589021Y188598342D02*
X43160449Y188598342D01*
X43160449Y188598342D02*
X43017592Y187169771D01*
X43017592Y187169771D02*
X43160449Y187312628D01*
X43160449Y187312628D02*
X43446164Y187455485D01*
X43446164Y187455485D02*
X44160449Y187455485D01*
X44160449Y187455485D02*
X44446164Y187312628D01*
X44446164Y187312628D02*
X44589021Y187169771D01*
X44589021Y187169771D02*
X44731878Y186884057D01*
X44731878Y186884057D02*
X44731878Y186169771D01*
X44731878Y186169771D02*
X44589021Y185884057D01*
X44589021Y185884057D02*
X44446164Y185741200D01*
X44446164Y185741200D02*
X44160449Y185598342D01*
X44160449Y185598342D02*
X43446164Y185598342D01*
X43446164Y185598342D02*
X43160449Y185741200D01*
X43160449Y185741200D02*
X43017592Y185884057D01*
X109450450Y188598342D02*
X108879021Y188598342D01*
X108879021Y188598342D02*
X108593307Y188455485D01*
X108593307Y188455485D02*
X108450450Y188312628D01*
X108450450Y188312628D02*
X108164735Y187884057D01*
X108164735Y187884057D02*
X108021878Y187312628D01*
X108021878Y187312628D02*
X108021878Y186169771D01*
X108021878Y186169771D02*
X108164735Y185884057D01*
X108164735Y185884057D02*
X108307592Y185741200D01*
X108307592Y185741200D02*
X108593307Y185598342D01*
X108593307Y185598342D02*
X109164735Y185598342D01*
X109164735Y185598342D02*
X109450450Y185741200D01*
X109450450Y185741200D02*
X109593307Y185884057D01*
X109593307Y185884057D02*
X109736164Y186169771D01*
X109736164Y186169771D02*
X109736164Y186884057D01*
X109736164Y186884057D02*
X109593307Y187169771D01*
X109593307Y187169771D02*
X109450450Y187312628D01*
X109450450Y187312628D02*
X109164735Y187455485D01*
X109164735Y187455485D02*
X108593307Y187455485D01*
X108593307Y187455485D02*
X108307592Y187312628D01*
X108307592Y187312628D02*
X108164735Y187169771D01*
X108164735Y187169771D02*
X108021878Y186884057D01*
X100497593Y188598342D02*
X102497593Y188598342D01*
X102497593Y188598342D02*
X101211879Y185598342D01*
X49256164Y185598342D02*
X47541878Y185598342D01*
X48399021Y185598342D02*
X48399021Y188598342D01*
X48399021Y188598342D02*
X48113307Y188169771D01*
X48113307Y188169771D02*
X47827592Y187884057D01*
X47827592Y187884057D02*
X47541878Y187741200D01*
X51827593Y187598342D02*
X51827593Y185598342D01*
X51113307Y188741200D02*
X50399021Y186598342D01*
X50399021Y186598342D02*
X52256164Y186598342D01*
X56637592Y185598342D02*
X54923306Y185598342D01*
X55780449Y185598342D02*
X55780449Y188598342D01*
X55780449Y188598342D02*
X55494735Y188169771D01*
X55494735Y188169771D02*
X55209020Y187884057D01*
X55209020Y187884057D02*
X54923306Y187741200D01*
X57637592Y188598342D02*
X59494735Y188598342D01*
X59494735Y188598342D02*
X58494735Y187455485D01*
X58494735Y187455485D02*
X58923306Y187455485D01*
X58923306Y187455485D02*
X59209021Y187312628D01*
X59209021Y187312628D02*
X59351878Y187169771D01*
X59351878Y187169771D02*
X59494735Y186884057D01*
X59494735Y186884057D02*
X59494735Y186169771D01*
X59494735Y186169771D02*
X59351878Y185884057D01*
X59351878Y185884057D02*
X59209021Y185741200D01*
X59209021Y185741200D02*
X58923306Y185598342D01*
X58923306Y185598342D02*
X58066163Y185598342D01*
X58066163Y185598342D02*
X57780449Y185741200D01*
X57780449Y185741200D02*
X57637592Y185884057D01*
X64019021Y185598342D02*
X62304735Y185598342D01*
X63161878Y185598342D02*
X63161878Y188598342D01*
X63161878Y188598342D02*
X62876164Y188169771D01*
X62876164Y188169771D02*
X62590449Y187884057D01*
X62590449Y187884057D02*
X62304735Y187741200D01*
X65161878Y188312628D02*
X65304735Y188455485D01*
X65304735Y188455485D02*
X65590450Y188598342D01*
X65590450Y188598342D02*
X66304735Y188598342D01*
X66304735Y188598342D02*
X66590450Y188455485D01*
X66590450Y188455485D02*
X66733307Y188312628D01*
X66733307Y188312628D02*
X66876164Y188026914D01*
X66876164Y188026914D02*
X66876164Y187741200D01*
X66876164Y187741200D02*
X66733307Y187312628D01*
X66733307Y187312628D02*
X65019021Y185598342D01*
X65019021Y185598342D02*
X66876164Y185598342D01*
X71400449Y185598342D02*
X69686163Y185598342D01*
X70543306Y185598342D02*
X70543306Y188598342D01*
X70543306Y188598342D02*
X70257592Y188169771D01*
X70257592Y188169771D02*
X69971877Y187884057D01*
X69971877Y187884057D02*
X69686163Y187741200D01*
X74257592Y185598342D02*
X72543306Y185598342D01*
X73400449Y185598342D02*
X73400449Y188598342D01*
X73400449Y188598342D02*
X73114735Y188169771D01*
X73114735Y188169771D02*
X72829020Y187884057D01*
X72829020Y187884057D02*
X72543306Y187741200D01*
X78781878Y185598342D02*
X77067592Y185598342D01*
X77924735Y185598342D02*
X77924735Y188598342D01*
X77924735Y188598342D02*
X77639021Y188169771D01*
X77639021Y188169771D02*
X77353306Y187884057D01*
X77353306Y187884057D02*
X77067592Y187741200D01*
X80639021Y188598342D02*
X80924735Y188598342D01*
X80924735Y188598342D02*
X81210449Y188455485D01*
X81210449Y188455485D02*
X81353307Y188312628D01*
X81353307Y188312628D02*
X81496164Y188026914D01*
X81496164Y188026914D02*
X81639021Y187455485D01*
X81639021Y187455485D02*
X81639021Y186741200D01*
X81639021Y186741200D02*
X81496164Y186169771D01*
X81496164Y186169771D02*
X81353307Y185884057D01*
X81353307Y185884057D02*
X81210449Y185741200D01*
X81210449Y185741200D02*
X80924735Y185598342D01*
X80924735Y185598342D02*
X80639021Y185598342D01*
X80639021Y185598342D02*
X80353307Y185741200D01*
X80353307Y185741200D02*
X80210449Y185884057D01*
X80210449Y185884057D02*
X80067592Y186169771D01*
X80067592Y186169771D02*
X79924735Y186741200D01*
X79924735Y186741200D02*
X79924735Y187455485D01*
X79924735Y187455485D02*
X80067592Y188026914D01*
X80067592Y188026914D02*
X80210449Y188312628D01*
X80210449Y188312628D02*
X80353307Y188455485D01*
X80353307Y188455485D02*
X80639021Y188598342D01*
X86163306Y185598342D02*
X86734735Y185598342D01*
X86734735Y185598342D02*
X87020449Y185741200D01*
X87020449Y185741200D02*
X87163306Y185884057D01*
X87163306Y185884057D02*
X87449021Y186312628D01*
X87449021Y186312628D02*
X87591878Y186884057D01*
X87591878Y186884057D02*
X87591878Y188026914D01*
X87591878Y188026914D02*
X87449021Y188312628D01*
X87449021Y188312628D02*
X87306164Y188455485D01*
X87306164Y188455485D02*
X87020449Y188598342D01*
X87020449Y188598342D02*
X86449021Y188598342D01*
X86449021Y188598342D02*
X86163306Y188455485D01*
X86163306Y188455485D02*
X86020449Y188312628D01*
X86020449Y188312628D02*
X85877592Y188026914D01*
X85877592Y188026914D02*
X85877592Y187312628D01*
X85877592Y187312628D02*
X86020449Y187026914D01*
X86020449Y187026914D02*
X86163306Y186884057D01*
X86163306Y186884057D02*
X86449021Y186741200D01*
X86449021Y186741200D02*
X87020449Y186741200D01*
X87020449Y186741200D02*
X87306164Y186884057D01*
X87306164Y186884057D02*
X87449021Y187026914D01*
X87449021Y187026914D02*
X87591878Y187312628D01*
X93830450Y187312628D02*
X93544735Y187455485D01*
X93544735Y187455485D02*
X93401878Y187598342D01*
X93401878Y187598342D02*
X93259021Y187884057D01*
X93259021Y187884057D02*
X93259021Y188026914D01*
X93259021Y188026914D02*
X93401878Y188312628D01*
X93401878Y188312628D02*
X93544735Y188455485D01*
X93544735Y188455485D02*
X93830450Y188598342D01*
X93830450Y188598342D02*
X94401878Y188598342D01*
X94401878Y188598342D02*
X94687593Y188455485D01*
X94687593Y188455485D02*
X94830450Y188312628D01*
X94830450Y188312628D02*
X94973307Y188026914D01*
X94973307Y188026914D02*
X94973307Y187884057D01*
X94973307Y187884057D02*
X94830450Y187598342D01*
X94830450Y187598342D02*
X94687593Y187455485D01*
X94687593Y187455485D02*
X94401878Y187312628D01*
X94401878Y187312628D02*
X93830450Y187312628D01*
X93830450Y187312628D02*
X93544735Y187169771D01*
X93544735Y187169771D02*
X93401878Y187026914D01*
X93401878Y187026914D02*
X93259021Y186741200D01*
X93259021Y186741200D02*
X93259021Y186169771D01*
X93259021Y186169771D02*
X93401878Y185884057D01*
X93401878Y185884057D02*
X93544735Y185741200D01*
X93544735Y185741200D02*
X93830450Y185598342D01*
X93830450Y185598342D02*
X94401878Y185598342D01*
X94401878Y185598342D02*
X94687593Y185741200D01*
X94687593Y185741200D02*
X94830450Y185884057D01*
X94830450Y185884057D02*
X94973307Y186169771D01*
X94973307Y186169771D02*
X94973307Y186741200D01*
X94973307Y186741200D02*
X94830450Y187026914D01*
X94830450Y187026914D02*
X94687593Y187169771D01*
X94687593Y187169771D02*
X94401878Y187312628D01*
X124213307Y187598342D02*
X124213307Y185598342D01*
X123499021Y188741200D02*
X122784735Y186598342D01*
X122784735Y186598342D02*
X124641878Y186598342D01*
X130023307Y188598342D02*
X131880450Y188598342D01*
X131880450Y188598342D02*
X130880450Y187455485D01*
X130880450Y187455485D02*
X131309021Y187455485D01*
X131309021Y187455485D02*
X131594736Y187312628D01*
X131594736Y187312628D02*
X131737593Y187169771D01*
X131737593Y187169771D02*
X131880450Y186884057D01*
X131880450Y186884057D02*
X131880450Y186169771D01*
X131880450Y186169771D02*
X131737593Y185884057D01*
X131737593Y185884057D02*
X131594736Y185741200D01*
X131594736Y185741200D02*
X131309021Y185598342D01*
X131309021Y185598342D02*
X130451878Y185598342D01*
X130451878Y185598342D02*
X130166164Y185741200D01*
X130166164Y185741200D02*
X130023307Y185884057D01*
X137547592Y188312628D02*
X137690449Y188455485D01*
X137690449Y188455485D02*
X137976164Y188598342D01*
X137976164Y188598342D02*
X138690449Y188598342D01*
X138690449Y188598342D02*
X138976164Y188455485D01*
X138976164Y188455485D02*
X139119021Y188312628D01*
X139119021Y188312628D02*
X139261878Y188026914D01*
X139261878Y188026914D02*
X139261878Y187741200D01*
X139261878Y187741200D02*
X139119021Y187312628D01*
X139119021Y187312628D02*
X137404735Y185598342D01*
X137404735Y185598342D02*
X139261878Y185598342D01*
X116974736Y188598342D02*
X115546164Y188598342D01*
X115546164Y188598342D02*
X115403307Y187169771D01*
X115403307Y187169771D02*
X115546164Y187312628D01*
X115546164Y187312628D02*
X115831879Y187455485D01*
X115831879Y187455485D02*
X116546164Y187455485D01*
X116546164Y187455485D02*
X116831879Y187312628D01*
X116831879Y187312628D02*
X116974736Y187169771D01*
X116974736Y187169771D02*
X117117593Y186884057D01*
X117117593Y186884057D02*
X117117593Y186169771D01*
X117117593Y186169771D02*
X116974736Y185884057D01*
X116974736Y185884057D02*
X116831879Y185741200D01*
X116831879Y185741200D02*
X116546164Y185598342D01*
X116546164Y185598342D02*
X115831879Y185598342D01*
X115831879Y185598342D02*
X115546164Y185741200D01*
X115546164Y185741200D02*
X115403307Y185884057D01*
X146643307Y185598342D02*
X144929021Y185598342D01*
X145786164Y185598342D02*
X145786164Y188598342D01*
X145786164Y188598342D02*
X145500450Y188169771D01*
X145500450Y188169771D02*
X145214735Y187884057D01*
X145214735Y187884057D02*
X144929021Y187741200D01*
D11*
X41757392Y153662247D02*
X41757392Y161662247D01*
X45566916Y153662247D02*
X45566916Y161662247D01*
X45566916Y161662247D02*
X50138345Y153662247D01*
X50138345Y153662247D02*
X50138345Y161662247D01*
X58519297Y154424152D02*
X58138345Y154043200D01*
X58138345Y154043200D02*
X56995487Y153662247D01*
X56995487Y153662247D02*
X56233583Y153662247D01*
X56233583Y153662247D02*
X55090726Y154043200D01*
X55090726Y154043200D02*
X54328821Y154805104D01*
X54328821Y154805104D02*
X53947868Y155567009D01*
X53947868Y155567009D02*
X53566916Y157090819D01*
X53566916Y157090819D02*
X53566916Y158233676D01*
X53566916Y158233676D02*
X53947868Y159757485D01*
X53947868Y159757485D02*
X54328821Y160519390D01*
X54328821Y160519390D02*
X55090726Y161281295D01*
X55090726Y161281295D02*
X56233583Y161662247D01*
X56233583Y161662247D02*
X56995487Y161662247D01*
X56995487Y161662247D02*
X58138345Y161281295D01*
X58138345Y161281295D02*
X58519297Y160900342D01*
X66519297Y153662247D02*
X63852630Y157471771D01*
X61947868Y153662247D02*
X61947868Y161662247D01*
X61947868Y161662247D02*
X64995487Y161662247D01*
X64995487Y161662247D02*
X65757392Y161281295D01*
X65757392Y161281295D02*
X66138345Y160900342D01*
X66138345Y160900342D02*
X66519297Y160138438D01*
X66519297Y160138438D02*
X66519297Y158995580D01*
X66519297Y158995580D02*
X66138345Y158233676D01*
X66138345Y158233676D02*
X65757392Y157852723D01*
X65757392Y157852723D02*
X64995487Y157471771D01*
X64995487Y157471771D02*
X61947868Y157471771D01*
X69947868Y157852723D02*
X72614535Y157852723D01*
X73757392Y153662247D02*
X69947868Y153662247D01*
X69947868Y153662247D02*
X69947868Y161662247D01*
X69947868Y161662247D02*
X73757392Y161662247D01*
X77185963Y153662247D02*
X77185963Y161662247D01*
X77185963Y161662247D02*
X79852630Y155947961D01*
X79852630Y155947961D02*
X82519297Y161662247D01*
X82519297Y161662247D02*
X82519297Y153662247D01*
X86328820Y157852723D02*
X88995487Y157852723D01*
X90138344Y153662247D02*
X86328820Y153662247D01*
X86328820Y153662247D02*
X86328820Y161662247D01*
X86328820Y161662247D02*
X90138344Y161662247D01*
X93566915Y153662247D02*
X93566915Y161662247D01*
X93566915Y161662247D02*
X98138344Y153662247D01*
X98138344Y153662247D02*
X98138344Y161662247D01*
X100805010Y161662247D02*
X105376439Y161662247D01*
X103090725Y153662247D02*
X103090725Y161662247D01*
X108043105Y157852723D02*
X110709772Y157852723D01*
X111852629Y153662247D02*
X108043105Y153662247D01*
X108043105Y153662247D02*
X108043105Y161662247D01*
X108043105Y161662247D02*
X111852629Y161662247D01*
X119852629Y153662247D02*
X117185962Y157471771D01*
X115281200Y153662247D02*
X115281200Y161662247D01*
X115281200Y161662247D02*
X118328819Y161662247D01*
X118328819Y161662247D02*
X119090724Y161281295D01*
X119090724Y161281295D02*
X119471677Y160900342D01*
X119471677Y160900342D02*
X119852629Y160138438D01*
X119852629Y160138438D02*
X119852629Y158995580D01*
X119852629Y158995580D02*
X119471677Y158233676D01*
X119471677Y158233676D02*
X119090724Y157852723D01*
X119090724Y157852723D02*
X118328819Y157471771D01*
X118328819Y157471771D02*
X115281200Y157471771D01*
X133947867Y153662247D02*
X131281200Y157471771D01*
X129376438Y153662247D02*
X129376438Y161662247D01*
X129376438Y161662247D02*
X132424057Y161662247D01*
X132424057Y161662247D02*
X133185962Y161281295D01*
X133185962Y161281295D02*
X133566915Y160900342D01*
X133566915Y160900342D02*
X133947867Y160138438D01*
X133947867Y160138438D02*
X133947867Y158995580D01*
X133947867Y158995580D02*
X133566915Y158233676D01*
X133566915Y158233676D02*
X133185962Y157852723D01*
X133185962Y157852723D02*
X132424057Y157471771D01*
X132424057Y157471771D02*
X129376438Y157471771D01*
X137376438Y157852723D02*
X140043105Y157852723D01*
X141185962Y153662247D02*
X137376438Y153662247D01*
X137376438Y153662247D02*
X137376438Y161662247D01*
X137376438Y161662247D02*
X141185962Y161662247D01*
X148805010Y161281295D02*
X148043105Y161662247D01*
X148043105Y161662247D02*
X146900248Y161662247D01*
X146900248Y161662247D02*
X145757391Y161281295D01*
X145757391Y161281295D02*
X144995486Y160519390D01*
X144995486Y160519390D02*
X144614533Y159757485D01*
X144614533Y159757485D02*
X144233581Y158233676D01*
X144233581Y158233676D02*
X144233581Y157090819D01*
X144233581Y157090819D02*
X144614533Y155567009D01*
X144614533Y155567009D02*
X144995486Y154805104D01*
X144995486Y154805104D02*
X145757391Y154043200D01*
X145757391Y154043200D02*
X146900248Y153662247D01*
X146900248Y153662247D02*
X147662152Y153662247D01*
X147662152Y153662247D02*
X148805010Y154043200D01*
X148805010Y154043200D02*
X149185962Y154424152D01*
X149185962Y154424152D02*
X149185962Y157090819D01*
X149185962Y157090819D02*
X147662152Y157090819D01*
X152614533Y153662247D02*
X152614533Y161662247D01*
X156043105Y154043200D02*
X157185962Y153662247D01*
X157185962Y153662247D02*
X159090724Y153662247D01*
X159090724Y153662247D02*
X159852629Y154043200D01*
X159852629Y154043200D02*
X160233581Y154424152D01*
X160233581Y154424152D02*
X160614534Y155186057D01*
X160614534Y155186057D02*
X160614534Y155947961D01*
X160614534Y155947961D02*
X160233581Y156709866D01*
X160233581Y156709866D02*
X159852629Y157090819D01*
X159852629Y157090819D02*
X159090724Y157471771D01*
X159090724Y157471771D02*
X157566915Y157852723D01*
X157566915Y157852723D02*
X156805010Y158233676D01*
X156805010Y158233676D02*
X156424057Y158614628D01*
X156424057Y158614628D02*
X156043105Y159376533D01*
X156043105Y159376533D02*
X156043105Y160138438D01*
X156043105Y160138438D02*
X156424057Y160900342D01*
X156424057Y160900342D02*
X156805010Y161281295D01*
X156805010Y161281295D02*
X157566915Y161662247D01*
X157566915Y161662247D02*
X159471676Y161662247D01*
X159471676Y161662247D02*
X160614534Y161281295D01*
X162900248Y161662247D02*
X167471677Y161662247D01*
X165185963Y153662247D02*
X165185963Y161662247D01*
X170138343Y157852723D02*
X172805010Y157852723D01*
X173947867Y153662247D02*
X170138343Y153662247D01*
X170138343Y153662247D02*
X170138343Y161662247D01*
X170138343Y161662247D02*
X173947867Y161662247D01*
X181947867Y153662247D02*
X179281200Y157471771D01*
X177376438Y153662247D02*
X177376438Y161662247D01*
X177376438Y161662247D02*
X180424057Y161662247D01*
X180424057Y161662247D02*
X181185962Y161281295D01*
X181185962Y161281295D02*
X181566915Y160900342D01*
X181566915Y160900342D02*
X181947867Y160138438D01*
X181947867Y160138438D02*
X181947867Y158995580D01*
X181947867Y158995580D02*
X181566915Y158233676D01*
X181566915Y158233676D02*
X181185962Y157852723D01*
X181185962Y157852723D02*
X180424057Y157471771D01*
X180424057Y157471771D02*
X177376438Y157471771D01*
D12*
X192266666Y73515180D02*
X192266666Y72800895D01*
X192266666Y72800895D02*
X192219047Y72658038D01*
X192219047Y72658038D02*
X192123809Y72562800D01*
X192123809Y72562800D02*
X191980952Y72515180D01*
X191980952Y72515180D02*
X191885714Y72515180D01*
X192695238Y73419942D02*
X192742857Y73467561D01*
X192742857Y73467561D02*
X192838095Y73515180D01*
X192838095Y73515180D02*
X193076190Y73515180D01*
X193076190Y73515180D02*
X193171428Y73467561D01*
X193171428Y73467561D02*
X193219047Y73419942D01*
X193219047Y73419942D02*
X193266666Y73324704D01*
X193266666Y73324704D02*
X193266666Y73229466D01*
X193266666Y73229466D02*
X193219047Y73086609D01*
X193219047Y73086609D02*
X192647619Y72515180D01*
X192647619Y72515180D02*
X193266666Y72515180D01*
X30866666Y73515180D02*
X30866666Y72800895D01*
X30866666Y72800895D02*
X30819047Y72658038D01*
X30819047Y72658038D02*
X30723809Y72562800D01*
X30723809Y72562800D02*
X30580952Y72515180D01*
X30580952Y72515180D02*
X30485714Y72515180D01*
X31866666Y72515180D02*
X31295238Y72515180D01*
X31580952Y72515180D02*
X31580952Y73515180D01*
X31580952Y73515180D02*
X31485714Y73372323D01*
X31485714Y73372323D02*
X31390476Y73277085D01*
X31390476Y73277085D02*
X31295238Y73229466D01*
X128778214Y120335180D02*
X128778214Y121335180D01*
X128778214Y121335180D02*
X129016309Y121335180D01*
X129016309Y121335180D02*
X129159166Y121287561D01*
X129159166Y121287561D02*
X129254404Y121192323D01*
X129254404Y121192323D02*
X129302023Y121097085D01*
X129302023Y121097085D02*
X129349642Y120906609D01*
X129349642Y120906609D02*
X129349642Y120763752D01*
X129349642Y120763752D02*
X129302023Y120573276D01*
X129302023Y120573276D02*
X129254404Y120478038D01*
X129254404Y120478038D02*
X129159166Y120382800D01*
X129159166Y120382800D02*
X129016309Y120335180D01*
X129016309Y120335180D02*
X128778214Y120335180D01*
X130206785Y121001847D02*
X130206785Y120335180D01*
X129968690Y121382800D02*
X129730595Y120668514D01*
X129730595Y120668514D02*
X130349642Y120668514D01*
X130921071Y121335180D02*
X131016309Y121335180D01*
X131016309Y121335180D02*
X131111547Y121287561D01*
X131111547Y121287561D02*
X131159166Y121239942D01*
X131159166Y121239942D02*
X131206785Y121144704D01*
X131206785Y121144704D02*
X131254404Y120954228D01*
X131254404Y120954228D02*
X131254404Y120716133D01*
X131254404Y120716133D02*
X131206785Y120525657D01*
X131206785Y120525657D02*
X131159166Y120430419D01*
X131159166Y120430419D02*
X131111547Y120382800D01*
X131111547Y120382800D02*
X131016309Y120335180D01*
X131016309Y120335180D02*
X130921071Y120335180D01*
X130921071Y120335180D02*
X130825833Y120382800D01*
X130825833Y120382800D02*
X130778214Y120430419D01*
X130778214Y120430419D02*
X130730595Y120525657D01*
X130730595Y120525657D02*
X130682976Y120716133D01*
X130682976Y120716133D02*
X130682976Y120954228D01*
X130682976Y120954228D02*
X130730595Y121144704D01*
X130730595Y121144704D02*
X130778214Y121239942D01*
X130778214Y121239942D02*
X130825833Y121287561D01*
X130825833Y121287561D02*
X130921071Y121335180D01*
X133540595Y120655180D02*
X133540595Y121655180D01*
X134112023Y120655180D02*
X133683452Y121226609D01*
X134112023Y121655180D02*
X133540595Y121083752D01*
X128778214Y146035180D02*
X128778214Y147035180D01*
X128778214Y147035180D02*
X129016309Y147035180D01*
X129016309Y147035180D02*
X129159166Y146987561D01*
X129159166Y146987561D02*
X129254404Y146892323D01*
X129254404Y146892323D02*
X129302023Y146797085D01*
X129302023Y146797085D02*
X129349642Y146606609D01*
X129349642Y146606609D02*
X129349642Y146463752D01*
X129349642Y146463752D02*
X129302023Y146273276D01*
X129302023Y146273276D02*
X129254404Y146178038D01*
X129254404Y146178038D02*
X129159166Y146082800D01*
X129159166Y146082800D02*
X129016309Y146035180D01*
X129016309Y146035180D02*
X128778214Y146035180D01*
X129682976Y147035180D02*
X130302023Y147035180D01*
X130302023Y147035180D02*
X129968690Y146654228D01*
X129968690Y146654228D02*
X130111547Y146654228D01*
X130111547Y146654228D02*
X130206785Y146606609D01*
X130206785Y146606609D02*
X130254404Y146558990D01*
X130254404Y146558990D02*
X130302023Y146463752D01*
X130302023Y146463752D02*
X130302023Y146225657D01*
X130302023Y146225657D02*
X130254404Y146130419D01*
X130254404Y146130419D02*
X130206785Y146082800D01*
X130206785Y146082800D02*
X130111547Y146035180D01*
X130111547Y146035180D02*
X129825833Y146035180D01*
X129825833Y146035180D02*
X129730595Y146082800D01*
X129730595Y146082800D02*
X129682976Y146130419D01*
X130778214Y146035180D02*
X130968690Y146035180D01*
X130968690Y146035180D02*
X131063928Y146082800D01*
X131063928Y146082800D02*
X131111547Y146130419D01*
X131111547Y146130419D02*
X131206785Y146273276D01*
X131206785Y146273276D02*
X131254404Y146463752D01*
X131254404Y146463752D02*
X131254404Y146844704D01*
X131254404Y146844704D02*
X131206785Y146939942D01*
X131206785Y146939942D02*
X131159166Y146987561D01*
X131159166Y146987561D02*
X131063928Y147035180D01*
X131063928Y147035180D02*
X130873452Y147035180D01*
X130873452Y147035180D02*
X130778214Y146987561D01*
X130778214Y146987561D02*
X130730595Y146939942D01*
X130730595Y146939942D02*
X130682976Y146844704D01*
X130682976Y146844704D02*
X130682976Y146606609D01*
X130682976Y146606609D02*
X130730595Y146511371D01*
X130730595Y146511371D02*
X130778214Y146463752D01*
X130778214Y146463752D02*
X130873452Y146416133D01*
X130873452Y146416133D02*
X131063928Y146416133D01*
X131063928Y146416133D02*
X131159166Y146463752D01*
X131159166Y146463752D02*
X131206785Y146511371D01*
X131206785Y146511371D02*
X131254404Y146606609D01*
X133540595Y146355180D02*
X133540595Y147355180D01*
X134112023Y146355180D02*
X133683452Y146926609D01*
X134112023Y147355180D02*
X133540595Y146783752D01*
X160563569Y66932857D02*
X159563569Y66932857D01*
X159563569Y66932857D02*
X159563569Y67170952D01*
X159563569Y67170952D02*
X159611188Y67313809D01*
X159611188Y67313809D02*
X159706426Y67409047D01*
X159706426Y67409047D02*
X159801664Y67456666D01*
X159801664Y67456666D02*
X159992140Y67504285D01*
X159992140Y67504285D02*
X160134997Y67504285D01*
X160134997Y67504285D02*
X160325473Y67456666D01*
X160325473Y67456666D02*
X160420711Y67409047D01*
X160420711Y67409047D02*
X160515950Y67313809D01*
X160515950Y67313809D02*
X160563569Y67170952D01*
X160563569Y67170952D02*
X160563569Y66932857D01*
X159563569Y67837619D02*
X159563569Y68456666D01*
X159563569Y68456666D02*
X159944521Y68123333D01*
X159944521Y68123333D02*
X159944521Y68266190D01*
X159944521Y68266190D02*
X159992140Y68361428D01*
X159992140Y68361428D02*
X160039759Y68409047D01*
X160039759Y68409047D02*
X160134997Y68456666D01*
X160134997Y68456666D02*
X160373092Y68456666D01*
X160373092Y68456666D02*
X160468330Y68409047D01*
X160468330Y68409047D02*
X160515950Y68361428D01*
X160515950Y68361428D02*
X160563569Y68266190D01*
X160563569Y68266190D02*
X160563569Y67980476D01*
X160563569Y67980476D02*
X160515950Y67885238D01*
X160515950Y67885238D02*
X160468330Y67837619D01*
X159992140Y69028095D02*
X159944521Y68932857D01*
X159944521Y68932857D02*
X159896902Y68885238D01*
X159896902Y68885238D02*
X159801664Y68837619D01*
X159801664Y68837619D02*
X159754045Y68837619D01*
X159754045Y68837619D02*
X159658807Y68885238D01*
X159658807Y68885238D02*
X159611188Y68932857D01*
X159611188Y68932857D02*
X159563569Y69028095D01*
X159563569Y69028095D02*
X159563569Y69218571D01*
X159563569Y69218571D02*
X159611188Y69313809D01*
X159611188Y69313809D02*
X159658807Y69361428D01*
X159658807Y69361428D02*
X159754045Y69409047D01*
X159754045Y69409047D02*
X159801664Y69409047D01*
X159801664Y69409047D02*
X159896902Y69361428D01*
X159896902Y69361428D02*
X159944521Y69313809D01*
X159944521Y69313809D02*
X159992140Y69218571D01*
X159992140Y69218571D02*
X159992140Y69028095D01*
X159992140Y69028095D02*
X160039759Y68932857D01*
X160039759Y68932857D02*
X160087378Y68885238D01*
X160087378Y68885238D02*
X160182616Y68837619D01*
X160182616Y68837619D02*
X160373092Y68837619D01*
X160373092Y68837619D02*
X160468330Y68885238D01*
X160468330Y68885238D02*
X160515950Y68932857D01*
X160515950Y68932857D02*
X160563569Y69028095D01*
X160563569Y69028095D02*
X160563569Y69218571D01*
X160563569Y69218571D02*
X160515950Y69313809D01*
X160515950Y69313809D02*
X160468330Y69361428D01*
X160468330Y69361428D02*
X160373092Y69409047D01*
X160373092Y69409047D02*
X160182616Y69409047D01*
X160182616Y69409047D02*
X160087378Y69361428D01*
X160087378Y69361428D02*
X160039759Y69313809D01*
X160039759Y69313809D02*
X159992140Y69218571D01*
X160243569Y71695238D02*
X159243569Y71695238D01*
X160243569Y72266666D02*
X159672140Y71838095D01*
X159243569Y72266666D02*
X159814997Y71695238D01*
X77864464Y38115180D02*
X77864464Y39115180D01*
X77864464Y39115180D02*
X78102559Y39115180D01*
X78102559Y39115180D02*
X78245416Y39067561D01*
X78245416Y39067561D02*
X78340654Y38972323D01*
X78340654Y38972323D02*
X78388273Y38877085D01*
X78388273Y38877085D02*
X78435892Y38686609D01*
X78435892Y38686609D02*
X78435892Y38543752D01*
X78435892Y38543752D02*
X78388273Y38353276D01*
X78388273Y38353276D02*
X78340654Y38258038D01*
X78340654Y38258038D02*
X78245416Y38162800D01*
X78245416Y38162800D02*
X78102559Y38115180D01*
X78102559Y38115180D02*
X77864464Y38115180D01*
X79293035Y38781847D02*
X79293035Y38115180D01*
X79054940Y39162800D02*
X78816845Y38448514D01*
X78816845Y38448514D02*
X79435892Y38448514D01*
X80340654Y38115180D02*
X79769226Y38115180D01*
X80054940Y38115180D02*
X80054940Y39115180D01*
X80054940Y39115180D02*
X79959702Y38972323D01*
X79959702Y38972323D02*
X79864464Y38877085D01*
X79864464Y38877085D02*
X79769226Y38829466D01*
X82626845Y38435180D02*
X82626845Y39435180D01*
X83198273Y38435180D02*
X82769702Y39006609D01*
X83198273Y39435180D02*
X82626845Y38863752D01*
X116481964Y120335180D02*
X116481964Y121335180D01*
X116481964Y121335180D02*
X116720059Y121335180D01*
X116720059Y121335180D02*
X116862916Y121287561D01*
X116862916Y121287561D02*
X116958154Y121192323D01*
X116958154Y121192323D02*
X117005773Y121097085D01*
X117005773Y121097085D02*
X117053392Y120906609D01*
X117053392Y120906609D02*
X117053392Y120763752D01*
X117053392Y120763752D02*
X117005773Y120573276D01*
X117005773Y120573276D02*
X116958154Y120478038D01*
X116958154Y120478038D02*
X116862916Y120382800D01*
X116862916Y120382800D02*
X116720059Y120335180D01*
X116720059Y120335180D02*
X116481964Y120335180D01*
X117434345Y121239942D02*
X117481964Y121287561D01*
X117481964Y121287561D02*
X117577202Y121335180D01*
X117577202Y121335180D02*
X117815297Y121335180D01*
X117815297Y121335180D02*
X117910535Y121287561D01*
X117910535Y121287561D02*
X117958154Y121239942D01*
X117958154Y121239942D02*
X118005773Y121144704D01*
X118005773Y121144704D02*
X118005773Y121049466D01*
X118005773Y121049466D02*
X117958154Y120906609D01*
X117958154Y120906609D02*
X117386726Y120335180D01*
X117386726Y120335180D02*
X118005773Y120335180D01*
X118481964Y120335180D02*
X118672440Y120335180D01*
X118672440Y120335180D02*
X118767678Y120382800D01*
X118767678Y120382800D02*
X118815297Y120430419D01*
X118815297Y120430419D02*
X118910535Y120573276D01*
X118910535Y120573276D02*
X118958154Y120763752D01*
X118958154Y120763752D02*
X118958154Y121144704D01*
X118958154Y121144704D02*
X118910535Y121239942D01*
X118910535Y121239942D02*
X118862916Y121287561D01*
X118862916Y121287561D02*
X118767678Y121335180D01*
X118767678Y121335180D02*
X118577202Y121335180D01*
X118577202Y121335180D02*
X118481964Y121287561D01*
X118481964Y121287561D02*
X118434345Y121239942D01*
X118434345Y121239942D02*
X118386726Y121144704D01*
X118386726Y121144704D02*
X118386726Y120906609D01*
X118386726Y120906609D02*
X118434345Y120811371D01*
X118434345Y120811371D02*
X118481964Y120763752D01*
X118481964Y120763752D02*
X118577202Y120716133D01*
X118577202Y120716133D02*
X118767678Y120716133D01*
X118767678Y120716133D02*
X118862916Y120763752D01*
X118862916Y120763752D02*
X118910535Y120811371D01*
X118910535Y120811371D02*
X118958154Y120906609D01*
X121244345Y120655180D02*
X121244345Y121655180D01*
X121815773Y120655180D02*
X121387202Y121226609D01*
X121815773Y121655180D02*
X121244345Y121083752D01*
X116481964Y146035180D02*
X116481964Y147035180D01*
X116481964Y147035180D02*
X116720059Y147035180D01*
X116720059Y147035180D02*
X116862916Y146987561D01*
X116862916Y146987561D02*
X116958154Y146892323D01*
X116958154Y146892323D02*
X117005773Y146797085D01*
X117005773Y146797085D02*
X117053392Y146606609D01*
X117053392Y146606609D02*
X117053392Y146463752D01*
X117053392Y146463752D02*
X117005773Y146273276D01*
X117005773Y146273276D02*
X116958154Y146178038D01*
X116958154Y146178038D02*
X116862916Y146082800D01*
X116862916Y146082800D02*
X116720059Y146035180D01*
X116720059Y146035180D02*
X116481964Y146035180D01*
X117386726Y147035180D02*
X118005773Y147035180D01*
X118005773Y147035180D02*
X117672440Y146654228D01*
X117672440Y146654228D02*
X117815297Y146654228D01*
X117815297Y146654228D02*
X117910535Y146606609D01*
X117910535Y146606609D02*
X117958154Y146558990D01*
X117958154Y146558990D02*
X118005773Y146463752D01*
X118005773Y146463752D02*
X118005773Y146225657D01*
X118005773Y146225657D02*
X117958154Y146130419D01*
X117958154Y146130419D02*
X117910535Y146082800D01*
X117910535Y146082800D02*
X117815297Y146035180D01*
X117815297Y146035180D02*
X117529583Y146035180D01*
X117529583Y146035180D02*
X117434345Y146082800D01*
X117434345Y146082800D02*
X117386726Y146130419D01*
X118958154Y146035180D02*
X118386726Y146035180D01*
X118672440Y146035180D02*
X118672440Y147035180D01*
X118672440Y147035180D02*
X118577202Y146892323D01*
X118577202Y146892323D02*
X118481964Y146797085D01*
X118481964Y146797085D02*
X118386726Y146749466D01*
X121244345Y146355180D02*
X121244345Y147355180D01*
X121815773Y146355180D02*
X121387202Y146926609D01*
X121815773Y147355180D02*
X121244345Y146783752D01*
X160563569Y54684285D02*
X159563569Y54684285D01*
X159563569Y54684285D02*
X159563569Y54922380D01*
X159563569Y54922380D02*
X159611188Y55065237D01*
X159611188Y55065237D02*
X159706426Y55160475D01*
X159706426Y55160475D02*
X159801664Y55208094D01*
X159801664Y55208094D02*
X159992140Y55255713D01*
X159992140Y55255713D02*
X160134997Y55255713D01*
X160134997Y55255713D02*
X160325473Y55208094D01*
X160325473Y55208094D02*
X160420711Y55160475D01*
X160420711Y55160475D02*
X160515950Y55065237D01*
X160515950Y55065237D02*
X160563569Y54922380D01*
X160563569Y54922380D02*
X160563569Y54684285D01*
X159658807Y55636666D02*
X159611188Y55684285D01*
X159611188Y55684285D02*
X159563569Y55779523D01*
X159563569Y55779523D02*
X159563569Y56017618D01*
X159563569Y56017618D02*
X159611188Y56112856D01*
X159611188Y56112856D02*
X159658807Y56160475D01*
X159658807Y56160475D02*
X159754045Y56208094D01*
X159754045Y56208094D02*
X159849283Y56208094D01*
X159849283Y56208094D02*
X159992140Y56160475D01*
X159992140Y56160475D02*
X160563569Y55589047D01*
X160563569Y55589047D02*
X160563569Y56208094D01*
X159992140Y56779523D02*
X159944521Y56684285D01*
X159944521Y56684285D02*
X159896902Y56636666D01*
X159896902Y56636666D02*
X159801664Y56589047D01*
X159801664Y56589047D02*
X159754045Y56589047D01*
X159754045Y56589047D02*
X159658807Y56636666D01*
X159658807Y56636666D02*
X159611188Y56684285D01*
X159611188Y56684285D02*
X159563569Y56779523D01*
X159563569Y56779523D02*
X159563569Y56969999D01*
X159563569Y56969999D02*
X159611188Y57065237D01*
X159611188Y57065237D02*
X159658807Y57112856D01*
X159658807Y57112856D02*
X159754045Y57160475D01*
X159754045Y57160475D02*
X159801664Y57160475D01*
X159801664Y57160475D02*
X159896902Y57112856D01*
X159896902Y57112856D02*
X159944521Y57065237D01*
X159944521Y57065237D02*
X159992140Y56969999D01*
X159992140Y56969999D02*
X159992140Y56779523D01*
X159992140Y56779523D02*
X160039759Y56684285D01*
X160039759Y56684285D02*
X160087378Y56636666D01*
X160087378Y56636666D02*
X160182616Y56589047D01*
X160182616Y56589047D02*
X160373092Y56589047D01*
X160373092Y56589047D02*
X160468330Y56636666D01*
X160468330Y56636666D02*
X160515950Y56684285D01*
X160515950Y56684285D02*
X160563569Y56779523D01*
X160563569Y56779523D02*
X160563569Y56969999D01*
X160563569Y56969999D02*
X160515950Y57065237D01*
X160515950Y57065237D02*
X160468330Y57112856D01*
X160468330Y57112856D02*
X160373092Y57160475D01*
X160373092Y57160475D02*
X160182616Y57160475D01*
X160182616Y57160475D02*
X160087378Y57112856D01*
X160087378Y57112856D02*
X160039759Y57065237D01*
X160039759Y57065237D02*
X159992140Y56969999D01*
X160243569Y59446666D02*
X159243569Y59446666D01*
X160243569Y60018094D02*
X159672140Y59589523D01*
X159243569Y60018094D02*
X159814997Y59446666D01*
X65634464Y38115180D02*
X65634464Y39115180D01*
X65634464Y39115180D02*
X65872559Y39115180D01*
X65872559Y39115180D02*
X66015416Y39067561D01*
X66015416Y39067561D02*
X66110654Y38972323D01*
X66110654Y38972323D02*
X66158273Y38877085D01*
X66158273Y38877085D02*
X66205892Y38686609D01*
X66205892Y38686609D02*
X66205892Y38543752D01*
X66205892Y38543752D02*
X66158273Y38353276D01*
X66158273Y38353276D02*
X66110654Y38258038D01*
X66110654Y38258038D02*
X66015416Y38162800D01*
X66015416Y38162800D02*
X65872559Y38115180D01*
X65872559Y38115180D02*
X65634464Y38115180D01*
X66539226Y39115180D02*
X67158273Y39115180D01*
X67158273Y39115180D02*
X66824940Y38734228D01*
X66824940Y38734228D02*
X66967797Y38734228D01*
X66967797Y38734228D02*
X67063035Y38686609D01*
X67063035Y38686609D02*
X67110654Y38638990D01*
X67110654Y38638990D02*
X67158273Y38543752D01*
X67158273Y38543752D02*
X67158273Y38305657D01*
X67158273Y38305657D02*
X67110654Y38210419D01*
X67110654Y38210419D02*
X67063035Y38162800D01*
X67063035Y38162800D02*
X66967797Y38115180D01*
X66967797Y38115180D02*
X66682083Y38115180D01*
X66682083Y38115180D02*
X66586845Y38162800D01*
X66586845Y38162800D02*
X66539226Y38210419D01*
X67777321Y39115180D02*
X67872559Y39115180D01*
X67872559Y39115180D02*
X67967797Y39067561D01*
X67967797Y39067561D02*
X68015416Y39019942D01*
X68015416Y39019942D02*
X68063035Y38924704D01*
X68063035Y38924704D02*
X68110654Y38734228D01*
X68110654Y38734228D02*
X68110654Y38496133D01*
X68110654Y38496133D02*
X68063035Y38305657D01*
X68063035Y38305657D02*
X68015416Y38210419D01*
X68015416Y38210419D02*
X67967797Y38162800D01*
X67967797Y38162800D02*
X67872559Y38115180D01*
X67872559Y38115180D02*
X67777321Y38115180D01*
X67777321Y38115180D02*
X67682083Y38162800D01*
X67682083Y38162800D02*
X67634464Y38210419D01*
X67634464Y38210419D02*
X67586845Y38305657D01*
X67586845Y38305657D02*
X67539226Y38496133D01*
X67539226Y38496133D02*
X67539226Y38734228D01*
X67539226Y38734228D02*
X67586845Y38924704D01*
X67586845Y38924704D02*
X67634464Y39019942D01*
X67634464Y39019942D02*
X67682083Y39067561D01*
X67682083Y39067561D02*
X67777321Y39115180D01*
X70396845Y38435180D02*
X70396845Y39435180D01*
X70968273Y38435180D02*
X70539702Y39006609D01*
X70968273Y39435180D02*
X70396845Y38863752D01*
X104185714Y120335180D02*
X104185714Y121335180D01*
X104185714Y121335180D02*
X104423809Y121335180D01*
X104423809Y121335180D02*
X104566666Y121287561D01*
X104566666Y121287561D02*
X104661904Y121192323D01*
X104661904Y121192323D02*
X104709523Y121097085D01*
X104709523Y121097085D02*
X104757142Y120906609D01*
X104757142Y120906609D02*
X104757142Y120763752D01*
X104757142Y120763752D02*
X104709523Y120573276D01*
X104709523Y120573276D02*
X104661904Y120478038D01*
X104661904Y120478038D02*
X104566666Y120382800D01*
X104566666Y120382800D02*
X104423809Y120335180D01*
X104423809Y120335180D02*
X104185714Y120335180D01*
X105138095Y121239942D02*
X105185714Y121287561D01*
X105185714Y121287561D02*
X105280952Y121335180D01*
X105280952Y121335180D02*
X105519047Y121335180D01*
X105519047Y121335180D02*
X105614285Y121287561D01*
X105614285Y121287561D02*
X105661904Y121239942D01*
X105661904Y121239942D02*
X105709523Y121144704D01*
X105709523Y121144704D02*
X105709523Y121049466D01*
X105709523Y121049466D02*
X105661904Y120906609D01*
X105661904Y120906609D02*
X105090476Y120335180D01*
X105090476Y120335180D02*
X105709523Y120335180D01*
X106566666Y121001847D02*
X106566666Y120335180D01*
X106328571Y121382800D02*
X106090476Y120668514D01*
X106090476Y120668514D02*
X106709523Y120668514D01*
X108948095Y120655180D02*
X108948095Y121655180D01*
X109519523Y120655180D02*
X109090952Y121226609D01*
X109519523Y121655180D02*
X108948095Y121083752D01*
X104185714Y146035180D02*
X104185714Y147035180D01*
X104185714Y147035180D02*
X104423809Y147035180D01*
X104423809Y147035180D02*
X104566666Y146987561D01*
X104566666Y146987561D02*
X104661904Y146892323D01*
X104661904Y146892323D02*
X104709523Y146797085D01*
X104709523Y146797085D02*
X104757142Y146606609D01*
X104757142Y146606609D02*
X104757142Y146463752D01*
X104757142Y146463752D02*
X104709523Y146273276D01*
X104709523Y146273276D02*
X104661904Y146178038D01*
X104661904Y146178038D02*
X104566666Y146082800D01*
X104566666Y146082800D02*
X104423809Y146035180D01*
X104423809Y146035180D02*
X104185714Y146035180D01*
X105138095Y146939942D02*
X105185714Y146987561D01*
X105185714Y146987561D02*
X105280952Y147035180D01*
X105280952Y147035180D02*
X105519047Y147035180D01*
X105519047Y147035180D02*
X105614285Y146987561D01*
X105614285Y146987561D02*
X105661904Y146939942D01*
X105661904Y146939942D02*
X105709523Y146844704D01*
X105709523Y146844704D02*
X105709523Y146749466D01*
X105709523Y146749466D02*
X105661904Y146606609D01*
X105661904Y146606609D02*
X105090476Y146035180D01*
X105090476Y146035180D02*
X105709523Y146035180D01*
X106042857Y147035180D02*
X106661904Y147035180D01*
X106661904Y147035180D02*
X106328571Y146654228D01*
X106328571Y146654228D02*
X106471428Y146654228D01*
X106471428Y146654228D02*
X106566666Y146606609D01*
X106566666Y146606609D02*
X106614285Y146558990D01*
X106614285Y146558990D02*
X106661904Y146463752D01*
X106661904Y146463752D02*
X106661904Y146225657D01*
X106661904Y146225657D02*
X106614285Y146130419D01*
X106614285Y146130419D02*
X106566666Y146082800D01*
X106566666Y146082800D02*
X106471428Y146035180D01*
X106471428Y146035180D02*
X106185714Y146035180D01*
X106185714Y146035180D02*
X106090476Y146082800D01*
X106090476Y146082800D02*
X106042857Y146130419D01*
X108948095Y146355180D02*
X108948095Y147355180D01*
X109519523Y146355180D02*
X109090952Y146926609D01*
X109519523Y147355180D02*
X108948095Y146783752D01*
X53574464Y38115180D02*
X53574464Y39115180D01*
X53574464Y39115180D02*
X53812559Y39115180D01*
X53812559Y39115180D02*
X53955416Y39067561D01*
X53955416Y39067561D02*
X54050654Y38972323D01*
X54050654Y38972323D02*
X54098273Y38877085D01*
X54098273Y38877085D02*
X54145892Y38686609D01*
X54145892Y38686609D02*
X54145892Y38543752D01*
X54145892Y38543752D02*
X54098273Y38353276D01*
X54098273Y38353276D02*
X54050654Y38258038D01*
X54050654Y38258038D02*
X53955416Y38162800D01*
X53955416Y38162800D02*
X53812559Y38115180D01*
X53812559Y38115180D02*
X53574464Y38115180D01*
X54526845Y39019942D02*
X54574464Y39067561D01*
X54574464Y39067561D02*
X54669702Y39115180D01*
X54669702Y39115180D02*
X54907797Y39115180D01*
X54907797Y39115180D02*
X55003035Y39067561D01*
X55003035Y39067561D02*
X55050654Y39019942D01*
X55050654Y39019942D02*
X55098273Y38924704D01*
X55098273Y38924704D02*
X55098273Y38829466D01*
X55098273Y38829466D02*
X55050654Y38686609D01*
X55050654Y38686609D02*
X54479226Y38115180D01*
X54479226Y38115180D02*
X55098273Y38115180D01*
X56003035Y39115180D02*
X55526845Y39115180D01*
X55526845Y39115180D02*
X55479226Y38638990D01*
X55479226Y38638990D02*
X55526845Y38686609D01*
X55526845Y38686609D02*
X55622083Y38734228D01*
X55622083Y38734228D02*
X55860178Y38734228D01*
X55860178Y38734228D02*
X55955416Y38686609D01*
X55955416Y38686609D02*
X56003035Y38638990D01*
X56003035Y38638990D02*
X56050654Y38543752D01*
X56050654Y38543752D02*
X56050654Y38305657D01*
X56050654Y38305657D02*
X56003035Y38210419D01*
X56003035Y38210419D02*
X55955416Y38162800D01*
X55955416Y38162800D02*
X55860178Y38115180D01*
X55860178Y38115180D02*
X55622083Y38115180D01*
X55622083Y38115180D02*
X55526845Y38162800D01*
X55526845Y38162800D02*
X55479226Y38210419D01*
X58336845Y38435180D02*
X58336845Y39435180D01*
X58908273Y38435180D02*
X58479702Y39006609D01*
X58908273Y39435180D02*
X58336845Y38863752D01*
X79593214Y146035180D02*
X79593214Y147035180D01*
X79593214Y147035180D02*
X79831309Y147035180D01*
X79831309Y147035180D02*
X79974166Y146987561D01*
X79974166Y146987561D02*
X80069404Y146892323D01*
X80069404Y146892323D02*
X80117023Y146797085D01*
X80117023Y146797085D02*
X80164642Y146606609D01*
X80164642Y146606609D02*
X80164642Y146463752D01*
X80164642Y146463752D02*
X80117023Y146273276D01*
X80117023Y146273276D02*
X80069404Y146178038D01*
X80069404Y146178038D02*
X79974166Y146082800D01*
X79974166Y146082800D02*
X79831309Y146035180D01*
X79831309Y146035180D02*
X79593214Y146035180D01*
X81117023Y146035180D02*
X80545595Y146035180D01*
X80831309Y146035180D02*
X80831309Y147035180D01*
X80831309Y147035180D02*
X80736071Y146892323D01*
X80736071Y146892323D02*
X80640833Y146797085D01*
X80640833Y146797085D02*
X80545595Y146749466D01*
X81450357Y147035180D02*
X82069404Y147035180D01*
X82069404Y147035180D02*
X81736071Y146654228D01*
X81736071Y146654228D02*
X81878928Y146654228D01*
X81878928Y146654228D02*
X81974166Y146606609D01*
X81974166Y146606609D02*
X82021785Y146558990D01*
X82021785Y146558990D02*
X82069404Y146463752D01*
X82069404Y146463752D02*
X82069404Y146225657D01*
X82069404Y146225657D02*
X82021785Y146130419D01*
X82021785Y146130419D02*
X81974166Y146082800D01*
X81974166Y146082800D02*
X81878928Y146035180D01*
X81878928Y146035180D02*
X81593214Y146035180D01*
X81593214Y146035180D02*
X81497976Y146082800D01*
X81497976Y146082800D02*
X81450357Y146130419D01*
X84355595Y146355180D02*
X84355595Y147355180D01*
X84927023Y146355180D02*
X84498452Y146926609D01*
X84927023Y147355180D02*
X84355595Y146783752D01*
X160563569Y42435714D02*
X159563569Y42435714D01*
X159563569Y42435714D02*
X159563569Y42673809D01*
X159563569Y42673809D02*
X159611188Y42816666D01*
X159611188Y42816666D02*
X159706426Y42911904D01*
X159706426Y42911904D02*
X159801664Y42959523D01*
X159801664Y42959523D02*
X159992140Y43007142D01*
X159992140Y43007142D02*
X160134997Y43007142D01*
X160134997Y43007142D02*
X160325473Y42959523D01*
X160325473Y42959523D02*
X160420711Y42911904D01*
X160420711Y42911904D02*
X160515950Y42816666D01*
X160515950Y42816666D02*
X160563569Y42673809D01*
X160563569Y42673809D02*
X160563569Y42435714D01*
X159658807Y43388095D02*
X159611188Y43435714D01*
X159611188Y43435714D02*
X159563569Y43530952D01*
X159563569Y43530952D02*
X159563569Y43769047D01*
X159563569Y43769047D02*
X159611188Y43864285D01*
X159611188Y43864285D02*
X159658807Y43911904D01*
X159658807Y43911904D02*
X159754045Y43959523D01*
X159754045Y43959523D02*
X159849283Y43959523D01*
X159849283Y43959523D02*
X159992140Y43911904D01*
X159992140Y43911904D02*
X160563569Y43340476D01*
X160563569Y43340476D02*
X160563569Y43959523D01*
X159658807Y44340476D02*
X159611188Y44388095D01*
X159611188Y44388095D02*
X159563569Y44483333D01*
X159563569Y44483333D02*
X159563569Y44721428D01*
X159563569Y44721428D02*
X159611188Y44816666D01*
X159611188Y44816666D02*
X159658807Y44864285D01*
X159658807Y44864285D02*
X159754045Y44911904D01*
X159754045Y44911904D02*
X159849283Y44911904D01*
X159849283Y44911904D02*
X159992140Y44864285D01*
X159992140Y44864285D02*
X160563569Y44292857D01*
X160563569Y44292857D02*
X160563569Y44911904D01*
X160243569Y47198095D02*
X159243569Y47198095D01*
X160243569Y47769523D02*
X159672140Y47340952D01*
X159243569Y47769523D02*
X159814997Y47198095D01*
X91889464Y120335180D02*
X91889464Y121335180D01*
X91889464Y121335180D02*
X92127559Y121335180D01*
X92127559Y121335180D02*
X92270416Y121287561D01*
X92270416Y121287561D02*
X92365654Y121192323D01*
X92365654Y121192323D02*
X92413273Y121097085D01*
X92413273Y121097085D02*
X92460892Y120906609D01*
X92460892Y120906609D02*
X92460892Y120763752D01*
X92460892Y120763752D02*
X92413273Y120573276D01*
X92413273Y120573276D02*
X92365654Y120478038D01*
X92365654Y120478038D02*
X92270416Y120382800D01*
X92270416Y120382800D02*
X92127559Y120335180D01*
X92127559Y120335180D02*
X91889464Y120335180D01*
X93413273Y120335180D02*
X92841845Y120335180D01*
X93127559Y120335180D02*
X93127559Y121335180D01*
X93127559Y121335180D02*
X93032321Y121192323D01*
X93032321Y121192323D02*
X92937083Y121097085D01*
X92937083Y121097085D02*
X92841845Y121049466D01*
X94318035Y121335180D02*
X93841845Y121335180D01*
X93841845Y121335180D02*
X93794226Y120858990D01*
X93794226Y120858990D02*
X93841845Y120906609D01*
X93841845Y120906609D02*
X93937083Y120954228D01*
X93937083Y120954228D02*
X94175178Y120954228D01*
X94175178Y120954228D02*
X94270416Y120906609D01*
X94270416Y120906609D02*
X94318035Y120858990D01*
X94318035Y120858990D02*
X94365654Y120763752D01*
X94365654Y120763752D02*
X94365654Y120525657D01*
X94365654Y120525657D02*
X94318035Y120430419D01*
X94318035Y120430419D02*
X94270416Y120382800D01*
X94270416Y120382800D02*
X94175178Y120335180D01*
X94175178Y120335180D02*
X93937083Y120335180D01*
X93937083Y120335180D02*
X93841845Y120382800D01*
X93841845Y120382800D02*
X93794226Y120430419D01*
X96651845Y120655180D02*
X96651845Y121655180D01*
X97223273Y120655180D02*
X96794702Y121226609D01*
X97223273Y121655180D02*
X96651845Y121083752D01*
X91889464Y146035180D02*
X91889464Y147035180D01*
X91889464Y147035180D02*
X92127559Y147035180D01*
X92127559Y147035180D02*
X92270416Y146987561D01*
X92270416Y146987561D02*
X92365654Y146892323D01*
X92365654Y146892323D02*
X92413273Y146797085D01*
X92413273Y146797085D02*
X92460892Y146606609D01*
X92460892Y146606609D02*
X92460892Y146463752D01*
X92460892Y146463752D02*
X92413273Y146273276D01*
X92413273Y146273276D02*
X92365654Y146178038D01*
X92365654Y146178038D02*
X92270416Y146082800D01*
X92270416Y146082800D02*
X92127559Y146035180D01*
X92127559Y146035180D02*
X91889464Y146035180D01*
X93413273Y146035180D02*
X92841845Y146035180D01*
X93127559Y146035180D02*
X93127559Y147035180D01*
X93127559Y147035180D02*
X93032321Y146892323D01*
X93032321Y146892323D02*
X92937083Y146797085D01*
X92937083Y146797085D02*
X92841845Y146749466D01*
X94270416Y147035180D02*
X94079940Y147035180D01*
X94079940Y147035180D02*
X93984702Y146987561D01*
X93984702Y146987561D02*
X93937083Y146939942D01*
X93937083Y146939942D02*
X93841845Y146797085D01*
X93841845Y146797085D02*
X93794226Y146606609D01*
X93794226Y146606609D02*
X93794226Y146225657D01*
X93794226Y146225657D02*
X93841845Y146130419D01*
X93841845Y146130419D02*
X93889464Y146082800D01*
X93889464Y146082800D02*
X93984702Y146035180D01*
X93984702Y146035180D02*
X94175178Y146035180D01*
X94175178Y146035180D02*
X94270416Y146082800D01*
X94270416Y146082800D02*
X94318035Y146130419D01*
X94318035Y146130419D02*
X94365654Y146225657D01*
X94365654Y146225657D02*
X94365654Y146463752D01*
X94365654Y146463752D02*
X94318035Y146558990D01*
X94318035Y146558990D02*
X94270416Y146606609D01*
X94270416Y146606609D02*
X94175178Y146654228D01*
X94175178Y146654228D02*
X93984702Y146654228D01*
X93984702Y146654228D02*
X93889464Y146606609D01*
X93889464Y146606609D02*
X93841845Y146558990D01*
X93841845Y146558990D02*
X93794226Y146463752D01*
X96651845Y146355180D02*
X96651845Y147355180D01*
X97223273Y146355180D02*
X96794702Y146926609D01*
X97223273Y147355180D02*
X96651845Y146783752D01*
X67773155Y146035180D02*
X67773155Y147035180D01*
X67773155Y147035180D02*
X68011250Y147035180D01*
X68011250Y147035180D02*
X68154107Y146987561D01*
X68154107Y146987561D02*
X68249345Y146892323D01*
X68249345Y146892323D02*
X68296964Y146797085D01*
X68296964Y146797085D02*
X68344583Y146606609D01*
X68344583Y146606609D02*
X68344583Y146463752D01*
X68344583Y146463752D02*
X68296964Y146273276D01*
X68296964Y146273276D02*
X68249345Y146178038D01*
X68249345Y146178038D02*
X68154107Y146082800D01*
X68154107Y146082800D02*
X68011250Y146035180D01*
X68011250Y146035180D02*
X67773155Y146035180D01*
X68916012Y146606609D02*
X68820774Y146654228D01*
X68820774Y146654228D02*
X68773155Y146701847D01*
X68773155Y146701847D02*
X68725536Y146797085D01*
X68725536Y146797085D02*
X68725536Y146844704D01*
X68725536Y146844704D02*
X68773155Y146939942D01*
X68773155Y146939942D02*
X68820774Y146987561D01*
X68820774Y146987561D02*
X68916012Y147035180D01*
X68916012Y147035180D02*
X69106488Y147035180D01*
X69106488Y147035180D02*
X69201726Y146987561D01*
X69201726Y146987561D02*
X69249345Y146939942D01*
X69249345Y146939942D02*
X69296964Y146844704D01*
X69296964Y146844704D02*
X69296964Y146797085D01*
X69296964Y146797085D02*
X69249345Y146701847D01*
X69249345Y146701847D02*
X69201726Y146654228D01*
X69201726Y146654228D02*
X69106488Y146606609D01*
X69106488Y146606609D02*
X68916012Y146606609D01*
X68916012Y146606609D02*
X68820774Y146558990D01*
X68820774Y146558990D02*
X68773155Y146511371D01*
X68773155Y146511371D02*
X68725536Y146416133D01*
X68725536Y146416133D02*
X68725536Y146225657D01*
X68725536Y146225657D02*
X68773155Y146130419D01*
X68773155Y146130419D02*
X68820774Y146082800D01*
X68820774Y146082800D02*
X68916012Y146035180D01*
X68916012Y146035180D02*
X69106488Y146035180D01*
X69106488Y146035180D02*
X69201726Y146082800D01*
X69201726Y146082800D02*
X69249345Y146130419D01*
X69249345Y146130419D02*
X69296964Y146225657D01*
X69296964Y146225657D02*
X69296964Y146416133D01*
X69296964Y146416133D02*
X69249345Y146511371D01*
X69249345Y146511371D02*
X69201726Y146558990D01*
X69201726Y146558990D02*
X69106488Y146606609D01*
X72059345Y146355180D02*
X72059345Y147355180D01*
X72630773Y146355180D02*
X72202202Y146926609D01*
X72630773Y147355180D02*
X72059345Y146783752D01*
X67773155Y120335180D02*
X67773155Y121335180D01*
X67773155Y121335180D02*
X68011250Y121335180D01*
X68011250Y121335180D02*
X68154107Y121287561D01*
X68154107Y121287561D02*
X68249345Y121192323D01*
X68249345Y121192323D02*
X68296964Y121097085D01*
X68296964Y121097085D02*
X68344583Y120906609D01*
X68344583Y120906609D02*
X68344583Y120763752D01*
X68344583Y120763752D02*
X68296964Y120573276D01*
X68296964Y120573276D02*
X68249345Y120478038D01*
X68249345Y120478038D02*
X68154107Y120382800D01*
X68154107Y120382800D02*
X68011250Y120335180D01*
X68011250Y120335180D02*
X67773155Y120335180D01*
X68677917Y121335180D02*
X69344583Y121335180D01*
X69344583Y121335180D02*
X68916012Y120335180D01*
X72059345Y120655180D02*
X72059345Y121655180D01*
X72630773Y120655180D02*
X72202202Y121226609D01*
X72630773Y121655180D02*
X72059345Y121083752D01*
X79593214Y120335180D02*
X79593214Y121335180D01*
X79593214Y121335180D02*
X79831309Y121335180D01*
X79831309Y121335180D02*
X79974166Y121287561D01*
X79974166Y121287561D02*
X80069404Y121192323D01*
X80069404Y121192323D02*
X80117023Y121097085D01*
X80117023Y121097085D02*
X80164642Y120906609D01*
X80164642Y120906609D02*
X80164642Y120763752D01*
X80164642Y120763752D02*
X80117023Y120573276D01*
X80117023Y120573276D02*
X80069404Y120478038D01*
X80069404Y120478038D02*
X79974166Y120382800D01*
X79974166Y120382800D02*
X79831309Y120335180D01*
X79831309Y120335180D02*
X79593214Y120335180D01*
X81117023Y120335180D02*
X80545595Y120335180D01*
X80831309Y120335180D02*
X80831309Y121335180D01*
X80831309Y121335180D02*
X80736071Y121192323D01*
X80736071Y121192323D02*
X80640833Y121097085D01*
X80640833Y121097085D02*
X80545595Y121049466D01*
X81736071Y121335180D02*
X81831309Y121335180D01*
X81831309Y121335180D02*
X81926547Y121287561D01*
X81926547Y121287561D02*
X81974166Y121239942D01*
X81974166Y121239942D02*
X82021785Y121144704D01*
X82021785Y121144704D02*
X82069404Y120954228D01*
X82069404Y120954228D02*
X82069404Y120716133D01*
X82069404Y120716133D02*
X82021785Y120525657D01*
X82021785Y120525657D02*
X81974166Y120430419D01*
X81974166Y120430419D02*
X81926547Y120382800D01*
X81926547Y120382800D02*
X81831309Y120335180D01*
X81831309Y120335180D02*
X81736071Y120335180D01*
X81736071Y120335180D02*
X81640833Y120382800D01*
X81640833Y120382800D02*
X81593214Y120430419D01*
X81593214Y120430419D02*
X81545595Y120525657D01*
X81545595Y120525657D02*
X81497976Y120716133D01*
X81497976Y120716133D02*
X81497976Y120954228D01*
X81497976Y120954228D02*
X81545595Y121144704D01*
X81545595Y121144704D02*
X81593214Y121239942D01*
X81593214Y121239942D02*
X81640833Y121287561D01*
X81640833Y121287561D02*
X81736071Y121335180D01*
X84355595Y120655180D02*
X84355595Y121655180D01*
X84927023Y120655180D02*
X84498452Y121226609D01*
X84927023Y121655180D02*
X84355595Y121083752D01*
X43180655Y146035180D02*
X43180655Y147035180D01*
X43180655Y147035180D02*
X43418750Y147035180D01*
X43418750Y147035180D02*
X43561607Y146987561D01*
X43561607Y146987561D02*
X43656845Y146892323D01*
X43656845Y146892323D02*
X43704464Y146797085D01*
X43704464Y146797085D02*
X43752083Y146606609D01*
X43752083Y146606609D02*
X43752083Y146463752D01*
X43752083Y146463752D02*
X43704464Y146273276D01*
X43704464Y146273276D02*
X43656845Y146178038D01*
X43656845Y146178038D02*
X43561607Y146082800D01*
X43561607Y146082800D02*
X43418750Y146035180D01*
X43418750Y146035180D02*
X43180655Y146035180D01*
X44133036Y146939942D02*
X44180655Y146987561D01*
X44180655Y146987561D02*
X44275893Y147035180D01*
X44275893Y147035180D02*
X44513988Y147035180D01*
X44513988Y147035180D02*
X44609226Y146987561D01*
X44609226Y146987561D02*
X44656845Y146939942D01*
X44656845Y146939942D02*
X44704464Y146844704D01*
X44704464Y146844704D02*
X44704464Y146749466D01*
X44704464Y146749466D02*
X44656845Y146606609D01*
X44656845Y146606609D02*
X44085417Y146035180D01*
X44085417Y146035180D02*
X44704464Y146035180D01*
X47466845Y146355180D02*
X47466845Y147355180D01*
X48038273Y146355180D02*
X47609702Y146926609D01*
X48038273Y147355180D02*
X47466845Y146783752D01*
X55476905Y146035180D02*
X55476905Y147035180D01*
X55476905Y147035180D02*
X55715000Y147035180D01*
X55715000Y147035180D02*
X55857857Y146987561D01*
X55857857Y146987561D02*
X55953095Y146892323D01*
X55953095Y146892323D02*
X56000714Y146797085D01*
X56000714Y146797085D02*
X56048333Y146606609D01*
X56048333Y146606609D02*
X56048333Y146463752D01*
X56048333Y146463752D02*
X56000714Y146273276D01*
X56000714Y146273276D02*
X55953095Y146178038D01*
X55953095Y146178038D02*
X55857857Y146082800D01*
X55857857Y146082800D02*
X55715000Y146035180D01*
X55715000Y146035180D02*
X55476905Y146035180D01*
X56905476Y146701847D02*
X56905476Y146035180D01*
X56667381Y147082800D02*
X56429286Y146368514D01*
X56429286Y146368514D02*
X57048333Y146368514D01*
X59763095Y146355180D02*
X59763095Y147355180D01*
X60334523Y146355180D02*
X59905952Y146926609D01*
X60334523Y147355180D02*
X59763095Y146783752D01*
X55476905Y120335180D02*
X55476905Y121335180D01*
X55476905Y121335180D02*
X55715000Y121335180D01*
X55715000Y121335180D02*
X55857857Y121287561D01*
X55857857Y121287561D02*
X55953095Y121192323D01*
X55953095Y121192323D02*
X56000714Y121097085D01*
X56000714Y121097085D02*
X56048333Y120906609D01*
X56048333Y120906609D02*
X56048333Y120763752D01*
X56048333Y120763752D02*
X56000714Y120573276D01*
X56000714Y120573276D02*
X55953095Y120478038D01*
X55953095Y120478038D02*
X55857857Y120382800D01*
X55857857Y120382800D02*
X55715000Y120335180D01*
X55715000Y120335180D02*
X55476905Y120335180D01*
X56953095Y121335180D02*
X56476905Y121335180D01*
X56476905Y121335180D02*
X56429286Y120858990D01*
X56429286Y120858990D02*
X56476905Y120906609D01*
X56476905Y120906609D02*
X56572143Y120954228D01*
X56572143Y120954228D02*
X56810238Y120954228D01*
X56810238Y120954228D02*
X56905476Y120906609D01*
X56905476Y120906609D02*
X56953095Y120858990D01*
X56953095Y120858990D02*
X57000714Y120763752D01*
X57000714Y120763752D02*
X57000714Y120525657D01*
X57000714Y120525657D02*
X56953095Y120430419D01*
X56953095Y120430419D02*
X56905476Y120382800D01*
X56905476Y120382800D02*
X56810238Y120335180D01*
X56810238Y120335180D02*
X56572143Y120335180D01*
X56572143Y120335180D02*
X56476905Y120382800D01*
X56476905Y120382800D02*
X56429286Y120430419D01*
X59763095Y120655180D02*
X59763095Y121655180D01*
X60334523Y120655180D02*
X59905952Y121226609D01*
X60334523Y121655180D02*
X59763095Y121083752D01*
X140538274Y68165180D02*
X140538274Y69165180D01*
X140538274Y69165180D02*
X140776369Y69165180D01*
X140776369Y69165180D02*
X140919226Y69117561D01*
X140919226Y69117561D02*
X141014464Y69022323D01*
X141014464Y69022323D02*
X141062083Y68927085D01*
X141062083Y68927085D02*
X141109702Y68736609D01*
X141109702Y68736609D02*
X141109702Y68593752D01*
X141109702Y68593752D02*
X141062083Y68403276D01*
X141062083Y68403276D02*
X141014464Y68308038D01*
X141014464Y68308038D02*
X140919226Y68212800D01*
X140919226Y68212800D02*
X140776369Y68165180D01*
X140776369Y68165180D02*
X140538274Y68165180D01*
X142062083Y68165180D02*
X141490655Y68165180D01*
X141776369Y68165180D02*
X141776369Y69165180D01*
X141776369Y69165180D02*
X141681131Y69022323D01*
X141681131Y69022323D02*
X141585893Y68927085D01*
X141585893Y68927085D02*
X141490655Y68879466D01*
X142681131Y69165180D02*
X142776369Y69165180D01*
X142776369Y69165180D02*
X142871607Y69117561D01*
X142871607Y69117561D02*
X142919226Y69069942D01*
X142919226Y69069942D02*
X142966845Y68974704D01*
X142966845Y68974704D02*
X143014464Y68784228D01*
X143014464Y68784228D02*
X143014464Y68546133D01*
X143014464Y68546133D02*
X142966845Y68355657D01*
X142966845Y68355657D02*
X142919226Y68260419D01*
X142919226Y68260419D02*
X142871607Y68212800D01*
X142871607Y68212800D02*
X142776369Y68165180D01*
X142776369Y68165180D02*
X142681131Y68165180D01*
X142681131Y68165180D02*
X142585893Y68212800D01*
X142585893Y68212800D02*
X142538274Y68260419D01*
X142538274Y68260419D02*
X142490655Y68355657D01*
X142490655Y68355657D02*
X142443036Y68546133D01*
X142443036Y68546133D02*
X142443036Y68784228D01*
X142443036Y68784228D02*
X142490655Y68974704D01*
X142490655Y68974704D02*
X142538274Y69069942D01*
X142538274Y69069942D02*
X142585893Y69117561D01*
X142585893Y69117561D02*
X142681131Y69165180D01*
X143966845Y68165180D02*
X143395417Y68165180D01*
X143681131Y68165180D02*
X143681131Y69165180D01*
X143681131Y69165180D02*
X143585893Y69022323D01*
X143585893Y69022323D02*
X143490655Y68927085D01*
X143490655Y68927085D02*
X143395417Y68879466D01*
X145776845Y68485180D02*
X145776845Y69485180D01*
X146348273Y68485180D02*
X145919702Y69056609D01*
X146348273Y69485180D02*
X145776845Y68913752D01*
X140538274Y93465180D02*
X140538274Y94465180D01*
X140538274Y94465180D02*
X140776369Y94465180D01*
X140776369Y94465180D02*
X140919226Y94417561D01*
X140919226Y94417561D02*
X141014464Y94322323D01*
X141014464Y94322323D02*
X141062083Y94227085D01*
X141062083Y94227085D02*
X141109702Y94036609D01*
X141109702Y94036609D02*
X141109702Y93893752D01*
X141109702Y93893752D02*
X141062083Y93703276D01*
X141062083Y93703276D02*
X141014464Y93608038D01*
X141014464Y93608038D02*
X140919226Y93512800D01*
X140919226Y93512800D02*
X140776369Y93465180D01*
X140776369Y93465180D02*
X140538274Y93465180D01*
X142062083Y93465180D02*
X141490655Y93465180D01*
X141776369Y93465180D02*
X141776369Y94465180D01*
X141776369Y94465180D02*
X141681131Y94322323D01*
X141681131Y94322323D02*
X141585893Y94227085D01*
X141585893Y94227085D02*
X141490655Y94179466D01*
X142681131Y94465180D02*
X142776369Y94465180D01*
X142776369Y94465180D02*
X142871607Y94417561D01*
X142871607Y94417561D02*
X142919226Y94369942D01*
X142919226Y94369942D02*
X142966845Y94274704D01*
X142966845Y94274704D02*
X143014464Y94084228D01*
X143014464Y94084228D02*
X143014464Y93846133D01*
X143014464Y93846133D02*
X142966845Y93655657D01*
X142966845Y93655657D02*
X142919226Y93560419D01*
X142919226Y93560419D02*
X142871607Y93512800D01*
X142871607Y93512800D02*
X142776369Y93465180D01*
X142776369Y93465180D02*
X142681131Y93465180D01*
X142681131Y93465180D02*
X142585893Y93512800D01*
X142585893Y93512800D02*
X142538274Y93560419D01*
X142538274Y93560419D02*
X142490655Y93655657D01*
X142490655Y93655657D02*
X142443036Y93846133D01*
X142443036Y93846133D02*
X142443036Y94084228D01*
X142443036Y94084228D02*
X142490655Y94274704D01*
X142490655Y94274704D02*
X142538274Y94369942D01*
X142538274Y94369942D02*
X142585893Y94417561D01*
X142585893Y94417561D02*
X142681131Y94465180D01*
X143633512Y94465180D02*
X143728750Y94465180D01*
X143728750Y94465180D02*
X143823988Y94417561D01*
X143823988Y94417561D02*
X143871607Y94369942D01*
X143871607Y94369942D02*
X143919226Y94274704D01*
X143919226Y94274704D02*
X143966845Y94084228D01*
X143966845Y94084228D02*
X143966845Y93846133D01*
X143966845Y93846133D02*
X143919226Y93655657D01*
X143919226Y93655657D02*
X143871607Y93560419D01*
X143871607Y93560419D02*
X143823988Y93512800D01*
X143823988Y93512800D02*
X143728750Y93465180D01*
X143728750Y93465180D02*
X143633512Y93465180D01*
X143633512Y93465180D02*
X143538274Y93512800D01*
X143538274Y93512800D02*
X143490655Y93560419D01*
X143490655Y93560419D02*
X143443036Y93655657D01*
X143443036Y93655657D02*
X143395417Y93846133D01*
X143395417Y93846133D02*
X143395417Y94084228D01*
X143395417Y94084228D02*
X143443036Y94274704D01*
X143443036Y94274704D02*
X143490655Y94369942D01*
X143490655Y94369942D02*
X143538274Y94417561D01*
X143538274Y94417561D02*
X143633512Y94465180D01*
X145776845Y93785180D02*
X145776845Y94785180D01*
X146348273Y93785180D02*
X145919702Y94356609D01*
X146348273Y94785180D02*
X145776845Y94213752D01*
X128778214Y93465180D02*
X128778214Y94465180D01*
X128778214Y94465180D02*
X129016309Y94465180D01*
X129016309Y94465180D02*
X129159166Y94417561D01*
X129159166Y94417561D02*
X129254404Y94322323D01*
X129254404Y94322323D02*
X129302023Y94227085D01*
X129302023Y94227085D02*
X129349642Y94036609D01*
X129349642Y94036609D02*
X129349642Y93893752D01*
X129349642Y93893752D02*
X129302023Y93703276D01*
X129302023Y93703276D02*
X129254404Y93608038D01*
X129254404Y93608038D02*
X129159166Y93512800D01*
X129159166Y93512800D02*
X129016309Y93465180D01*
X129016309Y93465180D02*
X128778214Y93465180D01*
X129825833Y93465180D02*
X130016309Y93465180D01*
X130016309Y93465180D02*
X130111547Y93512800D01*
X130111547Y93512800D02*
X130159166Y93560419D01*
X130159166Y93560419D02*
X130254404Y93703276D01*
X130254404Y93703276D02*
X130302023Y93893752D01*
X130302023Y93893752D02*
X130302023Y94274704D01*
X130302023Y94274704D02*
X130254404Y94369942D01*
X130254404Y94369942D02*
X130206785Y94417561D01*
X130206785Y94417561D02*
X130111547Y94465180D01*
X130111547Y94465180D02*
X129921071Y94465180D01*
X129921071Y94465180D02*
X129825833Y94417561D01*
X129825833Y94417561D02*
X129778214Y94369942D01*
X129778214Y94369942D02*
X129730595Y94274704D01*
X129730595Y94274704D02*
X129730595Y94036609D01*
X129730595Y94036609D02*
X129778214Y93941371D01*
X129778214Y93941371D02*
X129825833Y93893752D01*
X129825833Y93893752D02*
X129921071Y93846133D01*
X129921071Y93846133D02*
X130111547Y93846133D01*
X130111547Y93846133D02*
X130206785Y93893752D01*
X130206785Y93893752D02*
X130254404Y93941371D01*
X130254404Y93941371D02*
X130302023Y94036609D01*
X131159166Y94131847D02*
X131159166Y93465180D01*
X130921071Y94512800D02*
X130682976Y93798514D01*
X130682976Y93798514D02*
X131302023Y93798514D01*
X133540595Y93785180D02*
X133540595Y94785180D01*
X134112023Y93785180D02*
X133683452Y94356609D01*
X134112023Y94785180D02*
X133540595Y94213752D01*
X128778214Y68165180D02*
X128778214Y69165180D01*
X128778214Y69165180D02*
X129016309Y69165180D01*
X129016309Y69165180D02*
X129159166Y69117561D01*
X129159166Y69117561D02*
X129254404Y69022323D01*
X129254404Y69022323D02*
X129302023Y68927085D01*
X129302023Y68927085D02*
X129349642Y68736609D01*
X129349642Y68736609D02*
X129349642Y68593752D01*
X129349642Y68593752D02*
X129302023Y68403276D01*
X129302023Y68403276D02*
X129254404Y68308038D01*
X129254404Y68308038D02*
X129159166Y68212800D01*
X129159166Y68212800D02*
X129016309Y68165180D01*
X129016309Y68165180D02*
X128778214Y68165180D01*
X129825833Y68165180D02*
X130016309Y68165180D01*
X130016309Y68165180D02*
X130111547Y68212800D01*
X130111547Y68212800D02*
X130159166Y68260419D01*
X130159166Y68260419D02*
X130254404Y68403276D01*
X130254404Y68403276D02*
X130302023Y68593752D01*
X130302023Y68593752D02*
X130302023Y68974704D01*
X130302023Y68974704D02*
X130254404Y69069942D01*
X130254404Y69069942D02*
X130206785Y69117561D01*
X130206785Y69117561D02*
X130111547Y69165180D01*
X130111547Y69165180D02*
X129921071Y69165180D01*
X129921071Y69165180D02*
X129825833Y69117561D01*
X129825833Y69117561D02*
X129778214Y69069942D01*
X129778214Y69069942D02*
X129730595Y68974704D01*
X129730595Y68974704D02*
X129730595Y68736609D01*
X129730595Y68736609D02*
X129778214Y68641371D01*
X129778214Y68641371D02*
X129825833Y68593752D01*
X129825833Y68593752D02*
X129921071Y68546133D01*
X129921071Y68546133D02*
X130111547Y68546133D01*
X130111547Y68546133D02*
X130206785Y68593752D01*
X130206785Y68593752D02*
X130254404Y68641371D01*
X130254404Y68641371D02*
X130302023Y68736609D01*
X130635357Y69165180D02*
X131254404Y69165180D01*
X131254404Y69165180D02*
X130921071Y68784228D01*
X130921071Y68784228D02*
X131063928Y68784228D01*
X131063928Y68784228D02*
X131159166Y68736609D01*
X131159166Y68736609D02*
X131206785Y68688990D01*
X131206785Y68688990D02*
X131254404Y68593752D01*
X131254404Y68593752D02*
X131254404Y68355657D01*
X131254404Y68355657D02*
X131206785Y68260419D01*
X131206785Y68260419D02*
X131159166Y68212800D01*
X131159166Y68212800D02*
X131063928Y68165180D01*
X131063928Y68165180D02*
X130778214Y68165180D01*
X130778214Y68165180D02*
X130682976Y68212800D01*
X130682976Y68212800D02*
X130635357Y68260419D01*
X133540595Y68485180D02*
X133540595Y69485180D01*
X134112023Y68485180D02*
X133683452Y69056609D01*
X134112023Y69485180D02*
X133540595Y68913752D01*
X116481964Y68165180D02*
X116481964Y69165180D01*
X116481964Y69165180D02*
X116720059Y69165180D01*
X116720059Y69165180D02*
X116862916Y69117561D01*
X116862916Y69117561D02*
X116958154Y69022323D01*
X116958154Y69022323D02*
X117005773Y68927085D01*
X117005773Y68927085D02*
X117053392Y68736609D01*
X117053392Y68736609D02*
X117053392Y68593752D01*
X117053392Y68593752D02*
X117005773Y68403276D01*
X117005773Y68403276D02*
X116958154Y68308038D01*
X116958154Y68308038D02*
X116862916Y68212800D01*
X116862916Y68212800D02*
X116720059Y68165180D01*
X116720059Y68165180D02*
X116481964Y68165180D01*
X117529583Y68165180D02*
X117720059Y68165180D01*
X117720059Y68165180D02*
X117815297Y68212800D01*
X117815297Y68212800D02*
X117862916Y68260419D01*
X117862916Y68260419D02*
X117958154Y68403276D01*
X117958154Y68403276D02*
X118005773Y68593752D01*
X118005773Y68593752D02*
X118005773Y68974704D01*
X118005773Y68974704D02*
X117958154Y69069942D01*
X117958154Y69069942D02*
X117910535Y69117561D01*
X117910535Y69117561D02*
X117815297Y69165180D01*
X117815297Y69165180D02*
X117624821Y69165180D01*
X117624821Y69165180D02*
X117529583Y69117561D01*
X117529583Y69117561D02*
X117481964Y69069942D01*
X117481964Y69069942D02*
X117434345Y68974704D01*
X117434345Y68974704D02*
X117434345Y68736609D01*
X117434345Y68736609D02*
X117481964Y68641371D01*
X117481964Y68641371D02*
X117529583Y68593752D01*
X117529583Y68593752D02*
X117624821Y68546133D01*
X117624821Y68546133D02*
X117815297Y68546133D01*
X117815297Y68546133D02*
X117910535Y68593752D01*
X117910535Y68593752D02*
X117958154Y68641371D01*
X117958154Y68641371D02*
X118005773Y68736609D01*
X118958154Y68165180D02*
X118386726Y68165180D01*
X118672440Y68165180D02*
X118672440Y69165180D01*
X118672440Y69165180D02*
X118577202Y69022323D01*
X118577202Y69022323D02*
X118481964Y68927085D01*
X118481964Y68927085D02*
X118386726Y68879466D01*
X121244345Y68485180D02*
X121244345Y69485180D01*
X121815773Y68485180D02*
X121387202Y69056609D01*
X121815773Y69485180D02*
X121244345Y68913752D01*
X116481964Y93465180D02*
X116481964Y94465180D01*
X116481964Y94465180D02*
X116720059Y94465180D01*
X116720059Y94465180D02*
X116862916Y94417561D01*
X116862916Y94417561D02*
X116958154Y94322323D01*
X116958154Y94322323D02*
X117005773Y94227085D01*
X117005773Y94227085D02*
X117053392Y94036609D01*
X117053392Y94036609D02*
X117053392Y93893752D01*
X117053392Y93893752D02*
X117005773Y93703276D01*
X117005773Y93703276D02*
X116958154Y93608038D01*
X116958154Y93608038D02*
X116862916Y93512800D01*
X116862916Y93512800D02*
X116720059Y93465180D01*
X116720059Y93465180D02*
X116481964Y93465180D01*
X117529583Y93465180D02*
X117720059Y93465180D01*
X117720059Y93465180D02*
X117815297Y93512800D01*
X117815297Y93512800D02*
X117862916Y93560419D01*
X117862916Y93560419D02*
X117958154Y93703276D01*
X117958154Y93703276D02*
X118005773Y93893752D01*
X118005773Y93893752D02*
X118005773Y94274704D01*
X118005773Y94274704D02*
X117958154Y94369942D01*
X117958154Y94369942D02*
X117910535Y94417561D01*
X117910535Y94417561D02*
X117815297Y94465180D01*
X117815297Y94465180D02*
X117624821Y94465180D01*
X117624821Y94465180D02*
X117529583Y94417561D01*
X117529583Y94417561D02*
X117481964Y94369942D01*
X117481964Y94369942D02*
X117434345Y94274704D01*
X117434345Y94274704D02*
X117434345Y94036609D01*
X117434345Y94036609D02*
X117481964Y93941371D01*
X117481964Y93941371D02*
X117529583Y93893752D01*
X117529583Y93893752D02*
X117624821Y93846133D01*
X117624821Y93846133D02*
X117815297Y93846133D01*
X117815297Y93846133D02*
X117910535Y93893752D01*
X117910535Y93893752D02*
X117958154Y93941371D01*
X117958154Y93941371D02*
X118005773Y94036609D01*
X118624821Y94465180D02*
X118720059Y94465180D01*
X118720059Y94465180D02*
X118815297Y94417561D01*
X118815297Y94417561D02*
X118862916Y94369942D01*
X118862916Y94369942D02*
X118910535Y94274704D01*
X118910535Y94274704D02*
X118958154Y94084228D01*
X118958154Y94084228D02*
X118958154Y93846133D01*
X118958154Y93846133D02*
X118910535Y93655657D01*
X118910535Y93655657D02*
X118862916Y93560419D01*
X118862916Y93560419D02*
X118815297Y93512800D01*
X118815297Y93512800D02*
X118720059Y93465180D01*
X118720059Y93465180D02*
X118624821Y93465180D01*
X118624821Y93465180D02*
X118529583Y93512800D01*
X118529583Y93512800D02*
X118481964Y93560419D01*
X118481964Y93560419D02*
X118434345Y93655657D01*
X118434345Y93655657D02*
X118386726Y93846133D01*
X118386726Y93846133D02*
X118386726Y94084228D01*
X118386726Y94084228D02*
X118434345Y94274704D01*
X118434345Y94274704D02*
X118481964Y94369942D01*
X118481964Y94369942D02*
X118529583Y94417561D01*
X118529583Y94417561D02*
X118624821Y94465180D01*
X121244345Y93785180D02*
X121244345Y94785180D01*
X121815773Y93785180D02*
X121387202Y94356609D01*
X121815773Y94785180D02*
X121244345Y94213752D01*
X104185714Y93465180D02*
X104185714Y94465180D01*
X104185714Y94465180D02*
X104423809Y94465180D01*
X104423809Y94465180D02*
X104566666Y94417561D01*
X104566666Y94417561D02*
X104661904Y94322323D01*
X104661904Y94322323D02*
X104709523Y94227085D01*
X104709523Y94227085D02*
X104757142Y94036609D01*
X104757142Y94036609D02*
X104757142Y93893752D01*
X104757142Y93893752D02*
X104709523Y93703276D01*
X104709523Y93703276D02*
X104661904Y93608038D01*
X104661904Y93608038D02*
X104566666Y93512800D01*
X104566666Y93512800D02*
X104423809Y93465180D01*
X104423809Y93465180D02*
X104185714Y93465180D01*
X105328571Y94036609D02*
X105233333Y94084228D01*
X105233333Y94084228D02*
X105185714Y94131847D01*
X105185714Y94131847D02*
X105138095Y94227085D01*
X105138095Y94227085D02*
X105138095Y94274704D01*
X105138095Y94274704D02*
X105185714Y94369942D01*
X105185714Y94369942D02*
X105233333Y94417561D01*
X105233333Y94417561D02*
X105328571Y94465180D01*
X105328571Y94465180D02*
X105519047Y94465180D01*
X105519047Y94465180D02*
X105614285Y94417561D01*
X105614285Y94417561D02*
X105661904Y94369942D01*
X105661904Y94369942D02*
X105709523Y94274704D01*
X105709523Y94274704D02*
X105709523Y94227085D01*
X105709523Y94227085D02*
X105661904Y94131847D01*
X105661904Y94131847D02*
X105614285Y94084228D01*
X105614285Y94084228D02*
X105519047Y94036609D01*
X105519047Y94036609D02*
X105328571Y94036609D01*
X105328571Y94036609D02*
X105233333Y93988990D01*
X105233333Y93988990D02*
X105185714Y93941371D01*
X105185714Y93941371D02*
X105138095Y93846133D01*
X105138095Y93846133D02*
X105138095Y93655657D01*
X105138095Y93655657D02*
X105185714Y93560419D01*
X105185714Y93560419D02*
X105233333Y93512800D01*
X105233333Y93512800D02*
X105328571Y93465180D01*
X105328571Y93465180D02*
X105519047Y93465180D01*
X105519047Y93465180D02*
X105614285Y93512800D01*
X105614285Y93512800D02*
X105661904Y93560419D01*
X105661904Y93560419D02*
X105709523Y93655657D01*
X105709523Y93655657D02*
X105709523Y93846133D01*
X105709523Y93846133D02*
X105661904Y93941371D01*
X105661904Y93941371D02*
X105614285Y93988990D01*
X105614285Y93988990D02*
X105519047Y94036609D01*
X106566666Y94131847D02*
X106566666Y93465180D01*
X106328571Y94512800D02*
X106090476Y93798514D01*
X106090476Y93798514D02*
X106709523Y93798514D01*
X108948095Y93785180D02*
X108948095Y94785180D01*
X109519523Y93785180D02*
X109090952Y94356609D01*
X109519523Y94785180D02*
X108948095Y94213752D01*
X141034464Y38115180D02*
X141034464Y39115180D01*
X141034464Y39115180D02*
X141272559Y39115180D01*
X141272559Y39115180D02*
X141415416Y39067561D01*
X141415416Y39067561D02*
X141510654Y38972323D01*
X141510654Y38972323D02*
X141558273Y38877085D01*
X141558273Y38877085D02*
X141605892Y38686609D01*
X141605892Y38686609D02*
X141605892Y38543752D01*
X141605892Y38543752D02*
X141558273Y38353276D01*
X141558273Y38353276D02*
X141510654Y38258038D01*
X141510654Y38258038D02*
X141415416Y38162800D01*
X141415416Y38162800D02*
X141272559Y38115180D01*
X141272559Y38115180D02*
X141034464Y38115180D01*
X142177321Y38686609D02*
X142082083Y38734228D01*
X142082083Y38734228D02*
X142034464Y38781847D01*
X142034464Y38781847D02*
X141986845Y38877085D01*
X141986845Y38877085D02*
X141986845Y38924704D01*
X141986845Y38924704D02*
X142034464Y39019942D01*
X142034464Y39019942D02*
X142082083Y39067561D01*
X142082083Y39067561D02*
X142177321Y39115180D01*
X142177321Y39115180D02*
X142367797Y39115180D01*
X142367797Y39115180D02*
X142463035Y39067561D01*
X142463035Y39067561D02*
X142510654Y39019942D01*
X142510654Y39019942D02*
X142558273Y38924704D01*
X142558273Y38924704D02*
X142558273Y38877085D01*
X142558273Y38877085D02*
X142510654Y38781847D01*
X142510654Y38781847D02*
X142463035Y38734228D01*
X142463035Y38734228D02*
X142367797Y38686609D01*
X142367797Y38686609D02*
X142177321Y38686609D01*
X142177321Y38686609D02*
X142082083Y38638990D01*
X142082083Y38638990D02*
X142034464Y38591371D01*
X142034464Y38591371D02*
X141986845Y38496133D01*
X141986845Y38496133D02*
X141986845Y38305657D01*
X141986845Y38305657D02*
X142034464Y38210419D01*
X142034464Y38210419D02*
X142082083Y38162800D01*
X142082083Y38162800D02*
X142177321Y38115180D01*
X142177321Y38115180D02*
X142367797Y38115180D01*
X142367797Y38115180D02*
X142463035Y38162800D01*
X142463035Y38162800D02*
X142510654Y38210419D01*
X142510654Y38210419D02*
X142558273Y38305657D01*
X142558273Y38305657D02*
X142558273Y38496133D01*
X142558273Y38496133D02*
X142510654Y38591371D01*
X142510654Y38591371D02*
X142463035Y38638990D01*
X142463035Y38638990D02*
X142367797Y38686609D01*
X143510654Y38115180D02*
X142939226Y38115180D01*
X143224940Y38115180D02*
X143224940Y39115180D01*
X143224940Y39115180D02*
X143129702Y38972323D01*
X143129702Y38972323D02*
X143034464Y38877085D01*
X143034464Y38877085D02*
X142939226Y38829466D01*
X145796845Y38435180D02*
X145796845Y39435180D01*
X146368273Y38435180D02*
X145939702Y39006609D01*
X146368273Y39435180D02*
X145796845Y38863752D01*
X91889464Y68165180D02*
X91889464Y69165180D01*
X91889464Y69165180D02*
X92127559Y69165180D01*
X92127559Y69165180D02*
X92270416Y69117561D01*
X92270416Y69117561D02*
X92365654Y69022323D01*
X92365654Y69022323D02*
X92413273Y68927085D01*
X92413273Y68927085D02*
X92460892Y68736609D01*
X92460892Y68736609D02*
X92460892Y68593752D01*
X92460892Y68593752D02*
X92413273Y68403276D01*
X92413273Y68403276D02*
X92365654Y68308038D01*
X92365654Y68308038D02*
X92270416Y68212800D01*
X92270416Y68212800D02*
X92127559Y68165180D01*
X92127559Y68165180D02*
X91889464Y68165180D01*
X92794226Y69165180D02*
X93460892Y69165180D01*
X93460892Y69165180D02*
X93032321Y68165180D01*
X93746607Y69165180D02*
X94413273Y69165180D01*
X94413273Y69165180D02*
X93984702Y68165180D01*
X96651845Y68485180D02*
X96651845Y69485180D01*
X97223273Y68485180D02*
X96794702Y69056609D01*
X97223273Y69485180D02*
X96651845Y68913752D01*
X89864464Y93465180D02*
X89864464Y94465180D01*
X89864464Y94465180D02*
X90102559Y94465180D01*
X90102559Y94465180D02*
X90245416Y94417561D01*
X90245416Y94417561D02*
X90340654Y94322323D01*
X90340654Y94322323D02*
X90388273Y94227085D01*
X90388273Y94227085D02*
X90435892Y94036609D01*
X90435892Y94036609D02*
X90435892Y93893752D01*
X90435892Y93893752D02*
X90388273Y93703276D01*
X90388273Y93703276D02*
X90340654Y93608038D01*
X90340654Y93608038D02*
X90245416Y93512800D01*
X90245416Y93512800D02*
X90102559Y93465180D01*
X90102559Y93465180D02*
X89864464Y93465180D01*
X90769226Y94465180D02*
X91435892Y94465180D01*
X91435892Y94465180D02*
X91007321Y93465180D01*
X91959702Y94036609D02*
X91864464Y94084228D01*
X91864464Y94084228D02*
X91816845Y94131847D01*
X91816845Y94131847D02*
X91769226Y94227085D01*
X91769226Y94227085D02*
X91769226Y94274704D01*
X91769226Y94274704D02*
X91816845Y94369942D01*
X91816845Y94369942D02*
X91864464Y94417561D01*
X91864464Y94417561D02*
X91959702Y94465180D01*
X91959702Y94465180D02*
X92150178Y94465180D01*
X92150178Y94465180D02*
X92245416Y94417561D01*
X92245416Y94417561D02*
X92293035Y94369942D01*
X92293035Y94369942D02*
X92340654Y94274704D01*
X92340654Y94274704D02*
X92340654Y94227085D01*
X92340654Y94227085D02*
X92293035Y94131847D01*
X92293035Y94131847D02*
X92245416Y94084228D01*
X92245416Y94084228D02*
X92150178Y94036609D01*
X92150178Y94036609D02*
X91959702Y94036609D01*
X91959702Y94036609D02*
X91864464Y93988990D01*
X91864464Y93988990D02*
X91816845Y93941371D01*
X91816845Y93941371D02*
X91769226Y93846133D01*
X91769226Y93846133D02*
X91769226Y93655657D01*
X91769226Y93655657D02*
X91816845Y93560419D01*
X91816845Y93560419D02*
X91864464Y93512800D01*
X91864464Y93512800D02*
X91959702Y93465180D01*
X91959702Y93465180D02*
X92150178Y93465180D01*
X92150178Y93465180D02*
X92245416Y93512800D01*
X92245416Y93512800D02*
X92293035Y93560419D01*
X92293035Y93560419D02*
X92340654Y93655657D01*
X92340654Y93655657D02*
X92340654Y93846133D01*
X92340654Y93846133D02*
X92293035Y93941371D01*
X92293035Y93941371D02*
X92245416Y93988990D01*
X92245416Y93988990D02*
X92150178Y94036609D01*
X94626845Y93785180D02*
X94626845Y94785180D01*
X95198273Y93785180D02*
X94769702Y94356609D01*
X95198273Y94785180D02*
X94626845Y94213752D01*
X160563569Y128175714D02*
X159563569Y128175714D01*
X159563569Y128175714D02*
X159563569Y128413809D01*
X159563569Y128413809D02*
X159611188Y128556666D01*
X159611188Y128556666D02*
X159706426Y128651904D01*
X159706426Y128651904D02*
X159801664Y128699523D01*
X159801664Y128699523D02*
X159992140Y128747142D01*
X159992140Y128747142D02*
X160134997Y128747142D01*
X160134997Y128747142D02*
X160325473Y128699523D01*
X160325473Y128699523D02*
X160420711Y128651904D01*
X160420711Y128651904D02*
X160515950Y128556666D01*
X160515950Y128556666D02*
X160563569Y128413809D01*
X160563569Y128413809D02*
X160563569Y128175714D01*
X159992140Y129318571D02*
X159944521Y129223333D01*
X159944521Y129223333D02*
X159896902Y129175714D01*
X159896902Y129175714D02*
X159801664Y129128095D01*
X159801664Y129128095D02*
X159754045Y129128095D01*
X159754045Y129128095D02*
X159658807Y129175714D01*
X159658807Y129175714D02*
X159611188Y129223333D01*
X159611188Y129223333D02*
X159563569Y129318571D01*
X159563569Y129318571D02*
X159563569Y129509047D01*
X159563569Y129509047D02*
X159611188Y129604285D01*
X159611188Y129604285D02*
X159658807Y129651904D01*
X159658807Y129651904D02*
X159754045Y129699523D01*
X159754045Y129699523D02*
X159801664Y129699523D01*
X159801664Y129699523D02*
X159896902Y129651904D01*
X159896902Y129651904D02*
X159944521Y129604285D01*
X159944521Y129604285D02*
X159992140Y129509047D01*
X159992140Y129509047D02*
X159992140Y129318571D01*
X159992140Y129318571D02*
X160039759Y129223333D01*
X160039759Y129223333D02*
X160087378Y129175714D01*
X160087378Y129175714D02*
X160182616Y129128095D01*
X160182616Y129128095D02*
X160373092Y129128095D01*
X160373092Y129128095D02*
X160468330Y129175714D01*
X160468330Y129175714D02*
X160515950Y129223333D01*
X160515950Y129223333D02*
X160563569Y129318571D01*
X160563569Y129318571D02*
X160563569Y129509047D01*
X160563569Y129509047D02*
X160515950Y129604285D01*
X160515950Y129604285D02*
X160468330Y129651904D01*
X160468330Y129651904D02*
X160373092Y129699523D01*
X160373092Y129699523D02*
X160182616Y129699523D01*
X160182616Y129699523D02*
X160087378Y129651904D01*
X160087378Y129651904D02*
X160039759Y129604285D01*
X160039759Y129604285D02*
X159992140Y129509047D01*
X159563569Y130318571D02*
X159563569Y130413809D01*
X159563569Y130413809D02*
X159611188Y130509047D01*
X159611188Y130509047D02*
X159658807Y130556666D01*
X159658807Y130556666D02*
X159754045Y130604285D01*
X159754045Y130604285D02*
X159944521Y130651904D01*
X159944521Y130651904D02*
X160182616Y130651904D01*
X160182616Y130651904D02*
X160373092Y130604285D01*
X160373092Y130604285D02*
X160468330Y130556666D01*
X160468330Y130556666D02*
X160515950Y130509047D01*
X160515950Y130509047D02*
X160563569Y130413809D01*
X160563569Y130413809D02*
X160563569Y130318571D01*
X160563569Y130318571D02*
X160515950Y130223333D01*
X160515950Y130223333D02*
X160468330Y130175714D01*
X160468330Y130175714D02*
X160373092Y130128095D01*
X160373092Y130128095D02*
X160182616Y130080476D01*
X160182616Y130080476D02*
X159944521Y130080476D01*
X159944521Y130080476D02*
X159754045Y130128095D01*
X159754045Y130128095D02*
X159658807Y130175714D01*
X159658807Y130175714D02*
X159611188Y130223333D01*
X159611188Y130223333D02*
X159563569Y130318571D01*
X160243569Y132938095D02*
X159243569Y132938095D01*
X160243569Y133509523D02*
X159672140Y133080952D01*
X159243569Y133509523D02*
X159814997Y132938095D01*
X104185714Y68165180D02*
X104185714Y69165180D01*
X104185714Y69165180D02*
X104423809Y69165180D01*
X104423809Y69165180D02*
X104566666Y69117561D01*
X104566666Y69117561D02*
X104661904Y69022323D01*
X104661904Y69022323D02*
X104709523Y68927085D01*
X104709523Y68927085D02*
X104757142Y68736609D01*
X104757142Y68736609D02*
X104757142Y68593752D01*
X104757142Y68593752D02*
X104709523Y68403276D01*
X104709523Y68403276D02*
X104661904Y68308038D01*
X104661904Y68308038D02*
X104566666Y68212800D01*
X104566666Y68212800D02*
X104423809Y68165180D01*
X104423809Y68165180D02*
X104185714Y68165180D01*
X105328571Y68736609D02*
X105233333Y68784228D01*
X105233333Y68784228D02*
X105185714Y68831847D01*
X105185714Y68831847D02*
X105138095Y68927085D01*
X105138095Y68927085D02*
X105138095Y68974704D01*
X105138095Y68974704D02*
X105185714Y69069942D01*
X105185714Y69069942D02*
X105233333Y69117561D01*
X105233333Y69117561D02*
X105328571Y69165180D01*
X105328571Y69165180D02*
X105519047Y69165180D01*
X105519047Y69165180D02*
X105614285Y69117561D01*
X105614285Y69117561D02*
X105661904Y69069942D01*
X105661904Y69069942D02*
X105709523Y68974704D01*
X105709523Y68974704D02*
X105709523Y68927085D01*
X105709523Y68927085D02*
X105661904Y68831847D01*
X105661904Y68831847D02*
X105614285Y68784228D01*
X105614285Y68784228D02*
X105519047Y68736609D01*
X105519047Y68736609D02*
X105328571Y68736609D01*
X105328571Y68736609D02*
X105233333Y68688990D01*
X105233333Y68688990D02*
X105185714Y68641371D01*
X105185714Y68641371D02*
X105138095Y68546133D01*
X105138095Y68546133D02*
X105138095Y68355657D01*
X105138095Y68355657D02*
X105185714Y68260419D01*
X105185714Y68260419D02*
X105233333Y68212800D01*
X105233333Y68212800D02*
X105328571Y68165180D01*
X105328571Y68165180D02*
X105519047Y68165180D01*
X105519047Y68165180D02*
X105614285Y68212800D01*
X105614285Y68212800D02*
X105661904Y68260419D01*
X105661904Y68260419D02*
X105709523Y68355657D01*
X105709523Y68355657D02*
X105709523Y68546133D01*
X105709523Y68546133D02*
X105661904Y68641371D01*
X105661904Y68641371D02*
X105614285Y68688990D01*
X105614285Y68688990D02*
X105519047Y68736609D01*
X106042857Y69165180D02*
X106661904Y69165180D01*
X106661904Y69165180D02*
X106328571Y68784228D01*
X106328571Y68784228D02*
X106471428Y68784228D01*
X106471428Y68784228D02*
X106566666Y68736609D01*
X106566666Y68736609D02*
X106614285Y68688990D01*
X106614285Y68688990D02*
X106661904Y68593752D01*
X106661904Y68593752D02*
X106661904Y68355657D01*
X106661904Y68355657D02*
X106614285Y68260419D01*
X106614285Y68260419D02*
X106566666Y68212800D01*
X106566666Y68212800D02*
X106471428Y68165180D01*
X106471428Y68165180D02*
X106185714Y68165180D01*
X106185714Y68165180D02*
X106090476Y68212800D01*
X106090476Y68212800D02*
X106042857Y68260419D01*
X108948095Y68485180D02*
X108948095Y69485180D01*
X109519523Y68485180D02*
X109090952Y69056609D01*
X109519523Y69485180D02*
X108948095Y68913752D01*
X128404464Y38115180D02*
X128404464Y39115180D01*
X128404464Y39115180D02*
X128642559Y39115180D01*
X128642559Y39115180D02*
X128785416Y39067561D01*
X128785416Y39067561D02*
X128880654Y38972323D01*
X128880654Y38972323D02*
X128928273Y38877085D01*
X128928273Y38877085D02*
X128975892Y38686609D01*
X128975892Y38686609D02*
X128975892Y38543752D01*
X128975892Y38543752D02*
X128928273Y38353276D01*
X128928273Y38353276D02*
X128880654Y38258038D01*
X128880654Y38258038D02*
X128785416Y38162800D01*
X128785416Y38162800D02*
X128642559Y38115180D01*
X128642559Y38115180D02*
X128404464Y38115180D01*
X129309226Y39115180D02*
X129975892Y39115180D01*
X129975892Y39115180D02*
X129547321Y38115180D01*
X130880654Y38115180D02*
X130309226Y38115180D01*
X130594940Y38115180D02*
X130594940Y39115180D01*
X130594940Y39115180D02*
X130499702Y38972323D01*
X130499702Y38972323D02*
X130404464Y38877085D01*
X130404464Y38877085D02*
X130309226Y38829466D01*
X133166845Y38435180D02*
X133166845Y39435180D01*
X133738273Y38435180D02*
X133309702Y39006609D01*
X133738273Y39435180D02*
X133166845Y38863752D01*
X79593214Y68165180D02*
X79593214Y69165180D01*
X79593214Y69165180D02*
X79831309Y69165180D01*
X79831309Y69165180D02*
X79974166Y69117561D01*
X79974166Y69117561D02*
X80069404Y69022323D01*
X80069404Y69022323D02*
X80117023Y68927085D01*
X80117023Y68927085D02*
X80164642Y68736609D01*
X80164642Y68736609D02*
X80164642Y68593752D01*
X80164642Y68593752D02*
X80117023Y68403276D01*
X80117023Y68403276D02*
X80069404Y68308038D01*
X80069404Y68308038D02*
X79974166Y68212800D01*
X79974166Y68212800D02*
X79831309Y68165180D01*
X79831309Y68165180D02*
X79593214Y68165180D01*
X81021785Y69165180D02*
X80831309Y69165180D01*
X80831309Y69165180D02*
X80736071Y69117561D01*
X80736071Y69117561D02*
X80688452Y69069942D01*
X80688452Y69069942D02*
X80593214Y68927085D01*
X80593214Y68927085D02*
X80545595Y68736609D01*
X80545595Y68736609D02*
X80545595Y68355657D01*
X80545595Y68355657D02*
X80593214Y68260419D01*
X80593214Y68260419D02*
X80640833Y68212800D01*
X80640833Y68212800D02*
X80736071Y68165180D01*
X80736071Y68165180D02*
X80926547Y68165180D01*
X80926547Y68165180D02*
X81021785Y68212800D01*
X81021785Y68212800D02*
X81069404Y68260419D01*
X81069404Y68260419D02*
X81117023Y68355657D01*
X81117023Y68355657D02*
X81117023Y68593752D01*
X81117023Y68593752D02*
X81069404Y68688990D01*
X81069404Y68688990D02*
X81021785Y68736609D01*
X81021785Y68736609D02*
X80926547Y68784228D01*
X80926547Y68784228D02*
X80736071Y68784228D01*
X80736071Y68784228D02*
X80640833Y68736609D01*
X80640833Y68736609D02*
X80593214Y68688990D01*
X80593214Y68688990D02*
X80545595Y68593752D01*
X81450357Y69165180D02*
X82117023Y69165180D01*
X82117023Y69165180D02*
X81688452Y68165180D01*
X84355595Y68485180D02*
X84355595Y69485180D01*
X84927023Y68485180D02*
X84498452Y69056609D01*
X84927023Y69485180D02*
X84355595Y68913752D01*
X160563569Y115927143D02*
X159563569Y115927143D01*
X159563569Y115927143D02*
X159563569Y116165238D01*
X159563569Y116165238D02*
X159611188Y116308095D01*
X159611188Y116308095D02*
X159706426Y116403333D01*
X159706426Y116403333D02*
X159801664Y116450952D01*
X159801664Y116450952D02*
X159992140Y116498571D01*
X159992140Y116498571D02*
X160134997Y116498571D01*
X160134997Y116498571D02*
X160325473Y116450952D01*
X160325473Y116450952D02*
X160420711Y116403333D01*
X160420711Y116403333D02*
X160515950Y116308095D01*
X160515950Y116308095D02*
X160563569Y116165238D01*
X160563569Y116165238D02*
X160563569Y115927143D01*
X159563569Y116831905D02*
X159563569Y117498571D01*
X159563569Y117498571D02*
X160563569Y117070000D01*
X159563569Y118070000D02*
X159563569Y118165238D01*
X159563569Y118165238D02*
X159611188Y118260476D01*
X159611188Y118260476D02*
X159658807Y118308095D01*
X159658807Y118308095D02*
X159754045Y118355714D01*
X159754045Y118355714D02*
X159944521Y118403333D01*
X159944521Y118403333D02*
X160182616Y118403333D01*
X160182616Y118403333D02*
X160373092Y118355714D01*
X160373092Y118355714D02*
X160468330Y118308095D01*
X160468330Y118308095D02*
X160515950Y118260476D01*
X160515950Y118260476D02*
X160563569Y118165238D01*
X160563569Y118165238D02*
X160563569Y118070000D01*
X160563569Y118070000D02*
X160515950Y117974762D01*
X160515950Y117974762D02*
X160468330Y117927143D01*
X160468330Y117927143D02*
X160373092Y117879524D01*
X160373092Y117879524D02*
X160182616Y117831905D01*
X160182616Y117831905D02*
X159944521Y117831905D01*
X159944521Y117831905D02*
X159754045Y117879524D01*
X159754045Y117879524D02*
X159658807Y117927143D01*
X159658807Y117927143D02*
X159611188Y117974762D01*
X159611188Y117974762D02*
X159563569Y118070000D01*
X160243569Y120689524D02*
X159243569Y120689524D01*
X160243569Y121260952D02*
X159672140Y120832381D01*
X159243569Y121260952D02*
X159814997Y120689524D01*
X79593214Y93465180D02*
X79593214Y94465180D01*
X79593214Y94465180D02*
X79831309Y94465180D01*
X79831309Y94465180D02*
X79974166Y94417561D01*
X79974166Y94417561D02*
X80069404Y94322323D01*
X80069404Y94322323D02*
X80117023Y94227085D01*
X80117023Y94227085D02*
X80164642Y94036609D01*
X80164642Y94036609D02*
X80164642Y93893752D01*
X80164642Y93893752D02*
X80117023Y93703276D01*
X80117023Y93703276D02*
X80069404Y93608038D01*
X80069404Y93608038D02*
X79974166Y93512800D01*
X79974166Y93512800D02*
X79831309Y93465180D01*
X79831309Y93465180D02*
X79593214Y93465180D01*
X81021785Y94465180D02*
X80831309Y94465180D01*
X80831309Y94465180D02*
X80736071Y94417561D01*
X80736071Y94417561D02*
X80688452Y94369942D01*
X80688452Y94369942D02*
X80593214Y94227085D01*
X80593214Y94227085D02*
X80545595Y94036609D01*
X80545595Y94036609D02*
X80545595Y93655657D01*
X80545595Y93655657D02*
X80593214Y93560419D01*
X80593214Y93560419D02*
X80640833Y93512800D01*
X80640833Y93512800D02*
X80736071Y93465180D01*
X80736071Y93465180D02*
X80926547Y93465180D01*
X80926547Y93465180D02*
X81021785Y93512800D01*
X81021785Y93512800D02*
X81069404Y93560419D01*
X81069404Y93560419D02*
X81117023Y93655657D01*
X81117023Y93655657D02*
X81117023Y93893752D01*
X81117023Y93893752D02*
X81069404Y93988990D01*
X81069404Y93988990D02*
X81021785Y94036609D01*
X81021785Y94036609D02*
X80926547Y94084228D01*
X80926547Y94084228D02*
X80736071Y94084228D01*
X80736071Y94084228D02*
X80640833Y94036609D01*
X80640833Y94036609D02*
X80593214Y93988990D01*
X80593214Y93988990D02*
X80545595Y93893752D01*
X81688452Y94036609D02*
X81593214Y94084228D01*
X81593214Y94084228D02*
X81545595Y94131847D01*
X81545595Y94131847D02*
X81497976Y94227085D01*
X81497976Y94227085D02*
X81497976Y94274704D01*
X81497976Y94274704D02*
X81545595Y94369942D01*
X81545595Y94369942D02*
X81593214Y94417561D01*
X81593214Y94417561D02*
X81688452Y94465180D01*
X81688452Y94465180D02*
X81878928Y94465180D01*
X81878928Y94465180D02*
X81974166Y94417561D01*
X81974166Y94417561D02*
X82021785Y94369942D01*
X82021785Y94369942D02*
X82069404Y94274704D01*
X82069404Y94274704D02*
X82069404Y94227085D01*
X82069404Y94227085D02*
X82021785Y94131847D01*
X82021785Y94131847D02*
X81974166Y94084228D01*
X81974166Y94084228D02*
X81878928Y94036609D01*
X81878928Y94036609D02*
X81688452Y94036609D01*
X81688452Y94036609D02*
X81593214Y93988990D01*
X81593214Y93988990D02*
X81545595Y93941371D01*
X81545595Y93941371D02*
X81497976Y93846133D01*
X81497976Y93846133D02*
X81497976Y93655657D01*
X81497976Y93655657D02*
X81545595Y93560419D01*
X81545595Y93560419D02*
X81593214Y93512800D01*
X81593214Y93512800D02*
X81688452Y93465180D01*
X81688452Y93465180D02*
X81878928Y93465180D01*
X81878928Y93465180D02*
X81974166Y93512800D01*
X81974166Y93512800D02*
X82021785Y93560419D01*
X82021785Y93560419D02*
X82069404Y93655657D01*
X82069404Y93655657D02*
X82069404Y93846133D01*
X82069404Y93846133D02*
X82021785Y93941371D01*
X82021785Y93941371D02*
X81974166Y93988990D01*
X81974166Y93988990D02*
X81878928Y94036609D01*
X84355595Y93785180D02*
X84355595Y94785180D01*
X84927023Y93785180D02*
X84498452Y94356609D01*
X84927023Y94785180D02*
X84355595Y94213752D01*
X67296964Y68165180D02*
X67296964Y69165180D01*
X67296964Y69165180D02*
X67535059Y69165180D01*
X67535059Y69165180D02*
X67677916Y69117561D01*
X67677916Y69117561D02*
X67773154Y69022323D01*
X67773154Y69022323D02*
X67820773Y68927085D01*
X67820773Y68927085D02*
X67868392Y68736609D01*
X67868392Y68736609D02*
X67868392Y68593752D01*
X67868392Y68593752D02*
X67820773Y68403276D01*
X67820773Y68403276D02*
X67773154Y68308038D01*
X67773154Y68308038D02*
X67677916Y68212800D01*
X67677916Y68212800D02*
X67535059Y68165180D01*
X67535059Y68165180D02*
X67296964Y68165180D01*
X68773154Y69165180D02*
X68296964Y69165180D01*
X68296964Y69165180D02*
X68249345Y68688990D01*
X68249345Y68688990D02*
X68296964Y68736609D01*
X68296964Y68736609D02*
X68392202Y68784228D01*
X68392202Y68784228D02*
X68630297Y68784228D01*
X68630297Y68784228D02*
X68725535Y68736609D01*
X68725535Y68736609D02*
X68773154Y68688990D01*
X68773154Y68688990D02*
X68820773Y68593752D01*
X68820773Y68593752D02*
X68820773Y68355657D01*
X68820773Y68355657D02*
X68773154Y68260419D01*
X68773154Y68260419D02*
X68725535Y68212800D01*
X68725535Y68212800D02*
X68630297Y68165180D01*
X68630297Y68165180D02*
X68392202Y68165180D01*
X68392202Y68165180D02*
X68296964Y68212800D01*
X68296964Y68212800D02*
X68249345Y68260419D01*
X69392202Y68736609D02*
X69296964Y68784228D01*
X69296964Y68784228D02*
X69249345Y68831847D01*
X69249345Y68831847D02*
X69201726Y68927085D01*
X69201726Y68927085D02*
X69201726Y68974704D01*
X69201726Y68974704D02*
X69249345Y69069942D01*
X69249345Y69069942D02*
X69296964Y69117561D01*
X69296964Y69117561D02*
X69392202Y69165180D01*
X69392202Y69165180D02*
X69582678Y69165180D01*
X69582678Y69165180D02*
X69677916Y69117561D01*
X69677916Y69117561D02*
X69725535Y69069942D01*
X69725535Y69069942D02*
X69773154Y68974704D01*
X69773154Y68974704D02*
X69773154Y68927085D01*
X69773154Y68927085D02*
X69725535Y68831847D01*
X69725535Y68831847D02*
X69677916Y68784228D01*
X69677916Y68784228D02*
X69582678Y68736609D01*
X69582678Y68736609D02*
X69392202Y68736609D01*
X69392202Y68736609D02*
X69296964Y68688990D01*
X69296964Y68688990D02*
X69249345Y68641371D01*
X69249345Y68641371D02*
X69201726Y68546133D01*
X69201726Y68546133D02*
X69201726Y68355657D01*
X69201726Y68355657D02*
X69249345Y68260419D01*
X69249345Y68260419D02*
X69296964Y68212800D01*
X69296964Y68212800D02*
X69392202Y68165180D01*
X69392202Y68165180D02*
X69582678Y68165180D01*
X69582678Y68165180D02*
X69677916Y68212800D01*
X69677916Y68212800D02*
X69725535Y68260419D01*
X69725535Y68260419D02*
X69773154Y68355657D01*
X69773154Y68355657D02*
X69773154Y68546133D01*
X69773154Y68546133D02*
X69725535Y68641371D01*
X69725535Y68641371D02*
X69677916Y68688990D01*
X69677916Y68688990D02*
X69582678Y68736609D01*
X72059345Y68485180D02*
X72059345Y69485180D01*
X72630773Y68485180D02*
X72202202Y69056609D01*
X72630773Y69485180D02*
X72059345Y68913752D01*
X67296964Y93465180D02*
X67296964Y94465180D01*
X67296964Y94465180D02*
X67535059Y94465180D01*
X67535059Y94465180D02*
X67677916Y94417561D01*
X67677916Y94417561D02*
X67773154Y94322323D01*
X67773154Y94322323D02*
X67820773Y94227085D01*
X67820773Y94227085D02*
X67868392Y94036609D01*
X67868392Y94036609D02*
X67868392Y93893752D01*
X67868392Y93893752D02*
X67820773Y93703276D01*
X67820773Y93703276D02*
X67773154Y93608038D01*
X67773154Y93608038D02*
X67677916Y93512800D01*
X67677916Y93512800D02*
X67535059Y93465180D01*
X67535059Y93465180D02*
X67296964Y93465180D01*
X68773154Y94465180D02*
X68296964Y94465180D01*
X68296964Y94465180D02*
X68249345Y93988990D01*
X68249345Y93988990D02*
X68296964Y94036609D01*
X68296964Y94036609D02*
X68392202Y94084228D01*
X68392202Y94084228D02*
X68630297Y94084228D01*
X68630297Y94084228D02*
X68725535Y94036609D01*
X68725535Y94036609D02*
X68773154Y93988990D01*
X68773154Y93988990D02*
X68820773Y93893752D01*
X68820773Y93893752D02*
X68820773Y93655657D01*
X68820773Y93655657D02*
X68773154Y93560419D01*
X68773154Y93560419D02*
X68725535Y93512800D01*
X68725535Y93512800D02*
X68630297Y93465180D01*
X68630297Y93465180D02*
X68392202Y93465180D01*
X68392202Y93465180D02*
X68296964Y93512800D01*
X68296964Y93512800D02*
X68249345Y93560419D01*
X69154107Y94465180D02*
X69820773Y94465180D01*
X69820773Y94465180D02*
X69392202Y93465180D01*
X72059345Y93785180D02*
X72059345Y94785180D01*
X72630773Y93785180D02*
X72202202Y94356609D01*
X72630773Y94785180D02*
X72059345Y94213752D01*
X160563569Y103678571D02*
X159563569Y103678571D01*
X159563569Y103678571D02*
X159563569Y103916666D01*
X159563569Y103916666D02*
X159611188Y104059523D01*
X159611188Y104059523D02*
X159706426Y104154761D01*
X159706426Y104154761D02*
X159801664Y104202380D01*
X159801664Y104202380D02*
X159992140Y104249999D01*
X159992140Y104249999D02*
X160134997Y104249999D01*
X160134997Y104249999D02*
X160325473Y104202380D01*
X160325473Y104202380D02*
X160420711Y104154761D01*
X160420711Y104154761D02*
X160515950Y104059523D01*
X160515950Y104059523D02*
X160563569Y103916666D01*
X160563569Y103916666D02*
X160563569Y103678571D01*
X159563569Y105107142D02*
X159563569Y104916666D01*
X159563569Y104916666D02*
X159611188Y104821428D01*
X159611188Y104821428D02*
X159658807Y104773809D01*
X159658807Y104773809D02*
X159801664Y104678571D01*
X159801664Y104678571D02*
X159992140Y104630952D01*
X159992140Y104630952D02*
X160373092Y104630952D01*
X160373092Y104630952D02*
X160468330Y104678571D01*
X160468330Y104678571D02*
X160515950Y104726190D01*
X160515950Y104726190D02*
X160563569Y104821428D01*
X160563569Y104821428D02*
X160563569Y105011904D01*
X160563569Y105011904D02*
X160515950Y105107142D01*
X160515950Y105107142D02*
X160468330Y105154761D01*
X160468330Y105154761D02*
X160373092Y105202380D01*
X160373092Y105202380D02*
X160134997Y105202380D01*
X160134997Y105202380D02*
X160039759Y105154761D01*
X160039759Y105154761D02*
X159992140Y105107142D01*
X159992140Y105107142D02*
X159944521Y105011904D01*
X159944521Y105011904D02*
X159944521Y104821428D01*
X159944521Y104821428D02*
X159992140Y104726190D01*
X159992140Y104726190D02*
X160039759Y104678571D01*
X160039759Y104678571D02*
X160134997Y104630952D01*
X159896902Y106059523D02*
X160563569Y106059523D01*
X159515950Y105821428D02*
X160230235Y105583333D01*
X160230235Y105583333D02*
X160230235Y106202380D01*
X160243569Y108440952D02*
X159243569Y108440952D01*
X160243569Y109012380D02*
X159672140Y108583809D01*
X159243569Y109012380D02*
X159814997Y108440952D01*
X115704464Y38115180D02*
X115704464Y39115180D01*
X115704464Y39115180D02*
X115942559Y39115180D01*
X115942559Y39115180D02*
X116085416Y39067561D01*
X116085416Y39067561D02*
X116180654Y38972323D01*
X116180654Y38972323D02*
X116228273Y38877085D01*
X116228273Y38877085D02*
X116275892Y38686609D01*
X116275892Y38686609D02*
X116275892Y38543752D01*
X116275892Y38543752D02*
X116228273Y38353276D01*
X116228273Y38353276D02*
X116180654Y38258038D01*
X116180654Y38258038D02*
X116085416Y38162800D01*
X116085416Y38162800D02*
X115942559Y38115180D01*
X115942559Y38115180D02*
X115704464Y38115180D01*
X117133035Y39115180D02*
X116942559Y39115180D01*
X116942559Y39115180D02*
X116847321Y39067561D01*
X116847321Y39067561D02*
X116799702Y39019942D01*
X116799702Y39019942D02*
X116704464Y38877085D01*
X116704464Y38877085D02*
X116656845Y38686609D01*
X116656845Y38686609D02*
X116656845Y38305657D01*
X116656845Y38305657D02*
X116704464Y38210419D01*
X116704464Y38210419D02*
X116752083Y38162800D01*
X116752083Y38162800D02*
X116847321Y38115180D01*
X116847321Y38115180D02*
X117037797Y38115180D01*
X117037797Y38115180D02*
X117133035Y38162800D01*
X117133035Y38162800D02*
X117180654Y38210419D01*
X117180654Y38210419D02*
X117228273Y38305657D01*
X117228273Y38305657D02*
X117228273Y38543752D01*
X117228273Y38543752D02*
X117180654Y38638990D01*
X117180654Y38638990D02*
X117133035Y38686609D01*
X117133035Y38686609D02*
X117037797Y38734228D01*
X117037797Y38734228D02*
X116847321Y38734228D01*
X116847321Y38734228D02*
X116752083Y38686609D01*
X116752083Y38686609D02*
X116704464Y38638990D01*
X116704464Y38638990D02*
X116656845Y38543752D01*
X118133035Y39115180D02*
X117656845Y39115180D01*
X117656845Y39115180D02*
X117609226Y38638990D01*
X117609226Y38638990D02*
X117656845Y38686609D01*
X117656845Y38686609D02*
X117752083Y38734228D01*
X117752083Y38734228D02*
X117990178Y38734228D01*
X117990178Y38734228D02*
X118085416Y38686609D01*
X118085416Y38686609D02*
X118133035Y38638990D01*
X118133035Y38638990D02*
X118180654Y38543752D01*
X118180654Y38543752D02*
X118180654Y38305657D01*
X118180654Y38305657D02*
X118133035Y38210419D01*
X118133035Y38210419D02*
X118085416Y38162800D01*
X118085416Y38162800D02*
X117990178Y38115180D01*
X117990178Y38115180D02*
X117752083Y38115180D01*
X117752083Y38115180D02*
X117656845Y38162800D01*
X117656845Y38162800D02*
X117609226Y38210419D01*
X120466845Y38435180D02*
X120466845Y39435180D01*
X121038273Y38435180D02*
X120609702Y39006609D01*
X121038273Y39435180D02*
X120466845Y38863752D01*
X160563569Y91430000D02*
X159563569Y91430000D01*
X159563569Y91430000D02*
X159563569Y91668095D01*
X159563569Y91668095D02*
X159611188Y91810952D01*
X159611188Y91810952D02*
X159706426Y91906190D01*
X159706426Y91906190D02*
X159801664Y91953809D01*
X159801664Y91953809D02*
X159992140Y92001428D01*
X159992140Y92001428D02*
X160134997Y92001428D01*
X160134997Y92001428D02*
X160325473Y91953809D01*
X160325473Y91953809D02*
X160420711Y91906190D01*
X160420711Y91906190D02*
X160515950Y91810952D01*
X160515950Y91810952D02*
X160563569Y91668095D01*
X160563569Y91668095D02*
X160563569Y91430000D01*
X159563569Y92906190D02*
X159563569Y92430000D01*
X159563569Y92430000D02*
X160039759Y92382381D01*
X160039759Y92382381D02*
X159992140Y92430000D01*
X159992140Y92430000D02*
X159944521Y92525238D01*
X159944521Y92525238D02*
X159944521Y92763333D01*
X159944521Y92763333D02*
X159992140Y92858571D01*
X159992140Y92858571D02*
X160039759Y92906190D01*
X160039759Y92906190D02*
X160134997Y92953809D01*
X160134997Y92953809D02*
X160373092Y92953809D01*
X160373092Y92953809D02*
X160468330Y92906190D01*
X160468330Y92906190D02*
X160515950Y92858571D01*
X160515950Y92858571D02*
X160563569Y92763333D01*
X160563569Y92763333D02*
X160563569Y92525238D01*
X160563569Y92525238D02*
X160515950Y92430000D01*
X160515950Y92430000D02*
X160468330Y92382381D01*
X159896902Y93810952D02*
X160563569Y93810952D01*
X159515950Y93572857D02*
X160230235Y93334762D01*
X160230235Y93334762D02*
X160230235Y93953809D01*
X160243569Y96192381D02*
X159243569Y96192381D01*
X160243569Y96763809D02*
X159672140Y96335238D01*
X159243569Y96763809D02*
X159814997Y96192381D01*
X141014464Y146035180D02*
X141014464Y147035180D01*
X141014464Y147035180D02*
X141252559Y147035180D01*
X141252559Y147035180D02*
X141395416Y146987561D01*
X141395416Y146987561D02*
X141490654Y146892323D01*
X141490654Y146892323D02*
X141538273Y146797085D01*
X141538273Y146797085D02*
X141585892Y146606609D01*
X141585892Y146606609D02*
X141585892Y146463752D01*
X141585892Y146463752D02*
X141538273Y146273276D01*
X141538273Y146273276D02*
X141490654Y146178038D01*
X141490654Y146178038D02*
X141395416Y146082800D01*
X141395416Y146082800D02*
X141252559Y146035180D01*
X141252559Y146035180D02*
X141014464Y146035180D01*
X142490654Y147035180D02*
X142014464Y147035180D01*
X142014464Y147035180D02*
X141966845Y146558990D01*
X141966845Y146558990D02*
X142014464Y146606609D01*
X142014464Y146606609D02*
X142109702Y146654228D01*
X142109702Y146654228D02*
X142347797Y146654228D01*
X142347797Y146654228D02*
X142443035Y146606609D01*
X142443035Y146606609D02*
X142490654Y146558990D01*
X142490654Y146558990D02*
X142538273Y146463752D01*
X142538273Y146463752D02*
X142538273Y146225657D01*
X142538273Y146225657D02*
X142490654Y146130419D01*
X142490654Y146130419D02*
X142443035Y146082800D01*
X142443035Y146082800D02*
X142347797Y146035180D01*
X142347797Y146035180D02*
X142109702Y146035180D01*
X142109702Y146035180D02*
X142014464Y146082800D01*
X142014464Y146082800D02*
X141966845Y146130419D01*
X142919226Y146939942D02*
X142966845Y146987561D01*
X142966845Y146987561D02*
X143062083Y147035180D01*
X143062083Y147035180D02*
X143300178Y147035180D01*
X143300178Y147035180D02*
X143395416Y146987561D01*
X143395416Y146987561D02*
X143443035Y146939942D01*
X143443035Y146939942D02*
X143490654Y146844704D01*
X143490654Y146844704D02*
X143490654Y146749466D01*
X143490654Y146749466D02*
X143443035Y146606609D01*
X143443035Y146606609D02*
X142871607Y146035180D01*
X142871607Y146035180D02*
X143490654Y146035180D01*
X145776845Y146355180D02*
X145776845Y147355180D01*
X146348273Y146355180D02*
X145919702Y146926609D01*
X146348273Y147355180D02*
X145776845Y146783752D01*
X160563569Y79181428D02*
X159563569Y79181428D01*
X159563569Y79181428D02*
X159563569Y79419523D01*
X159563569Y79419523D02*
X159611188Y79562380D01*
X159611188Y79562380D02*
X159706426Y79657618D01*
X159706426Y79657618D02*
X159801664Y79705237D01*
X159801664Y79705237D02*
X159992140Y79752856D01*
X159992140Y79752856D02*
X160134997Y79752856D01*
X160134997Y79752856D02*
X160325473Y79705237D01*
X160325473Y79705237D02*
X160420711Y79657618D01*
X160420711Y79657618D02*
X160515950Y79562380D01*
X160515950Y79562380D02*
X160563569Y79419523D01*
X160563569Y79419523D02*
X160563569Y79181428D01*
X159896902Y80609999D02*
X160563569Y80609999D01*
X159515950Y80371904D02*
X160230235Y80133809D01*
X160230235Y80133809D02*
X160230235Y80752856D01*
X159992140Y81276666D02*
X159944521Y81181428D01*
X159944521Y81181428D02*
X159896902Y81133809D01*
X159896902Y81133809D02*
X159801664Y81086190D01*
X159801664Y81086190D02*
X159754045Y81086190D01*
X159754045Y81086190D02*
X159658807Y81133809D01*
X159658807Y81133809D02*
X159611188Y81181428D01*
X159611188Y81181428D02*
X159563569Y81276666D01*
X159563569Y81276666D02*
X159563569Y81467142D01*
X159563569Y81467142D02*
X159611188Y81562380D01*
X159611188Y81562380D02*
X159658807Y81609999D01*
X159658807Y81609999D02*
X159754045Y81657618D01*
X159754045Y81657618D02*
X159801664Y81657618D01*
X159801664Y81657618D02*
X159896902Y81609999D01*
X159896902Y81609999D02*
X159944521Y81562380D01*
X159944521Y81562380D02*
X159992140Y81467142D01*
X159992140Y81467142D02*
X159992140Y81276666D01*
X159992140Y81276666D02*
X160039759Y81181428D01*
X160039759Y81181428D02*
X160087378Y81133809D01*
X160087378Y81133809D02*
X160182616Y81086190D01*
X160182616Y81086190D02*
X160373092Y81086190D01*
X160373092Y81086190D02*
X160468330Y81133809D01*
X160468330Y81133809D02*
X160515950Y81181428D01*
X160515950Y81181428D02*
X160563569Y81276666D01*
X160563569Y81276666D02*
X160563569Y81467142D01*
X160563569Y81467142D02*
X160515950Y81562380D01*
X160515950Y81562380D02*
X160468330Y81609999D01*
X160468330Y81609999D02*
X160373092Y81657618D01*
X160373092Y81657618D02*
X160182616Y81657618D01*
X160182616Y81657618D02*
X160087378Y81609999D01*
X160087378Y81609999D02*
X160039759Y81562380D01*
X160039759Y81562380D02*
X159992140Y81467142D01*
X160243569Y83943809D02*
X159243569Y83943809D01*
X160243569Y84515237D02*
X159672140Y84086666D01*
X159243569Y84515237D02*
X159814997Y83943809D01*
X141014464Y120335180D02*
X141014464Y121335180D01*
X141014464Y121335180D02*
X141252559Y121335180D01*
X141252559Y121335180D02*
X141395416Y121287561D01*
X141395416Y121287561D02*
X141490654Y121192323D01*
X141490654Y121192323D02*
X141538273Y121097085D01*
X141538273Y121097085D02*
X141585892Y120906609D01*
X141585892Y120906609D02*
X141585892Y120763752D01*
X141585892Y120763752D02*
X141538273Y120573276D01*
X141538273Y120573276D02*
X141490654Y120478038D01*
X141490654Y120478038D02*
X141395416Y120382800D01*
X141395416Y120382800D02*
X141252559Y120335180D01*
X141252559Y120335180D02*
X141014464Y120335180D01*
X142443035Y121001847D02*
X142443035Y120335180D01*
X142204940Y121382800D02*
X141966845Y120668514D01*
X141966845Y120668514D02*
X142585892Y120668514D01*
X143014464Y120335180D02*
X143204940Y120335180D01*
X143204940Y120335180D02*
X143300178Y120382800D01*
X143300178Y120382800D02*
X143347797Y120430419D01*
X143347797Y120430419D02*
X143443035Y120573276D01*
X143443035Y120573276D02*
X143490654Y120763752D01*
X143490654Y120763752D02*
X143490654Y121144704D01*
X143490654Y121144704D02*
X143443035Y121239942D01*
X143443035Y121239942D02*
X143395416Y121287561D01*
X143395416Y121287561D02*
X143300178Y121335180D01*
X143300178Y121335180D02*
X143109702Y121335180D01*
X143109702Y121335180D02*
X143014464Y121287561D01*
X143014464Y121287561D02*
X142966845Y121239942D01*
X142966845Y121239942D02*
X142919226Y121144704D01*
X142919226Y121144704D02*
X142919226Y120906609D01*
X142919226Y120906609D02*
X142966845Y120811371D01*
X142966845Y120811371D02*
X143014464Y120763752D01*
X143014464Y120763752D02*
X143109702Y120716133D01*
X143109702Y120716133D02*
X143300178Y120716133D01*
X143300178Y120716133D02*
X143395416Y120763752D01*
X143395416Y120763752D02*
X143443035Y120811371D01*
X143443035Y120811371D02*
X143490654Y120906609D01*
X145776845Y120655180D02*
X145776845Y121655180D01*
X146348273Y120655180D02*
X145919702Y121226609D01*
X146348273Y121655180D02*
X145776845Y121083752D01*
X103594464Y38115180D02*
X103594464Y39115180D01*
X103594464Y39115180D02*
X103832559Y39115180D01*
X103832559Y39115180D02*
X103975416Y39067561D01*
X103975416Y39067561D02*
X104070654Y38972323D01*
X104070654Y38972323D02*
X104118273Y38877085D01*
X104118273Y38877085D02*
X104165892Y38686609D01*
X104165892Y38686609D02*
X104165892Y38543752D01*
X104165892Y38543752D02*
X104118273Y38353276D01*
X104118273Y38353276D02*
X104070654Y38258038D01*
X104070654Y38258038D02*
X103975416Y38162800D01*
X103975416Y38162800D02*
X103832559Y38115180D01*
X103832559Y38115180D02*
X103594464Y38115180D01*
X105070654Y39115180D02*
X104594464Y39115180D01*
X104594464Y39115180D02*
X104546845Y38638990D01*
X104546845Y38638990D02*
X104594464Y38686609D01*
X104594464Y38686609D02*
X104689702Y38734228D01*
X104689702Y38734228D02*
X104927797Y38734228D01*
X104927797Y38734228D02*
X105023035Y38686609D01*
X105023035Y38686609D02*
X105070654Y38638990D01*
X105070654Y38638990D02*
X105118273Y38543752D01*
X105118273Y38543752D02*
X105118273Y38305657D01*
X105118273Y38305657D02*
X105070654Y38210419D01*
X105070654Y38210419D02*
X105023035Y38162800D01*
X105023035Y38162800D02*
X104927797Y38115180D01*
X104927797Y38115180D02*
X104689702Y38115180D01*
X104689702Y38115180D02*
X104594464Y38162800D01*
X104594464Y38162800D02*
X104546845Y38210419D01*
X106023035Y39115180D02*
X105546845Y39115180D01*
X105546845Y39115180D02*
X105499226Y38638990D01*
X105499226Y38638990D02*
X105546845Y38686609D01*
X105546845Y38686609D02*
X105642083Y38734228D01*
X105642083Y38734228D02*
X105880178Y38734228D01*
X105880178Y38734228D02*
X105975416Y38686609D01*
X105975416Y38686609D02*
X106023035Y38638990D01*
X106023035Y38638990D02*
X106070654Y38543752D01*
X106070654Y38543752D02*
X106070654Y38305657D01*
X106070654Y38305657D02*
X106023035Y38210419D01*
X106023035Y38210419D02*
X105975416Y38162800D01*
X105975416Y38162800D02*
X105880178Y38115180D01*
X105880178Y38115180D02*
X105642083Y38115180D01*
X105642083Y38115180D02*
X105546845Y38162800D01*
X105546845Y38162800D02*
X105499226Y38210419D01*
X108356845Y38435180D02*
X108356845Y39435180D01*
X108928273Y38435180D02*
X108499702Y39006609D01*
X108928273Y39435180D02*
X108356845Y38863752D01*
X90724464Y38115180D02*
X90724464Y39115180D01*
X90724464Y39115180D02*
X90962559Y39115180D01*
X90962559Y39115180D02*
X91105416Y39067561D01*
X91105416Y39067561D02*
X91200654Y38972323D01*
X91200654Y38972323D02*
X91248273Y38877085D01*
X91248273Y38877085D02*
X91295892Y38686609D01*
X91295892Y38686609D02*
X91295892Y38543752D01*
X91295892Y38543752D02*
X91248273Y38353276D01*
X91248273Y38353276D02*
X91200654Y38258038D01*
X91200654Y38258038D02*
X91105416Y38162800D01*
X91105416Y38162800D02*
X90962559Y38115180D01*
X90962559Y38115180D02*
X90724464Y38115180D01*
X92200654Y39115180D02*
X91724464Y39115180D01*
X91724464Y39115180D02*
X91676845Y38638990D01*
X91676845Y38638990D02*
X91724464Y38686609D01*
X91724464Y38686609D02*
X91819702Y38734228D01*
X91819702Y38734228D02*
X92057797Y38734228D01*
X92057797Y38734228D02*
X92153035Y38686609D01*
X92153035Y38686609D02*
X92200654Y38638990D01*
X92200654Y38638990D02*
X92248273Y38543752D01*
X92248273Y38543752D02*
X92248273Y38305657D01*
X92248273Y38305657D02*
X92200654Y38210419D01*
X92200654Y38210419D02*
X92153035Y38162800D01*
X92153035Y38162800D02*
X92057797Y38115180D01*
X92057797Y38115180D02*
X91819702Y38115180D01*
X91819702Y38115180D02*
X91724464Y38162800D01*
X91724464Y38162800D02*
X91676845Y38210419D01*
X92867321Y39115180D02*
X92962559Y39115180D01*
X92962559Y39115180D02*
X93057797Y39067561D01*
X93057797Y39067561D02*
X93105416Y39019942D01*
X93105416Y39019942D02*
X93153035Y38924704D01*
X93153035Y38924704D02*
X93200654Y38734228D01*
X93200654Y38734228D02*
X93200654Y38496133D01*
X93200654Y38496133D02*
X93153035Y38305657D01*
X93153035Y38305657D02*
X93105416Y38210419D01*
X93105416Y38210419D02*
X93057797Y38162800D01*
X93057797Y38162800D02*
X92962559Y38115180D01*
X92962559Y38115180D02*
X92867321Y38115180D01*
X92867321Y38115180D02*
X92772083Y38162800D01*
X92772083Y38162800D02*
X92724464Y38210419D01*
X92724464Y38210419D02*
X92676845Y38305657D01*
X92676845Y38305657D02*
X92629226Y38496133D01*
X92629226Y38496133D02*
X92629226Y38734228D01*
X92629226Y38734228D02*
X92676845Y38924704D01*
X92676845Y38924704D02*
X92724464Y39019942D01*
X92724464Y39019942D02*
X92772083Y39067561D01*
X92772083Y39067561D02*
X92867321Y39115180D01*
X95486845Y38435180D02*
X95486845Y39435180D01*
X96058273Y38435180D02*
X95629702Y39006609D01*
X96058273Y39435180D02*
X95486845Y38863752D01*
X75314997Y171332142D02*
X74838806Y170998809D01*
X75314997Y170760714D02*
X74314997Y170760714D01*
X74314997Y170760714D02*
X74314997Y171141666D01*
X74314997Y171141666D02*
X74362616Y171236904D01*
X74362616Y171236904D02*
X74410235Y171284523D01*
X74410235Y171284523D02*
X74505473Y171332142D01*
X74505473Y171332142D02*
X74648330Y171332142D01*
X74648330Y171332142D02*
X74743568Y171284523D01*
X74743568Y171284523D02*
X74791187Y171236904D01*
X74791187Y171236904D02*
X74838806Y171141666D01*
X74838806Y171141666D02*
X74838806Y170760714D01*
X75314997Y172284523D02*
X75314997Y171713095D01*
X75314997Y171998809D02*
X74314997Y171998809D01*
X74314997Y171998809D02*
X74457854Y171903571D01*
X74457854Y171903571D02*
X74553092Y171808333D01*
X74553092Y171808333D02*
X74600711Y171713095D01*
X74314997Y172617857D02*
X74314997Y173236904D01*
X74314997Y173236904D02*
X74695949Y172903571D01*
X74695949Y172903571D02*
X74695949Y173046428D01*
X74695949Y173046428D02*
X74743568Y173141666D01*
X74743568Y173141666D02*
X74791187Y173189285D01*
X74791187Y173189285D02*
X74886425Y173236904D01*
X74886425Y173236904D02*
X75124520Y173236904D01*
X75124520Y173236904D02*
X75219758Y173189285D01*
X75219758Y173189285D02*
X75267378Y173141666D01*
X75267378Y173141666D02*
X75314997Y173046428D01*
X75314997Y173046428D02*
X75314997Y172760714D01*
X75314997Y172760714D02*
X75267378Y172665476D01*
X75267378Y172665476D02*
X75219758Y172617857D01*
X68346425Y171332142D02*
X67870234Y170998809D01*
X68346425Y170760714D02*
X67346425Y170760714D01*
X67346425Y170760714D02*
X67346425Y171141666D01*
X67346425Y171141666D02*
X67394044Y171236904D01*
X67394044Y171236904D02*
X67441663Y171284523D01*
X67441663Y171284523D02*
X67536901Y171332142D01*
X67536901Y171332142D02*
X67679758Y171332142D01*
X67679758Y171332142D02*
X67774996Y171284523D01*
X67774996Y171284523D02*
X67822615Y171236904D01*
X67822615Y171236904D02*
X67870234Y171141666D01*
X67870234Y171141666D02*
X67870234Y170760714D01*
X68346425Y172284523D02*
X68346425Y171713095D01*
X68346425Y171998809D02*
X67346425Y171998809D01*
X67346425Y171998809D02*
X67489282Y171903571D01*
X67489282Y171903571D02*
X67584520Y171808333D01*
X67584520Y171808333D02*
X67632139Y171713095D01*
X67679758Y173141666D02*
X68346425Y173141666D01*
X67298806Y172903571D02*
X68013091Y172665476D01*
X68013091Y172665476D02*
X68013091Y173284523D01*
X54409282Y171332142D02*
X53933091Y170998809D01*
X54409282Y170760714D02*
X53409282Y170760714D01*
X53409282Y170760714D02*
X53409282Y171141666D01*
X53409282Y171141666D02*
X53456901Y171236904D01*
X53456901Y171236904D02*
X53504520Y171284523D01*
X53504520Y171284523D02*
X53599758Y171332142D01*
X53599758Y171332142D02*
X53742615Y171332142D01*
X53742615Y171332142D02*
X53837853Y171284523D01*
X53837853Y171284523D02*
X53885472Y171236904D01*
X53885472Y171236904D02*
X53933091Y171141666D01*
X53933091Y171141666D02*
X53933091Y170760714D01*
X54409282Y172284523D02*
X54409282Y171713095D01*
X54409282Y171998809D02*
X53409282Y171998809D01*
X53409282Y171998809D02*
X53552139Y171903571D01*
X53552139Y171903571D02*
X53647377Y171808333D01*
X53647377Y171808333D02*
X53694996Y171713095D01*
X53409282Y173141666D02*
X53409282Y172951190D01*
X53409282Y172951190D02*
X53456901Y172855952D01*
X53456901Y172855952D02*
X53504520Y172808333D01*
X53504520Y172808333D02*
X53647377Y172713095D01*
X53647377Y172713095D02*
X53837853Y172665476D01*
X53837853Y172665476D02*
X54218805Y172665476D01*
X54218805Y172665476D02*
X54314043Y172713095D01*
X54314043Y172713095D02*
X54361663Y172760714D01*
X54361663Y172760714D02*
X54409282Y172855952D01*
X54409282Y172855952D02*
X54409282Y173046428D01*
X54409282Y173046428D02*
X54361663Y173141666D01*
X54361663Y173141666D02*
X54314043Y173189285D01*
X54314043Y173189285D02*
X54218805Y173236904D01*
X54218805Y173236904D02*
X53980710Y173236904D01*
X53980710Y173236904D02*
X53885472Y173189285D01*
X53885472Y173189285D02*
X53837853Y173141666D01*
X53837853Y173141666D02*
X53790234Y173046428D01*
X53790234Y173046428D02*
X53790234Y172855952D01*
X53790234Y172855952D02*
X53837853Y172760714D01*
X53837853Y172760714D02*
X53885472Y172713095D01*
X53885472Y172713095D02*
X53980710Y172665476D01*
X47440711Y171332142D02*
X46964520Y170998809D01*
X47440711Y170760714D02*
X46440711Y170760714D01*
X46440711Y170760714D02*
X46440711Y171141666D01*
X46440711Y171141666D02*
X46488330Y171236904D01*
X46488330Y171236904D02*
X46535949Y171284523D01*
X46535949Y171284523D02*
X46631187Y171332142D01*
X46631187Y171332142D02*
X46774044Y171332142D01*
X46774044Y171332142D02*
X46869282Y171284523D01*
X46869282Y171284523D02*
X46916901Y171236904D01*
X46916901Y171236904D02*
X46964520Y171141666D01*
X46964520Y171141666D02*
X46964520Y170760714D01*
X47440711Y172284523D02*
X47440711Y171713095D01*
X47440711Y171998809D02*
X46440711Y171998809D01*
X46440711Y171998809D02*
X46583568Y171903571D01*
X46583568Y171903571D02*
X46678806Y171808333D01*
X46678806Y171808333D02*
X46726425Y171713095D01*
X46440711Y172617857D02*
X46440711Y173284523D01*
X46440711Y173284523D02*
X47440711Y172855952D01*
X61377854Y171332142D02*
X60901663Y170998809D01*
X61377854Y170760714D02*
X60377854Y170760714D01*
X60377854Y170760714D02*
X60377854Y171141666D01*
X60377854Y171141666D02*
X60425473Y171236904D01*
X60425473Y171236904D02*
X60473092Y171284523D01*
X60473092Y171284523D02*
X60568330Y171332142D01*
X60568330Y171332142D02*
X60711187Y171332142D01*
X60711187Y171332142D02*
X60806425Y171284523D01*
X60806425Y171284523D02*
X60854044Y171236904D01*
X60854044Y171236904D02*
X60901663Y171141666D01*
X60901663Y171141666D02*
X60901663Y170760714D01*
X61377854Y172284523D02*
X61377854Y171713095D01*
X61377854Y171998809D02*
X60377854Y171998809D01*
X60377854Y171998809D02*
X60520711Y171903571D01*
X60520711Y171903571D02*
X60615949Y171808333D01*
X60615949Y171808333D02*
X60663568Y171713095D01*
X60377854Y173189285D02*
X60377854Y172713095D01*
X60377854Y172713095D02*
X60854044Y172665476D01*
X60854044Y172665476D02*
X60806425Y172713095D01*
X60806425Y172713095D02*
X60758806Y172808333D01*
X60758806Y172808333D02*
X60758806Y173046428D01*
X60758806Y173046428D02*
X60806425Y173141666D01*
X60806425Y173141666D02*
X60854044Y173189285D01*
X60854044Y173189285D02*
X60949282Y173236904D01*
X60949282Y173236904D02*
X61187377Y173236904D01*
X61187377Y173236904D02*
X61282615Y173189285D01*
X61282615Y173189285D02*
X61330235Y173141666D01*
X61330235Y173141666D02*
X61377854Y173046428D01*
X61377854Y173046428D02*
X61377854Y172808333D01*
X61377854Y172808333D02*
X61330235Y172713095D01*
X61330235Y172713095D02*
X61282615Y172665476D01*
X82283568Y171332142D02*
X81807377Y170998809D01*
X82283568Y170760714D02*
X81283568Y170760714D01*
X81283568Y170760714D02*
X81283568Y171141666D01*
X81283568Y171141666D02*
X81331187Y171236904D01*
X81331187Y171236904D02*
X81378806Y171284523D01*
X81378806Y171284523D02*
X81474044Y171332142D01*
X81474044Y171332142D02*
X81616901Y171332142D01*
X81616901Y171332142D02*
X81712139Y171284523D01*
X81712139Y171284523D02*
X81759758Y171236904D01*
X81759758Y171236904D02*
X81807377Y171141666D01*
X81807377Y171141666D02*
X81807377Y170760714D01*
X82283568Y172284523D02*
X82283568Y171713095D01*
X82283568Y171998809D02*
X81283568Y171998809D01*
X81283568Y171998809D02*
X81426425Y171903571D01*
X81426425Y171903571D02*
X81521663Y171808333D01*
X81521663Y171808333D02*
X81569282Y171713095D01*
X81378806Y172665476D02*
X81331187Y172713095D01*
X81331187Y172713095D02*
X81283568Y172808333D01*
X81283568Y172808333D02*
X81283568Y173046428D01*
X81283568Y173046428D02*
X81331187Y173141666D01*
X81331187Y173141666D02*
X81378806Y173189285D01*
X81378806Y173189285D02*
X81474044Y173236904D01*
X81474044Y173236904D02*
X81569282Y173236904D01*
X81569282Y173236904D02*
X81712139Y173189285D01*
X81712139Y173189285D02*
X82283568Y172617857D01*
X82283568Y172617857D02*
X82283568Y173236904D01*
X103189282Y171808333D02*
X102713091Y171475000D01*
X103189282Y171236905D02*
X102189282Y171236905D01*
X102189282Y171236905D02*
X102189282Y171617857D01*
X102189282Y171617857D02*
X102236901Y171713095D01*
X102236901Y171713095D02*
X102284520Y171760714D01*
X102284520Y171760714D02*
X102379758Y171808333D01*
X102379758Y171808333D02*
X102522615Y171808333D01*
X102522615Y171808333D02*
X102617853Y171760714D01*
X102617853Y171760714D02*
X102665472Y171713095D01*
X102665472Y171713095D02*
X102713091Y171617857D01*
X102713091Y171617857D02*
X102713091Y171236905D01*
X103189282Y172284524D02*
X103189282Y172475000D01*
X103189282Y172475000D02*
X103141663Y172570238D01*
X103141663Y172570238D02*
X103094043Y172617857D01*
X103094043Y172617857D02*
X102951186Y172713095D01*
X102951186Y172713095D02*
X102760710Y172760714D01*
X102760710Y172760714D02*
X102379758Y172760714D01*
X102379758Y172760714D02*
X102284520Y172713095D01*
X102284520Y172713095D02*
X102236901Y172665476D01*
X102236901Y172665476D02*
X102189282Y172570238D01*
X102189282Y172570238D02*
X102189282Y172379762D01*
X102189282Y172379762D02*
X102236901Y172284524D01*
X102236901Y172284524D02*
X102284520Y172236905D01*
X102284520Y172236905D02*
X102379758Y172189286D01*
X102379758Y172189286D02*
X102617853Y172189286D01*
X102617853Y172189286D02*
X102713091Y172236905D01*
X102713091Y172236905D02*
X102760710Y172284524D01*
X102760710Y172284524D02*
X102808329Y172379762D01*
X102808329Y172379762D02*
X102808329Y172570238D01*
X102808329Y172570238D02*
X102760710Y172665476D01*
X102760710Y172665476D02*
X102713091Y172713095D01*
X102713091Y172713095D02*
X102617853Y172760714D01*
X117126425Y171808333D02*
X116650234Y171475000D01*
X117126425Y171236905D02*
X116126425Y171236905D01*
X116126425Y171236905D02*
X116126425Y171617857D01*
X116126425Y171617857D02*
X116174044Y171713095D01*
X116174044Y171713095D02*
X116221663Y171760714D01*
X116221663Y171760714D02*
X116316901Y171808333D01*
X116316901Y171808333D02*
X116459758Y171808333D01*
X116459758Y171808333D02*
X116554996Y171760714D01*
X116554996Y171760714D02*
X116602615Y171713095D01*
X116602615Y171713095D02*
X116650234Y171617857D01*
X116650234Y171617857D02*
X116650234Y171236905D01*
X116126425Y172141667D02*
X116126425Y172808333D01*
X116126425Y172808333D02*
X117126425Y172379762D01*
X131063568Y171808333D02*
X130587377Y171475000D01*
X131063568Y171236905D02*
X130063568Y171236905D01*
X130063568Y171236905D02*
X130063568Y171617857D01*
X130063568Y171617857D02*
X130111187Y171713095D01*
X130111187Y171713095D02*
X130158806Y171760714D01*
X130158806Y171760714D02*
X130254044Y171808333D01*
X130254044Y171808333D02*
X130396901Y171808333D01*
X130396901Y171808333D02*
X130492139Y171760714D01*
X130492139Y171760714D02*
X130539758Y171713095D01*
X130539758Y171713095D02*
X130587377Y171617857D01*
X130587377Y171617857D02*
X130587377Y171236905D01*
X130063568Y172713095D02*
X130063568Y172236905D01*
X130063568Y172236905D02*
X130539758Y172189286D01*
X130539758Y172189286D02*
X130492139Y172236905D01*
X130492139Y172236905D02*
X130444520Y172332143D01*
X130444520Y172332143D02*
X130444520Y172570238D01*
X130444520Y172570238D02*
X130492139Y172665476D01*
X130492139Y172665476D02*
X130539758Y172713095D01*
X130539758Y172713095D02*
X130634996Y172760714D01*
X130634996Y172760714D02*
X130873091Y172760714D01*
X130873091Y172760714D02*
X130968329Y172713095D01*
X130968329Y172713095D02*
X131015949Y172665476D01*
X131015949Y172665476D02*
X131063568Y172570238D01*
X131063568Y172570238D02*
X131063568Y172332143D01*
X131063568Y172332143D02*
X131015949Y172236905D01*
X131015949Y172236905D02*
X130968329Y172189286D01*
X138032140Y171808333D02*
X137555949Y171475000D01*
X138032140Y171236905D02*
X137032140Y171236905D01*
X137032140Y171236905D02*
X137032140Y171617857D01*
X137032140Y171617857D02*
X137079759Y171713095D01*
X137079759Y171713095D02*
X137127378Y171760714D01*
X137127378Y171760714D02*
X137222616Y171808333D01*
X137222616Y171808333D02*
X137365473Y171808333D01*
X137365473Y171808333D02*
X137460711Y171760714D01*
X137460711Y171760714D02*
X137508330Y171713095D01*
X137508330Y171713095D02*
X137555949Y171617857D01*
X137555949Y171617857D02*
X137555949Y171236905D01*
X137365473Y172665476D02*
X138032140Y172665476D01*
X136984521Y172427381D02*
X137698806Y172189286D01*
X137698806Y172189286D02*
X137698806Y172808333D01*
X124094997Y171808333D02*
X123618806Y171475000D01*
X124094997Y171236905D02*
X123094997Y171236905D01*
X123094997Y171236905D02*
X123094997Y171617857D01*
X123094997Y171617857D02*
X123142616Y171713095D01*
X123142616Y171713095D02*
X123190235Y171760714D01*
X123190235Y171760714D02*
X123285473Y171808333D01*
X123285473Y171808333D02*
X123428330Y171808333D01*
X123428330Y171808333D02*
X123523568Y171760714D01*
X123523568Y171760714D02*
X123571187Y171713095D01*
X123571187Y171713095D02*
X123618806Y171617857D01*
X123618806Y171617857D02*
X123618806Y171236905D01*
X123094997Y172665476D02*
X123094997Y172475000D01*
X123094997Y172475000D02*
X123142616Y172379762D01*
X123142616Y172379762D02*
X123190235Y172332143D01*
X123190235Y172332143D02*
X123333092Y172236905D01*
X123333092Y172236905D02*
X123523568Y172189286D01*
X123523568Y172189286D02*
X123904520Y172189286D01*
X123904520Y172189286D02*
X123999758Y172236905D01*
X123999758Y172236905D02*
X124047378Y172284524D01*
X124047378Y172284524D02*
X124094997Y172379762D01*
X124094997Y172379762D02*
X124094997Y172570238D01*
X124094997Y172570238D02*
X124047378Y172665476D01*
X124047378Y172665476D02*
X123999758Y172713095D01*
X123999758Y172713095D02*
X123904520Y172760714D01*
X123904520Y172760714D02*
X123666425Y172760714D01*
X123666425Y172760714D02*
X123571187Y172713095D01*
X123571187Y172713095D02*
X123523568Y172665476D01*
X123523568Y172665476D02*
X123475949Y172570238D01*
X123475949Y172570238D02*
X123475949Y172379762D01*
X123475949Y172379762D02*
X123523568Y172284524D01*
X123523568Y172284524D02*
X123571187Y172236905D01*
X123571187Y172236905D02*
X123666425Y172189286D01*
X96220711Y171332142D02*
X95744520Y170998809D01*
X96220711Y170760714D02*
X95220711Y170760714D01*
X95220711Y170760714D02*
X95220711Y171141666D01*
X95220711Y171141666D02*
X95268330Y171236904D01*
X95268330Y171236904D02*
X95315949Y171284523D01*
X95315949Y171284523D02*
X95411187Y171332142D01*
X95411187Y171332142D02*
X95554044Y171332142D01*
X95554044Y171332142D02*
X95649282Y171284523D01*
X95649282Y171284523D02*
X95696901Y171236904D01*
X95696901Y171236904D02*
X95744520Y171141666D01*
X95744520Y171141666D02*
X95744520Y170760714D01*
X96220711Y172284523D02*
X96220711Y171713095D01*
X96220711Y171998809D02*
X95220711Y171998809D01*
X95220711Y171998809D02*
X95363568Y171903571D01*
X95363568Y171903571D02*
X95458806Y171808333D01*
X95458806Y171808333D02*
X95506425Y171713095D01*
X95220711Y172903571D02*
X95220711Y172998809D01*
X95220711Y172998809D02*
X95268330Y173094047D01*
X95268330Y173094047D02*
X95315949Y173141666D01*
X95315949Y173141666D02*
X95411187Y173189285D01*
X95411187Y173189285D02*
X95601663Y173236904D01*
X95601663Y173236904D02*
X95839758Y173236904D01*
X95839758Y173236904D02*
X96030234Y173189285D01*
X96030234Y173189285D02*
X96125472Y173141666D01*
X96125472Y173141666D02*
X96173092Y173094047D01*
X96173092Y173094047D02*
X96220711Y172998809D01*
X96220711Y172998809D02*
X96220711Y172903571D01*
X96220711Y172903571D02*
X96173092Y172808333D01*
X96173092Y172808333D02*
X96125472Y172760714D01*
X96125472Y172760714D02*
X96030234Y172713095D01*
X96030234Y172713095D02*
X95839758Y172665476D01*
X95839758Y172665476D02*
X95601663Y172665476D01*
X95601663Y172665476D02*
X95411187Y172713095D01*
X95411187Y172713095D02*
X95315949Y172760714D01*
X95315949Y172760714D02*
X95268330Y172808333D01*
X95268330Y172808333D02*
X95220711Y172903571D01*
X89252140Y171332142D02*
X88775949Y170998809D01*
X89252140Y170760714D02*
X88252140Y170760714D01*
X88252140Y170760714D02*
X88252140Y171141666D01*
X88252140Y171141666D02*
X88299759Y171236904D01*
X88299759Y171236904D02*
X88347378Y171284523D01*
X88347378Y171284523D02*
X88442616Y171332142D01*
X88442616Y171332142D02*
X88585473Y171332142D01*
X88585473Y171332142D02*
X88680711Y171284523D01*
X88680711Y171284523D02*
X88728330Y171236904D01*
X88728330Y171236904D02*
X88775949Y171141666D01*
X88775949Y171141666D02*
X88775949Y170760714D01*
X89252140Y172284523D02*
X89252140Y171713095D01*
X89252140Y171998809D02*
X88252140Y171998809D01*
X88252140Y171998809D02*
X88394997Y171903571D01*
X88394997Y171903571D02*
X88490235Y171808333D01*
X88490235Y171808333D02*
X88537854Y171713095D01*
X89252140Y173236904D02*
X89252140Y172665476D01*
X89252140Y172951190D02*
X88252140Y172951190D01*
X88252140Y172951190D02*
X88394997Y172855952D01*
X88394997Y172855952D02*
X88490235Y172760714D01*
X88490235Y172760714D02*
X88537854Y172665476D01*
X110157854Y171808333D02*
X109681663Y171475000D01*
X110157854Y171236905D02*
X109157854Y171236905D01*
X109157854Y171236905D02*
X109157854Y171617857D01*
X109157854Y171617857D02*
X109205473Y171713095D01*
X109205473Y171713095D02*
X109253092Y171760714D01*
X109253092Y171760714D02*
X109348330Y171808333D01*
X109348330Y171808333D02*
X109491187Y171808333D01*
X109491187Y171808333D02*
X109586425Y171760714D01*
X109586425Y171760714D02*
X109634044Y171713095D01*
X109634044Y171713095D02*
X109681663Y171617857D01*
X109681663Y171617857D02*
X109681663Y171236905D01*
X109586425Y172379762D02*
X109538806Y172284524D01*
X109538806Y172284524D02*
X109491187Y172236905D01*
X109491187Y172236905D02*
X109395949Y172189286D01*
X109395949Y172189286D02*
X109348330Y172189286D01*
X109348330Y172189286D02*
X109253092Y172236905D01*
X109253092Y172236905D02*
X109205473Y172284524D01*
X109205473Y172284524D02*
X109157854Y172379762D01*
X109157854Y172379762D02*
X109157854Y172570238D01*
X109157854Y172570238D02*
X109205473Y172665476D01*
X109205473Y172665476D02*
X109253092Y172713095D01*
X109253092Y172713095D02*
X109348330Y172760714D01*
X109348330Y172760714D02*
X109395949Y172760714D01*
X109395949Y172760714D02*
X109491187Y172713095D01*
X109491187Y172713095D02*
X109538806Y172665476D01*
X109538806Y172665476D02*
X109586425Y172570238D01*
X109586425Y172570238D02*
X109586425Y172379762D01*
X109586425Y172379762D02*
X109634044Y172284524D01*
X109634044Y172284524D02*
X109681663Y172236905D01*
X109681663Y172236905D02*
X109776901Y172189286D01*
X109776901Y172189286D02*
X109967377Y172189286D01*
X109967377Y172189286D02*
X110062615Y172236905D01*
X110062615Y172236905D02*
X110110235Y172284524D01*
X110110235Y172284524D02*
X110157854Y172379762D01*
X110157854Y172379762D02*
X110157854Y172570238D01*
X110157854Y172570238D02*
X110110235Y172665476D01*
X110110235Y172665476D02*
X110062615Y172713095D01*
X110062615Y172713095D02*
X109967377Y172760714D01*
X109967377Y172760714D02*
X109776901Y172760714D01*
X109776901Y172760714D02*
X109681663Y172713095D01*
X109681663Y172713095D02*
X109634044Y172665476D01*
X109634044Y172665476D02*
X109586425Y172570238D01*
X145000711Y171808333D02*
X144524520Y171475000D01*
X145000711Y171236905D02*
X144000711Y171236905D01*
X144000711Y171236905D02*
X144000711Y171617857D01*
X144000711Y171617857D02*
X144048330Y171713095D01*
X144048330Y171713095D02*
X144095949Y171760714D01*
X144095949Y171760714D02*
X144191187Y171808333D01*
X144191187Y171808333D02*
X144334044Y171808333D01*
X144334044Y171808333D02*
X144429282Y171760714D01*
X144429282Y171760714D02*
X144476901Y171713095D01*
X144476901Y171713095D02*
X144524520Y171617857D01*
X144524520Y171617857D02*
X144524520Y171236905D01*
X144000711Y172141667D02*
X144000711Y172760714D01*
X144000711Y172760714D02*
X144381663Y172427381D01*
X144381663Y172427381D02*
X144381663Y172570238D01*
X144381663Y172570238D02*
X144429282Y172665476D01*
X144429282Y172665476D02*
X144476901Y172713095D01*
X144476901Y172713095D02*
X144572139Y172760714D01*
X144572139Y172760714D02*
X144810234Y172760714D01*
X144810234Y172760714D02*
X144905472Y172713095D01*
X144905472Y172713095D02*
X144953092Y172665476D01*
X144953092Y172665476D02*
X145000711Y172570238D01*
X145000711Y172570238D02*
X145000711Y172284524D01*
X145000711Y172284524D02*
X144953092Y172189286D01*
X144953092Y172189286D02*
X144905472Y172141667D01*
D13*
%TO.C,J2*%
X193980000Y73970000D02*
X192600000Y73970000D01*
X193980000Y75350000D02*
X193980000Y73970000D01*
X193980000Y76620000D02*
X193980000Y114830000D01*
X193980000Y76620000D02*
X191220000Y76620000D01*
X193980000Y114830000D02*
X191220000Y114830000D01*
X191220000Y76620000D02*
X191220000Y114830000D01*
%TO.C,J1*%
X32580000Y73970000D02*
X31200000Y73970000D01*
X32580000Y75350000D02*
X32580000Y73970000D01*
X32580000Y76620000D02*
X32580000Y114830000D01*
X32580000Y76620000D02*
X29820000Y76620000D01*
X32580000Y114830000D02*
X29820000Y114830000D01*
X29820000Y76620000D02*
X29820000Y114830000D01*
%TO.C,D40*%
X127222500Y122910000D02*
X127872500Y122910000D01*
X131272500Y121790000D02*
X131272500Y124030000D01*
X131392500Y121790000D02*
X131392500Y124030000D01*
X131512500Y121790000D02*
X131512500Y124030000D01*
X132762500Y122910000D02*
X132112500Y122910000D01*
X132112500Y121790000D02*
X127872500Y121790000D01*
X127872500Y124030000D01*
X132112500Y124030000D01*
X132112500Y121790000D01*
%TO.C,D39*%
X127222500Y148610000D02*
X127872500Y148610000D01*
X131272500Y147490000D02*
X131272500Y149730000D01*
X131392500Y147490000D02*
X131392500Y149730000D01*
X131512500Y147490000D02*
X131512500Y149730000D01*
X132762500Y148610000D02*
X132112500Y148610000D01*
X132112500Y147490000D02*
X127872500Y147490000D01*
X127872500Y149730000D01*
X132112500Y149730000D01*
X132112500Y147490000D01*
%TO.C,D38*%
X157988750Y70917143D02*
X157988750Y70267143D01*
X157988750Y65377143D02*
X157988750Y66027143D01*
X159108750Y69667143D02*
X156868750Y69667143D01*
X159108750Y69547143D02*
X156868750Y69547143D01*
X159108750Y69427143D02*
X156868750Y69427143D01*
X159108750Y70267143D02*
X156868750Y70267143D01*
X156868750Y66027143D01*
X159108750Y66027143D01*
X159108750Y70267143D01*
%TO.C,D41*%
X76308750Y40690000D02*
X76958750Y40690000D01*
X80358750Y39570000D02*
X80358750Y41810000D01*
X80478750Y39570000D02*
X80478750Y41810000D01*
X80598750Y39570000D02*
X80598750Y41810000D01*
X81848750Y40690000D02*
X81198750Y40690000D01*
X81198750Y39570000D02*
X76958750Y39570000D01*
X76958750Y41810000D01*
X81198750Y41810000D01*
X81198750Y39570000D01*
%TO.C,D29*%
X114926250Y122910000D02*
X115576250Y122910000D01*
X118976250Y121790000D02*
X118976250Y124030000D01*
X119096250Y121790000D02*
X119096250Y124030000D01*
X119216250Y121790000D02*
X119216250Y124030000D01*
X120466250Y122910000D02*
X119816250Y122910000D01*
X119816250Y121790000D02*
X115576250Y121790000D01*
X115576250Y124030000D01*
X119816250Y124030000D01*
X119816250Y121790000D01*
%TO.C,D31*%
X114926250Y148610000D02*
X115576250Y148610000D01*
X118976250Y147490000D02*
X118976250Y149730000D01*
X119096250Y147490000D02*
X119096250Y149730000D01*
X119216250Y147490000D02*
X119216250Y149730000D01*
X120466250Y148610000D02*
X119816250Y148610000D01*
X119816250Y147490000D02*
X115576250Y147490000D01*
X115576250Y149730000D01*
X119816250Y149730000D01*
X119816250Y147490000D01*
%TO.C,D28*%
X157988750Y58668571D02*
X157988750Y58018571D01*
X157988750Y53128571D02*
X157988750Y53778571D01*
X159108750Y57418571D02*
X156868750Y57418571D01*
X159108750Y57298571D02*
X156868750Y57298571D01*
X159108750Y57178571D02*
X156868750Y57178571D01*
X159108750Y58018571D02*
X156868750Y58018571D01*
X156868750Y53778571D01*
X159108750Y53778571D01*
X159108750Y58018571D01*
%TO.C,D30*%
X64078750Y40690000D02*
X64728750Y40690000D01*
X68128750Y39570000D02*
X68128750Y41810000D01*
X68248750Y39570000D02*
X68248750Y41810000D01*
X68368750Y39570000D02*
X68368750Y41810000D01*
X69618750Y40690000D02*
X68968750Y40690000D01*
X68968750Y39570000D02*
X64728750Y39570000D01*
X64728750Y41810000D01*
X68968750Y41810000D01*
X68968750Y39570000D01*
%TO.C,D24*%
X102630000Y122910000D02*
X103280000Y122910000D01*
X106680000Y121790000D02*
X106680000Y124030000D01*
X106800000Y121790000D02*
X106800000Y124030000D01*
X106920000Y121790000D02*
X106920000Y124030000D01*
X108170000Y122910000D02*
X107520000Y122910000D01*
X107520000Y121790000D02*
X103280000Y121790000D01*
X103280000Y124030000D01*
X107520000Y124030000D01*
X107520000Y121790000D01*
%TO.C,D23*%
X102630000Y148610000D02*
X103280000Y148610000D01*
X106680000Y147490000D02*
X106680000Y149730000D01*
X106800000Y147490000D02*
X106800000Y149730000D01*
X106920000Y147490000D02*
X106920000Y149730000D01*
X108170000Y148610000D02*
X107520000Y148610000D01*
X107520000Y147490000D02*
X103280000Y147490000D01*
X103280000Y149730000D01*
X107520000Y149730000D01*
X107520000Y147490000D01*
%TO.C,D25*%
X52018750Y40690000D02*
X52668750Y40690000D01*
X56068750Y39570000D02*
X56068750Y41810000D01*
X56188750Y39570000D02*
X56188750Y41810000D01*
X56308750Y39570000D02*
X56308750Y41810000D01*
X57558750Y40690000D02*
X56908750Y40690000D01*
X56908750Y39570000D02*
X52668750Y39570000D01*
X52668750Y41810000D01*
X56908750Y41810000D01*
X56908750Y39570000D01*
%TO.C,D13*%
X78037500Y148610000D02*
X78687500Y148610000D01*
X82087500Y147490000D02*
X82087500Y149730000D01*
X82207500Y147490000D02*
X82207500Y149730000D01*
X82327500Y147490000D02*
X82327500Y149730000D01*
X83577500Y148610000D02*
X82927500Y148610000D01*
X82927500Y147490000D02*
X78687500Y147490000D01*
X78687500Y149730000D01*
X82927500Y149730000D01*
X82927500Y147490000D01*
%TO.C,D22*%
X157988750Y46420000D02*
X157988750Y45770000D01*
X157988750Y40880000D02*
X157988750Y41530000D01*
X159108750Y45170000D02*
X156868750Y45170000D01*
X159108750Y45050000D02*
X156868750Y45050000D01*
X159108750Y44930000D02*
X156868750Y44930000D01*
X159108750Y45770000D02*
X156868750Y45770000D01*
X156868750Y41530000D01*
X159108750Y41530000D01*
X159108750Y45770000D01*
%TO.C,D15*%
X90333750Y122910000D02*
X90983750Y122910000D01*
X94383750Y121790000D02*
X94383750Y124030000D01*
X94503750Y121790000D02*
X94503750Y124030000D01*
X94623750Y121790000D02*
X94623750Y124030000D01*
X95873750Y122910000D02*
X95223750Y122910000D01*
X95223750Y121790000D02*
X90983750Y121790000D01*
X90983750Y124030000D01*
X95223750Y124030000D01*
X95223750Y121790000D01*
%TO.C,D16*%
X90333750Y148610000D02*
X90983750Y148610000D01*
X94383750Y147490000D02*
X94383750Y149730000D01*
X94503750Y147490000D02*
X94503750Y149730000D01*
X94623750Y147490000D02*
X94623750Y149730000D01*
X95873750Y148610000D02*
X95223750Y148610000D01*
X95223750Y147490000D02*
X90983750Y147490000D01*
X90983750Y149730000D01*
X95223750Y149730000D01*
X95223750Y147490000D01*
%TO.C,D8*%
X65741250Y148610000D02*
X66391250Y148610000D01*
X69791250Y147490000D02*
X69791250Y149730000D01*
X69911250Y147490000D02*
X69911250Y149730000D01*
X70031250Y147490000D02*
X70031250Y149730000D01*
X71281250Y148610000D02*
X70631250Y148610000D01*
X70631250Y147490000D02*
X66391250Y147490000D01*
X66391250Y149730000D01*
X70631250Y149730000D01*
X70631250Y147490000D01*
%TO.C,D7*%
X65741250Y122910000D02*
X66391250Y122910000D01*
X69791250Y121790000D02*
X69791250Y124030000D01*
X69911250Y121790000D02*
X69911250Y124030000D01*
X70031250Y121790000D02*
X70031250Y124030000D01*
X71281250Y122910000D02*
X70631250Y122910000D01*
X70631250Y121790000D02*
X66391250Y121790000D01*
X66391250Y124030000D01*
X70631250Y124030000D01*
X70631250Y121790000D01*
%TO.C,D10*%
X78037500Y122910000D02*
X78687500Y122910000D01*
X82087500Y121790000D02*
X82087500Y124030000D01*
X82207500Y121790000D02*
X82207500Y124030000D01*
X82327500Y121790000D02*
X82327500Y124030000D01*
X83577500Y122910000D02*
X82927500Y122910000D01*
X82927500Y121790000D02*
X78687500Y121790000D01*
X78687500Y124030000D01*
X82927500Y124030000D01*
X82927500Y121790000D01*
%TO.C,D2*%
X41148750Y148610000D02*
X41798750Y148610000D01*
X45198750Y147490000D02*
X45198750Y149730000D01*
X45318750Y147490000D02*
X45318750Y149730000D01*
X45438750Y147490000D02*
X45438750Y149730000D01*
X46688750Y148610000D02*
X46038750Y148610000D01*
X46038750Y147490000D02*
X41798750Y147490000D01*
X41798750Y149730000D01*
X46038750Y149730000D01*
X46038750Y147490000D01*
%TO.C,D4*%
X53445000Y148610000D02*
X54095000Y148610000D01*
X57495000Y147490000D02*
X57495000Y149730000D01*
X57615000Y147490000D02*
X57615000Y149730000D01*
X57735000Y147490000D02*
X57735000Y149730000D01*
X58985000Y148610000D02*
X58335000Y148610000D01*
X58335000Y147490000D02*
X54095000Y147490000D01*
X54095000Y149730000D01*
X58335000Y149730000D01*
X58335000Y147490000D01*
%TO.C,D5*%
X53445000Y122910000D02*
X54095000Y122910000D01*
X57495000Y121790000D02*
X57495000Y124030000D01*
X57615000Y121790000D02*
X57615000Y124030000D01*
X57735000Y121790000D02*
X57735000Y124030000D01*
X58985000Y122910000D02*
X58335000Y122910000D01*
X58335000Y121790000D02*
X54095000Y121790000D01*
X54095000Y124030000D01*
X58335000Y124030000D01*
X58335000Y121790000D01*
%TO.C,D101*%
X139458750Y70740000D02*
X140108750Y70740000D01*
X143508750Y69620000D02*
X143508750Y71860000D01*
X143628750Y69620000D02*
X143628750Y71860000D01*
X143748750Y69620000D02*
X143748750Y71860000D01*
X144998750Y70740000D02*
X144348750Y70740000D01*
X144348750Y69620000D02*
X140108750Y69620000D01*
X140108750Y71860000D01*
X144348750Y71860000D01*
X144348750Y69620000D01*
%TO.C,D100*%
X139458750Y96040000D02*
X140108750Y96040000D01*
X143508750Y94920000D02*
X143508750Y97160000D01*
X143628750Y94920000D02*
X143628750Y97160000D01*
X143748750Y94920000D02*
X143748750Y97160000D01*
X144998750Y96040000D02*
X144348750Y96040000D01*
X144348750Y94920000D02*
X140108750Y94920000D01*
X140108750Y97160000D01*
X144348750Y97160000D01*
X144348750Y94920000D01*
%TO.C,D94*%
X127222500Y96040000D02*
X127872500Y96040000D01*
X131272500Y94920000D02*
X131272500Y97160000D01*
X131392500Y94920000D02*
X131392500Y97160000D01*
X131512500Y94920000D02*
X131512500Y97160000D01*
X132762500Y96040000D02*
X132112500Y96040000D01*
X132112500Y94920000D02*
X127872500Y94920000D01*
X127872500Y97160000D01*
X132112500Y97160000D01*
X132112500Y94920000D01*
%TO.C,D93*%
X127222500Y70740000D02*
X127872500Y70740000D01*
X131272500Y69620000D02*
X131272500Y71860000D01*
X131392500Y69620000D02*
X131392500Y71860000D01*
X131512500Y69620000D02*
X131512500Y71860000D01*
X132762500Y70740000D02*
X132112500Y70740000D01*
X132112500Y69620000D02*
X127872500Y69620000D01*
X127872500Y71860000D01*
X132112500Y71860000D01*
X132112500Y69620000D01*
%TO.C,D91*%
X114926250Y70740000D02*
X115576250Y70740000D01*
X118976250Y69620000D02*
X118976250Y71860000D01*
X119096250Y69620000D02*
X119096250Y71860000D01*
X119216250Y69620000D02*
X119216250Y71860000D01*
X120466250Y70740000D02*
X119816250Y70740000D01*
X119816250Y69620000D02*
X115576250Y69620000D01*
X115576250Y71860000D01*
X119816250Y71860000D01*
X119816250Y69620000D01*
%TO.C,D90*%
X114926250Y96040000D02*
X115576250Y96040000D01*
X118976250Y94920000D02*
X118976250Y97160000D01*
X119096250Y94920000D02*
X119096250Y97160000D01*
X119216250Y94920000D02*
X119216250Y97160000D01*
X120466250Y96040000D02*
X119816250Y96040000D01*
X119816250Y94920000D02*
X115576250Y94920000D01*
X115576250Y97160000D01*
X119816250Y97160000D01*
X119816250Y94920000D01*
%TO.C,D84*%
X102630000Y96040000D02*
X103280000Y96040000D01*
X106680000Y94920000D02*
X106680000Y97160000D01*
X106800000Y94920000D02*
X106800000Y97160000D01*
X106920000Y94920000D02*
X106920000Y97160000D01*
X108170000Y96040000D02*
X107520000Y96040000D01*
X107520000Y94920000D02*
X103280000Y94920000D01*
X103280000Y97160000D01*
X107520000Y97160000D01*
X107520000Y94920000D01*
%TO.C,D81*%
X139478750Y40690000D02*
X140128750Y40690000D01*
X143528750Y39570000D02*
X143528750Y41810000D01*
X143648750Y39570000D02*
X143648750Y41810000D01*
X143768750Y39570000D02*
X143768750Y41810000D01*
X145018750Y40690000D02*
X144368750Y40690000D01*
X144368750Y39570000D02*
X140128750Y39570000D01*
X140128750Y41810000D01*
X144368750Y41810000D01*
X144368750Y39570000D01*
%TO.C,D77*%
X90333750Y70740000D02*
X90983750Y70740000D01*
X94383750Y69620000D02*
X94383750Y71860000D01*
X94503750Y69620000D02*
X94503750Y71860000D01*
X94623750Y69620000D02*
X94623750Y71860000D01*
X95873750Y70740000D02*
X95223750Y70740000D01*
X95223750Y69620000D02*
X90983750Y69620000D01*
X90983750Y71860000D01*
X95223750Y71860000D01*
X95223750Y69620000D01*
%TO.C,D78*%
X88308750Y96040000D02*
X88958750Y96040000D01*
X92358750Y94920000D02*
X92358750Y97160000D01*
X92478750Y94920000D02*
X92478750Y97160000D01*
X92598750Y94920000D02*
X92598750Y97160000D01*
X93848750Y96040000D02*
X93198750Y96040000D01*
X93198750Y94920000D02*
X88958750Y94920000D01*
X88958750Y97160000D01*
X93198750Y97160000D01*
X93198750Y94920000D01*
%TO.C,D80*%
X157988750Y132160000D02*
X157988750Y131510000D01*
X157988750Y126620000D02*
X157988750Y127270000D01*
X159108750Y130910000D02*
X156868750Y130910000D01*
X159108750Y130790000D02*
X156868750Y130790000D01*
X159108750Y130670000D02*
X156868750Y130670000D01*
X159108750Y131510000D02*
X156868750Y131510000D01*
X156868750Y127270000D01*
X159108750Y127270000D01*
X159108750Y131510000D01*
%TO.C,D83*%
X102630000Y70740000D02*
X103280000Y70740000D01*
X106680000Y69620000D02*
X106680000Y71860000D01*
X106800000Y69620000D02*
X106800000Y71860000D01*
X106920000Y69620000D02*
X106920000Y71860000D01*
X108170000Y70740000D02*
X107520000Y70740000D01*
X107520000Y69620000D02*
X103280000Y69620000D01*
X103280000Y71860000D01*
X107520000Y71860000D01*
X107520000Y69620000D01*
%TO.C,D71*%
X126848750Y40690000D02*
X127498750Y40690000D01*
X130898750Y39570000D02*
X130898750Y41810000D01*
X131018750Y39570000D02*
X131018750Y41810000D01*
X131138750Y39570000D02*
X131138750Y41810000D01*
X132388750Y40690000D02*
X131738750Y40690000D01*
X131738750Y39570000D02*
X127498750Y39570000D01*
X127498750Y41810000D01*
X131738750Y41810000D01*
X131738750Y39570000D01*
%TO.C,D67*%
X78037500Y70740000D02*
X78687500Y70740000D01*
X82087500Y69620000D02*
X82087500Y71860000D01*
X82207500Y69620000D02*
X82207500Y71860000D01*
X82327500Y69620000D02*
X82327500Y71860000D01*
X83577500Y70740000D02*
X82927500Y70740000D01*
X82927500Y69620000D02*
X78687500Y69620000D01*
X78687500Y71860000D01*
X82927500Y71860000D01*
X82927500Y69620000D01*
%TO.C,D70*%
X157988750Y119911429D02*
X157988750Y119261429D01*
X157988750Y114371429D02*
X157988750Y115021429D01*
X159108750Y118661429D02*
X156868750Y118661429D01*
X159108750Y118541429D02*
X156868750Y118541429D01*
X159108750Y118421429D02*
X156868750Y118421429D01*
X159108750Y119261429D02*
X156868750Y119261429D01*
X156868750Y115021429D01*
X159108750Y115021429D01*
X159108750Y119261429D01*
%TO.C,D68*%
X78037500Y96040000D02*
X78687500Y96040000D01*
X82087500Y94920000D02*
X82087500Y97160000D01*
X82207500Y94920000D02*
X82207500Y97160000D01*
X82327500Y94920000D02*
X82327500Y97160000D01*
X83577500Y96040000D02*
X82927500Y96040000D01*
X82927500Y94920000D02*
X78687500Y94920000D01*
X78687500Y97160000D01*
X82927500Y97160000D01*
X82927500Y94920000D01*
%TO.C,D58*%
X65741250Y70740000D02*
X66391250Y70740000D01*
X69791250Y69620000D02*
X69791250Y71860000D01*
X69911250Y69620000D02*
X69911250Y71860000D01*
X70031250Y69620000D02*
X70031250Y71860000D01*
X71281250Y70740000D02*
X70631250Y70740000D01*
X70631250Y69620000D02*
X66391250Y69620000D01*
X66391250Y71860000D01*
X70631250Y71860000D01*
X70631250Y69620000D01*
%TO.C,D57*%
X65741250Y96040000D02*
X66391250Y96040000D01*
X69791250Y94920000D02*
X69791250Y97160000D01*
X69911250Y94920000D02*
X69911250Y97160000D01*
X70031250Y94920000D02*
X70031250Y97160000D01*
X71281250Y96040000D02*
X70631250Y96040000D01*
X70631250Y94920000D02*
X66391250Y94920000D01*
X66391250Y97160000D01*
X70631250Y97160000D01*
X70631250Y94920000D01*
%TO.C,D64*%
X157988750Y107662857D02*
X157988750Y107012857D01*
X157988750Y102122857D02*
X157988750Y102772857D01*
X159108750Y106412857D02*
X156868750Y106412857D01*
X159108750Y106292857D02*
X156868750Y106292857D01*
X159108750Y106172857D02*
X156868750Y106172857D01*
X159108750Y107012857D02*
X156868750Y107012857D01*
X156868750Y102772857D01*
X159108750Y102772857D01*
X159108750Y107012857D01*
%TO.C,D65*%
X114148750Y40690000D02*
X114798750Y40690000D01*
X118198750Y39570000D02*
X118198750Y41810000D01*
X118318750Y39570000D02*
X118318750Y41810000D01*
X118438750Y39570000D02*
X118438750Y41810000D01*
X119688750Y40690000D02*
X119038750Y40690000D01*
X119038750Y39570000D02*
X114798750Y39570000D01*
X114798750Y41810000D01*
X119038750Y41810000D01*
X119038750Y39570000D01*
%TO.C,D54*%
X157988750Y95414286D02*
X157988750Y94764286D01*
X157988750Y89874286D02*
X157988750Y90524286D01*
X159108750Y94164286D02*
X156868750Y94164286D01*
X159108750Y94044286D02*
X156868750Y94044286D01*
X159108750Y93924286D02*
X156868750Y93924286D01*
X159108750Y94764286D02*
X156868750Y94764286D01*
X156868750Y90524286D01*
X159108750Y90524286D01*
X159108750Y94764286D01*
%TO.C,D52*%
X139458750Y148610000D02*
X140108750Y148610000D01*
X143508750Y147490000D02*
X143508750Y149730000D01*
X143628750Y147490000D02*
X143628750Y149730000D01*
X143748750Y147490000D02*
X143748750Y149730000D01*
X144998750Y148610000D02*
X144348750Y148610000D01*
X144348750Y147490000D02*
X140108750Y147490000D01*
X140108750Y149730000D01*
X144348750Y149730000D01*
X144348750Y147490000D01*
%TO.C,D48*%
X157988750Y83165714D02*
X157988750Y82515714D01*
X157988750Y77625714D02*
X157988750Y78275714D01*
X159108750Y81915714D02*
X156868750Y81915714D01*
X159108750Y81795714D02*
X156868750Y81795714D01*
X159108750Y81675714D02*
X156868750Y81675714D01*
X159108750Y82515714D02*
X156868750Y82515714D01*
X156868750Y78275714D01*
X159108750Y78275714D01*
X159108750Y82515714D01*
%TO.C,D49*%
X139458750Y122910000D02*
X140108750Y122910000D01*
X143508750Y121790000D02*
X143508750Y124030000D01*
X143628750Y121790000D02*
X143628750Y124030000D01*
X143748750Y121790000D02*
X143748750Y124030000D01*
X144998750Y122910000D02*
X144348750Y122910000D01*
X144348750Y121790000D02*
X140108750Y121790000D01*
X140108750Y124030000D01*
X144348750Y124030000D01*
X144348750Y121790000D01*
%TO.C,D55*%
X102038750Y40690000D02*
X102688750Y40690000D01*
X106088750Y39570000D02*
X106088750Y41810000D01*
X106208750Y39570000D02*
X106208750Y41810000D01*
X106328750Y39570000D02*
X106328750Y41810000D01*
X107578750Y40690000D02*
X106928750Y40690000D01*
X106928750Y39570000D02*
X102688750Y39570000D01*
X102688750Y41810000D01*
X106928750Y41810000D01*
X106928750Y39570000D01*
%TO.C,D50*%
X89168750Y40690000D02*
X89818750Y40690000D01*
X93218750Y39570000D02*
X93218750Y41810000D01*
X93338750Y39570000D02*
X93338750Y41810000D01*
X93458750Y39570000D02*
X93458750Y41810000D01*
X94708750Y40690000D02*
X94058750Y40690000D01*
X94058750Y39570000D02*
X89818750Y39570000D01*
X89818750Y41810000D01*
X94058750Y41810000D01*
X94058750Y39570000D01*
%TO.C,R13*%
X72940178Y174845000D02*
X72940178Y173895000D01*
X72940178Y169105000D02*
X72940178Y170055000D01*
X73860178Y173895000D02*
X72020178Y173895000D01*
X72020178Y170055000D01*
X73860178Y170055000D01*
X73860178Y173895000D01*
%TO.C,R14*%
X65971606Y174845000D02*
X65971606Y173895000D01*
X65971606Y169105000D02*
X65971606Y170055000D01*
X66891606Y173895000D02*
X65051606Y173895000D01*
X65051606Y170055000D01*
X66891606Y170055000D01*
X66891606Y173895000D01*
%TO.C,R16*%
X52034463Y174845000D02*
X52034463Y173895000D01*
X52034463Y169105000D02*
X52034463Y170055000D01*
X52954463Y173895000D02*
X51114463Y173895000D01*
X51114463Y170055000D01*
X52954463Y170055000D01*
X52954463Y173895000D01*
%TO.C,R17*%
X45065892Y174845000D02*
X45065892Y173895000D01*
X45065892Y169105000D02*
X45065892Y170055000D01*
X45985892Y173895000D02*
X44145892Y173895000D01*
X44145892Y170055000D01*
X45985892Y170055000D01*
X45985892Y173895000D01*
%TO.C,R15*%
X59003035Y174845000D02*
X59003035Y173895000D01*
X59003035Y169105000D02*
X59003035Y170055000D01*
X59923035Y173895000D02*
X58083035Y173895000D01*
X58083035Y170055000D01*
X59923035Y170055000D01*
X59923035Y173895000D01*
%TO.C,R12*%
X79908749Y174845000D02*
X79908749Y173895000D01*
X79908749Y169105000D02*
X79908749Y170055000D01*
X80828749Y173895000D02*
X78988749Y173895000D01*
X78988749Y170055000D01*
X80828749Y170055000D01*
X80828749Y173895000D01*
%TO.C,R9*%
X100814463Y174845000D02*
X100814463Y173895000D01*
X100814463Y169105000D02*
X100814463Y170055000D01*
X101734463Y173895000D02*
X99894463Y173895000D01*
X99894463Y170055000D01*
X101734463Y170055000D01*
X101734463Y173895000D01*
%TO.C,R7*%
X114751606Y174845000D02*
X114751606Y173895000D01*
X114751606Y169105000D02*
X114751606Y170055000D01*
X115671606Y173895000D02*
X113831606Y173895000D01*
X113831606Y170055000D01*
X115671606Y170055000D01*
X115671606Y173895000D01*
%TO.C,R5*%
X128688749Y174845000D02*
X128688749Y173895000D01*
X128688749Y169105000D02*
X128688749Y170055000D01*
X129608749Y173895000D02*
X127768749Y173895000D01*
X127768749Y170055000D01*
X129608749Y170055000D01*
X129608749Y173895000D01*
%TO.C,R4*%
X135657321Y174845000D02*
X135657321Y173895000D01*
X135657321Y169105000D02*
X135657321Y170055000D01*
X136577321Y173895000D02*
X134737321Y173895000D01*
X134737321Y170055000D01*
X136577321Y170055000D01*
X136577321Y173895000D01*
%TO.C,R6*%
X121720178Y174845000D02*
X121720178Y173895000D01*
X121720178Y169105000D02*
X121720178Y170055000D01*
X122640178Y173895000D02*
X120800178Y173895000D01*
X120800178Y170055000D01*
X122640178Y170055000D01*
X122640178Y173895000D01*
%TO.C,R10*%
X93845892Y174845000D02*
X93845892Y173895000D01*
X93845892Y169105000D02*
X93845892Y170055000D01*
X94765892Y173895000D02*
X92925892Y173895000D01*
X92925892Y170055000D01*
X94765892Y170055000D01*
X94765892Y173895000D01*
%TO.C,R11*%
X86877321Y174845000D02*
X86877321Y173895000D01*
X86877321Y169105000D02*
X86877321Y170055000D01*
X87797321Y173895000D02*
X85957321Y173895000D01*
X85957321Y170055000D01*
X87797321Y170055000D01*
X87797321Y173895000D01*
%TO.C,R8*%
X107783035Y174845000D02*
X107783035Y173895000D01*
X107783035Y169105000D02*
X107783035Y170055000D01*
X108703035Y173895000D02*
X106863035Y173895000D01*
X106863035Y170055000D01*
X108703035Y170055000D01*
X108703035Y173895000D01*
%TO.C,R3*%
X142625892Y174845000D02*
X142625892Y173895000D01*
X142625892Y169105000D02*
X142625892Y170055000D01*
X143545892Y173895000D02*
X141705892Y173895000D01*
X141705892Y170055000D01*
X143545892Y170055000D01*
X143545892Y173895000D01*
%TD*%
M02*
